<?xml version="1.0" encoding="UTF-8"?>
<svg width="86px" height="86px" viewBox="0 0 86 86" version="1.1" xmlns="http://www.w3.org/2000/svg" xmlns:xlink="http://www.w3.org/1999/xlink">
    <!-- Generator: Sketch 59.1 (86144) - https://sketch.com -->
    <title>编组 17</title>
    <desc>Created with Sketch.</desc>
    <defs>
        <polygon id="path-1" points="0 0.359610979 16.9202285 0.359610979 16.9202285 17.28 0 17.28"></polygon>
    </defs>
    <g id="组件" stroke="none" stroke-width="1" fill="none" fill-rule="evenodd">
        <g id="编组-17">
            <g id="编组-28" fill="#FFFFFF" stroke="#E7E7E7" stroke-width="0.5">
                <rect id="矩形备份-18" x="0.25" y="0.25" width="85.5" height="85.5" rx="42.75"></rect>
            </g>
            <g id="编组" transform="translate(8.000000, 34.000000)">
                <path d="M37.22904,8.163648 C36.04032,8.163648 35.21304,8.959968 35.21304,10.461888 C35.21304,11.927808 36.00576,12.760128 37.2456,12.760128 C38.48616,12.760128 39.27888,11.927808 39.27888,10.461888 C39.27888,8.995968 38.48616,8.163648 37.22904,8.163648 L37.22904,8.163648 Z M63.44712,4.713408 L63.44712,9.150048 L64.0224,9.150048 L65.95632,6.369408 L68.3352,6.369408 L65.7216,10.337328 L68.57064,14.867568 L66.11328,14.867568 L63.94392,11.400048 L63.44712,11.400048 L63.44712,14.867568 L61.43472,14.867568 L61.43472,4.713408 L63.44712,4.713408 Z M55.85832,6.963408 C57.8448,6.963408 59.02704,7.910928 59.09688,9.368928 L59.10048,9.507168 L59.10048,14.930208 L57.03552,14.930208 L57.03552,10.210608 C57.03552,9.491328 56.63232,9.011088 55.85832,9.011088 C55.12392,9.011088 54.72432,9.441648 54.684,10.099008 L54.6804,10.210608 L54.6804,14.930208 L52.61544,14.930208 L52.61544,9.507168 C52.61544,7.971408 53.8092,6.963408 55.85832,6.963408 L55.85832,6.963408 Z M48.21696,14.930208 L50.28192,14.930208 L50.28192,7.155648 L48.21696,7.155648 L48.21696,14.930208 Z M43.81848,14.930208 L45.88344,14.930208 L45.88344,3.732048 L43.81848,3.732048 L43.81848,14.930208 Z M26.60904,3.540528 C29.27088,3.540528 30.67416,5.395968 30.67416,7.603488 L30.67416,14.930208 L28.15776,14.930208 L28.15776,10.898928 L25.70616,10.898928 L25.70616,8.723088 L28.15776,8.723088 L28.15776,7.171488 C28.15776,6.403968 27.75456,5.715648 26.60904,5.715648 C25.46424,5.715648 25.07688,6.403968 25.07688,7.171488 L25.07688,14.930208 L22.56048,14.930208 L22.56048,7.603488 C22.56048,5.331888 24.01272,3.540528 26.60904,3.540528 L26.60904,3.540528 Z M37.2456,5.847408 C39.77856,5.847408 41.48352,7.838208 41.48352,10.461888 C41.48352,13.050288 39.79512,15.076368 37.2456,15.076368 C34.74864,15.076368 33.0084,13.104288 33.0084,10.461888 C33.0084,7.802208 34.74864,5.847408 37.2456,5.847408 L37.2456,5.847408 Z" id="Fill-1" fill="#000000"></path>
                <path d="M37.22904,8.163648 C36.04032,8.163648 35.21304,8.959968 35.21304,10.461888 C35.21304,11.927808 36.00576,12.760128 37.2456,12.760128 C38.48616,12.760128 39.27888,11.927808 39.27888,10.461888 C39.27888,8.995968 38.48616,8.163648 37.22904,8.163648 Z M63.44712,4.713408 L63.44712,9.150048 L64.0224,9.150048 L65.95632,6.369408 L68.3352,6.369408 L65.7216,10.337328 L68.57064,14.867568 L66.11328,14.867568 L63.94392,11.400048 L63.44712,11.400048 L63.44712,14.867568 L61.43472,14.867568 L61.43472,4.713408 L63.44712,4.713408 Z M55.85832,6.963408 C57.8448,6.963408 59.02704,7.910928 59.09688,9.368928 L59.10048,9.507168 L59.10048,14.930208 L57.03552,14.930208 L57.03552,10.210608 C57.03552,9.491328 56.63232,9.011088 55.85832,9.011088 C55.12392,9.011088 54.72432,9.441648 54.684,10.099008 L54.6804,10.210608 L54.6804,14.930208 L52.61544,14.930208 L52.61544,9.507168 C52.61544,7.971408 53.8092,6.963408 55.85832,6.963408 Z M48.21696,14.930208 L50.28192,14.930208 L50.28192,7.155648 L48.21696,7.155648 L48.21696,14.930208 Z M43.81848,14.930208 L45.88344,14.930208 L45.88344,3.732048 L43.81848,3.732048 L43.81848,14.930208 Z M26.60904,3.540528 C29.27088,3.540528 30.67416,5.395968 30.67416,7.603488 L30.67416,14.930208 L28.15776,14.930208 L28.15776,10.898928 L25.70616,10.898928 L25.70616,8.723088 L28.15776,8.723088 L28.15776,7.171488 C28.15776,6.403968 27.75456,5.715648 26.60904,5.715648 C25.46424,5.715648 25.07688,6.403968 25.07688,7.171488 L25.07688,14.930208 L22.56048,14.930208 L22.56048,7.603488 C22.56048,5.331888 24.01272,3.540528 26.60904,3.540528 Z M37.2456,5.847408 C39.77856,5.847408 41.48352,7.838208 41.48352,10.461888 C41.48352,13.050288 39.79512,15.076368 37.2456,15.076368 C34.74864,15.076368 33.0084,13.104288 33.0084,10.461888 C33.0084,7.802208 34.74864,5.847408 37.2456,5.847408 Z" id="Stroke-3" stroke="#000000" stroke-width="0.5"></path>
                <path d="M47.747088,4.812552 C47.747088,5.688072 48.339648,6.176952 49.112208,6.176952 C49.883328,6.176952 50.475888,5.688072 50.475888,4.812552 C50.475888,3.937032 49.883328,3.448152 49.112208,3.448152 C48.339648,3.448152 47.747088,3.937032 47.747088,4.812552" id="Fill-5" fill="#E3007F"></path>
                <path d="M47.747088,4.812552 C47.747088,5.688072 48.339648,6.176952 49.112208,6.176952 C49.883328,6.176952 50.475888,5.688072 50.475888,4.812552 C50.475888,3.937032 49.883328,3.448152 49.112208,3.448152 C48.339648,3.448152 47.747088,3.937032 47.747088,4.812552 Z" id="Stroke-7" stroke="#E3007F" stroke-width="0.5"></path>
                <g transform="translate(0.000000, 0.360432)">
                    <mask id="mask-2" fill="white">
                        <use xlink:href="#path-1"></use>
                    </mask>
                    <g id="Clip-10"></g>
                    <path d="M10.148544,12.404808 C9.842544,12.610008 9.563904,12.815208 9.267984,12.992328 C8.570304,13.409928 7.807824,13.534488 7.007184,13.422888 C6.193584,13.308408 5.488704,12.972888 4.935024,12.359448 C4.454784,11.825928 4.173984,11.195928 4.050864,10.499688 C3.785184,8.994168 4.053024,7.583688 4.906224,6.307848 C5.562864,5.326488 6.452064,4.626648 7.629264,4.349448 C8.416944,4.163688 9.195264,4.206168 9.934704,4.573368 C10.256544,4.732488 10.499904,4.969368 10.640304,5.302728 C10.648944,5.324328 10.669824,5.340168 10.700784,5.379048 C10.742544,5.260248 10.777104,5.158008 10.813104,5.055768 C10.927584,4.738968 11.159424,4.564008 11.493504,4.537368 C11.715984,4.518648 11.942064,4.522248 12.165984,4.529448 C12.754224,4.550328 13.100544,4.983768 12.978144,5.556168 C12.682224,6.942888 12.370464,8.326008 12.083904,9.714168 C12.012624,10.061208 11.992464,10.421928 11.983104,10.776888 C11.974464,11.150568 12.203424,11.357928 12.581424,11.350728 C13.105584,11.339928 13.498704,11.081448 13.814064,10.686888 C14.211504,10.191528 14.406624,9.607608 14.508144,8.998488 C14.689584,7.915608 14.660064,6.834168 14.257584,5.799528 C13.669344,4.286808 12.554064,3.327768 10.985904,2.876328 C10.122624,2.627928 9.239904,2.537208 8.347824,2.593368 C6.296544,2.720088 4.652064,3.583368 3.524544,5.309208 C2.992464,6.124248 2.694384,7.032168 2.582064,8.000568 C2.460384,9.046728 2.510064,10.081368 2.841264,11.082888 C3.445344,12.910968 4.677984,14.141448 6.525504,14.757048 C7.183584,14.975928 7.861824,15.071688 8.555184,15.104088 C9.653184,15.155208 10.723824,15.032808 11.767104,14.685768 C11.849184,14.658408 11.930544,14.628168 12.009744,14.593608 C12.281904,14.474808 12.528144,14.530248 12.731904,14.726808 C13.072464,15.055848 13.240944,15.462648 13.223664,15.936408 C13.209984,16.307208 13.007664,16.528968 12.657744,16.650648 C11.679984,16.994088 10.674864,17.184168 9.639504,17.251128 C8.482464,17.326728 7.339824,17.260488 6.215184,16.977528 C4.629744,16.577928 3.249504,15.814728 2.139264,14.616648 C1.120464,13.517928 0.499824,12.213288 0.192384,10.757448 C0.025344,9.963288 -0.030816,9.159048 0.015264,8.352648 C0.119664,6.531768 0.742464,4.899528 1.920384,3.489768 C3.153744,2.015208 4.726944,1.064808 6.600384,0.607608 C7.685424,0.343368 8.786304,0.302328 9.897984,0.427608 C11.097504,0.562968 12.232944,0.903528 13.284144,1.481688 C15.122304,2.491128 16.303104,4.007448 16.749504,6.050808 C16.947504,6.958008 16.962624,7.878168 16.849584,8.803368 C16.730784,9.777528 16.428384,10.680408 15.889104,11.505528 C15.235344,12.507048 14.315184,13.138488 13.140864,13.372488 C12.448944,13.510008 11.744784,13.531608 11.068704,13.245048 C10.725984,13.099608 10.464624,12.863448 10.257984,12.561768 C10.220544,12.507048 10.180944,12.451608 10.148544,12.404808 M6.382224,9.470088 C6.400224,9.648648 6.406704,9.858888 6.445584,10.062648 C6.521184,10.460808 6.650784,10.838808 6.997104,11.095128 C7.453584,11.432088 8.298864,11.357208 8.807184,10.963368 C9.296064,10.584648 9.599184,10.088568 9.785664,9.516888 C10.037664,8.744328 10.157184,7.963128 9.885024,7.167528 C9.749664,6.770808 9.496944,6.461208 9.078624,6.370488 C8.467344,6.238008 7.909344,6.373368 7.447104,6.822648 C6.706224,7.543368 6.439824,8.446968 6.382224,9.470088" id="Fill-9" fill="#004BF2" mask="url(#mask-2)"></path>
                </g>
            </g>
        </g>
    </g>
</svg>