<?xml version="1.0" encoding="UTF-8"?>
<svg width="87px" height="86px" viewBox="0 0 87 86" version="1.1" xmlns="http://www.w3.org/2000/svg" xmlns:xlink="http://www.w3.org/1999/xlink">
    <!-- Generator: Sketch 59.1 (86144) - https://sketch.com -->
    <title>编组 3</title>
    <desc>Created with Sketch.</desc>
    <defs>
        <polygon id="path-1" points="0 0.305090909 37.7697924 0.305090909 37.7697924 59.2726545 0 59.2726545"></polygon>
        <path d="M0.0040173913,3.5082 L0.00657391304,16.70328 C0.127095652,22.28472 4.7565913,26.77212 10.4499652,26.77212 L10.4499652,26.77212 C16.2189391,26.77212 20.8955478,22.16412 20.8955478,16.48008 L20.8955478,16.48008 C20.8955478,10.79568 16.2189391,6.18768 10.4499652,6.18768 L10.4499652,6.18768 C9.14029565,6.18768 7.88686957,6.42528 6.73168696,6.85872 L6.73168696,6.85872 L7.21267826,4.36572 C7.25102609,4.15836 7.27038261,3.94452 7.27038261,3.72636 L7.27038261,3.72636 C7.27038261,1.7496 5.64370435,0.14652 3.63756522,0.14652 L3.63756522,0.14652 C1.7052,0.14652 0.118330435,1.6326 0.0040173913,3.5082 M1.59344348,3.72636 C1.59344348,2.61432 2.50831304,1.71288 3.63756522,1.71288 L3.63756522,1.71288 C4.76608696,1.71288 5.68095652,2.61432 5.68095652,3.72636 L5.68095652,3.72636 C5.68095652,4.8384 4.76608696,5.7402 3.63756522,5.7402 L3.63756522,5.7402 C2.50831304,5.7402 1.59344348,4.8384 1.59344348,3.72636 M4.99982609,16.48008 C4.99982609,13.51404 7.43984348,11.10996 10.4499652,11.10996 L10.4499652,11.10996 C13.4597217,11.10996 15.8997391,13.51404 15.8997391,16.48008 L15.8997391,16.48008 C15.8997391,19.44576 13.4597217,21.84984 10.4499652,21.84984 L10.4499652,21.84984 C7.43984348,21.84984 4.99982609,19.44576 4.99982609,16.48008" id="path-3"></path>
        <linearGradient x1="50.0001454%" y1="42.6514173%" x2="50.0001454%" y2="100.000578%" id="linearGradient-5">
            <stop stop-color="#333333" offset="0%"></stop>
            <stop stop-color="#060102" offset="100%"></stop>
        </linearGradient>
    </defs>
    <g id="组件" stroke="none" stroke-width="1" fill="none" fill-rule="evenodd">
        <g id="编组-3" transform="translate(0.400000, 0.000000)">
            <rect id="矩形" stroke="#E7E7E7" stroke-width="0.5" fill="#FFFFFF" x="0.25" y="0.25" width="85.5" height="85.5" rx="42.75"></rect>
            <g id="编组" transform="translate(23.600000, 16.000000)">
                <g>
                    <mask id="mask-2" fill="white">
                        <use xlink:href="#path-1"></use>
                    </mask>
                    <g id="Clip-2"></g>
                    <path d="M19.6767619,46.996 L22.1612381,46.996 L22.1612381,43.8687273 L19.6767619,43.8687273 L19.6767619,46.996 Z M22.2459238,39.9414545 L23.4340571,39.9414545 C23.4854476,39.9414545 23.5270667,39.9836364 23.5270667,40.0352727 L23.5270667,42.4890909 L24.5657333,42.4890909 C24.6174857,42.4890909 24.6591048,42.5309091 24.6591048,42.5825455 L24.6591048,43.7749091 C24.6591048,43.8265455 24.6174857,43.8687273 24.5657333,43.8687273 L23.5270667,43.8687273 L23.5270667,47.6269091 C23.5270667,48.0403636 23.1933905,48.3756364 22.7822667,48.3756364 L18.3869333,48.3756364 C18.3355429,48.3756364 18.2939238,48.3334545 18.2939238,48.2818182 L18.2939238,43.8687273 L15.8470857,43.8687273 L15.8470857,49.9916364 C15.8470857,50.0432727 15.8890667,50.0850909 15.9404571,50.0850909 L24.5657333,50.0850909 C24.6174857,50.0850909 24.6591048,50.1272727 24.6591048,50.1789091 L24.6591048,51.3712727 C24.6591048,51.4229091 24.6174857,51.4647273 24.5657333,51.4647273 L15.2177333,51.4647273 C14.8062476,51.4647273 14.4732952,51.1294545 14.4732952,50.7163636 L14.4732952,43.8687273 L13.4281143,43.8687273 C13.3763619,43.8687273 13.3347429,43.8265455 13.3347429,43.7749091 L13.3347429,42.5825455 C13.3347429,42.5309091 13.3763619,42.4890909 13.4281143,42.4890909 L14.4732952,42.4890909 L14.4732952,40.0352727 C14.4732952,39.9836364 14.5149143,39.9414545 14.5659429,39.9414545 L15.7544381,39.9414545 C15.8054667,39.9414545 15.8470857,39.9836364 15.8470857,40.0352727 L15.8470857,42.4890909 L18.2939238,42.4890909 L18.2939238,40.0352727 C18.2939238,39.9836364 18.3355429,39.9414545 18.3872952,39.9414545 L19.5750667,39.9414545 C19.626819,39.9414545 19.6684381,39.9836364 19.6684381,40.0352727 L19.6684381,42.4890909 L22.1529143,42.4890909 L22.1529143,40.0352727 C22.1529143,39.9836364 22.1945333,39.9414545 22.2459238,39.9414545 L22.2459238,39.9414545 Z" id="Fill-1" fill="#060101" mask="url(#mask-2)"></path>
                    <path d="M6.37303429,41.3359273 L6.37303429,43.1941091 L10.78212,43.1941091 C10.8331486,43.1941091 10.8747676,43.2359273 10.8747676,43.2875636 L10.8747676,49.3428364 C10.8747676,49.7559273 10.5414533,50.0912 10.1299676,50.0912 L8.38124381,50.0912 C8.32985333,50.0912 8.28823429,50.0493818 8.28823429,49.9977455 L8.28823429,48.9886545 C8.28823429,48.9370182 8.32985333,48.8952 8.38124381,48.8952 L9.40760571,48.8952 C9.45899619,48.8952 9.50097714,48.8530182 9.50097714,48.8013818 L9.50097714,44.6672 C9.50097714,44.6155636 9.45899619,44.5737455 9.40760571,44.5737455 L6.37303429,44.5737455 L6.37303429,51.3777455 C6.37303429,51.4293818 6.33141524,51.4712 6.27966286,51.4712 L5.09152952,51.4712 C5.04013905,51.4712 4.99852,51.4293818 4.99852,51.3777455 L4.99852,44.5737455 L1.87093905,44.5737455 L1.87093905,49.9977455 C1.87093905,50.0493818 1.8289581,50.0912 1.77756762,50.0912 L0.58979619,50.0912 C0.53804381,50.0912 0.496424762,50.0493818 0.496424762,49.9977455 L0.496424762,43.2875636 C0.496424762,43.2359273 0.53804381,43.1941091 0.58979619,43.1941091 L4.99852,43.1941091 L4.99852,41.3359273 L0.0929009524,41.3359273 C0.041872381,41.3359273 0.000253333335,41.2941091 0.000253333335,41.2424727 L0.000253333335,40.0352 C0.000253333335,39.9835636 0.041872381,39.9417455 0.0929009524,39.9417455 L11.2489771,39.9417455 C11.3003676,39.9417455 11.3419867,39.9835636 11.3419867,40.0352 L11.3419867,41.2424727 C11.3419867,41.2941091 11.3003676,41.3359273 11.2489771,41.3359273 L6.37303429,41.3359273 Z" id="Fill-3" fill="#060101" mask="url(#mask-2)"></path>
                    <path d="M32.8088381,45.0545455 L35.6787429,45.0545455 L35.6787429,43.8687273 L32.8088381,43.8687273 L32.8088381,45.0545455 Z M28.564781,45.0545455 L31.4346857,45.0545455 L31.4346857,43.8687273 L28.564781,43.8687273 L28.564781,45.0545455 Z M32.8092,42.4890909 L35.6791048,42.4890909 L35.6791048,41.3210909 L32.8092,41.3210909 L32.8092,42.4890909 Z M28.564781,42.4890909 L31.4346857,42.4890909 L31.4346857,41.3210909 L28.564781,41.3210909 L28.564781,42.4890909 Z M34.9071619,46.4338182 C35.758,47.0996364 36.6707238,47.6894545 37.6348381,48.1934545 C37.6536571,48.2036364 37.6797143,48.2167273 37.7115619,48.2334545 C37.7426857,48.2494545 37.7622286,48.2814545 37.7622286,48.3167273 L37.7622286,49.6530909 C37.7622286,49.704 37.7213333,49.7454545 37.6703048,49.7454545 C37.6569143,49.7454545 37.6435238,49.7421818 37.631219,49.7363636 C36.8632571,49.3705455 36.1231619,48.9552727 35.4152762,48.4941818 L35.4152762,51.3741818 C35.4152762,51.4258182 35.3736571,51.468 35.3222667,51.468 L34.1301524,51.468 C34.0787619,51.468 34.0371429,51.4258182 34.0371429,51.3741818 L34.0371429,47.5069091 C33.6046667,47.1669091 33.1870286,46.8090909 32.7853143,46.4338182 L31.4846286,46.4338182 C31.0912381,46.8156364 30.6808381,47.1803636 30.2556,47.5272727 C30.2270095,48.8338182 30.0377333,50.0509091 29.7073143,51.2625455 C29.6982667,51.296 29.6856,51.3418182 29.6689524,51.4 C29.6577333,51.44 29.621181,51.468 29.5795619,51.468 L28.3356952,51.468 C28.2843048,51.468 28.2423238,51.4258182 28.2423238,51.3741818 C28.2423238,51.3647273 28.2437714,51.3556364 28.2466667,51.3465455 C28.2571619,51.3127273 28.2658476,51.2847273 28.2727238,51.2621818 C28.5358286,50.3916364 28.7178667,49.5134545 28.8105143,48.5978182 C28.0906857,49.0803636 27.3364762,49.5152727 26.5522286,49.8981818 C26.512781,49.9174545 26.4657333,49.9010909 26.4469143,49.8618182 C26.4414857,49.8509091 26.4389524,49.8392727 26.4389524,49.8272727 L26.4389524,48.4618182 C26.4389524,48.4272727 26.4581333,48.3956364 26.4885333,48.3792727 C26.5145905,48.3654545 26.5359429,48.3541818 26.5518667,48.3458182 C27.5677333,47.8007273 28.5249714,47.1592727 29.4109143,46.4338182 L27.2836381,46.4338182 C27.2322476,46.4338182 27.1906286,46.392 27.1906286,46.3403636 L27.1906286,40.0352727 C27.1906286,39.9836364 27.2322476,39.9414545 27.2836381,39.9414545 L36.9598857,39.9414545 C37.0116381,39.9414545 37.0532571,39.9836364 37.0532571,40.0352727 L37.0532571,45.6854545 C37.0532571,46.0985455 36.719581,46.4338182 36.3084571,46.4338182 L34.9071619,46.4338182 Z" id="Fill-4" fill="#060101" mask="url(#mask-2)"></path>
                    <path d="M6.29493524,0.304981818 L31.474821,0.304981818 C34.95164,0.304981818 37.7697924,3.13698182 37.7697924,6.63007273 L37.7697924,31.9304364 C37.7697924,35.4235273 34.95164,38.2555273 31.474821,38.2555273 L6.29493524,38.2555273 C2.8184781,38.2555273 -3.61904762e-05,35.4235273 -3.61904762e-05,31.9304364 L-3.61904762e-05,6.63007273 C-3.61904762e-05,3.13698182 2.8184781,0.304981818 6.29493524,0.304981818" id="Fill-5" fill="#FEFEFE" mask="url(#mask-2)"></path>
                </g>
                <g transform="translate(8.000000, 5.000000)">
                    <mask id="mask-4" fill="white">
                        <use xlink:href="#path-3"></use>
                    </mask>
                    <g id="Clip-7"></g>
                    <path d="M0.0040173913,3.5082 L0.00657391304,16.70328 C0.127095652,22.28472 4.7565913,26.77212 10.4499652,26.77212 L10.4499652,26.77212 C16.2189391,26.77212 20.8955478,22.16412 20.8955478,16.48008 L20.8955478,16.48008 C20.8955478,10.79568 16.2189391,6.18768 10.4499652,6.18768 L10.4499652,6.18768 C9.14029565,6.18768 7.88686957,6.42528 6.73168696,6.85872 L6.73168696,6.85872 L7.21267826,4.36572 C7.25102609,4.15836 7.27038261,3.94452 7.27038261,3.72636 L7.27038261,3.72636 C7.27038261,1.7496 5.64370435,0.14652 3.63756522,0.14652 L3.63756522,0.14652 C1.7052,0.14652 0.118330435,1.6326 0.0040173913,3.5082 M1.59344348,3.72636 C1.59344348,2.61432 2.50831304,1.71288 3.63756522,1.71288 L3.63756522,1.71288 C4.76608696,1.71288 5.68095652,2.61432 5.68095652,3.72636 L5.68095652,3.72636 C5.68095652,4.8384 4.76608696,5.7402 3.63756522,5.7402 L3.63756522,5.7402 C2.50831304,5.7402 1.59344348,4.8384 1.59344348,3.72636 M4.99982609,16.48008 C4.99982609,13.51404 7.43984348,11.10996 10.4499652,11.10996 L10.4499652,11.10996 C13.4597217,11.10996 15.8997391,13.51404 15.8997391,16.48008 L15.8997391,16.48008 C15.8997391,19.44576 13.4597217,21.84984 10.4499652,21.84984 L10.4499652,21.84984 C7.43984348,21.84984 4.99982609,19.44576 4.99982609,16.48008" id="Fill-6" fill="url(#linearGradient-5)" mask="url(#mask-4)"></path>
                </g>
            </g>
        </g>
    </g>
</svg>