<?xml version="1.0" encoding="UTF-8"?>
<svg width="87px" height="86px" viewBox="0 0 87 86" version="1.1" xmlns="http://www.w3.org/2000/svg" xmlns:xlink="http://www.w3.org/1999/xlink">
    <!-- Generator: Sketch 59.1 (86144) - https://sketch.com -->
    <title>编组 5</title>
    <desc>Created with Sketch.</desc>
    <g id="组件" stroke="none" stroke-width="1" fill="none" fill-rule="evenodd">
        <g id="编组-5" transform="translate(0.600000, 0.000000)">
            <g id="编组-22" fill="#FFFFFF" stroke="#E7E7E7" stroke-width="0.5">
                <rect id="矩形备份-12" x="0.25" y="0.25" width="85.5" height="85.5" rx="42.75"></rect>
            </g>
            <g id="编组" transform="translate(12.900000, 32.000000)">
                <path d="M15.1666667,2.55555556 C14.4303111,2.55555556 13.8333333,3.12765926 13.8333333,3.83333333 L13.8333333,8.94444444 C13.8333333,9.65011852 14.4303111,10.2222222 15.1666667,10.2222222 C15.9030222,10.2222222 16.5,9.65011852 16.5,8.94444444 L16.5,3.83333333 C16.5,3.12765926 15.9030222,2.55555556 15.1666667,2.55555556 M15.1666667,12.7777778 C14.4303111,12.7777778 13.8333333,13.3498815 13.8333333,14.0555556 L13.8333333,19.1666667 C13.8333333,19.8723407 14.4303111,20.4444444 15.1666667,20.4444444 C15.9030222,20.4444444 16.5,19.8723407 16.5,19.1666667 L16.5,14.0555556 C16.5,13.3498815 15.9030222,12.7777778 15.1666667,12.7777778 M10.7222222,15.3333333 C9.98586667,15.3333333 9.38888889,15.905437 9.38888889,16.6111111 L9.38888889,21.7222222 C9.38888889,22.4278963 9.98586667,23 10.7222222,23 C11.4585778,23 12.0555556,22.4278963 12.0555556,21.7222222 L12.0555556,16.6111111 C12.0555556,15.905437 11.4585778,15.3333333 10.7222222,15.3333333 M10.7222222,0 C9.98586667,0 9.38888889,0.572103704 9.38888889,1.27777778 L9.38888889,11.5 C9.38888889,12.2056741 9.98586667,12.7777778 10.7222222,12.7777778 C11.4585778,12.7777778 12.0555556,12.2056741 12.0555556,11.5 L12.0555556,1.27777778 C12.0555556,0.572103704 11.4585778,0 10.7222222,0 M6.27777778,0 C5.54142222,0 4.94444444,0.572103704 4.94444444,1.27777778 L4.94444444,14.0555556 C4.94444444,14.7612296 5.54142222,15.3333333 6.27777778,15.3333333 C7.01413333,15.3333333 7.61111111,14.7612296 7.61111111,14.0555556 L7.61111111,1.27777778 C7.61111111,0.572103704 7.01413333,0 6.27777778,0 M6.27777778,17.8888889 C5.54142222,17.8888889 4.94444444,18.4609926 4.94444444,19.1666667 L4.94444444,21.7222222 C4.94444444,22.4278963 5.54142222,23 6.27777778,23 C7.01413333,23 7.61111111,22.4278963 7.61111111,21.7222222 L7.61111111,19.1666667 C7.61111111,18.4609926 7.01413333,17.8888889 6.27777778,17.8888889 M1.83333333,20.4444444 C1.09697778,20.4444444 0.5,21.0165481 0.5,21.7222222 C0.5,22.4278963 1.09697778,23 1.83333333,23 C2.56968889,23 3.16666667,22.4278963 3.16666667,21.7222222 C3.16666667,21.0165481 2.56968889,20.4444444 1.83333333,20.4444444 M1.83333333,0 C1.09697778,0 0.5,0.572103704 0.5,1.27777778 L0.5,16.6111111 C0.5,17.3167852 1.09697778,17.8888889 1.83333333,17.8888889 C2.56968889,17.8888889 3.16666667,17.3167852 3.16666667,16.6111111 L3.16666667,1.27777778 C3.16666667,0.572103704 2.56968889,0 1.83333333,0" id="Fill-1" fill="#457DED"></path>
                <path d="M53.1666406,13.1516588 C54.2250484,13.1516588 55.1705961,13.4462275 55.8311547,14.0277725 C56.1508964,14.3092038 56.1799717,14.7945213 55.8961869,15.1116114 C55.6177355,15.4226445 55.1416929,15.4563412 54.8218652,15.1919716 L54.8031985,15.176019 C54.4534353,14.8681422 53.8726186,14.6872038 53.1666406,14.6872038 C52.8438021,14.6872038 52.5052217,14.7752417 52.2738241,14.9233365 C52.0604909,15.0598294 51.9623404,15.2219147 51.9623404,15.4549763 L51.9626845,15.4825308 C51.9731791,15.8485877 52.2026843,15.9945498 53.1770492,16.2073081 L53.445092,16.2645498 C54.1417796,16.415545 54.616618,16.5651754 55.0505962,16.810436 C55.7545956,17.2082275 56.177391,17.8121232 56.177391,18.6113744 C56.177391,20.1208152 54.8450049,21 53.1666406,21 C51.9654372,21 50.9302552,20.5107583 50.3614814,19.9001232 C50.0712451,19.5887488 50.0906859,19.1030047 50.4047502,18.8152607 C50.712707,18.5329763 51.1897819,18.5460284 51.4817386,18.8405118 L51.4986849,18.8581706 C51.5949429,18.9614787 51.7902115,19.1024929 52.0314156,19.2164645 C52.3644907,19.3739431 52.7453076,19.464455 53.1666406,19.464455 C54.091113,19.464455 54.6290051,19.1095735 54.6290051,18.6113744 C54.6290051,18.2500948 54.2030269,18.0005687 53.0911138,17.7597441 L52.8105118,17.6997725 C52.1378242,17.5527014 51.7700825,17.4344645 51.3935667,17.2080569 C50.7656101,16.8303981 50.4139545,16.2375924 50.4139545,15.4549763 C50.4139545,14.6743223 50.7978682,14.0403981 51.4343408,13.6330521 C51.9307706,13.3153649 52.5603615,13.1516588 53.1666406,13.1516588 L53.1666406,13.1516588 Z M48.5214828,13.492891 C48.9490954,13.492891 49.2956758,13.8365972 49.2956758,14.2606635 C49.2956758,14.6771374 48.9613104,15.0160664 48.5442785,15.0280948 L48.5214828,15.028436 L46.801054,15.028436 L46.801054,20.0616114 C46.801054,20.5327678 46.415936,20.9146919 45.9408396,20.9146919 C45.4738292,20.9146919 45.0937004,20.545564 45.0809693,20.0854976 L45.0806252,20.0616114 L45.0806252,15.028436 L43.3601964,15.028436 C42.9325838,15.028436 42.5860034,14.6847299 42.5860034,14.2606635 C42.5860034,13.8441896 42.9203687,13.5052607 43.3374007,13.4932322 L43.3601964,13.492891 L48.5214828,13.492891 Z M38.0270391,13.1516588 C38.4581785,13.1516588 38.8235976,13.3871943 38.9930599,13.7790142 L41.4949935,19.7677251 C41.6586062,20.1593744 41.4710795,20.6086066 41.076069,20.7708626 C40.6881984,20.9303033 40.2445858,20.7538863 40.0737472,20.376654 L40.0645429,20.3554976 L39.6566292,19.3791469 L36.3974489,19.3791469 L35.9896213,20.3554976 C35.8289332,20.7400664 35.3894497,20.9263791 34.9996865,20.7793934 L34.9780951,20.7708626 C34.5902245,20.6115924 34.4023536,20.1757536 34.5505686,19.7891374 L34.5591707,19.7677251 L37.0610183,13.7790142 C37.2304805,13.3871943 37.5959856,13.1516588 38.0270391,13.1516588 L38.0270391,13.1516588 Z M22.5,13.3222749 C23.7590068,13.3222749 24.7795652,14.3343697 24.7795652,15.5829384 C24.7795652,16.0472701 24.638404,16.4788436 24.3964257,16.8378199 C24.8936296,17.2524171 25.2096724,17.8738863 25.2096724,18.5687204 C25.2096724,19.8047488 24.2094151,20.8090806 22.9677816,20.8290427 L22.9301042,20.8293839 L19.274193,20.8293839 C18.8465804,20.8293839 18.5,20.4856777 18.5,20.0616114 C18.5,19.6451374 18.8343653,19.3062085 19.2513973,19.2941801 L19.274193,19.2938389 L22.9301042,19.2938389 C23.3338888,19.2938389 23.6612864,18.9691564 23.6612864,18.5687204 C23.6612864,18.1755355 23.3457598,17.8554597 22.9520397,17.8439431 L22.9301042,17.8436019 L19.274193,17.8436019 C18.8465804,17.8436019 18.5,17.4998957 18.5,17.0758294 C18.5,16.6593555 18.8343653,16.3204265 19.2513973,16.3083981 L19.274193,16.3080569 L22.5,16.3080569 C22.9037816,16.3080569 23.2311792,15.9833744 23.2311792,15.5829384 C23.2311792,15.1897536 22.9156526,14.8696777 22.5219325,14.8581611 L22.5,14.8578199 L19.274193,14.8578199 C18.8465804,14.8578199 18.5,14.5141137 18.5,14.0900474 C18.5,13.6735735 18.8343653,13.3346445 19.2513973,13.3226161 L19.274193,13.3222749 L22.5,13.3222749 Z M32.3494519,13.3222749 C32.7770645,13.3222749 33.1236449,13.665981 33.1236449,14.0900474 C33.1236449,14.5065213 32.7892796,14.8454502 32.3722476,14.8574787 L32.3494519,14.8578199 L28.8225729,14.8578199 L28.8225729,16.1374408 L31.6612804,16.1374408 C32.088893,16.1374408 32.4354734,16.4811469 32.4354734,16.9052133 C32.4354734,17.3216872 32.1011081,17.6606161 31.6840761,17.6726445 L31.6612804,17.6729858 L28.8225729,17.6729858 L28.8225729,19.2938389 L32.3494519,19.2938389 C32.7694086,19.2938389 33.1112578,19.6254313 33.1233008,20.0390047 L33.1236449,20.0616114 C33.1236449,20.4780853 32.7892796,20.8170142 32.3722476,20.8290427 L32.3494519,20.8293839 L28.0483799,20.8293839 C27.6284232,20.8293839 27.286574,20.4977915 27.274531,20.084218 L27.2741869,20.0616114 L27.2741869,14.0900474 C27.2741869,13.6735735 27.6085523,13.3346445 28.0255842,13.3226161 L28.0483799,13.3222749 L32.3494519,13.3222749 Z M38.0270391,15.4780948 L37.0389108,17.8436019 L39.0151674,17.8436019 L38.0270391,15.4780948 Z M38.026867,3 C40.1647579,3 41.8978319,4.71870142 41.8978319,6.83886256 C41.8978319,8.9590237 40.1647579,10.6777251 38.026867,10.6777251 C35.8889762,10.6777251 34.1559022,8.9590237 34.1559022,6.83886256 C34.1559022,4.71870142 35.8889762,3 38.026867,3 L38.026867,3 Z M47.4892255,3 C48.4930957,3 49.4192886,3.36008531 50.1558902,4.02369668 C50.48432,4.31442654 50.5103845,4.85391469 50.1558902,5.21800948 C49.8675463,5.55122275 49.3202779,5.57698578 48.95159,5.21800948 C48.5707731,4.90535545 48.0583434,4.70616114 47.4892255,4.70616114 C46.3174414,4.70616114 45.348926,5.66101422 45.3386895,6.83886256 C45.348926,8.0167109 46.3174414,8.97156398 47.4892255,8.97156398 C48.0215262,8.97156398 48.5027301,8.79787678 48.915375,8.48744076 L48.95159,8.45971564 C49.3082349,8.1172891 49.8552452,8.148 50.1558902,8.45971564 C50.4916319,8.8510237 50.4604061,9.39034123 50.0698687,9.73933649 C49.3958047,10.3268531 48.4805366,10.6777251 47.4892255,10.6777251 C45.3616572,10.6777251 43.6182607,8.9590237 43.6182607,6.83886256 C43.6182607,4.71870142 45.3616572,3 47.4892255,3 L47.4892255,3 Z M28.0483799,3.08530806 C28.4683366,3.08530806 28.8101858,3.41690047 28.8222288,3.83047393 L28.8225729,3.85308057 L28.8225729,9.05687204 L32.3494519,9.05687204 C32.7694086,9.05687204 33.1112578,9.38846445 33.1233008,9.80203791 L33.1236449,9.82464455 C33.1236449,10.2411185 32.7892796,10.5801327 32.3722476,10.5920758 L32.3494519,10.5924171 L28.0483799,10.5924171 C27.6284232,10.5924171 27.286574,10.2608246 27.274531,9.84725118 L27.2741869,9.82464455 L27.2741869,3.85308057 C27.2741869,3.42901422 27.6207673,3.08530806 28.0483799,3.08530806 L28.0483799,3.08530806 Z M22.5,3.08530806 C23.7590068,3.08530806 24.7795652,4.09740284 24.7795652,5.34597156 C24.7795652,5.81030332 24.638404,6.24187678 24.3964257,6.60085308 C24.8936296,7.01545024 25.2096724,7.63700474 25.2096724,8.33175355 C25.2096724,9.56778199 24.2094151,10.5721137 22.9677816,10.5920758 L22.9301042,10.5924171 L19.274193,10.5924171 C18.8465804,10.5924171 18.5,10.2487109 18.5,9.82464455 C18.5,9.40817062 18.8343653,9.0691564 19.2513973,9.05721327 L19.274193,9.05687204 L22.9301042,9.05687204 C23.3338888,9.05687204 23.6612864,8.73218957 23.6612864,8.33175355 C23.6612864,7.93856872 23.3457598,7.61849289 22.9520397,7.6069763 L22.9301042,7.60663507 L22.5094594,7.60654976 L22.5,7.60663507 L19.274193,7.60663507 C18.8465804,7.60663507 18.5,7.26292891 18.5,6.83886256 C18.5,6.42238863 18.8343653,6.08337441 19.2513973,6.07143128 L19.274193,6.07109005 L22.5055024,6.07100474 L22.5219325,6.07074882 C22.9156526,6.05923223 23.2311792,5.7391564 23.2311792,5.34597156 C23.2311792,4.95278673 22.9156526,4.6327109 22.5219325,4.62119431 L22.5,4.62085308 L19.274193,4.62085308 C18.8465804,4.62085308 18.5,4.27714692 18.5,3.85308057 C18.5,3.43660664 18.8343653,3.09759242 19.2513973,3.08564929 L19.274193,3.08530806 L22.5,3.08530806 Z M52.9085763,3.08530484 C53.3285329,3.08530484 53.6703822,3.41690047 53.6824252,3.83047393 L53.6827692,3.85308057 L53.6827692,6.27847393 L57.2219494,3.27017062 C57.5465943,2.99419905 58.0353681,3.03147867 58.3135615,3.35343128 C58.5865075,3.6691564 58.5556258,4.14150711 58.2480131,4.4198673 L58.2296045,4.43599052 L55.9315417,6.38945972 L58.3288733,9.34325118 C58.5970021,9.67356398 58.544271,10.1569194 58.2111959,10.4227393 C57.8844005,10.6836114 57.409132,10.6382275 57.1380785,10.3244645 L57.1226806,10.3060379 L54.7552846,7.38927014 L53.6827692,8.30095735 L53.6827692,9.82464455 C53.6827692,10.2487109 53.3361889,10.5924479 52.9085763,10.5924479 C52.4886196,10.5924479 52.1467704,10.2608246 52.1347274,9.84725118 L52.1343833,9.82464455 L52.1343833,3.85308057 C52.1343833,3.42901422 52.4809637,3.08530484 52.9085763,3.08530484 L52.9085763,3.08530484 Z M38.026867,4.70616114 C36.839169,4.70616114 35.876331,5.66101422 35.876331,6.83886256 C35.876331,8.0167109 36.839169,8.97156398 38.026867,8.97156398 C39.2145651,8.97156398 40.1774031,8.0167109 40.1774031,6.83886256 C40.1774031,5.66101422 39.2145651,4.70616114 38.026867,4.70616114 L38.026867,4.70616114 Z" id="Fill-3" fill="#415984"></path>
            </g>
        </g>
    </g>
</svg>