<?xml version="1.0" encoding="UTF-8"?>
<svg width="87px" height="86px" viewBox="0 0 87 86" version="1.1" xmlns="http://www.w3.org/2000/svg" xmlns:xlink="http://www.w3.org/1999/xlink">
    <!-- Generator: Sketch 59.1 (86144) - https://sketch.com -->
    <title>编组 33</title>
    <desc>Created with Sketch.</desc>
    <defs>
        <polygon id="path-1" points="0 23.150421 73.5273 23.150421 73.5273 -0.000189 0 -0.000189"></polygon>
    </defs>
    <g id="组件" stroke="none" stroke-width="1" fill="none" fill-rule="evenodd">
        <g id="编组-33" transform="translate(-0.285714, 0.000000)">
            <rect id="矩形备份-10" stroke="#E7E7E7" stroke-width="0.5" fill="#FFFFFF" x="1.25" y="0.25" width="85.5" height="85.5" rx="42.75"></rect>
            <g id="编组" transform="translate(8.285714, 32.000000)">
                <path d="M33.032097,8.424864 C33.538617,8.424864 34.033797,8.482194 34.518267,8.596854 C35.003997,8.712144 35.526897,8.908074 36.088857,9.184014 L36.088857,10.805004 C35.539497,10.490004 35.032977,10.262574 34.566777,10.122084 C34.100577,9.982224 33.614847,9.911664 33.108327,9.911664 C32.474547,9.911664 31.902507,10.042704 31.391577,10.304154 C30.881277,10.565604 30.484377,10.934784 30.202137,11.411064 C29.919267,11.887974 29.777517,12.417804 29.777517,13.000554 C29.777517,13.595904 29.918007,14.130144 30.198357,14.602644 C30.479337,15.074514 30.874977,15.439284 31.385907,15.696954 C31.895577,15.953994 32.470137,16.082514 33.108327,16.082514 C33.597207,16.082514 34.064667,16.012584 34.509447,15.872094 C34.953597,15.731604 35.514297,15.478344 36.190917,15.112314 L36.190917,16.733304 C35.612577,17.035704 35.080227,17.250534 34.595127,17.378424 C34.110657,17.505684 33.544287,17.569944 32.897907,17.569944 C31.957947,17.569944 31.117527,17.382834 30.377277,17.007984 C29.636397,16.633764 29.055537,16.094484 28.632177,15.390774 C28.208817,14.685804 27.997137,13.915314 27.997137,13.076784 C27.997137,12.179664 28.215117,11.373264 28.651077,10.658214 C29.087037,9.943794 29.686797,9.392544 30.450357,9.005724 C31.213917,8.618904 32.074497,8.424864 33.032097,8.424864" id="Fill-1" fill="#222222"></path>
                <path d="M38.639979,14.449239 C38.639979,15.044589 38.785509,15.520239 39.077199,15.875559 C39.368259,16.230249 39.758859,16.407909 40.248369,16.407909 C40.758669,16.407909 41.160609,16.237809 41.454189,15.897609 C41.748399,15.557409 41.894559,15.070419 41.894559,14.436009 C41.894559,13.832469 41.747139,13.365009 41.451039,13.035519 C41.155569,12.705399 40.754259,12.540969 40.248369,12.540969 C39.772089,12.540969 39.384639,12.715479 39.086649,13.064499 C38.788659,13.412889 38.639979,13.874679 38.639979,14.449239 M40.260969,11.379249 C40.882149,11.379249 41.445369,11.509029 41.952519,11.768589 C42.458409,12.028149 42.849639,12.391659 43.126209,12.860379 C43.402779,13.328469 43.540749,13.857669 43.540749,14.449239 C43.540749,15.066009 43.407819,15.606549 43.141959,16.069599 C42.876729,16.533909 42.484869,16.899939 41.968269,17.167059 C41.451039,17.435439 40.882149,17.569629 40.260969,17.569629 C39.635379,17.569629 39.067749,17.435439 38.556819,17.167059 C38.047149,16.899939 37.657809,16.533909 37.392579,16.069599 C37.126719,15.606549 36.993789,15.066009 36.993789,14.449239 C36.993789,13.849479 37.133649,13.316499 37.415259,12.850299 C37.695609,12.384729 38.086839,12.022479 38.588949,11.765439 C39.091059,11.508399 39.648609,11.379249 40.260969,11.379249" id="Fill-3" fill="#222222"></path>
                <mask id="mask-2" fill="white">
                    <use xlink:href="#path-1"></use>
                </mask>
                <g id="Clip-6"></g>
                <path d="M44.5221,17.454591 L46.09206,17.454591 L46.09206,11.494161 L44.5221,11.494161 L44.5221,17.454591 Z M45.30708,8.737281 C45.54963,8.737281 45.75816,8.824851 45.93267,8.998731 C46.10718,9.173871 46.19475,9.382401 46.19475,9.624321 C46.19475,9.858051 46.10844,10.066581 45.93582,10.246761 C45.76383,10.427571 45.55404,10.517661 45.30708,10.517661 C45.06894,10.517661 44.86167,10.427571 44.68527,10.246761 C44.50887,10.066581 44.42004,9.858051 44.42004,9.624321 C44.42004,9.377991 44.5095,9.168201 44.68842,8.995581 C44.86671,8.823591 45.07335,8.737281 45.30708,8.737281 L45.30708,8.737281 Z" id="Fill-5" fill="#222222" mask="url(#mask-2)"></path>
                <path d="M50.838858,11.379186 C51.477048,11.379186 51.986088,11.588976 52.367238,12.007926 C52.747758,12.427506 52.938018,12.979386 52.938018,13.664196 L52.938018,17.454906 L51.374988,17.454906 L51.374988,13.823586 C51.374988,13.436766 51.282378,13.129956 51.097158,12.904416 C50.911938,12.678876 50.660568,12.566736 50.341158,12.566736 C50.098608,12.566736 49.871178,12.637926 49.658238,12.780306 C49.445298,12.922686 49.211568,13.159566 48.956418,13.492206 L48.956418,17.454906 L47.386458,17.454906 L47.386458,11.494476 L48.956418,11.494476 L48.956418,12.330486 C49.245588,11.990286 49.542318,11.746476 49.846608,11.599686 C50.150268,11.452896 50.481648,11.379186 50.838858,11.379186" id="Fill-7" fill="#222222" mask="url(#mask-2)"></path>
                <path d="M55.700442,8.539902 L55.700442,12.330612 L55.738872,12.330612 C56.244762,11.696832 56.855232,11.379312 57.570282,11.379312 C58.204062,11.379312 58.714362,11.587842 59.101182,12.004902 C59.489262,12.421962 59.682042,12.966282 59.682042,13.638492 L59.682042,17.454402 L58.119012,17.454402 L58.119012,13.938372 C58.119012,13.538952 58.023882,13.220802 57.834882,12.984552 C57.645252,12.748302 57.386952,12.629862 57.059352,12.629862 C56.821212,12.629862 56.596932,12.698532 56.386512,12.833982 C56.176092,12.970692 55.947402,13.196232 55.700442,13.511232 L55.700442,17.454402 L54.130482,17.454402 L54.130482,8.539902 L55.700442,8.539902 Z" id="Fill-8" fill="#222222" mask="url(#mask-2)"></path>
                <path d="M62.386821,11.494287 L62.386821,15.182937 C62.386821,15.570387 62.483211,15.864597 62.677251,16.066827 C62.871291,16.269057 63.127071,16.369857 63.446481,16.369857 C63.710451,16.369857 63.963081,16.289217 64.205631,16.127307 C64.448181,15.966027 64.644111,15.737967 64.792791,15.445017 L64.792791,11.494287 L66.363381,11.494287 L66.363381,17.454717 L64.792791,17.454717 L64.792791,16.644537 C64.227051,17.261307 63.614061,17.570007 62.954451,17.570007 C62.316891,17.570007 61.802181,17.361477 61.410321,16.943787 C61.019091,16.527357 60.823791,15.983037 60.823791,15.310827 L60.823791,11.494287 L62.386821,11.494287 Z" id="Fill-9" fill="#222222" mask="url(#mask-2)"></path>
                <path d="M69.17526,16.210026 C69.51105,16.325316 69.90291,16.382016 70.34958,16.382016 C70.83027,16.382016 71.21205,16.206876 71.49555,15.855966 C71.77842,15.505056 71.91891,15.018696 71.91891,14.398146 C71.91891,13.836186 71.77716,13.388256 71.4924,13.054356 C71.20701,12.721086 70.83027,12.553506 70.36281,12.553506 C70.14546,12.553506 69.94575,12.594456 69.76305,12.675096 C69.57972,12.755736 69.38379,12.881736 69.17526,13.051206 L69.17526,16.210026 Z M69.17526,8.539776 L69.17526,11.877516 C69.63894,11.545506 70.16436,11.379186 70.75215,11.379186 C71.27505,11.379186 71.7507,11.508336 72.17784,11.765376 C72.60561,12.023046 72.93762,12.384666 73.17387,12.850236 C73.41012,13.316436 73.5273,13.836186 73.5273,14.410746 C73.5273,15.389136 73.23624,16.160256 72.65349,16.723476 C72.07074,17.287956 71.27253,17.569566 70.26075,17.569566 C69.34977,17.569566 68.46462,17.401986 67.60593,17.064936 L67.60593,8.539776 L69.17526,8.539776 Z" id="Fill-10" fill="#222222" mask="url(#mask-2)"></path>
                <path d="M34.428681,15.894396 L34.428681,17.415216 C34.484121,17.402616 34.542081,17.391906 34.595631,17.378046 C35.080101,17.250156 35.612451,17.035956 36.190791,16.733556 L36.190791,15.112566 C35.514801,15.478596 34.954101,15.731226 34.509321,15.872346 C34.482861,15.881166 34.455141,15.886206 34.428681,15.894396" id="Fill-11" fill="#22A079" mask="url(#mask-2)"></path>
                <path d="M14.619402,10.153647 C14.619402,10.153647 15.835932,14.054607 20.586762,14.596407 C21.371112,14.685237 22.260042,14.782887 23.170392,14.513247 C23.206932,14.501907 23.462712,14.568687 23.426172,14.838957 C23.354352,15.364377 23.143932,16.325757 22.524642,17.426997 C21.371742,19.476387 18.839142,22.186647 13.121262,23.142357 C12.820122,23.136057 12.220362,22.877757 11.942532,22.923747 C11.942532,22.923747 5.046552,16.875747 14.619402,10.153647" id="Fill-12" fill="#CFBFA3" mask="url(#mask-2)"></path>
                <path d="M13.121262,23.143743 C13.121262,23.143743 8.127252,16.002063 15.970122,12.343653 L14.992362,11.074203 C14.992362,11.074203 4.838652,16.261623 13.121262,23.143743" id="Fill-13" fill="#B9A798" mask="url(#mask-2)"></path>
                <path d="M23.419683,14.85036 C23.299983,15.56037 23.072553,16.46127 22.451373,17.55936 L21.000483,14.6412 C21.936663,14.75838 22.608243,14.63175 23.015223,14.53914 C23.329593,14.46795 23.466303,14.5719 23.419683,14.85036" id="Fill-14" fill="#222222" mask="url(#mask-2)"></path>
                <path d="M16.095933,15.832908 C16.095933,16.391718 15.642963,16.844058 15.084783,16.844058 C14.525973,16.844058 14.072373,16.391718 14.072373,15.832908 C14.072373,15.273468 14.525973,14.821128 15.084783,14.821128 C15.642963,14.821128 16.095933,15.273468 16.095933,15.832908" id="Fill-15" fill="#222222" mask="url(#mask-2)"></path>
                <path d="M15.277059,1.69974 L16.117479,0.31878 C16.117479,0.31878 14.018319,0.63252 11.997279,1.49184 C11.645109,1.52523 11.299239,1.57626 10.958409,1.64367 L12.639879,-7.10542736e-15 C12.639879,-7.10542736e-15 10.338489,0.41013 8.311149,2.55402 C8.139789,2.64033 7.970949,2.73294 7.804629,2.82807 L9.125109,0.39879 C9.125109,0.39879 6.437529,1.66068 5.146029,4.79241 L5.961249,1.95867 C5.961249,1.95867 3.904929,3.52863 3.542049,7.36722 C3.494799,7.46172 3.447549,7.55685 3.402189,7.65261 L3.177909,4.20651 C3.177909,4.20651 1.177029,7.39872 2.462229,11.00673 C2.461599,11.00862 2.461599,11.01051 2.461599,11.0124 L1.062369,7.53417 C1.062369,7.53417 0.194229,10.27656 2.292129,13.81149 L0.000189,11.15856 C0.000189,11.15856 0.222579,15.73551 2.840229,18.2133 C2.840229,18.2133 3.783339,17.93421 4.361049,18.59949 C6.209469,21.24297 9.188739,23.00256 12.575619,23.13423 C12.711699,23.1399 12.985749,23.14242 12.985749,23.14242 C12.985749,23.14242 8.124669,18.94662 12.809979,12.95217 C17.495289,7.43715 23.550849,11.27133 23.482809,10.77615 C22.868559,6.27795 19.557909,2.66553 15.277059,1.69974" id="Fill-16" fill="#22A079" mask="url(#mask-2)"></path>
                <path d="M10.939068,19.599363 C10.939068,19.599363 5.572728,21.470463 0.588168,14.226093 C0.588168,14.226093 1.175328,16.817283 3.389148,19.361853 C5.210478,21.455343 8.828568,23.276043 13.121388,23.143743 C13.121388,23.143743 12.470598,22.705263 11.848788,21.668913 C11.315808,20.780613 10.939068,19.599363 10.939068,19.599363" id="Fill-17" fill="#1B8061" mask="url(#mask-2)"></path>
            </g>
        </g>
    </g>
</svg>