<?xml version="1.0" encoding="utf-8"?>
<!-- Generator: Adobe Illustrator 24.0.0, SVG Export Plug-In . SVG Version: 6.00 Build 0)  -->
<svg version="1.1" id="图层_1" xmlns="http://www.w3.org/2000/svg" xmlns:xlink="http://www.w3.org/1999/xlink" x="0px" y="0px"
	 viewBox="0 0 86 86" style="enable-background:new 0 0 86 86;" xml:space="preserve">
<style type="text/css">
	.st0{fill-rule:evenodd;clip-rule:evenodd;fill:#FFFFFF;stroke:#E7E7E7;stroke-width:0.5;}
	.st1{fill:#3773FD;}
	.st2{fill:#868686;}
	.st3{fill-rule:evenodd;clip-rule:evenodd;fill:#000200;}
	.st4{fill-rule:evenodd;clip-rule:evenodd;fill:#3773FD;}
</style>
<title>编组 13</title>
<desc>Created with Sketch.</desc>
<g id="编组-20备份">
	<path id="矩形备份-10" class="st0" d="M43,0.2L43,0.2c23.6,0,42.8,19.1,42.8,42.8l0,0c0,23.6-19.1,42.8-42.8,42.8l0,0
		C19.4,85.8,0.2,66.6,0.2,43l0,0C0.2,19.4,19.4,0.2,43,0.2z"/>
</g>
<g id="页面-2">
	<g id="画板" transform="translate(-431.000000, -308.000000)">
		<g id="标准_纵向" transform="translate(431.000000, 308.000000)">
			<g id="编组-6" transform="translate(0.000000, 204.000000)">
				<path id="帝范前哨" class="st1" d="M28.6-142.1v-2.5h1v0.5c0,0.1,0,0.2-0.1,0.2c0,0-0.1,0.1-0.3,0.1l0,0l-0.3,0l0.3,1.2
					l0.5-0.1c0.2,0,0.4-0.1,0.6-0.1s0.3-0.1,0.3-0.2s0.1-0.2,0.2-0.4c0-0.2,0-0.4,0-0.6l0,0v-1.8h0.6v-2H30c0.1-0.1,0.1-0.2,0.2-0.4
					s0.1-0.2,0.1-0.3l0,0h1.4v-1.2h-3c0-0.1,0-0.2-0.1-0.3c0-0.1-0.1-0.2-0.1-0.3l0,0H27c0,0,0,0.1,0.1,0.2s0.1,0.2,0.1,0.3l0,0
					h-3.1v1.2h1.4l0.3,0.7h-1.5v2h0.6v3h1.3v-2h1v2.5H28.6z M28.5-147.6h-1.1c-0.1-0.1-0.1-0.2-0.2-0.4c-0.1-0.1-0.1-0.2-0.1-0.3
					l0,0h1.7c0,0.1-0.1,0.2-0.1,0.3C28.6-147.8,28.5-147.7,28.5-147.6L28.5-147.6z M27.2-145.8h-1.6v-0.6h4.6v0.6h-1.6v-0.5h-1.4
					V-145.8z M37.4-147.9v-0.4h1.5v0.4h1.3v-0.4h1.7v-1.2h-1.7v-0.5l-1.3,0v0.5h-1.5v-0.5l-1.3,0v0.5h-1.7v1.2H36v0.4H37.4z
					 M36.3-146.2l0.4-1.1c-0.1-0.1-0.2-0.1-0.4-0.2c-0.1-0.1-0.3-0.1-0.4-0.2c-0.2-0.1-0.3-0.1-0.4-0.2c-0.1-0.1-0.3-0.1-0.4-0.1
					l0,0l-0.5,1c0.1,0,0.2,0.1,0.4,0.2c0.1,0.1,0.3,0.1,0.5,0.2c0.2,0.1,0.3,0.1,0.4,0.2C36.1-146.4,36.2-146.3,36.3-146.2
					L36.3-146.2z M38.2-142.3c0.7,0,1.5,0,2.2,0c0.3,0,0.5,0,0.7-0.1c0.2,0,0.3-0.1,0.4-0.2c0.1-0.1,0.2-0.2,0.3-0.3
					c0.1-0.1,0.1-0.3,0.2-0.5c0-0.1,0.1-0.2,0.1-0.3c0-0.1,0-0.2,0-0.4l0,0l-1.3-0.5c0,0.1,0,0.2,0,0.3c0,0.1,0,0.2-0.1,0.2
					c0,0.1,0,0.2-0.1,0.2c0,0.1-0.1,0.1-0.1,0.1s-0.1,0.1-0.1,0.1c-0.1,0-0.1,0-0.2,0c-0.5,0-0.9,0-1.4,0c-0.2,0-0.3-0.1-0.4-0.1
					s-0.1-0.2-0.1-0.4l0,0v-2.5H40v0.6c0,0.1,0,0.2-0.1,0.3s-0.2,0.1-0.3,0.1l0,0l-0.8,0.1l0.3,1.2l1-0.1c0.2,0,0.4,0,0.5-0.1
					c0.1,0,0.3-0.1,0.4-0.2s0.2-0.2,0.2-0.3s0.1-0.3,0.1-0.5l0,0v-2.2h-4.4v4.1c0,0.3,0,0.5,0.1,0.6s0.1,0.3,0.2,0.4
					c0.1,0.1,0.2,0.2,0.4,0.2C37.8-142.3,38-142.3,38.2-142.3z M35.6-142.1c0.1-0.2,0.2-0.4,0.3-0.6c0.1-0.2,0.2-0.4,0.3-0.6
					c0.1-0.2,0.2-0.4,0.2-0.6s0.1-0.4,0.2-0.5l0,0l-0.6-0.3l0.4-1.1c-0.1-0.1-0.3-0.1-0.4-0.2c-0.1-0.1-0.3-0.1-0.4-0.2
					c-0.1-0.1-0.3-0.1-0.4-0.2c-0.1-0.1-0.3-0.1-0.4-0.2l0,0l-0.5,1c0.1,0,0.1,0.1,0.2,0.1c0.1,0,0.2,0.1,0.3,0.1
					c0.1,0.1,0.2,0.1,0.3,0.2c0.1,0.1,0.2,0.1,0.3,0.2c0,0.1-0.1,0.3-0.2,0.5s-0.2,0.4-0.3,0.6c-0.1,0.2-0.2,0.4-0.3,0.6
					c-0.1,0.2-0.2,0.3-0.2,0.5l0,0L35.6-142.1z M52.3-148.1v-1.3h-1.8c0.1-0.1,0.1-0.2,0.2-0.3c0.1-0.1,0.1-0.2,0.1-0.2l0,0
					l-1.6-0.2c-0.1,0.1-0.1,0.2-0.2,0.3c-0.1,0.1-0.1,0.2-0.2,0.3l0,0h-1.1c-0.1-0.1-0.1-0.2-0.2-0.4c-0.1-0.1-0.1-0.2-0.2-0.3l0,0
					l-1.5,0.1c0,0.1,0.1,0.1,0.1,0.2c0.1,0.1,0.1,0.2,0.2,0.3l0,0h-1.8v1.3H52.3z M49.7-142.1l0.8-0.1c0.2,0,0.4-0.1,0.6-0.1
					s0.3-0.1,0.4-0.2c0.1-0.1,0.2-0.2,0.2-0.3s0.1-0.3,0.1-0.6l0,0v-4.4l-1.3,0v3.9c0,0.2,0,0.3-0.1,0.3c-0.1,0.1-0.2,0.1-0.3,0.1
					l0,0l-0.7,0.1L49.7-142.1z M46.8-142.1l0.6-0.1c0.2,0,0.4-0.1,0.5-0.1s0.2-0.1,0.3-0.2s0.1-0.2,0.2-0.3c0-0.1,0.1-0.3,0.1-0.5
					l0,0v-4.5h-3.5v5.6h1.3v-1.8h1v0.2c0,0.1,0,0.2-0.1,0.3s-0.2,0.1-0.3,0.1l0,0l-0.3,0L46.8-142.1z M50-143.9v-3.6l-1.1,0v3.6H50z
					 M47.2-146.2h-1v-0.5h1V-146.2z M47.2-144.8h-1v-0.5h1V-144.8z M60.5-142.1l0.7-0.1c0.2,0,0.3,0,0.4-0.1c0.1,0,0.2-0.1,0.3-0.2
					c0.1-0.1,0.1-0.2,0.1-0.3c0-0.1,0-0.2,0-0.4l0,0v-4.8h-1.5v-2.2l-1.2,0v1.4c-0.1-0.1-0.1-0.2-0.2-0.3c-0.1-0.1-0.2-0.2-0.3-0.4
					c-0.1-0.1-0.2-0.2-0.3-0.3c-0.1-0.1-0.2-0.2-0.2-0.3l0,0l-0.9,0.7c0.1,0.1,0.1,0.2,0.2,0.3c0.1,0.1,0.2,0.2,0.3,0.4
					c0.1,0.1,0.2,0.3,0.3,0.4c0.1,0.1,0.2,0.2,0.2,0.3l0,0l0.9-0.8v0.8h-1.5v5.7H59v-1.6h1.8v0.2c0,0.1,0,0.2-0.1,0.2
					c0,0-0.1,0.1-0.2,0.1l0,0l-0.5,0L60.5-142.1z M61.5-147.9c0.1-0.1,0.2-0.2,0.2-0.3c0.1-0.1,0.2-0.3,0.3-0.4
					c0.1-0.1,0.2-0.3,0.3-0.4s0.2-0.2,0.2-0.3l0,0l-0.9-0.7c-0.1,0.1-0.1,0.2-0.2,0.3s-0.2,0.2-0.3,0.4s-0.2,0.3-0.3,0.4
					c0,0-0.1,0.1-0.1,0.1l-0.1,0.1c0,0-0.1,0.1-0.1,0.1l0,0L61.5-147.9z M57.4-142.8v-6.8h-2.6v6.8H57.4z M56.4-144.2h-0.5v-4h0.5
					V-144.2z M60.8-146.2H59v-0.5h1.8V-146.2z M60.8-144.8H59v-0.4h1.8V-144.8z"/>
				<path id="DeFiOutPost" class="st2" d="M28.3-136.9c0.2,0,0.3,0,0.4-0.1c0.1-0.1,0.2-0.1,0.3-0.2c0.1-0.1,0.2-0.2,0.2-0.4
					c0-0.1,0.1-0.3,0.1-0.5c0-0.4-0.1-0.6-0.3-0.8s-0.4-0.3-0.8-0.3l0,0h-0.5v2.2H28.3z M28.3-137.2H28v-1.8h0.2
					c0.3,0,0.4,0.1,0.6,0.2c0.1,0.2,0.2,0.4,0.2,0.7s-0.1,0.5-0.2,0.7C28.7-137.2,28.5-137.2,28.3-137.2L28.3-137.2z M31.3-136.9
					c0.1,0,0.3,0,0.4-0.1s0.2-0.1,0.3-0.1l0,0l-0.1-0.2c-0.1,0-0.2,0.1-0.2,0.1c-0.1,0-0.2,0-0.3,0c-0.2,0-0.3-0.1-0.4-0.2
					c-0.1-0.1-0.2-0.2-0.2-0.4l0,0H32c0,0,0-0.1,0-0.2c0-0.1,0-0.2-0.1-0.3s-0.1-0.2-0.1-0.2c-0.1-0.1-0.1-0.1-0.2-0.2
					c-0.1,0-0.2-0.1-0.3-0.1c-0.1,0-0.2,0-0.3,0.1c-0.1,0-0.2,0.1-0.3,0.2c-0.1,0.1-0.1,0.2-0.2,0.3c0,0.1-0.1,0.2-0.1,0.4
					s0,0.3,0.1,0.4c0,0.1,0.1,0.2,0.2,0.3c0.1,0.1,0.2,0.1,0.3,0.2C31.1-136.9,31.2-136.9,31.3-136.9z M31.8-137.9h-1.1
					c0-0.1,0-0.2,0.1-0.2c0-0.1,0.1-0.1,0.1-0.2s0.1-0.1,0.2-0.1s0.1,0,0.2,0c0.2,0,0.3,0,0.4,0.1C31.7-138.2,31.8-138.1,31.8-137.9
					L31.8-137.9z M33.7-136.9v-1h0.9v-0.2h-0.9v-0.8h1.1v-0.2h-1.4v2.2H33.7z M36.9-138.9c0.1,0,0.1,0,0.2-0.1c0,0,0.1-0.1,0.1-0.2
					c0-0.1,0-0.1-0.1-0.2c0,0-0.1-0.1-0.2-0.1c-0.1,0-0.1,0-0.2,0.1c0,0-0.1,0.1-0.1,0.2c0,0.1,0,0.1,0.1,0.2
					C36.7-139,36.8-138.9,36.9-138.9z M37-136.9v-1.7H36v0.2h0.8v1.4H37z M42.2-136.9c0.1,0,0.2,0,0.3-0.1s0.2-0.1,0.3-0.2
					c0.1-0.1,0.1-0.2,0.2-0.4c0-0.1,0.1-0.3,0.1-0.5c0-0.2,0-0.3-0.1-0.5c0-0.1-0.1-0.3-0.2-0.4c-0.1-0.1-0.2-0.2-0.3-0.2
					s-0.2-0.1-0.3-0.1c-0.1,0-0.2,0-0.3,0.1c-0.1,0.1-0.2,0.1-0.3,0.2s-0.1,0.2-0.2,0.4s-0.1,0.3-0.1,0.5s0,0.3,0.1,0.5
					c0,0.1,0.1,0.3,0.2,0.4c0.1,0.1,0.2,0.2,0.3,0.2C41.9-136.9,42-136.9,42.2-136.9z M42.2-137.1c-0.1,0-0.2,0-0.2-0.1
					c-0.1,0-0.1-0.1-0.2-0.2c0-0.1-0.1-0.2-0.1-0.3c0-0.1,0-0.2,0-0.4c0-0.1,0-0.3,0-0.4c0-0.1,0.1-0.2,0.1-0.3
					c0-0.1,0.1-0.1,0.2-0.2c0.1,0,0.1-0.1,0.2-0.1c0.1,0,0.2,0,0.2,0.1c0.1,0,0.1,0.1,0.2,0.2c0,0.1,0.1,0.2,0.1,0.3
					c0,0.1,0,0.2,0,0.4c0,0.1,0,0.3,0,0.4c0,0.1-0.1,0.2-0.1,0.3c0,0.1-0.1,0.1-0.2,0.2C42.3-137.2,42.3-137.1,42.2-137.1z
					 M44.7-136.9c0.1,0,0.2,0,0.3-0.1c0.1-0.1,0.2-0.1,0.3-0.2l0,0h0l0,0.3h0.2v-1.7h-0.3v1.2c-0.1,0.1-0.2,0.2-0.3,0.2
					c-0.1,0-0.2,0.1-0.3,0.1c-0.1,0-0.2,0-0.3-0.1s-0.1-0.2-0.1-0.4l0,0v-1h-0.3v1c0,0.2,0,0.4,0.1,0.5
					C44.4-136.9,44.5-136.9,44.7-136.9z M48-136.9c0.1,0,0.2,0,0.3,0c0.1,0,0.2,0,0.2-0.1l0,0l-0.1-0.2c-0.1,0-0.1,0-0.2,0.1
					c-0.1,0-0.1,0-0.2,0c-0.1,0-0.1,0-0.2,0c-0.1,0-0.1,0-0.1-0.1c0,0-0.1-0.1-0.1-0.1s0-0.1,0-0.2l0,0v-0.8h0.8v-0.2h-0.8v-0.5
					h-0.2l0,0.5l-0.5,0v0.2h0.5v0.8c0,0.1,0,0.2,0,0.3s0.1,0.2,0.1,0.2s0.1,0.1,0.2,0.1S47.9-136.9,48-136.9z M50-136.9v-0.9h0.4
					c0.1,0,0.2,0,0.3,0c0.1,0,0.2-0.1,0.3-0.1c0.1-0.1,0.1-0.1,0.2-0.2c0-0.1,0.1-0.2,0.1-0.3c0-0.1,0-0.2-0.1-0.3S51.1-139,51-139
					c-0.1-0.1-0.2-0.1-0.3-0.1c-0.1,0-0.2,0-0.3,0l0,0h-0.7v2.2H50z M50.4-138.1H50v-0.9h0.4c0.2,0,0.3,0,0.4,0.1
					c0.1,0.1,0.1,0.2,0.1,0.3c0,0.2,0,0.3-0.1,0.4C50.7-138.1,50.6-138.1,50.4-138.1L50.4-138.1z M53.1-136.9c0.1,0,0.2,0,0.3-0.1
					s0.2-0.1,0.3-0.2c0.1-0.1,0.1-0.2,0.2-0.3c0-0.1,0.1-0.2,0.1-0.4c0-0.1,0-0.3-0.1-0.4c0-0.1-0.1-0.2-0.2-0.3
					c-0.1-0.1-0.2-0.1-0.3-0.2c-0.1,0-0.2-0.1-0.3-0.1c-0.1,0-0.2,0-0.3,0.1c-0.1,0-0.2,0.1-0.3,0.2s-0.1,0.2-0.2,0.3
					c0,0.1-0.1,0.2-0.1,0.4c0,0.1,0,0.3,0.1,0.4c0,0.1,0.1,0.2,0.2,0.3c0.1,0.1,0.2,0.1,0.3,0.2C52.9-136.9,53-136.9,53.1-136.9z
					 M53.1-137.1c-0.1,0-0.2,0-0.2,0c-0.1,0-0.1-0.1-0.2-0.1c0-0.1-0.1-0.1-0.1-0.2c0-0.1,0-0.2,0-0.3s0-0.2,0-0.3
					c0-0.1,0.1-0.1,0.1-0.2c0-0.1,0.1-0.1,0.2-0.1c0.1,0,0.1,0,0.2,0c0.1,0,0.2,0,0.2,0c0.1,0,0.1,0.1,0.2,0.1s0.1,0.1,0.1,0.2
					c0,0.1,0,0.2,0,0.3s0,0.2,0,0.3c0,0.1-0.1,0.1-0.1,0.2c0,0.1-0.1,0.1-0.2,0.1C53.3-137.1,53.2-137.1,53.1-137.1z M55.9-136.9
					c0.1,0,0.2,0,0.3,0c0.1,0,0.2-0.1,0.2-0.1c0.1,0,0.1-0.1,0.1-0.2c0-0.1,0-0.1,0-0.2c0-0.1-0.1-0.2-0.2-0.3
					c-0.1-0.1-0.3-0.1-0.5-0.2c-0.2,0-0.3-0.1-0.4-0.1c-0.1,0-0.1-0.1-0.1-0.2c0,0,0-0.1,0-0.1c0,0,0-0.1,0.1-0.1s0.1,0,0.1-0.1
					c0.1,0,0.1,0,0.2,0c0.1,0,0.2,0,0.3,0c0.1,0,0.2,0.1,0.2,0.1l0,0l0.1-0.2c-0.1-0.1-0.2-0.1-0.3-0.1s-0.2-0.1-0.4-0.1
					c-0.1,0-0.2,0-0.3,0c-0.1,0-0.2,0.1-0.2,0.1c-0.1,0-0.1,0.1-0.1,0.2c0,0.1,0,0.1,0,0.2c0,0.1,0,0.1,0.1,0.2c0,0,0.1,0.1,0.1,0.1
					c0.1,0,0.1,0.1,0.2,0.1s0.2,0.1,0.2,0.1c0.2,0.1,0.3,0.1,0.4,0.2c0.1,0.1,0.1,0.1,0.1,0.2c0,0.1,0,0.1-0.1,0.2
					c-0.1,0.1-0.2,0.1-0.3,0.1s-0.3,0-0.4-0.1c-0.1,0-0.2-0.1-0.3-0.2l0,0l-0.1,0.2c0.1,0.1,0.2,0.1,0.4,0.2
					C55.6-136.9,55.8-136.9,55.9-136.9z M58.9-136.9c0.1,0,0.2,0,0.3,0c0.1,0,0.2,0,0.2-0.1l0,0l-0.1-0.2c-0.1,0-0.1,0-0.2,0.1
					s-0.1,0-0.2,0s-0.1,0-0.2,0c-0.1,0-0.1,0-0.1-0.1s-0.1-0.1-0.1-0.1s0-0.1,0-0.2l0,0v-0.8h0.8v-0.2h-0.8v-0.5h-0.2l0,0.5l-0.5,0
					v0.2h0.5v0.8c0,0.1,0,0.2,0,0.3c0,0.1,0.1,0.2,0.1,0.2c0,0.1,0.1,0.1,0.2,0.1S58.8-136.9,58.9-136.9z"/>
			</g>
			<g id="编组备份-2" transform="translate(35.000000, -0.000000)">
				<g id="编组备份" transform="translate(0.000000, -0.000000)">
					<rect id="矩形" x="-4.9" y="18.9" class="st3" width="26.4" height="7.5"/>
					<polygon id="矩形备份-13" class="st3" points="21.5,18.9 21.5,48.2 14,48.2 14,18.9 					"/>
					<polygon id="矩形备份-14" class="st4" points="2.6,29.5 2.6,48.2 -4.9,48.2 -4.9,29.5 					"/>
					<polygon id="矩形备份-15" class="st4" points="2.6,18.9 2.6,26.4 -4.9,26.4 -4.9,18.9 					"/>
					<rect id="矩形备份-12" x="-4.9" y="40.7" class="st3" width="26.4" height="7.5"/>
				</g>
			</g>
		</g>
	</g>
</g>
</svg>
