<?xml version="1.0" encoding="UTF-8"?>
<svg width="86px" height="86px" viewBox="0 0 86 86" version="1.1" xmlns="http://www.w3.org/2000/svg" xmlns:xlink="http://www.w3.org/1999/xlink">
    <!-- Generator: Sketch 59.1 (86144) - https://sketch.com -->
    <title>编组 26备份</title>
    <desc>Created with Sketch.</desc>
    <g id="首页" stroke="none" stroke-width="1" fill="none" fill-rule="evenodd">
        <g id="编组-26备份">
            <g id="编组-19">
                <g id="编组-13">
                    <rect id="矩形备份-4" stroke="#E7E7E7" stroke-width="0.5" x="0.25" y="0.25" width="85.5" height="85.5" rx="42.75"></rect>
                    <g id="编组" transform="translate(19.000000, 34.000000)" fill="#02EAD0">
                        <polygon id="Fill-1" points="10.6024465 0 10.6024465 7.25569286 4.39755352 7.25569286 4.39755352 0 0 0 0 19 4.39755352 19 4.39755352 11.7444429 10.6024465 11.7444429 10.6024465 19 15 19 15 0"></polygon>
                        <g transform="translate(16.000000, 3.000000)">
                            <path d="M8.03632656,11.4250752 C6.10442177,11.4250752 4.53810198,9.8644392 4.53810198,7.9390872 C4.53810198,6.0136032 6.10442177,4.4530992 8.03632656,4.4530992 C9.96836381,4.4530992 11.5345511,6.0136032 11.5345511,7.9390872 C11.5345511,9.8644392 9.96836381,11.4250752 8.03632656,11.4250752 M8.03632656,0.0380952 C3.65765143,0.0380952 0.108033017,3.5754312 0.108033017,7.9390872 C0.108033017,12.3024792 3.65765143,15.8399472 8.03632656,15.8399472 C12.4150017,15.8399472 15.9646201,12.3024792 15.9646201,7.9390872 C15.9646201,3.5754312 12.4150017,0.0380952 8.03632656,0.0380952" id="Fill-2"></path>
                            <path d="M25.2176162,11.4250752 C23.2855789,11.4250752 21.7193916,9.8644392 21.7193916,7.9390872 C21.7193916,6.0136032 23.2855789,4.4530992 25.2176162,4.4530992 C27.149521,4.4530992 28.7158408,6.0136032 28.7158408,7.9390872 C28.7158408,9.8644392 27.149521,11.4250752 25.2176162,11.4250752 M25.2176162,0.0380952 C20.8389411,0.0380952 17.2893226,3.5754312 17.2893226,7.9390872 C17.2893226,12.3024792 20.8389411,15.8399472 25.2176162,15.8399472 C29.5962913,15.8399472 33.1459097,12.3024792 33.1459097,7.9390872 C33.1459097,3.5754312 29.5962913,0.0380952 25.2176162,0.0380952" id="Fill-4"></path>
                        </g>
                    </g>
                </g>
            </g>
        </g>
    </g>
</svg>