<?xml version="1.0" encoding="utf-8"?>
<!-- Generator: Adobe Illustrator 24.0.0, SVG Export Plug-In . SVG Version: 6.00 Build 0)  -->
<svg version="1.1" id="图层_1" xmlns="http://www.w3.org/2000/svg" xmlns:xlink="http://www.w3.org/1999/xlink" x="0px" y="0px"
	 viewBox="0 0 87 86" style="enable-background:new 0 0 87 86;" xml:space="preserve">
<style type="text/css">
	.st0{fill-rule:evenodd;clip-rule:evenodd;fill:#FFFFFF;stroke:#E7E7E7;stroke-width:0.5;}
	.st1{fill:#2F7CC0;}
	.st2{fill:#256099;}
	.st3{fill:#FFFFFF;}
	.st4{fill:#01111B;}
</style>
<title>编组 32</title>
<desc>Created with Sketch.</desc>
<g id="编组-8" transform="translate(1.000000, 0.000000)">
	<path id="矩形备份-10" class="st0" d="M42.4,0.2L42.4,0.2C66,0.2,85.2,19.4,85.2,43l0,0c0,23.6-19.1,42.8-42.8,42.8l0,0
		C18.8,85.8-0.3,66.6-0.3,43l0,0C-0.3,19.4,18.8,0.2,42.4,0.2z"/>
</g>
<g>
	<circle class="st1" cx="13.1" cy="43.9" r="6.9"/>
	<path class="st2" d="M9.8,41L9,41.8l1.1,0.8l2.4,0l-0.7,0.9l0.4,0.8l1.9,0c0,0,0-0.2,0.1-0.9c0.2-1.2,2.2-1.2,2.2,0.1
		c0,1-0.8,1.1-1.2,1.1c-0.5,0-6.3,0-6.3,0l-0.9,0.8l0.8,0.8h2.9l-0.8,1.1l0.6,0.8h1.8l0.5-2c0,0,1.1,0,1.6,0c0.8,0,3-0.5,3-2.8
		c0-2.1-2.3-2.3-3.1-2.3C14.3,41,9.8,41,9.8,41z"/>
	<path class="st3" d="M9.4,40.2L9,41.8l3.1,0l-0.4,1.7l1.9,0c0,0,0-0.2,0.1-0.9c0.2-1.2,2.2-1.2,2.2,0.1c0,1-0.8,1.1-1.2,1.1
		c-0.5,0-6.3,0-6.3,0l-0.5,1.6h3.3l-0.5,1.9h2.1l0.5-2c0,0,1.1,0,1.6,0c0.8,0,3-0.5,3-2.8c0-2.1-2.3-2.3-3.1-2.3
		C13.9,40.2,9.4,40.2,9.4,40.2z"/>
</g>
<polygon class="st4" points="23.4,40.2 25.9,40.2 25,43.4 27.7,43.4 28.6,40.2 31.1,40.2 28.7,48.7 26.5,48.7 27.2,45.4 24.4,45.4 
	23.5,48.7 21.1,48.7 "/>
<path class="st4" d="M31.1,42.2h2.3l0.1,3.8l2.2-3.8H38l-3.8,5.9c0,0-1.2,2.2-3.1,2.3c-0.9,0-1.3-0.2-1.7-0.5
	c0.3-0.4,0.7-1.3,0.7-1.3s0.5,0.4,1.3,0.2c0.4-0.2,0.3-0.9,0.3-0.9L31.1,42.2z"/>
<path class="st1" d="M74.8,42.2h2.3l0.1,3.8l2.2-3.8h2.4L78,48.2c0,0-1.2,2.2-3.1,2.3c-0.9,0-1.3-0.2-1.7-0.5
	c0.3-0.4,0.7-1.3,0.7-1.3s0.5,0.4,1.3,0.2c0.4-0.2,0.3-0.9,0.3-0.9L74.8,42.2z"/>
<path class="st4" d="M43.3,42.2c-1.2-0.4-2.2,0.1-2.7,0.8c0.1-0.5,0.1-0.8,0.1-0.8h-2l-2.2,8.2h2.2l0.8-2.9c0,0,0.6,1,1.6,1.1
	c0,0,1.9,0.3,2.9-1.5C45,45.4,45.1,42.9,43.3,42.2z M42.2,45.9c-0.3,0.8-1.2,1.2-1.8,0.9c-0.6-0.3-0.9-1.2-0.5-1.9
	c0.3-0.8,1.2-1.2,1.8-0.9S42.6,45.1,42.2,45.9z"/>
<path class="st4" d="M49,42.2c-2.4-0.1-3.9,1.9-3.9,3.8c0,1.9,2.5,4,5.5,1.8c-0.5-0.7-1-1.2-1-1.2c-0.8,0.8-2.7,0.7-2.6-0.7h4.3
	C51.2,45.9,52.6,42.4,49,42.2z M49.8,45c-1.2,0-2.6,0-2.6,0C47.4,43.3,50,43,49.8,45z"/>
<path class="st4" d="M52.9,42.2l-1.6,6.3h2.1c0,0,0.5-2.9,1.4-3.5c0.9-0.6,1.6-0.6,1.9-0.6c0.2-0.8,0.6-2.3,0.6-2.3
	c-0.6-0.1-1.6,0.1-2.5,1.2c0.2-0.6,0.3-1.1,0.3-1.1H52.9z"/>
<path class="st1" d="M58.6,40.3l-0.5,1.9l3.5,0l-0.4,2l2.2,0c0,0,0-0.2,0.1-1.1c0.2-1.3,2.5-1.4,2.5,0.1c0,1.1-0.9,1.2-1.4,1.3
	s-7.2,0-7.2,0l-0.6,1.8h3.8L60,48.5h2.5l0.6-2.3c0,0,1.3,0,1.8,0c1,0,3.5-0.6,3.5-3.3c0-2.4-2.6-2.6-3.6-2.6
	C63.8,40.3,58.6,40.3,58.6,40.3z"/>
<path class="st1" d="M72.7,42.4c-1.5-0.2-2.4-0.1-3.7,0.2l0.2,1.5c0,0,1.7-0.3,2.5-0.1c0.6,0.2,0.3,1,0.3,1s-1.3-0.5-2.8,0
	c-1.2,0.4-2.3,2-1.1,3.4c0.6,0.6,1.8,0.6,2.9-0.3c0,0.2-0.1,0.6-0.1,0.6H73c0,0,1-3.3,1.1-3.8C74.2,44.5,74.7,42.7,72.7,42.4z
	 M71.3,46.9c-0.4,0.4-0.8,0.5-1.1,0.4c-0.3-0.2-0.5-0.7-0.2-1.1c0.2-0.3,1.2-0.4,1.6-0.3C71.8,45.9,71.6,46.5,71.3,46.9z"/>
</svg>
