<?xml version="1.0" encoding="UTF-8"?>
<svg width="87px" height="86px" viewBox="0 0 87 86" version="1.1" xmlns="http://www.w3.org/2000/svg" xmlns:xlink="http://www.w3.org/1999/xlink">
    <!-- Generator: Sketch 59.1 (86144) - https://sketch.com -->
    <title>编组 4</title>
    <desc>Created with Sketch.</desc>
    <defs>
        <polygon id="path-1" points="0.0109346307 0.2031024 7.824504 0.2031024 7.824504 6.14183315 0.0109346307 6.14183315"></polygon>
    </defs>
    <g id="组件" stroke="none" stroke-width="1" fill="none" fill-rule="evenodd">
        <g id="编组-4" transform="translate(0.800000, 0.000000)">
            <g id="编组-20" fill="#FFFFFF" stroke="#E7E7E7" stroke-width="0.5">
                <rect id="矩形备份-10" x="0.25" y="0.25" width="85.5" height="85.5" rx="42.75"></rect>
            </g>
            <g id="编组" transform="translate(7.200000, 37.000000)">
                <path d="M12.717498,0 L9.993582,0 C9.850398,0 9.733434,0.117192 9.733434,0.260376 L9.733434,9.472944 C9.733434,9.616128 9.616242,9.73332 9.473286,9.73332 L0.260262,9.73332 C0.117078,9.73332 0.000114,9.85074 0.000114,9.993924 L0.000114,12.717612 C0.000114,12.860796 0.117078,12.97776 0.260262,12.97776 L12.717498,12.97776 L12.977874,12.97776 L12.977874,12.717612 L12.977874,0.260376 C12.977874,0.117192 12.860682,0 12.717498,0" id="Fill-1" fill="#F29700"></path>
                <path d="M0.296514,8.440788 L3.399366,8.440788 C3.562614,8.440788 3.695994,8.307408 3.695994,8.14416 L3.695994,5.041536 C3.695994,4.878288 3.562614,4.744908 3.399366,4.744908 L0.296514,4.744908 C0.133494,4.744908 0.000114,4.878288 0.000114,5.041536 L0.000114,8.14416 C0.000114,8.307408 0.133494,8.440788 0.296514,8.440788" id="Fill-3" fill="#F29700"></path>
                <path d="M4.9146312,3.69588 L8.0174832,3.69588 C8.1807312,3.69588 8.3141112,3.5625 8.3141112,3.399252 L8.3141112,0.2964 C8.3141112,0.13338 8.1807312,0 8.0174832,0 L7.8508152,0 L5.1268992,0 L4.9146312,0 C4.7516112,0 4.6182312,0.13338 4.6182312,0.2964 L4.6182312,3.399252 C4.6182312,3.5625 4.7516112,3.69588 4.9146312,3.69588" id="Fill-5" fill="#F29700"></path>
                <path d="M53.1996504,3.6474528 C53.0938584,3.6474528 52.9766664,3.7281648 52.9392744,3.8273448 L50.2217424,11.0148168 C50.1843504,11.1135408 50.1040944,11.1238008 50.0434464,11.0371608 L48.2965104,8.5458048 C48.2358624,8.4591648 48.1861584,8.3020728 48.1861584,8.1962808 L48.1861584,3.5430288 C48.1861584,3.4372368 48.0997464,3.3508248 47.9939544,3.3508248 L47.0680464,3.3508248 C46.9627104,3.3508248 46.8760704,3.4372368 46.8760704,3.5430288 L46.8760704,8.2291128 C46.8760704,8.3346768 46.8261384,8.4917688 46.7652624,8.5781808 L44.5374744,11.7364368 C44.4763704,11.8226208 44.4991704,11.9404968 44.5876344,11.9984088 L45.2734584,12.4462008 C45.3619224,12.5038848 45.4848144,12.4808568 45.5463744,12.3946728 L47.4278304,9.7651488 C47.4891624,9.6791928 47.5899384,9.6791928 47.6512704,9.7653768 L49.3783704,12.1862808 C49.4399304,12.2724648 49.5416184,12.3429168 49.6047744,12.3429168 L49.9118904,12.3429168 L50.7668904,12.3429168 L51.0386664,12.3429168 C51.0826704,12.3429168 51.1485624,12.2617488 51.1850424,12.1625688 L54.2646384,3.8278008 C54.3013464,3.7283928 54.2448024,3.6474528 54.1390104,3.6474528 L53.1996504,3.6474528 Z" id="Fill-7" fill="#545555"></path>
                <path d="M22.3160016,0.7973388 C22.2104376,0.7973388 22.0620096,0.8577588 21.9863136,0.9314028 L17.9616576,4.8559668 C17.8861896,4.9298388 17.8861896,5.0504508 17.9621136,5.1243228 L18.6274176,5.7704748 C18.7031136,5.8438908 18.8273736,5.8441188 18.9035256,5.7707028 L22.6016856,2.2043268 C22.6778376,2.1309108 22.8267216,2.0709468 22.9322856,2.0709468 L25.0991976,2.0709468 C25.2047616,2.0709468 25.3536456,2.1309108 25.4297976,2.2043268 L29.1279576,5.7707028 C29.2041096,5.8441188 29.3283696,5.8438908 29.4042936,5.7704748 L30.0693696,5.1243228 C30.1452936,5.0504508 30.1455216,4.9298388 30.0698256,4.8559668 L26.0451696,0.9314028 C25.9697016,0.8577588 25.8212736,0.7973388 25.7154816,0.7973388 L22.3160016,0.7973388 Z" id="Fill-9" fill="#545555"></path>
                <path d="M24.6862896,8.797722 C24.6862896,8.69193 24.7727016,8.605518 24.8784936,8.605518 L29.0205696,8.605518 C29.1263616,8.605518 29.2127736,8.518878 29.2127736,8.413086 L29.2127736,7.542354 C29.2127736,7.436562 29.1263616,7.35015 29.0205696,7.35015 L24.8784936,7.35015 C24.7727016,7.35015 24.6862896,7.26351 24.6862896,7.158174 L24.6862896,5.843526 C24.6862896,5.737962 24.7727016,5.651322 24.8784936,5.651322 L27.3707616,5.651322 C27.4765536,5.651322 27.5629656,5.56491 27.5629656,5.459118 L27.5629656,4.575618 C27.5629656,4.470054 27.4765536,4.383414 27.3707616,4.383414 L20.6611776,4.383414 C20.5553856,4.383414 20.4689736,4.470054 20.4689736,4.575618 L20.4689736,5.459118 C20.4689736,5.56491 20.5553856,5.651322 20.6611776,5.651322 L23.1671256,5.651322 C23.2726896,5.651322 23.3593296,5.737962 23.3593296,5.843526 L23.3593296,7.158174 C23.3593296,7.26351 23.2726896,7.35015 23.1671256,7.35015 L19.0113696,7.35015 C18.9055776,7.35015 18.8191656,7.436562 18.8191656,7.542354 L18.8191656,8.413086 C18.8191656,8.518878 18.9055776,8.605518 19.0113696,8.605518 L23.1671256,8.605518 C23.2726896,8.605518 23.3593296,8.69193 23.3593296,8.797722 L23.3593296,10.908774 C23.3593296,11.014566 23.2726896,11.100978 23.1671256,11.100978 L18.7685496,11.100978 C18.6627576,11.100978 18.5763456,11.18739 18.5763456,11.292954 L18.5763456,12.17691 C18.5763456,12.282702 18.6627576,12.369114 18.7685496,12.369114 L29.2645296,12.369114 C29.3703216,12.369114 29.4567336,12.282702 29.4567336,12.17691 L29.4567336,11.292954 C29.4567336,11.18739 29.3703216,11.100978 29.2645296,11.100978 L24.8784936,11.100978 C24.7727016,11.100978 24.6862896,11.014566 24.6862896,10.908774 L24.6862896,8.797722 Z" id="Fill-11" fill="#545555"></path>
                <path d="M46.0069572,2.218212 C46.0069572,2.112648 46.0933692,2.026008 46.1991612,2.026008 L48.8624292,2.026008 C48.9679932,2.026008 49.0546332,2.112648 49.0546332,2.218212 L49.0546332,8.881512 C49.0546332,8.987076 49.1410452,9.073488 49.2468372,9.073488 L50.1727452,9.073488 C50.2783092,9.073488 50.3647212,8.987076 50.3647212,8.881512 L50.3647212,0.98952 C50.3647212,0.883728 50.2783092,0.797316 50.1727452,0.797316 L44.8895292,0.797316 C44.7839652,0.797316 44.6973252,0.883728 44.6973252,0.98952 L44.6973252,8.881512 C44.6973252,8.987076 44.7839652,9.073488 44.8895292,9.073488 L45.8145252,9.073488 C45.9203172,9.073488 46.0069572,8.987076 46.0069572,8.881512 L46.0069572,2.218212 Z" id="Fill-13" fill="#545555"></path>
                <path d="M55.7831184,0.9894972 C55.7831184,0.8839332 55.6964784,0.7972932 55.5906864,0.7972932 L54.6652344,0.7972932 C54.5594424,0.7972932 54.4730304,0.8839332 54.4730304,0.9894972 L54.4730304,1.4678412 C54.4730304,1.5736332 54.3863904,1.6600452 54.2808264,1.6600452 L51.4091664,1.6600452 C51.3036024,1.6600452 51.2171904,1.7464572 51.2171904,1.8522492 L51.2171904,2.7186492 C51.2171904,2.8244412 51.3036024,2.9108532 51.4091664,2.9108532 L54.2808264,2.9108532 C54.3863904,2.9108532 54.4730304,2.9972652 54.4730304,3.1030572 L54.4730304,10.9382772 C54.4730304,11.0440692 54.3863904,11.1304812 54.2808264,11.1304812 L53.3435184,11.1304812 C53.2377264,11.1304812 53.1513144,11.2171212 53.1513144,11.3226852 L53.1513144,12.1770012 C53.1513144,12.2827932 53.2377264,12.3692052 53.3435184,12.3692052 L55.5906864,12.3692052 C55.6964784,12.3692052 55.7831184,12.2827932 55.7831184,12.1770012 L55.7831184,3.1030572 C55.7831184,2.9972652 55.8695304,2.9108532 55.9753224,2.9108532 L56.5314144,2.9108532 C56.6372064,2.9108532 56.7236184,2.8244412 56.7236184,2.7186492 L56.7236184,1.8522492 C56.7236184,1.7464572 56.6372064,1.6600452 56.5314144,1.6600452 L55.9753224,1.6600452 C55.8695304,1.6600452 55.7831184,1.5736332 55.7831184,1.4678412 L55.7831184,0.9894972 Z" id="Fill-15" fill="#545555"></path>
                <path d="M62.8041504,8.22282 C62.8041504,8.328612 62.8905624,8.415252 62.9963544,8.415252 L65.6147064,8.415252 C65.7204984,8.415252 65.8069104,8.501664 65.8069104,8.607456 L65.8069104,10.9041 C65.8069104,11.009892 65.7204984,11.096532 65.6147064,11.096532 L62.9963544,11.096532 C62.8905624,11.096532 62.8041504,11.182716 62.8041504,11.288508 L62.8041504,12.142596 C62.8041504,12.248388 62.8905624,12.3348 62.9963544,12.3348 L69.9528624,12.3348 C70.0584264,12.3348 70.1448384,12.248388 70.1448384,12.142596 L70.1448384,11.288508 C70.1448384,11.182716 70.0584264,11.096532 69.9528624,11.096532 L67.3082904,11.096532 C67.2024984,11.096532 67.1158584,11.009892 67.1158584,10.9041 L67.1158584,8.607456 C67.1158584,8.501664 67.2024984,8.415252 67.3082904,8.415252 L69.9528624,8.415252 C70.0584264,8.415252 70.1448384,8.328612 70.1448384,8.22282 L70.1448384,7.356192 C70.1448384,7.2504 70.0584264,7.163988 69.9528624,7.163988 L62.9963544,7.163988 C62.8905624,7.163988 62.8041504,7.2504 62.8041504,7.356192 L62.8041504,8.22282 Z" id="Fill-17" fill="#545555"></path>
                <g transform="translate(62.472000, 0.665897)">
                    <mask id="mask-2" fill="white">
                        <use xlink:href="#path-1"></use>
                    </mask>
                    <g id="Clip-20"></g>
                    <path d="M5.11746,3.1452144 C5.0331,3.0816024 5.033328,2.9776344 5.117688,2.9140224 L6.935532,1.5494424 C7.02012,1.4858304 7.088976,1.3474344 7.088976,1.2418704 L7.088976,0.3953064 C7.088976,0.2895144 7.002792,0.2031024 6.897,0.2031024 L0.500688,0.2031024 C0.395124,0.2031024 0.308484,0.2895144 0.308484,0.3953064 L0.308484,1.2423264 C0.308484,1.3481184 0.395124,1.4345304 0.500688,1.4345304 L4.757448,1.4345304 C4.86324,1.4345304 4.93506,1.4548224 4.917276,1.4794464 C4.899492,1.5042984 4.815588,1.5761184 4.731,1.6395024 L0.086184,5.1128544 C0.001596,5.1760104 -0.014136,5.2957104 0.051528,5.3784744 L0.598272,6.0670344 C0.664164,6.1500264 0.787056,6.1657584 0.871416,6.1023744 L3.75744,3.9354624 C3.842028,3.8720784 3.980196,3.8720784 4.064556,3.9356904 L6.937128,6.1019184 C7.021716,6.1657584 7.146204,6.1513944 7.214148,6.0704544 L7.781412,5.3944344 C7.849128,5.3134944 7.835676,5.1951624 7.751316,5.1313224 L5.11746,3.1452144 Z" id="Fill-19" fill="#545555" mask="url(#mask-2)"></path>
                </g>
                <path d="M33.4462548,5.310804 C33.4462548,5.20524 33.5326668,5.1186 33.6384588,5.1186 L36.3361548,5.1186 C36.4417188,5.1186 36.5283588,5.20524 36.5283588,5.310804 L36.5283588,7.626828 C36.5283588,7.73262 36.4417188,7.818804 36.3361548,7.818804 L33.6384588,7.818804 C33.5326668,7.818804 33.4462548,7.73262 33.4462548,7.626828 L33.4462548,5.310804 Z M37.8320628,5.310804 C37.8320628,5.20524 37.9187028,5.1186 38.0242668,5.1186 L41.0101548,5.1186 C41.1159468,5.1186 41.2025868,5.20524 41.2025868,5.310804 L41.2025868,7.626828 C41.2025868,7.73262 41.1159468,7.818804 41.0101548,7.818804 L38.0242668,7.818804 C37.9187028,7.818804 37.8320628,7.73262 37.8320628,7.626828 L37.8320628,5.310804 Z M42.7078428,11.306748 C42.7078428,11.200956 42.6214308,11.114772 42.5156388,11.114772 L33.6384588,11.114772 C33.5326668,11.114772 33.4462548,11.028132 33.4462548,10.92234 L33.4462548,9.26592 C33.4462548,9.160128 33.5326668,9.073488 33.6384588,9.073488 L42.3145428,9.073488 C42.4203348,9.073488 42.5067468,8.987304 42.5067468,8.881512 L42.5067468,4.068432 C42.5067468,3.96264 42.4203348,3.876228 42.3145428,3.876228 L41.1268908,3.876228 C41.0210988,3.876228 40.9547508,3.792096 40.9791468,3.689268 L41.4873588,1.555872 C41.5119828,1.453044 41.4454068,1.368912 41.3396148,1.368912 L40.0733028,1.368912 L39.6888948,1.368912 L34.0351788,1.368912 C33.9296148,1.368912 33.8559708,1.283412 33.8717028,1.17876 L33.9054468,0.95418 C33.9211788,0.849528 33.8475348,0.764028 33.7417428,0.764028 L32.8219908,0.764028 C32.7161988,0.764028 32.6142828,0.8493 32.5953588,0.953268 L32.3306508,2.412468 C32.3117268,2.516436 32.3828628,2.60148 32.4884268,2.60148 L33.4081788,2.60148 L33.7925868,2.60148 L39.6888948,2.60148 C39.7946868,2.60148 39.8633148,2.686068 39.8411988,2.789352 L39.6499068,3.688356 C39.6277908,3.79164 39.5233668,3.876228 39.4175748,3.876228 L32.3217588,3.876228 C32.2159668,3.876228 32.1295548,3.96264 32.1295548,4.068432 L32.1295548,12.177024 C32.1295548,12.282816 32.2159668,12.369228 32.3217588,12.369228 L42.5156388,12.369228 C42.6214308,12.369228 42.7078428,12.282816 42.7078428,12.177024 L42.7078428,11.306748 Z" id="Fill-21" fill="#545555"></path>
                <path d="M58.3191852,11.0042376 C58.2136212,11.0042376 58.1269812,11.0906496 58.1269812,11.1964416 L58.1269812,12.0505296 C58.1269812,12.1563216 58.2136212,12.2429616 58.3191852,12.2429616 L61.5679572,12.2429616 C61.6737492,12.2429616 61.7603892,12.1563216 61.7603892,12.0505296 L61.7603892,11.1964416 C61.7603892,11.0906496 61.6737492,11.0042376 61.5679572,11.0042376 L58.3191852,11.0042376 Z" id="Fill-23" fill="#545555"></path>
                <path d="M21.3955428,10.3278072 C21.3955428,10.4335992 21.3091308,10.5200112 21.2033388,10.5200112 L20.3027388,10.5200112 C20.1971748,10.5200112 20.1105348,10.4335992 20.1105348,10.3278072 L20.1105348,9.4274352 C20.1105348,9.3216432 20.1971748,9.2352312 20.3027388,9.2352312 L21.2033388,9.2352312 C21.3091308,9.2352312 21.3955428,9.3216432 21.3955428,9.4274352 L21.3955428,10.3278072 Z" id="Fill-25" fill="#545555"></path>
                <path d="M27.912786,10.3278072 C27.912786,10.4335992 27.826374,10.5200112 27.720582,10.5200112 L26.82021,10.5200112 C26.714418,10.5200112 26.628006,10.4335992 26.628006,10.3278072 L26.628006,9.4274352 C26.628006,9.3216432 26.714418,9.2352312 26.82021,9.2352312 L27.720582,9.2352312 C27.826374,9.2352312 27.912786,9.3216432 27.912786,9.4274352 L27.912786,10.3278072 Z" id="Fill-27" fill="#545555"></path>
                <path d="M60.3660552,8.5111488 C60.2602632,8.5111488 60.2025792,8.4297528 60.2379192,8.3298888 L61.3090632,5.2897368 C61.3441752,5.1898728 61.2864912,5.1087048 61.1806992,5.10893232 L60.1357752,5.1114408 C60.0299832,5.1116688 59.9148432,5.1935208 59.8801872,5.2931568 L58.3833672,9.5681568 C58.3484832,9.6677928 58.4063952,9.7496448 58.5119592,9.7496448 L61.5678432,9.7496448 C61.6736352,9.7496448 61.7600472,9.6630048 61.7600472,9.5572128 L61.7600472,8.7033528 C61.7600472,8.5975608 61.6736352,8.5111488 61.5678432,8.5111488 L60.3660552,8.5111488 Z" id="Fill-29" fill="#545555"></path>
                <path d="M59.8109664,4.31319 C59.8474464,4.21401 59.9092344,4.052358 59.9479944,3.95409 L61.1217384,0.976182 C61.1604984,0.877914 61.1057784,0.79743 60.9999864,0.79743 L59.9169864,0.79743 C59.8111944,0.79743 59.6946864,0.87837 59.6579784,0.97755 L58.1937624,4.928106 C58.1570544,5.027286 58.2135984,5.108454 58.3191624,5.108454 L59.3257824,5.108454 C59.4315744,5.108454 59.5480824,5.027286 59.5845624,4.928106 L59.8109664,4.31319 Z" id="Fill-31" fill="#F29700"></path>
            </g>
        </g>
    </g>
</svg>