<?xml version="1.0" encoding="UTF-8"?>
<svg width="87px" height="86px" viewBox="0 0 87 86" version="1.1" xmlns="http://www.w3.org/2000/svg" xmlns:xlink="http://www.w3.org/1999/xlink">
    <!-- Generator: Sketch 59.1 (86144) - https://sketch.com -->
    <title>编组 50</title>
    <desc>Created with Sketch.</desc>
    <defs>
        <polygon id="path-1" points="1.18983051e-05 0.0206715682 11.9009346 0.0206715682 11.9009346 11.8922727 1.18983051e-05 11.8922727"></polygon>
        <polygon id="path-3" points="0.111296746 0.100664591 12.0337078 0.100664591 12.0337078 11.9108573 0.111296746 11.9108573"></polygon>
        <polygon id="path-5" points="0 37.5422727 51.1791315 37.5422727 51.1791315 0.0219190909 0 0.0219190909"></polygon>
    </defs>
    <g id="首页" stroke="none" stroke-width="1" fill="none" fill-rule="evenodd">
        <g id="编组-50">
            <g id="编组-21备份" fill="#FFFFFF" stroke="#E7E7E7" stroke-width="0.5">
                <rect id="矩形备份-11" x="0.25" y="0.25" width="86.5" height="85.5" rx="42.75"></rect>
            </g>
            <g id="编组备份" transform="translate(17.000000, 24.000000)">
                <polygon id="Fill-1" fill="#D60029" points="18.5 27.7639287 16.0819608 27.7639287 16.4914969 26.3325439 15.2597392 26 14.5 29 18.4983624 29"></polygon>
                <g id="编组" transform="translate(0.500000, 0.000000)">
                    <path d="M15.5051811,36.2620696 C15.3988102,36.1600525 15.3381289,36.0032378 15.3383668,35.8319657 L15.3595458,32.9079823 L16.9628424,32.9079823 L16.9642702,31.7516337 L15.3610926,31.7516337 L15.3450299,30.6777148 L16.9483265,30.6777148 L16.9501113,29.5215993 L13.1904848,29.5215993 L13.1887001,30.6777148 L14.1582929,30.6777148 L14.1743557,31.7516337 L13.2047628,31.7516337 L13.203335,32.9079823 L14.1729279,32.9079823 L14.1516299,35.7707555 C14.151035,36.2717466 14.3427167,36.7322807 14.691694,37.0670132 C15.0043814,37.3672348 15.4149919,37.5324441 15.8478523,37.5324441 L16.9391648,37.5324441 L16.9405926,36.3763287 L15.7853862,36.3763287 C15.6799672,36.3763287 15.582996,36.3368043 15.5051811,36.2620696" id="Fill-2" fill="#D60029"></path>
                    <path d="M18.7327153,36.2214843 C18.6280102,36.1210995 18.5706604,35.9827061 18.5708984,35.831954 L18.517237,27.2878225 L17.330738,27.2878225 L17.3842804,35.7707438 C17.3836855,36.24352 17.5750102,36.6876147 17.9227977,37.0216477 C18.2661828,37.3511336 18.7186753,37.532549 19.1967492,37.532549 L24.989677,37.532549 L24.9911048,36.3764336 L19.1344021,36.3764336 C18.9793672,36.3764336 18.8368255,36.3212861 18.7327153,36.2214843" id="Fill-4" fill="#D60029"></path>
                    <polygon id="Fill-6" fill="#D60029" points="24.886138 27.9915768 24.8875658 26.8354614 21.5136824 26.8354614 21.6758563 25.9486709 20.5119641 25.7240002 20.2995793 26.8354614 19.0641783 26.8354614 19.0628695 27.9915768 20.0880275 27.9915768 19.3716305 31.8560991 21.8504044 31.8560991 21.8485007 33.39883 19.0556115 33.39883 19.0537078 34.5549455 21.8467159 34.5549455 21.8445742 36.2526257 23.0311922 36.2526257 23.0334529 34.5549455 24.9806105 34.5549455 24.9823953 33.39883 23.0352376 33.39883 23.0371414 31.8560991 24.8035637 31.8560991 24.8048725 30.6999837 23.0388071 30.6999837 23.0416627 28.4952496 21.8549258 28.4952496 21.8520702 30.6999837 20.7971664 30.6999837 21.2905892 27.9915768"></polygon>
                    <g transform="translate(0.000000, 25.650000)">
                        <mask id="mask-2" fill="white">
                            <use xlink:href="#path-1"></use>
                        </mask>
                        <g id="Clip-9"></g>
                        <path d="M9.12065766,2.30923452 L11.4033475,4.58567202 L10.4154312,5.38128839 L8.10775495,3.09249225 L9.12065766,2.30923452 Z M4.97469325,1.56281952 C4.79990715,1.56281952 4.66236275,1.69736543 4.66212478,1.86863748 L4.66069698,2.99467248 L3.29917393,2.99467248 L3.30167258,1.06101225 C3.30214851,0.718234977 3.57735631,0.449026568 3.91467325,0.449026568 L11.0591295,0.449026568 C11.3963275,0.449026568 11.6830766,0.718234977 11.68272,1.06101225 L11.6802211,2.99467248 L10.3062048,2.99467248 L10.3078705,1.86863748 C10.3079895,1.69736543 10.1705641,1.56281952 9.995778,1.56281952 L4.97469325,1.56281952 Z M6.79632376,3.09249225 L4.48257936,5.38128839 L3.49692376,4.59803066 L5.78568173,2.32147657 L6.79632376,3.09249225 Z M6.72207834,11.8923077 L6.72743258,7.9269343 C5.85112241,9.26096748 4.98195122,10.4725802 3.94370512,11.5128043 L2.93342003,10.5460325 C3.98380241,9.57914407 4.89069122,8.33068861 5.6918041,7.10683384 L3.31856817,7.10683384 L3.66980614,5.99315748 L6.72993122,5.99315748 L6.73207292,4.43900066 L8.11846342,4.43900066 L8.11644071,5.99315748 L11.680816,5.99315748 L11.6793882,7.10683384 L9.16420546,7.10683384 C9.93688139,8.33068861 10.8529319,9.57914407 11.9009346,10.5460325 L10.8879129,11.5128043 C9.82753597,10.4603382 8.97383258,9.23648339 8.11382308,7.89020816 L8.10846885,11.8923077 L6.72207834,11.8923077 Z M1.35451495,0.0206715682 L2.8760702,1.80766043 L1.82568783,2.6518952 L0.316863763,0.803929295 L1.35451495,0.0206715682 Z M1.00042139,3.39865998 L2.68403156,5.23426725 L1.64638037,6.11546134 L1.18983051e-05,4.24289475 L1.00042139,3.39865998 Z M0.109476305,11.3661329 L1.68885732,7.14367657 L2.96233292,7.59639907 L1.37033969,11.8433395 L0.109476305,11.3661329 Z" id="Fill-8" fill="#D60029" mask="url(#mask-2)"></path>
                    </g>
                    <path d="M36.9826688,25.7138335 L36.9795753,27.9714999 L38.0530403,27.9714999 L38.0513746,29.0852928 L36.9779095,29.0852928 L36.9680339,36.526591 C36.967082,37.2362799 36.6543946,37.5790572 35.7551207,37.5056049 L33.8192664,37.3587003 L33.7959458,36.1838137 L35.1569929,36.3183597 C35.4818166,36.3552024 35.5943746,36.2204233 35.5947315,35.9144887 L35.6022275,30.260296 C34.8999895,32.3653449 33.6480498,34.7029926 32.3597014,36.0247837 L31.3741647,35.118989 C32.762578,33.6626519 34.040218,30.9701015 34.6047925,29.0852928 L31.74444,29.0852928 L32.1080522,27.9714999 L35.60544,27.9714999 L35.6085336,25.7138335 L36.9826688,25.7138335 Z M26.4392237,26.7844878 C26.4395807,26.3682583 26.7398939,26.0745658 27.1520512,26.0745658 L30.7241603,26.0745658 C31.1490488,26.0745658 31.4359169,26.3438908 31.435323,26.7355197 L31.4256844,34.0054292 L30.2390664,34.0054292 L30.2478712,27.3229047 C30.2479902,27.2128428 30.1607756,27.1271485 30.0608298,27.1271485 L27.7876586,27.1271485 C27.6877129,27.1271485 27.6001414,27.2249683 27.6000224,27.3229047 L27.5910986,34.0054292 L26.4295861,34.0054292 L26.4392237,26.7844878 Z M29.5852546,27.8124699 L29.5793054,32.3285022 C29.5785915,32.8426681 29.5405169,33.3198747 29.4524695,33.7727137 C30.3006997,34.5804556 31.1488108,35.4983758 31.660081,36.1592131 L30.6971512,37.0527658 C30.2108675,36.416296 29.624638,35.7432167 29.0384085,35.0945049 C28.6250614,36.0001831 28.0935641,36.7834408 27.1307532,37.5179635 L26.2327881,36.526591 C27.5706336,35.5840701 28.2399132,34.3968249 28.2427688,32.3162601 L28.2488369,27.8124699 L29.5852546,27.8124699 Z" id="Fill-10" fill="#D60029"></path>
                    <g transform="translate(39.145424, 25.533409)">
                        <mask id="mask-4" fill="white">
                            <use xlink:href="#path-3"></use>
                        </mask>
                        <g id="Clip-13"></g>
                        <path d="M4.94462624,1.70390618 L5.29574522,0.590113227 L10.4292689,0.590113227 C11.0912906,0.590113227 11.4777476,1.10392936 11.1147303,1.71603164 C10.7391008,2.35250141 10.1638178,3.02569732 9.48846997,3.64980845 L12.0337554,5.28977618 L11.2328805,6.34224232 L8.47568624,4.49427641 C7.46302149,5.25305005 6.30055708,5.90164527 5.13833064,6.28114868 L4.47797471,5.13074618 C6.43964827,4.48203436 8.3151781,3.17248527 9.39114183,1.70390618 L4.94462624,1.70390618 Z M11.4813171,7.89663232 L9.00825437,7.89663232 L9.0045659,10.662635 L12.0272113,10.662635 L12.0257835,11.7763114 L4.55638454,11.7763114 L4.92011573,10.662635 L7.63054963,10.662635 L7.6342381,7.89663232 L5.07372285,7.89663232 L5.42496081,6.78295595 L11.4828639,6.78295595 L11.4813171,7.89663232 Z M5.01768183,3.18472732 L2.01324081,8.12923118 L4.31187437,7.89663232 L4.31020861,9.04703482 L1.14966183,9.3896955 C0.462653695,9.46314777 0.0760777627,8.93685641 0.439214034,8.31274527 L2.27964386,5.15523027 L0.855416746,5.32650232 C0.293221831,5.399838 -0.0433812203,4.91027277 0.207197085,4.39645664 L2.16137471,0.100664591 L3.47221098,0.614480727 L1.63118624,4.23719345 L2.90549471,4.10264755 L3.7942981,2.57285823 L5.01768183,3.18472732 Z M4.33233946,11.25002 L0.35949539,11.9108573 L0.111296746,10.7359707 L4.17147437,10.0996175 L4.33233946,11.25002 Z" id="Fill-12" fill="#D60029" mask="url(#mask-4)"></path>
                    </g>
                    <path d="M17.2873806,26.2731085 C17.2873806,25.9410575 17.5621125,25.6719657 17.9008572,25.6719657 C18.2397209,25.6719657 18.5144528,25.9410575 18.5144528,26.2731085 C18.5144528,26.6051594 18.2397209,26.8742512 17.9008572,26.8742512 C17.5621125,26.8742512 17.2873806,26.6051594 17.2873806,26.2731085" id="Fill-14" fill="#D60029"></path>
                    <mask id="mask-6" fill="white">
                        <use xlink:href="#path-5"></use>
                    </mask>
                    <g id="Clip-17"></g>
                    <path d="M17.1705631,19.7117918 L33.5615492,19.7117918 L33.5615492,3.65022818 L17.1705631,3.65022818 L17.1705631,19.7117918 Z M16.9325969,19.9449736 L33.7995153,19.9449736 L33.7995153,3.41704636 L16.9325969,3.41704636 L16.9325969,19.9449736 Z" id="Fill-16" fill="#D60029" mask="url(#mask-6)"></path>
                    <path d="M16.3348142,3.53373055 C16.3348142,3.14583259 16.6557115,2.83138691 17.0515681,2.83138691 C17.4474247,2.83138691 17.768322,3.14583259 17.768322,3.53373055 C17.768322,3.9216285 17.4474247,4.23607418 17.0515681,4.23607418 C16.6557115,4.23607418 16.3348142,3.9216285 16.3348142,3.53373055" id="Fill-18" fill="#D60029" mask="url(#mask-6)"></path>
                    <path d="M24.6493379,0.724274386 C24.6493379,0.336376432 24.9701162,0.02193075 25.3659728,0.02193075 C25.7619484,0.02193075 26.0828457,0.336376432 26.0828457,0.724274386 C26.0828457,1.11217234 25.7619484,1.42661802 25.3659728,1.42661802 C24.9701162,1.42661802 24.6493379,1.11217234 24.6493379,0.724274386" id="Fill-19" fill="#D60029" mask="url(#mask-6)"></path>
                    <path d="M32.9637426,3.53373055 C32.9637426,3.14583259 33.2846399,2.83138691 33.6804965,2.83138691 C34.0764721,2.83138691 34.3973694,3.14583259 34.3973694,3.53373055 C34.3973694,3.9216285 34.0764721,4.23607418 33.6804965,4.23607418 C33.2846399,4.23607418 32.9637426,3.9216285 32.9637426,3.53373055" id="Fill-20" fill="#D60029" mask="url(#mask-6)"></path>
                    <path d="M16.3348142,19.8283361 C16.3348142,19.4404381 16.6557115,19.1259925 17.0515681,19.1259925 C17.4474247,19.1259925 17.768322,19.4404381 17.768322,19.8283361 C17.768322,20.216234 17.4474247,20.5306797 17.0515681,20.5306797 C16.6557115,20.5306797 16.3348142,20.216234 16.3348142,19.8283361" id="Fill-21" fill="#D60029" mask="url(#mask-6)"></path>
                    <path d="M32.9637426,19.8283361 C32.9637426,19.4404381 33.2846399,19.1259925 33.6804965,19.1259925 C34.0764721,19.1259925 34.3973694,19.4404381 34.3973694,19.8283361 C34.3973694,20.216234 34.0764721,20.5306797 33.6804965,20.5306797 C33.2846399,20.5306797 32.9637426,20.216234 32.9637426,19.8283361" id="Fill-22" fill="#D60029" mask="url(#mask-6)"></path>
                    <polygon id="Fill-23" fill="#D60029" mask="url(#mask-6)" points="17.090428 3.64388564 17.012851 3.42341223 25.3272676 0.614154273 25.4048446 0.834511091"></polygon>
                    <path d="M26.0828219,22.6377806 C26.0828219,23.0256785 25.7619246,23.3401242 25.366068,23.3401242 C24.9700924,23.3401242 24.6493141,23.0256785 24.6493141,22.6377806 C24.6493141,22.2498826 24.9700924,21.935437 25.366068,21.935437 C25.7619246,21.935437 26.0828219,22.2498826 26.0828219,22.6377806" id="Fill-24" fill="#D60029" mask="url(#mask-6)"></path>
                    <path d="M36.5440378,10.8381976 C36.9398944,10.8381976 37.2607917,11.1526433 37.2607917,11.5405413 C37.2607917,11.9284392 36.9398944,12.2428849 36.5440378,12.2428849 C36.1481812,12.2428849 35.8272839,11.9284392 35.8272839,11.5405413 C35.8272839,11.1526433 36.1481812,10.8381976 36.5440378,10.8381976" id="Fill-25" fill="#D60029" mask="url(#mask-6)"></path>
                    <polygon id="Fill-26" fill="#D60029" mask="url(#mask-6)" points="36.4315631 11.5785499 33.5644285 3.43129377 33.7894255 3.3552765 36.6565601 11.5025326"></polygon>
                    <polygon id="Fill-27" fill="#D60029" mask="url(#mask-6)" points="33.7894136 19.725911 33.5644166 19.6498937 36.4315512 11.502521 36.6565482 11.5785383"></polygon>
                    <path d="M14.1845168,10.8381976 C13.7886602,10.8381976 13.4677629,11.1526433 13.4677629,11.5405413 C13.4677629,11.9284392 13.7886602,12.2428849 14.1845168,12.2428849 C14.5803734,12.2428849 14.9012707,11.9284392 14.9012707,11.5405413 C14.9012707,11.1526433 14.5803734,10.8381976 14.1845168,10.8381976" id="Fill-28" fill="#D60029" mask="url(#mask-6)"></path>
                    <polygon id="Fill-29" fill="#D60029" mask="url(#mask-6)" points="14.2969915 11.5785499 14.0719945 11.5025326 16.9391291 3.3552765 17.1641261 3.43129377"></polygon>
                    <polygon id="Fill-30" fill="#D60029" mask="url(#mask-6)" points="16.939141 19.725911 14.0720064 11.5785383 14.2970034 11.502521 17.164138 19.6498937"></polygon>
                    <path d="M26.7748749,7.437474 L21.5628224,12.6058324 L22.0394685,13.0675324 C22.3302631,13.3489829 22.6082075,13.4775826 22.8737776,13.4528654 C23.1391098,13.4283813 23.425502,13.2636383 23.7329542,12.9587531 L27.1708505,9.54963491 C27.4515315,9.27133241 27.6110878,9.00037514 27.6499953,8.7366465 C27.6886647,8.47280127 27.5558797,8.19368264 27.251759,7.89905741 L26.7748749,7.437474 Z" id="Fill-31" fill="#D60029" mask="url(#mask-6)"></path>
                    <path d="M29.8388075,12.9357497 C29.7208953,13.2075231 29.5463471,13.4581936 29.3151631,13.6875279 L28.9400095,14.0594529 L27.9722014,13.1222952 L28.2909569,12.8061006 C28.4784742,12.6201381 28.5871058,12.4068933 28.6172085,12.1663663 C28.6469542,11.9258392 28.5704481,11.7167917 28.3870953,11.5392238 C28.1465115,11.3062752 27.9133047,11.2246615 27.6874749,11.2936833 C27.49032,11.3539608 27.293641,11.4728836 27.097319,11.6503349 L24.8676956,13.8612483 C24.8255756,13.9029879 24.7835746,13.9434449 24.7414546,13.9825029 L23.5979085,15.1165827 C23.4040851,15.3087245 23.2841502,15.5111263 23.2383417,15.7241379 C23.1925332,15.9369163 23.2802237,16.1505108 23.5016512,16.3649215 C23.5649502,16.4261317 23.6437169,16.4812792 23.7384275,16.5300142 C23.833019,16.5786327 23.9368912,16.6089463 24.050401,16.6204888 C24.1572478,16.6260852 24.2734942,16.6039329 24.3989024,16.5537988 C24.5244295,16.5038979 24.6528122,16.4137731 24.7841695,16.2835411 L25.1122058,15.9581358 L26.0800139,16.8952936 L25.6674997,17.3044111 C25.461302,17.5090281 25.2261915,17.6644438 24.963001,17.7707747 C24.6993346,17.876989 24.4261495,17.934002 24.1433268,17.9419302 C23.8601471,17.9497417 23.5832736,17.9049708 23.3122302,17.8080838 C23.0413058,17.7109636 22.7982234,17.5582295 22.58334,17.3501147 C22.3997492,17.1723136 22.2381702,16.9668804 22.0982461,16.733582 C21.958679,16.5002836 21.8751529,16.248214 21.8486197,15.9770236 C21.8217295,15.7061829 21.8577814,15.425432 21.9566563,15.1353538 C22.0032976,14.9978931 22.0740925,14.8590333 22.1673753,14.7186579 C21.7746122,14.5771165 21.3875603,14.3220156 21.0063386,13.9528888 L19.5659298,12.5582283 L26.7026522,5.48139334 L28.234321,6.9645463 C28.8292363,7.54062198 29.1201498,8.1367513 29.1071807,8.75281766 C29.0974241,9.21055357 28.9282302,9.65919539 28.6011458,10.0987431 C28.8698095,10.2081054 29.1206258,10.374947 29.3529997,10.5999674 C29.8084668,11.0410308 30.03156,11.5450533 30.0225173,12.1120349 C30.017639,12.3892881 29.9564817,12.6638597 29.8388075,12.9357497 M25.3643308,4.07542357 C21.0776095,4.07542357 17.6027095,7.48057766 17.6027095,11.6809983 C17.6027095,15.8815356 21.0776095,19.2865731 25.3643308,19.2865731 C29.6509332,19.2865731 33.1258332,15.8815356 33.1258332,11.6809983 C33.1258332,7.48057766 29.6509332,4.07542357 25.3643308,4.07542357" id="Fill-32" fill="#D60029" mask="url(#mask-6)"></path>
                    <polygon id="Fill-33" fill="#D60029" mask="url(#mask-6)" points="29.4811682 7.48376059 29.8176523 7.48376059 33.8992468 3.48422605 25.4048089 0.614107636 25.3272319 0.834581045 33.4618652 3.58309514"></polygon>
                    <polygon id="Fill-34" fill="#D60029" mask="url(#mask-6)" points="20.6560882 16.4612606 20.3196042 16.4612606 16.8329248 19.8778406 25.3272438 22.747959 25.4048208 22.5274856 17.2703065 19.7789715"></polygon>
                    <polygon id="Fill-35" fill="#D60029" mask="url(#mask-6)" points="21.5568256 8.06671514 21.8459544 8.06671514 17.1357724 3.45123082 16.9675304 3.61609036 21.5568256 8.11323491"></polygon>
                    <polygon id="Fill-36" fill="#D60029" mask="url(#mask-6)" points="29.6476731 15.711721 29.6476731 16.04144 33.4619127 19.7789948 25.3271605 22.5275089 25.4048565 22.7479823 33.8991755 19.8777473"></polygon>
                </g>
            </g>
        </g>
    </g>
</svg>