<?xml version="1.0" encoding="utf-8"?>
<!-- Generator: Adobe Illustrator 24.0.0, SVG Export Plug-In . SVG Version: 6.00 Build 0)  -->
<svg version="1.1" id="图层_1" xmlns="http://www.w3.org/2000/svg" xmlns:xlink="http://www.w3.org/1999/xlink" x="0px" y="0px"
	 viewBox="0 0 87 86" style="enable-background:new 0 0 87 86;" xml:space="preserve">
<style type="text/css">
	.st0{fill-rule:evenodd;clip-rule:evenodd;fill:#FFFFFF;stroke:#E7E7E7;stroke-width:0.5;}
	.st1{fill:url(#SVGID_1_);}
	.st2{fill:url(#SVGID_2_);}
	.st3{fill:#1577FF;}
</style>
<title>编组 11</title>
<desc>Created with Sketch.</desc>
<path id="矩形备份-16" class="st0" d="M43.2,0.2L43.2,0.2c23.6,0,42.7,19.1,42.7,42.8l0,0c0,23.6-19.1,42.8-42.7,42.8l0,0
	C19.6,85.8,0.4,66.6,0.4,43l0,0C0.4,19.4,19.6,0.2,43.2,0.2z"/>
<g>
	<g>
		<linearGradient id="SVGID_1_" gradientUnits="userSpaceOnUse" x1="39.4143" y1="38.9746" x2="53.1807" y2="25.2083">
			<stop  offset="0" style="stop-color:#1568FF"/>
			<stop  offset="0.3183" style="stop-color:#1577FF"/>
			<stop  offset="0.4218" style="stop-color:#177DFE"/>
			<stop  offset="0.5571" style="stop-color:#1C8DFB"/>
			<stop  offset="0.7102" style="stop-color:#24A8F5"/>
			<stop  offset="0.875" style="stop-color:#2FCEEE"/>
			<stop  offset="1" style="stop-color:#39EFE7"/>
		</linearGradient>
		<path class="st1" d="M46.3,41.8c-2.4,0-4.8-0.9-6.6-2.5l2.2-2.4c1.2,1.1,2.7,1.7,4.3,1.7c3.6,0,6.4-2.9,6.4-6.4s-2.9-6.4-6.4-6.4
			c-2.8,0-5.3,1.8-6.2,4.5l-3.1-1c1.3-4.1,5-6.8,9.3-6.8c5.4,0,9.7,4.4,9.7,9.7S51.7,41.8,46.3,41.8z"/>
	</g>
	<linearGradient id="SVGID_2_" gradientUnits="userSpaceOnUse" x1="32.1631" y1="40.2684" x2="46.1644" y2="26.2671">
		<stop  offset="0" style="stop-color:#1568FF"/>
		<stop  offset="7.580651e-02" style="stop-color:#156EFF"/>
		<stop  offset="0.1373" style="stop-color:#1577FF"/>
		<stop  offset="0.347" style="stop-color:#1F97F9"/>
		<stop  offset="0.7901" style="stop-color:#32D6EC"/>
		<stop  offset="1" style="stop-color:#39EFE7"/>
	</linearGradient>
	<path class="st2" d="M49.1,34.4l0.1-5l-4.9,0.3l1.2,1.2l-6.9,6.9c-0.6,0.4-1.4,0.7-2.2,0.7c-2,0-3.7-1.6-3.7-3.7
		c0-2,1.6-3.7,3.7-3.7c1.5,0,2.8,0.9,3.4,2.2l2.4-2.4c-1.3-1.9-3.4-3.1-5.8-3.1c-3.8,0-7,3.1-7,7c0,3.8,3.1,7,7,7
		c2.1,0,4-0.9,5.3-2.4c0,0,0.1-0.1,0.1-0.1l6-6L49.1,34.4z"/>
	<g>
		<g>
			<path class="st3" d="M26.7,58.3v0.4c0,0.2,0,0.3,0,0.5h1.5c0,1,0,1.7-0.1,2c-0.1,0.3-0.3,0.4-0.5,0.4c-0.2,0-0.3,0-0.4,0L27,61.3
				c0.2,0,0.4,0,0.5,0c0.2,0,0.3-0.2,0.4-0.6c0-0.4,0-0.8,0-1.3h-1.3c-0.1,0.5-0.2,0.8-0.3,1.1c-0.2,0.4-0.6,0.8-1.1,1l-0.1-0.2
				c0.5-0.2,0.8-0.6,1-1c0.1-0.3,0.2-0.6,0.2-0.9h-1.1v-0.3h1.2c0-0.2,0-0.3,0-0.5v-0.4H26.7z M26.1,59l-0.2,0.1
				c-0.1-0.2-0.3-0.4-0.5-0.6l0.2-0.1C25.8,58.6,25.9,58.8,26.1,59z M27.4,60.7l-0.2,0.2c-0.1-0.2-0.3-0.5-0.6-0.8l0.2-0.1
				C27.1,60.2,27.3,60.5,27.4,60.7z"/>
			<path class="st3" d="M31.5,58.5c-0.2,0.4-0.5,0.8-1,1.1l-0.1-0.3c0.4-0.3,0.6-0.6,0.8-0.9L31.5,58.5z M31.6,59.3
				c-0.1,0.2-0.2,0.4-0.4,0.6v1.8H31v-1.5c-0.1,0.1-0.3,0.3-0.5,0.4l-0.1-0.3c0.4-0.3,0.8-0.7,1-1.1L31.6,59.3z M33.7,59.5v0.3h-0.6
				v1.6c0,0.2-0.1,0.3-0.4,0.3h-0.5l-0.1-0.3c0.2,0,0.3,0,0.5,0c0.1,0,0.2,0,0.2-0.1v-1.5h-1.1v-0.3H33.7z M33.5,58.6v0.3h-1.7v-0.3
				H33.5z"/>
			<path class="st3" d="M36.1,59c0,0.4-0.1,0.7-0.1,1L35.7,60c0.1-0.3,0.1-0.6,0.1-1L36.1,59z M36.5,58.3v3.3h-0.3v-3.3H36.5z
				 M38.1,58.3v0.2H39v0.2h-0.8V59h0.7v0.2h-0.7v0.2h0.9v0.2h-2.2v-0.1l-0.2,0c-0.1-0.2-0.1-0.4-0.2-0.7l0.2-0.1
				c0.1,0.2,0.1,0.3,0.2,0.6v0h1v-0.2h-0.7V59h0.7v-0.2H37v-0.2h0.8v-0.2H38.1z M37.4,61.6h-0.2v-1.7h1.6v1.4c0,0.2-0.1,0.3-0.3,0.3
				h-0.3l-0.1-0.2l0.3,0c0.1,0,0.1,0,0.1-0.1v-0.2h-1.1V61.6z M38.6,60.1h-1.1v0.3h1.1V60.1z M37.4,60.9h1.1v-0.3h-1.1V60.9z"/>
			<path class="st3" d="M42.1,60c0,0.1-0.1,0.1-0.1,0.2h0.8v0.2c-0.1,0.2-0.2,0.4-0.4,0.6c0.2,0.1,0.3,0.2,0.5,0.2l-0.1,0.2
				c-0.2-0.1-0.3-0.2-0.6-0.3c-0.2,0.2-0.5,0.3-0.9,0.4l-0.1-0.2c0.3-0.1,0.6-0.2,0.8-0.3c-0.2-0.1-0.3-0.1-0.5-0.2
				c0.1-0.2,0.2-0.3,0.2-0.5h-0.4v-0.2h0.5c0-0.1,0.1-0.2,0.1-0.2L42.1,60z M41.9,59v-0.7h0.2V59h0.7v0.2h-0.7v0
				c0.2,0.1,0.4,0.2,0.6,0.3l-0.1,0.2c-0.2-0.1-0.3-0.3-0.5-0.3v0.5h-0.2v-0.7c-0.1,0.3-0.3,0.5-0.6,0.7l-0.1-0.2
				c0.3-0.2,0.5-0.3,0.6-0.5h-0.5V59H41.9z M41.7,58.8l-0.2,0.1c-0.1-0.2-0.2-0.3-0.2-0.5l0.2-0.1C41.6,58.5,41.6,58.7,41.7,58.8z
				 M42.5,60.5h-0.6c-0.1,0.1-0.1,0.2-0.2,0.3c0.1,0.1,0.3,0.1,0.4,0.2C42.3,60.8,42.4,60.7,42.5,60.5z M42.8,58.5
				c-0.1,0.2-0.2,0.3-0.3,0.5l-0.2-0.1c0.1-0.2,0.2-0.3,0.3-0.5L42.8,58.5z M43.2,59.7C43.1,59.9,43,60,43,60.2L42.8,60
				c0.2-0.4,0.4-1,0.4-1.6l0.3,0c0,0.2-0.1,0.4-0.1,0.5h1v0.2h-0.2c0,0.6-0.1,1.1-0.3,1.5c0.2,0.3,0.4,0.6,0.7,0.8l-0.1,0.2
				c-0.3-0.2-0.5-0.4-0.7-0.7c-0.2,0.3-0.4,0.5-0.7,0.7l-0.1-0.2c0.3-0.2,0.5-0.4,0.7-0.8C43.4,60.4,43.3,60.1,43.2,59.7z
				 M43.3,59.3c0.1,0.4,0.2,0.8,0.4,1.1c0.1-0.4,0.2-0.8,0.2-1.3h-0.5L43.3,59.3z"/>
			<path class="st3" d="M46.6,61.6l-0.1-0.2c0.1,0,0.2,0,0.3,0c0.1,0,0.1-0.1,0.1-0.2v-0.9c-0.1,0.1-0.3,0.1-0.4,0.1l-0.1-0.3
				c0.2,0,0.3-0.1,0.5-0.1v-0.8h-0.4V59H47v-0.7h0.3V59h0.3v0.2h-0.3V60c0.1-0.1,0.2-0.1,0.3-0.2v0.3c-0.1,0.1-0.2,0.1-0.3,0.2v1.1
				c0,0.2-0.1,0.3-0.3,0.3H46.6z M47.6,61.6l-0.2-0.2c0.3-0.5,0.4-1.1,0.4-1.9v-1.1h1.9v0.9H49v0.4h0.8V60H49v0.4h0.6v1.2h-0.2v-0.2
				h-1v0.2h-0.2v-1.2h0.6V60H48C48,60.6,47.8,61.2,47.6,61.6z M48,59.3v0.3c0,0.1,0,0.1,0,0.2h0.7v-0.4H48z M48,58.7v0.4h1.4v-0.4
				H48z M49.4,61.2v-0.5h-1v0.5H49.4z"/>
			<path class="st3" d="M55.1,58.6v0.2h-1.5c0,0.2-0.1,0.4-0.2,0.5h1.5v1.9c0,0.2-0.1,0.4-0.3,0.4h-0.3l-0.1-0.3l0.3,0
				c0.1,0,0.2-0.1,0.2-0.2v-1.6H54v1.9h-0.3v-1.9h-0.6v1.9h-0.3v-1.9h-0.5v2h-0.3v-2.3h1c0.1-0.2,0.1-0.3,0.2-0.5h-1.4v-0.2H55.1z"
				/>
			<path class="st3" d="M57.3,60.1l-0.2-0.2c0.3-0.4,0.6-0.8,0.7-1.4l0.3,0c0,0.2-0.1,0.4-0.1,0.5h0.8v-0.6H59V59h1.2v0.3H59v0.8
				h1.1v0.3H59v0.9h1.4v0.3h-3.2v-0.3h1.5v-0.9h-1.1v-0.3h1.1v-0.8h-0.9C57.8,59.6,57.6,59.9,57.3,60.1z"/>
		</g>
		<g>
			<path class="st3" d="M35.4,48.6c-2.4,0-3.8,1.8-3.6,4.3c0.2,2,1.4,3.1,3.4,3.1c2.4,0,3.9-1.8,3.7-4.4
				C38.7,50.5,38.1,48.6,35.4,48.6z M35.2,54.7c-1,0-1.6-0.7-1.7-1.8c-0.1-1.1,0.3-2.9,2-2.9c1,0,1.6,0.6,1.7,1.8
				C37.2,53,36.6,54.7,35.2,54.7z"/>
			<path class="st3" d="M27.9,50c0.4,0,0.6,0.1,0.8,0.2c0.2,0.1,0.3,0.3,0.3,0.6h1.7c-0.1-0.6-0.3-1.1-0.6-1.5
				c-0.5-0.5-1.3-0.7-2.3-0.7c-2.1,0-2.8,1.2-2.7,2.3c0.1,1.1,0.9,1.5,1.7,1.8c0.2,0.1,0.4,0.1,0.6,0.2c0.7,0.2,1.4,0.4,1.5,1
				c0,0.5-0.4,0.8-1.1,0.8c-0.7,0-1.4-0.1-1.5-1h-1.7c0.1,0.7,0.3,1.2,0.8,1.7c0.5,0.5,1.3,0.8,2.3,0.8c2.2,0,3.1-1.2,3-2.3
				c-0.1-1.4-1.3-1.9-2.3-2.1l-0.2-0.1c-0.9-0.2-1.2-0.3-1.3-0.8C26.9,50.2,27.4,50,27.9,50z"/>
			<path class="st3" d="M42.7,50c0.4,0,0.6,0.1,0.8,0.2c0.2,0.1,0.3,0.3,0.3,0.6h1.7c-0.1-0.6-0.3-1.1-0.6-1.5
				c-0.5-0.5-1.3-0.7-2.3-0.7c-2.1,0-2.8,1.2-2.7,2.3c0.1,1.1,0.9,1.5,1.7,1.8c0.2,0.1,0.4,0.1,0.6,0.2c0.7,0.2,1.4,0.4,1.5,1
				c0,0.5-0.4,0.8-1.1,0.8c-0.7,0-1.4-0.1-1.5-1h-1.7c0.1,0.7,0.3,1.2,0.8,1.7c0.5,0.5,1.3,0.8,2.3,0.8c2.2,0,3.1-1.2,3-2.3
				c-0.1-1.4-1.3-1.9-2.3-2.1L43,51.5c-0.9-0.2-1.2-0.3-1.3-0.8C41.7,50.2,42.2,50,42.7,50z"/>
			<path class="st3" d="M50.2,48.6c-2.4,0-3.8,1.8-3.6,4.3c0.2,2,1.4,3.1,3.4,3.1c2.4,0,3.9-1.8,3.7-4.4
				C53.5,50.5,52.9,48.6,50.2,48.6z M50,54.7c-1,0-1.6-0.7-1.7-1.8c-0.1-1.1,0.3-2.9,2-2.9c1,0,1.6,0.6,1.7,1.8
				C52,53,51.4,54.7,50,54.7z"/>
			<path class="st3" d="M59.8,52.2L59.8,52.2L59.7,52l0.1,0c0.8-0.2,1.2-0.8,1.1-1.7c-0.1-0.7-0.4-1.5-2.3-1.5h-3.3l-0.9,7.1h3.5
				c2,0,3.2-0.9,3-2.4C60.8,52.9,60.4,52.3,59.8,52.2z M57.8,54.6h-1.6l0.2-1.8h1.4c0.4,0,1.2,0,1.3,0.8
				C59.2,54.5,58.4,54.6,57.8,54.6z M58.1,51.6h-1.5l0.2-1.6h1.3c0.3,0,1.1,0,1.1,0.7C59.3,51.3,58.9,51.6,58.1,51.6z"/>
		</g>
	</g>
</g>
</svg>
