<?xml version="1.0" encoding="utf-8"?>
<!-- Generator: Adobe Illustrator 24.0.0, SVG Export Plug-In . SVG Version: 6.00 Build 0)  -->
<svg version="1.1" id="图层_1" xmlns="http://www.w3.org/2000/svg" xmlns:xlink="http://www.w3.org/1999/xlink" x="0px" y="0px"
	 viewBox="0 0 88 86" style="enable-background:new 0 0 88 86;" xml:space="preserve">
<style type="text/css">
	.st0{fill-rule:evenodd;clip-rule:evenodd;fill:#FFFFFF;stroke:#E7E7E7;stroke-width:0.5;}
	.st1{fill:url(#SVGID_1_);}
	.st2{fill:url(#SVGID_2_);}
	.st3{fill:url(#SVGID_3_);}
	.st4{fill:url(#SVGID_4_);}
	.st5{fill:url(#SVGID_5_);}
	.st6{enable-background:new    ;}
	.st7{fill:#4421A5;}
</style>
<title>编组 16</title>
<desc>Created with Sketch.</desc>
<g id="编组-27" transform="translate(1.000000, 0.000000)">
	<path id="矩形备份-17" class="st0" d="M42.6,0.2h1c23.6,0,42.8,19.1,42.8,42.8l0,0c0,23.6-19.1,42.8-42.8,42.8h-1
		C19,85.8-0.2,66.6-0.2,43l0,0C-0.2,19.4,19,0.2,42.6,0.2z"/>
</g>
<g>
	<g>
		
			<linearGradient id="SVGID_1_" gradientUnits="userSpaceOnUse" x1="153.2329" y1="-581.7573" x2="165.6975" y2="-594.2219" gradientTransform="matrix(1 0 0 1 -120.5433 617.7328)">
			<stop  offset="0" style="stop-color:#4421A5"/>
			<stop  offset="1" style="stop-color:#4421A5;stop-opacity:0"/>
		</linearGradient>
		<polygon class="st1" points="33.9,37.2 31.4,34.7 43.9,22.3 46.4,24.8 		"/>
		
			<linearGradient id="SVGID_2_" gradientUnits="userSpaceOnUse" x1="161.9581" y1="-587.9896" x2="176.9156" y2="-587.9896" gradientTransform="matrix(1 0 0 1 -120.5433 617.7328)">
			<stop  offset="0" style="stop-color:#4421A5"/>
			<stop  offset="1" style="stop-color:#4421A5;stop-opacity:0"/>
		</linearGradient>
		<polygon class="st2" points="53.9,37.2 41.4,24.8 43.9,22.3 56.4,34.7 		"/>
		
			<linearGradient id="SVGID_3_" gradientUnits="userSpaceOnUse" x1="161.9581" y1="-570.5392" x2="161.9581" y2="-580.5109" gradientTransform="matrix(1 0 0 1 -120.5433 617.7328)">
			<stop  offset="0" style="stop-color:#4421A5"/>
			<stop  offset="1" style="stop-color:#4421A5;stop-opacity:0"/>
		</linearGradient>
		<polygon class="st3" points="43.9,47.2 36.4,39.7 38.9,37.2 46.4,44.7 		"/>
		
			<linearGradient id="SVGID_4_" gradientUnits="userSpaceOnUse" x1="161.9581" y1="-575.5251" x2="161.9581" y2="-585.4967" gradientTransform="matrix(1 0 0 1 -120.5433 617.7328)">
			<stop  offset="0" style="stop-color:#4421A5"/>
			<stop  offset="1" style="stop-color:#4421A5;stop-opacity:0.46"/>
		</linearGradient>
		<polygon class="st4" points="38.9,42.2 36.4,39.7 43.9,32.2 46.4,34.7 		"/>
		
			<linearGradient id="SVGID_5_" gradientUnits="userSpaceOnUse" x1="169.4368" y1="-585.4967" x2="169.4368" y2="-570.5392" gradientTransform="matrix(1 0 0 1 -120.5433 617.7328)">
			<stop  offset="0" style="stop-color:#4421A5"/>
			<stop  offset="1" style="stop-color:#4421A5;stop-opacity:0"/>
		</linearGradient>
		<polygon class="st5" points="43.9,47.2 41.4,44.7 53.9,32.2 56.4,34.7 		"/>
	</g>
	<g id="Group-Copy-2_35_">
		<g>
			<g id="XMLID_261_" class="st6">
				<path id="XMLID_673_" class="st7" d="M18.3,57.7h-1.5v-4.6h-1.8v-1.2h5v1.2h-1.8V57.7z"/>
				<path id="XMLID_670_" class="st7" d="M24.9,56.5c0,0.4-0.1,0.7-0.4,1c-0.2,0.2-0.6,0.4-1,0.4h-1.9c-0.4,0-0.7-0.1-1-0.4
					c-0.2-0.2-0.4-0.6-0.4-1v-1.9c0-0.4,0.1-0.7,0.4-1c0.2-0.2,0.6-0.4,1-0.4h1.9c0.4,0,0.7,0.1,1,0.4c0.2,0.2,0.4,0.6,0.4,1V56.5z
					 M23.4,54.7c0-0.2-0.1-0.3-0.3-0.3h-1c-0.2,0-0.3,0.1-0.3,0.3v1.7c0,0.2,0.1,0.3,0.3,0.3h1c0.2,0,0.3-0.1,0.3-0.3V54.7z"/>
				<path id="XMLID_668_" class="st7" d="M27.3,56v1.7h-1.5v-5.8h1.5v2.9H28l0.9-1.5h1.5l-1.3,2.1l1.3,2.3h-1.5l-1-1.7H27.3z"/>
				<path id="XMLID_665_" class="st7" d="M35.1,57.6c-1.1,0.1-2.1,0.2-2.9,0.2c-0.4,0-0.7-0.1-0.9-0.3c-0.2-0.2-0.3-0.5-0.3-0.9v-2
					c0-0.4,0.1-0.7,0.4-1c0.2-0.2,0.6-0.4,1-0.4h1.7c0.4,0,0.7,0.1,1,0.4c0.2,0.2,0.4,0.6,0.4,1v1.5h-2.9v0.3c0,0.1,0,0.2,0.1,0.2
					c0.1,0.1,0.1,0.1,0.2,0.1c0.6,0,1.4,0,2.4-0.1V57.6z M32.7,54.3c-0.2,0-0.3,0.1-0.3,0.3V55h1.4v-0.5c0-0.2-0.1-0.3-0.3-0.3H32.7
					z"/>
				<path id="XMLID_663_" class="st7" d="M38.7,54.4c-0.3,0-0.6,0.1-1,0.2v3.1h-1.5v-4.4h1.3l0.1,0.4c0.3-0.2,0.5-0.3,0.8-0.4
					c0.3-0.1,0.5-0.1,0.7-0.1h0.4c0.4,0,0.7,0.1,0.9,0.3c0.2,0.2,0.3,0.5,0.3,0.9v3.2h-1.5v-3c0-0.1,0-0.2-0.1-0.2
					c-0.1-0.1-0.1-0.1-0.2-0.1H38.7z"/>
				<path id="XMLID_661_" class="st7" d="M44.6,57.7h-3v-1.2h0.8v-3.5h-0.8v-1.2h3v1.2h-0.8v3.5h0.8V57.7z"/>
				<path id="XMLID_659_" class="st7" d="M47.9,54.4c-0.3,0-0.6,0.1-1,0.2v3.1h-1.5v-4.4h1.3l0.1,0.4c0.3-0.2,0.5-0.3,0.8-0.4
					c0.3-0.1,0.5-0.1,0.7-0.1h0.4c0.4,0,0.7,0.1,0.9,0.3c0.2,0.2,0.3,0.5,0.3,0.9v3.2h-1.5v-3c0-0.1,0-0.2-0.1-0.2
					c-0.1-0.1-0.1-0.1-0.2-0.1H47.9z"/>
				<path id="XMLID_657_" class="st7" d="M50.7,56.5c1.1,0.1,2,0.1,2.7,0.1c0.1,0,0.2,0,0.2-0.1c0.1-0.1,0.1-0.1,0.1-0.2v-0.3h-1.8
					c-0.4,0-0.7-0.1-0.9-0.3c-0.2-0.2-0.3-0.5-0.3-0.9v-0.3c0-0.4,0.1-0.7,0.3-0.9c0.2-0.2,0.5-0.3,0.9-0.3h2.8v1.1h-2.3
					c-0.1,0-0.2,0-0.2,0.1c-0.1,0.1-0.1,0.1-0.1,0.2c0,0.1,0,0.2,0.1,0.2c0.1,0.1,0.1,0.1,0.2,0.1h1.5c0.4,0,0.7,0.1,0.9,0.3
					c0.2,0.2,0.3,0.5,0.3,0.9v0.3c0,0.4-0.1,0.7-0.3,0.9c-0.2,0.2-0.5,0.3-0.9,0.3c-1,0-2-0.1-3.2-0.2V56.5z"/>
				<path id="XMLID_654_" class="st7" d="M57.7,53.5v4.2h-1.5v-3.1h-0.6v-1.1H57.7z M56.3,51.8h1.5V53h-1.5V51.8z"/>
				<path id="XMLID_651_" class="st7" d="M61.7,57.4c-0.5,0.1-1,0.2-1.4,0.2H60c-0.4,0-0.7-0.1-0.9-0.3c-0.2-0.2-0.3-0.5-0.3-0.9
					v-1.7c0-0.4,0.1-0.7,0.4-1c0.2-0.2,0.6-0.4,1-0.4h3.1V58c0,0.4-0.1,0.7-0.3,0.9c-0.2,0.2-0.5,0.3-0.9,0.3
					c-0.9,0-1.9-0.1-2.9-0.2V58c1.1,0.1,1.9,0.1,2.4,0.1c0.1,0,0.2,0,0.2-0.1c0.1-0.1,0.1-0.1,0.1-0.2V57.4z M60.7,56.4
					c0.4,0,0.7,0,1-0.1v-1.9h-1.2c-0.2,0-0.3,0.1-0.3,0.3v1.4c0,0.1,0,0.2,0.1,0.2c0.1,0.1,0.1,0.1,0.2,0.1H60.7z"/>
				<path id="XMLID_649_" class="st7" d="M65.6,53.4c0.5-0.1,1-0.2,1.4-0.2h0.4c0.4,0,0.7,0.1,0.9,0.3c0.2,0.2,0.3,0.5,0.3,0.9v3.2
					h-1.5v-3.1c0-0.1,0-0.2-0.1-0.2c-0.1-0.1-0.1-0.1-0.2-0.1h-0.3c-0.2,0-0.4,0-0.6,0c-0.2,0-0.3,0-0.4,0v3.3h-1.5v-5.8h1.5V53.4z"
					/>
				<path id="XMLID_647_" class="st7" d="M72.8,57.7c-0.5,0.1-1.1,0.1-1.6,0.1c-0.4,0-0.7-0.1-0.9-0.3c-0.2-0.2-0.3-0.5-0.3-0.9
					v-2.1h-0.5v-1.1h0.5l0.2-1h1.3v1h1v1.1h-1v1.9c0,0.1,0,0.2,0.1,0.2c0.1,0.1,0.1,0.1,0.2,0.1h1.1V57.7z"/>
			</g>
		</g>
	</g>
</g>
</svg>
