<?xml version="1.0" encoding="UTF-8"?>
<svg width="87px" height="86px" viewBox="0 0 87 86" version="1.1" xmlns="http://www.w3.org/2000/svg" xmlns:xlink="http://www.w3.org/1999/xlink">
    <!-- Generator: Sketch 59.1 (86144) - https://sketch.com -->
    <title>编组 12备份 2</title>
    <desc>Created with Sketch.</desc>
    <g id="组件" stroke="none" stroke-width="1" fill="none" fill-rule="evenodd">
        <g id="编组-31" transform="translate(-0.857143, 0.000000)">
            <rect id="矩形备份-10" stroke="#E7E7E7" stroke-width="0.5" fill="#FFFFFF" x="1.25" y="0.25" width="85.5" height="85.5" rx="42.75"></rect>
            <g id="编组" transform="translate(11.857143, 22.000000)">
                <path d="M47.800032,32.775984 C47.791952,32.767984 47.784032,32.759984 47.775952,32.751984 C47.215952,32.167984 46.431952,31.799984 45.560032,31.799984 C43.855952,31.799984 42.464032,33.199984 42.464032,34.935984 C42.464032,36.664064 43.848032,38.071984 45.560032,38.071984 C46.455952,38.071984 47.255952,37.687984 47.824032,37.071984 C47.824032,37.071984 47.831952,37.071984 47.831952,37.064064 C47.680032,36.871984 46.928032,36.167984 46.928032,36.167984 L46.904032,36.167984 C46.575952,36.535984 46.095952,36.775984 45.568032,36.775984 C44.568032,36.775984 43.751952,35.951984 43.751952,34.935984 C43.751952,33.919984 44.568032,33.095984 45.568032,33.095984 C46.104032,33.095984 46.575952,33.335984 46.904032,33.704064" id="Fill-1" fill="#222222"></path>
                <path d="M39.031984,36.815984 C38.007984,36.815984 37.175984,35.984064 37.175984,34.959984 C37.175984,33.935984 38.007984,33.104064 39.031984,33.104064 C40.055984,33.104064 40.887984,33.935984 40.887984,34.959984 C40.880064,35.984064 40.055984,36.815984 39.031984,36.815984 M39.031984,31.799984 C37.287984,31.799984 35.871984,33.215984 35.871984,34.959984 C35.871984,36.704064 37.287984,38.119984 39.031984,38.119984 C40.775984,38.119984 42.191984,36.704064 42.191984,34.959984 C42.191984,33.215984 40.775984,31.799984 39.031984,31.799984" id="Fill-3" fill="#222222"></path>
                <polygon id="Fill-5" fill="#222222" points="63.528 31.799968 63.528 33.208048 61.976 33.208048 61.976 38.064048 60.488 38.064048 60.488 33.208048 58.928 33.208048 58.928 31.799968"></polygon>
                <polygon id="Fill-7" fill="#222222" points="49.840032 31.799968 49.840032 34.744048 51.808032 31.799968 53.208032 31.799968 51.360032 34.551968 53.584032 38.071968 51.968032 38.071968 50.375952 35.864048 49.840032 36.639968 49.840032 38.079968 48.400032 38.079968 48.400032 31.808048 49.840032 31.808048"></polygon>
                <polygon id="Fill-9" fill="#222222" points="58.344016 32.992 55.360016 32.992 55.360016 34.28 57.704016 34.28 57.704016 35.464 55.360016 35.464 55.360016 36.832 58.344016 36.832 58.344016 38.072 53.864016 38.072 53.864016 31.8 58.344016 31.8"></polygon>
                <path d="M32.775968,35.288016 L31.927968,35.288016 L31.927968,33.032016 L32.775968,33.032016 C33.440048,33.032016 34.151968,33.288016 34.151968,34.159936 C34.151968,34.992016 33.440048,35.288016 32.775968,35.288016 M33.367968,31.799936 L31.927968,31.799936 L30.455968,31.799936 L30.455968,37.896016 L30.455968,38.064016 L31.927968,38.064016 L31.927968,37.896016 L31.927968,36.584016 L33.367968,36.584016 C34.504048,36.584016 35.415968,35.512016 35.415968,34.192016 C35.415968,32.872016 34.495968,31.799936 33.367968,31.799936" id="Fill-11" fill="#222222"></path>
                <path d="M7.904016,36.815984 C6.880016,36.815984 6.048016,35.984064 6.048016,34.959984 C6.048016,33.935984 6.880016,33.104064 7.904016,33.104064 C8.928016,33.104064 9.760016,33.935984 9.760016,34.959984 C9.760016,35.984064 8.928016,36.815984 7.904016,36.815984 M7.904016,31.799984 C6.160016,31.799984 4.744016,33.215984 4.744016,34.959984 C4.744016,36.704064 6.160016,38.119984 7.904016,38.119984 C9.648016,38.119984 11.064016,36.704064 11.064016,34.959984 C11.064016,33.215984 9.648016,31.799984 7.904016,31.799984" id="Fill-13" fill="#222222"></path>
                <polygon id="Fill-15" fill="#222222" points="4.608 31.824032 4.608 33.232032 3.048 33.232032 3.048 38.088032 1.56 38.088032 1.56 33.232032 0 33.232032 0 31.824032"></polygon>
                <polygon id="Fill-17" fill="#222222" points="21.999992 33.024032 19.015992 33.024032 19.015992 34.312032 21.359992 34.312032 21.359992 35.495952 19.015992 35.495952 19.015992 36.864032 21.999992 36.864032 21.999992 38.104032 17.519992 38.104032 17.519992 31.832032 21.999992 31.832032"></polygon>
                <path d="M27.584016,31.824032 L27.584016,38.095952 L26.328016,38.095952 L23.872016,33.864032 C23.872016,33.968032 23.880016,34.039952 23.880016,34.072032 C23.896016,34.175952 23.896016,34.272032 23.896016,34.344032 L23.896016,38.095952 L22.752016,38.095952 L22.752016,31.824032 L24.336016,31.824032 L26.472016,35.519952 C26.456016,35.335952 26.448016,35.199952 26.448016,35.104032 L26.448016,31.824032 L27.584016,31.824032 Z" id="Fill-19" fill="#222222"></path>
                <polygon id="Fill-21" fill="#222222" points="12.984016 31.824032 12.992016 34.375952 15.392016 31.815952 16.744016 31.815952 14.504016 34.568032 16.984016 38.088032 15.432016 38.088032 13.568016 35.544032 13.008016 36.072032 13.008016 38.095952 11.624016 38.095952 11.608016 31.824032"></polygon>
                <path d="M30.128,7.575984 L29.36,7.575984 L29.36,2.079984 L19.216,2.079984 C19.024,2.079984 18.864,2.239984 18.864,2.431984 L18.864,10.175984 C18.864,10.367984 19.024,10.527984 19.216,10.527984 L23.088,10.527984 L23.088,24.607984 C23.088,24.799984 23.248,24.959984 23.44,24.959984 L29.776,24.959984 C29.968,24.959984 30.128,24.799984 30.128,24.607984 L30.128,7.575984 Z" id="Fill-23" fill="#29AEFF"></path>
                <path d="M36.840032,8e-06 L34.408032,8e-06 L27.720032,8e-06 C27.528032,8e-06 27.368032,0.160008 27.368032,0.352008 L27.368032,22.528008 C27.368032,22.720008 27.528032,22.880008 27.720032,22.880008 L34.055952,22.880008 C34.248032,22.880008 34.408032,22.720008 34.408032,22.528008 L34.408032,16.896008 L36.840032,16.896008 C41.504032,16.896008 45.288032,13.112008 45.288032,8.448008 C45.288032,3.784008 41.504032,8e-06 36.840032,8e-06" id="Fill-25" fill="#2761E7"></path>
            </g>
        </g>
    </g>
</svg>