<?xml version="1.0" encoding="utf-8"?>
<!-- Generator: Adobe Illustrator 24.0.0, SVG Export Plug-In . SVG Version: 6.00 Build 0)  -->
<svg version="1.1" id="图层_1" xmlns="http://www.w3.org/2000/svg" xmlns:xlink="http://www.w3.org/1999/xlink" x="0px" y="0px"
	 viewBox="0 0 87 86" style="enable-background:new 0 0 87 86;" xml:space="preserve">
<style type="text/css">
	.st0{fill-rule:evenodd;clip-rule:evenodd;fill:#FFFFFF;stroke:#E7E7E7;stroke-width:0.5;}
	.st1{fill:#323333;}
	.st2{fill:url(#SVGID_1_);}
	.st3{fill:#2560A5;}
	.st4{fill:#21529B;}
</style>
<title>编组 10</title>
<desc>Created with Sketch.</desc>
<g id="编组-25备份" transform="translate(1.000000, 0.000000)">
	<path id="矩形备份-15" class="st0" d="M42.8,0.2L42.8,0.2c23.6,0,42.8,19.1,42.8,42.8l0,0c0,23.6-19.1,42.8-42.8,42.8l0,0
		C19.2,85.8,0,66.6,0,43l0,0C0,19.4,19.2,0.2,42.8,0.2z"/>
</g>
<g>
	<g>
		<path class="st1" d="M41.7,47.3c0,0,0.6,0.6,0.9,1.1c0,0.1-0.1,0.2-0.2,0.2H34L34,48.2h4v-2h-2.6l-0.1-0.4H38v-1.7h-1.8
			c-0.5,0.9-1.1,1.5-1.7,2L34.3,46c0.6-0.8,1.3-2.2,1.7-3.8c-0.1,0.1-0.3,0.1-0.4,0.1h-0.1v-5.3l0.8,0.5h4l0.4-0.6l0.9,0.9
			c-0.1,0.1-0.2,0.2-0.4,0.3v3.8c0,0.1-0.4,0.3-0.6,0.3h-0.1v-0.6h-4.1v0.3c0,0,0,0,0,0l0.9,0.5c0,0.1-0.2,0.3-0.4,0.2
			c-0.1,0.3-0.3,0.6-0.4,0.9H38v-1.7l1.1,0.1c0,0.2-0.1,0.3-0.3,0.4v1.2h1.8l0.5-0.9c0,0,0.5,0.6,0.9,1c0,0.1-0.1,0.2-0.3,0.2h-2.9
			v1.7h1.7l0.5-0.9c0,0,0.5,0.6,0.9,1c0,0.1-0.1,0.2-0.3,0.2h-2.8v2h2.4L41.7,47.3z M36.2,38v1.4h4.1V38H36.2z M40.4,41.3v-1.5h-4.1
			v1.5H40.4z"/>
		<path class="st1" d="M48.2,44.6c-0.7,0.7-1.6,1.7-2.7,2.6c0,0.2-0.1,0.3-0.2,0.4l-0.4-1.2c0.3-0.1,0.7-0.4,1.2-0.7v-3.6h-1
			l-0.1-0.4h1.1v-3.2h-1L45,38.2h2l0.4-0.8c0,0,0.5,0.6,0.8,1c0,0.1-0.1,0.2-0.2,0.2h-1.2v3.2h0.3l0.4-0.8c0,0,0.5,0.6,0.7,1
			c0,0.1-0.1,0.2-0.2,0.2h-1.1v3.1c0.4-0.3,0.9-0.6,1.3-0.9L48.2,44.6z M53.5,41.5c-0.1,0.1-0.1,0.1-0.3,0.1c-0.4,0.5-1,1.3-1.6,1.8
			c0.6,1.6,1.3,2.5,2.2,3.1l0,0.1c-0.3,0.1-0.6,0.5-0.7,1c-1.2-1.4-1.9-3.1-2.2-6.7v6.5c0,0.8-0.1,1.3-1.1,1.4
			c0-0.3-0.1-0.6-0.2-0.7c-0.2-0.2-0.4-0.3-0.8-0.4v-0.2c0,0,0.9,0.1,1.1,0.1c0.2,0,0.2-0.1,0.2-0.3v-2.9c-0.5,0.7-1.2,1.6-2.1,2.6
			c0,0.2-0.1,0.3-0.1,0.4l-0.6-1.2c0.5-0.3,1.7-1.2,2.9-2.2v-4.3h-2.4l-0.1-0.4h2.5v-2.7l1.1,0.2c0,0.2-0.1,0.3-0.3,0.4v2.1h1.4
			l0.4-0.6c-0.1,0.2-0.3,0.2-0.5,0c-0.1-0.5-0.5-1.1-0.9-1.5l0.1-0.1c1.3,0.2,1.5,1.1,1.3,1.5l0.1-0.1c0,0,0.5,0.6,0.9,1
			c0,0.1-0.1,0.2-0.2,0.2h-2.5c0.1,1.3,0.3,2.3,0.6,3.2c0.4-0.7,0.8-1.7,1.1-2.4L53.5,41.5z M48.2,40.8c2,1.4,1.3,3.4,0.6,2.6
			c0-0.8-0.4-1.8-0.7-2.5L48.2,40.8z"/>
		<path class="st1" d="M63.7,38.4c-0.1,0.1-0.2,0.2-0.4,0.3v9.7c0,0.1-0.4,0.4-0.7,0.4h-0.1v-1.1h-4.2v0.8c0,0.1-0.3,0.4-0.6,0.4
			h-0.1V37.6l0.8,0.5h4l0.4-0.7L63.7,38.4z M58.3,38.5v4.1h4.2v-4.1H58.3z M62.5,47.3V43h-4.2v4.3H62.5z"/>
		<path class="st1" d="M69.7,39c0,0,0.5,0.6,0.7,1c0,0.1-0.1,0.2-0.2,0.2h-1.1v2.4c0.4-0.2,0.8-0.4,1.2-0.6l0,0.2
			c-0.3,0.3-0.7,0.7-1.2,1.1v4.3c0,0.8-0.1,1.3-1,1.5c0-0.4-0.1-0.6-0.2-0.8c-0.1-0.2-0.3-0.3-0.7-0.4v-0.2c0,0,0.8,0.1,1,0.1
			c0.2,0,0.2-0.1,0.2-0.3v-3.6c-0.2,0.2-0.5,0.4-0.8,0.6c0,0.2-0.1,0.3-0.2,0.4l-0.4-1.3c0.3-0.1,0.8-0.3,1.3-0.6v-2.8h-1.2
			l-0.1-0.4h1.3v-3l1.1,0.2c0,0.2-0.1,0.3-0.3,0.3v2.5h0.2L69.7,39z M75.3,42.4c-0.1,0.1-0.2,0.2-0.4,0.2c-0.2,1.4-0.6,2.7-1.2,3.8
			c0.6,0.7,1.2,1.2,2,1.6l0,0.1c-0.3,0.1-0.5,0.3-0.7,0.8c-0.6-0.5-1.2-1.1-1.7-1.9c-0.5,0.8-1.1,1.4-1.9,1.9l-0.1-0.2
			c0.7-0.6,1.3-1.4,1.7-2.3c-0.6-1.1-1-2.5-1.2-4.1h-0.5v6.2c0,0.1-0.2,0.3-0.6,0.3h-0.1V37l0.9,0.5H74l0.4-0.5l0.7,0.9
			C75.1,38,75,38,74.8,38.1c-0.1,1.6-0.2,2.6-0.5,2.9c-0.2,0.2-0.5,0.3-0.9,0.3c0-0.3,0-0.5-0.2-0.6c-0.1-0.1-0.5-0.3-0.8-0.3l0-0.2
			c0.3,0,0.9,0.1,1.1,0.1c0.1,0,0.2,0,0.3-0.1c0.2-0.2,0.2-1,0.3-2.3h-2.8v4.2h2.8l0.4-0.6L75.3,42.4z M72,42.5
			c0.3,1.3,0.7,2.5,1.4,3.4c0.4-1,0.7-2.2,0.8-3.4H72z"/>
	</g>
	<g>
		<path class="st1" d="M34.4,52.8c0-1,0.6-1.6,1.4-1.6s1.4,0.6,1.4,1.6c0,1-0.6,1.7-1.4,1.7S34.4,53.8,34.4,52.8z M36.6,52.8
			c0-0.7-0.3-1.2-0.9-1.2c-0.5,0-0.9,0.5-0.9,1.2c0,0.7,0.3,1.2,0.9,1.2C36.3,54,36.6,53.5,36.6,52.8z"/>
		<path class="st1" d="M43.1,51.2h0.8c1,0,1.5,0.5,1.5,1.6c0,1-0.6,1.6-1.5,1.6h-0.9V51.2z M43.9,53.9c0.7,0,1.1-0.4,1.1-1.2
			c0-0.8-0.4-1.2-1.1-1.2h-0.3v2.4H43.9z"/>
		<path class="st1" d="M52.9,53.4h-1.1l-0.3,0.9H51l1.1-3.2h0.6l1.1,3.2h-0.5L52.9,53.4z M52.7,53.1l-0.1-0.4
			c-0.1-0.3-0.2-0.7-0.3-1.1h0c-0.1,0.4-0.2,0.7-0.3,1.1l-0.1,0.4H52.7z"/>
		<path class="st1" d="M59.4,51.2h0.5v3.2h-0.5V51.2z"/>
		<path class="st1" d="M66,51.2h0.5v2.8h1.3v0.4H66V51.2z"/>
		<path class="st1" d="M73.8,53.1l-1-2h0.5l0.4,0.8c0.1,0.2,0.2,0.5,0.3,0.7h0c0.1-0.2,0.2-0.5,0.3-0.7l0.4-0.8h0.5l-1,2v1.2h-0.5
			V53.1z"/>
	</g>
</g>
<g>
	<linearGradient id="SVGID_1_" gradientUnits="userSpaceOnUse" x1="22.8743" y1="37.8925" x2="13.9974" y2="53.2677">
		<stop  offset="0" style="stop-color:#1A489B"/>
		<stop  offset="9.343082e-02" style="stop-color:#1E52A0"/>
		<stop  offset="0.4891" style="stop-color:#2E79B4"/>
		<stop  offset="0.8051" style="stop-color:#3791C0"/>
		<stop  offset="1" style="stop-color:#3B9AC4"/>
	</linearGradient>
	<path class="st2" d="M18.4,54.5c-4.9,0-8.9-4-8.9-8.9c0-4.9,4-8.9,8.9-8.9s8.9,4,8.9,8.9C27.3,50.5,23.3,54.5,18.4,54.5z
		 M18.4,40.8c-2.6,0-4.7,2.1-4.7,4.7c0,2.6,2.1,4.7,4.7,4.7s4.7-2.1,4.7-4.7C23.2,43,21,40.8,18.4,40.8z"/>
</g>
<path class="st3" d="M13.7,45.6l0,7.5c1.2,0.8,2.6,1.3,4.1,1.4v-4.2v-9.4C15.5,41.2,13.7,43.2,13.7,45.6z"/>
<path class="st4" d="M13.7,46.3c0-2.4,1.8-4.4,4.1-4.7v-0.8c-2.3,0.3-4.1,2.3-4.1,4.7"/>
</svg>
