<svg width="143" height="142" viewBox="0 0 143 142" fill="none" xmlns="http://www.w3.org/2000/svg">
<g opacity="0.65" filter="url(#filter0_d_123_1170)">
<path d="M109.906 79.8182C114.827 58.2804 101.356 36.8312 79.8182 31.9103C58.2803 26.9893 36.8312 40.46 31.9102 61.9978C26.9892 83.5357 40.4599 104.985 61.9978 109.906C83.5357 114.827 104.985 101.356 109.906 79.8182Z" fill="url(#paint0_radial_123_1170)" fill-opacity="0.9" shape-rendering="crispEdges"/>
</g>
<path d="M103.086 78.2993C107.169 60.5284 96.0729 42.8122 78.302 38.7291C60.5311 34.6459 42.8149 45.742 38.7318 63.5129C34.6487 81.2838 45.7448 99 63.5156 103.083C81.2865 107.166 99.0027 96.0701 103.086 78.2993Z" fill="url(#paint1_radial_123_1170)" fill-opacity="0.7"/>
<path d="M71.9742 96.9894C86.3792 96.9894 98.0568 85.3118 98.0568 70.9068C98.0568 56.5018 86.3792 44.8242 71.9742 44.8242C57.5692 44.8242 45.8916 56.5018 45.8916 70.9068C45.8916 85.3118 57.5692 96.9894 71.9742 96.9894Z" fill="url(#paint2_radial_123_1170)"/>
<path d="M69.8409 92.8591C81.9648 92.8591 91.7932 83.0307 91.7932 70.9068C91.7932 58.7829 81.9648 48.9546 69.8409 48.9546C57.717 48.9546 47.8887 58.7829 47.8887 70.9068C47.8887 83.0307 57.717 92.8591 69.8409 92.8591Z" stroke="#13FFE2" stroke-opacity="0.28" stroke-width="4" stroke-miterlimit="10"/>
<path d="M77.7778 61H62.2222C60.9889 61 60 61.9889 60 63.2222V78.7778C60 80.0111 61 81 62.2222 81H77.7778C79.0111 81 80 80.0111 80 78.7778V63.2222C80 61.9889 79 61 77.7778 61ZM74.5556 75.3333C73.4111 75.3333 72.3222 74.8889 71.5 74.0667L70.7889 73.3556L72.3667 71.7889L73.0667 72.4889C73.4667 72.8889 74 73.1111 74.5667 73.1111C75.7222 73.1111 76.6667 72.1667 76.6667 71C76.6667 69.8333 75.7222 68.8889 74.5556 68.8889C74 68.8889 73.4667 69.1111 73.0667 69.5111L68.5 74.0667C67.6778 74.8889 66.6 75.3333 65.4444 75.3333C63.0556 75.3333 61.1111 73.3889 61.1111 71C61.1111 68.6111 63.0556 66.6667 65.4444 66.6667C66.6 66.6667 67.6778 67.1111 68.5 67.9333L69.2111 68.6444L67.6333 70.2222L66.9333 69.5111C66.5333 69.1111 66 68.8889 65.4444 68.8889C64.2778 68.8889 63.3333 69.8333 63.3333 71C63.3333 72.1667 64.2778 73.1111 65.4444 73.1111C66 73.1111 66.5333 72.8889 66.9333 72.4889L71.5 67.9333C72.3222 67.1111 73.4 66.6667 74.5556 66.6667C76.9444 66.6667 78.8889 68.6111 78.8889 71C78.8889 73.3889 76.9444 75.3333 74.5556 75.3333Z" fill="white"/>
<defs>
<filter id="filter0_d_123_1170" x="0.896484" y="0.896484" width="148.023" height="148.023" filterUnits="userSpaceOnUse" color-interpolation-filters="sRGB">
<feFlood flood-opacity="0" result="BackgroundImageFix"/>
<feColorMatrix in="SourceAlpha" type="matrix" values="0 0 0 0 0 0 0 0 0 0 0 0 0 0 0 0 0 0 127 0" result="hardAlpha"/>
<feOffset dx="4" dy="4"/>
<feGaussianBlur stdDeviation="17"/>
<feComposite in2="hardAlpha" operator="out"/>
<feColorMatrix type="matrix" values="0 0 0 0 0 0 0 0 0 0.420833 0 0 0 0 0.369121 0 0 0 1 0"/>
<feBlend mode="normal" in2="BackgroundImageFix" result="effect1_dropShadow_123_1170"/>
<feBlend mode="normal" in="SourceGraphic" in2="effect1_dropShadow_123_1170" result="shape"/>
</filter>
<radialGradient id="paint0_radial_123_1170" cx="0" cy="0" r="1" gradientUnits="userSpaceOnUse" gradientTransform="translate(70.9088 70.9076) scale(49.7)">
<stop stop-color="#42E8E0"/>
<stop offset="0.99" stop-color="#42E8E0" stop-opacity="0"/>
</radialGradient>
<radialGradient id="paint1_radial_123_1170" cx="0" cy="0" r="1" gradientUnits="userSpaceOnUse" gradientTransform="translate(70.9063 70.9065) scale(47.1532)">
<stop stop-color="#13FFE2"/>
<stop offset="0.99" stop-color="#13FFE2" stop-opacity="0"/>
</radialGradient>
<radialGradient id="paint2_radial_123_1170" cx="0" cy="0" r="1" gradientUnits="userSpaceOnUse" gradientTransform="translate(71.9742 70.9068) rotate(90) scale(26.0826)">
<stop stop-color="#42E8E0" stop-opacity="0"/>
<stop offset="0.755208" stop-color="#42E8E0"/>
<stop offset="1" stop-color="#3CCACE" stop-opacity="0.28"/>
</radialGradient>
</defs>
</svg>
