<svg width="145" height="160" viewBox="0 0 145 160" fill="none" xmlns="http://www.w3.org/2000/svg">
<g clip-path="url(#clip0_750_320)">
<g opacity="0.65" filter="url(#filter0_d_750_320)">
<path d="M111.906 79.8182C116.827 58.2804 103.356 36.8312 81.8182 31.9103C60.2803 26.9893 38.8312 40.46 33.9102 61.9978C28.9892 83.5357 42.4599 104.985 63.9978 109.906C85.5357 114.827 106.985 101.356 111.906 79.8182Z" fill="url(#paint0_radial_750_320)" fill-opacity="0.9" shape-rendering="crispEdges"/>
</g>
<path d="M73.9742 96.9894C88.3792 96.9894 100.057 85.3118 100.057 70.9068C100.057 56.5018 88.3792 44.8242 73.9742 44.8242C59.5692 44.8242 47.8916 56.5018 47.8916 70.9068C47.8916 85.3118 59.5692 96.9894 73.9742 96.9894Z" fill="url(#paint1_radial_750_320)"/>
<path d="M71.8409 92.8591C83.9648 92.8591 93.7932 83.0307 93.7932 70.9068C93.7932 58.7829 83.9648 48.9546 71.8409 48.9546C59.717 48.9546 49.8887 58.7829 49.8887 70.9068C49.8887 83.0307 59.717 92.8591 71.8409 92.8591Z" stroke="#13FFE2" stroke-opacity="0.7" stroke-width="4" stroke-miterlimit="10"/>
<line x1="72.4" y1="110" x2="72.4" y2="160" stroke="white" stroke-width="0.8" stroke-dasharray="2 5"/>
<path d="M79.7778 61H64.2222C62.9889 61 62 61.9889 62 63.2222V78.7778C62 80.0111 63 81 64.2222 81H79.7778C81.0111 81 82 80.0111 82 78.7778V63.2222C82 61.9889 81 61 79.7778 61ZM76.5556 75.3333C75.4111 75.3333 74.3222 74.8889 73.5 74.0667L72.7889 73.3556L74.3667 71.7889L75.0667 72.4889C75.4667 72.8889 76 73.1111 76.5667 73.1111C77.7222 73.1111 78.6667 72.1667 78.6667 71C78.6667 69.8333 77.7222 68.8889 76.5556 68.8889C76 68.8889 75.4667 69.1111 75.0667 69.5111L70.5 74.0667C69.6778 74.8889 68.6 75.3333 67.4444 75.3333C65.0556 75.3333 63.1111 73.3889 63.1111 71C63.1111 68.6111 65.0556 66.6667 67.4444 66.6667C68.6 66.6667 69.6778 67.1111 70.5 67.9333L71.2111 68.6444L69.6333 70.2222L68.9333 69.5111C68.5333 69.1111 68 68.8889 67.4444 68.8889C66.2778 68.8889 65.3333 69.8333 65.3333 71C65.3333 72.1667 66.2778 73.1111 67.4444 73.1111C68 73.1111 68.5333 72.8889 68.9333 72.4889L73.5 67.9333C74.3222 67.1111 75.4 66.6667 76.5556 66.6667C78.9444 66.6667 80.8889 68.6111 80.8889 71C80.8889 73.3889 78.9444 75.3333 76.5556 75.3333Z" fill="white"/>
</g>
<defs>
<filter id="filter0_d_750_320" x="2.89648" y="0.896484" width="148.023" height="148.023" filterUnits="userSpaceOnUse" color-interpolation-filters="sRGB">
<feFlood flood-opacity="0" result="BackgroundImageFix"/>
<feColorMatrix in="SourceAlpha" type="matrix" values="0 0 0 0 0 0 0 0 0 0 0 0 0 0 0 0 0 0 127 0" result="hardAlpha"/>
<feOffset dx="4" dy="4"/>
<feGaussianBlur stdDeviation="17"/>
<feComposite in2="hardAlpha" operator="out"/>
<feColorMatrix type="matrix" values="0 0 0 0 0 0 0 0 0 0.420833 0 0 0 0 0.369121 0 0 0 1 0"/>
<feBlend mode="normal" in2="BackgroundImageFix" result="effect1_dropShadow_750_320"/>
<feBlend mode="normal" in="SourceGraphic" in2="effect1_dropShadow_750_320" result="shape"/>
</filter>
<radialGradient id="paint0_radial_750_320" cx="0" cy="0" r="1" gradientUnits="userSpaceOnUse" gradientTransform="translate(72.9088 70.9076) scale(49.7)">
<stop stop-color="#42E8E0"/>
<stop offset="0.99" stop-color="#42E8E0" stop-opacity="0"/>
</radialGradient>
<radialGradient id="paint1_radial_750_320" cx="0" cy="0" r="1" gradientUnits="userSpaceOnUse" gradientTransform="translate(73.9742 70.9068) rotate(90) scale(26.0826)">
<stop stop-color="#42E8E0" stop-opacity="0"/>
<stop offset="0.755208" stop-color="#42E8E0"/>
<stop offset="1" stop-color="#3CCACE" stop-opacity="0.28"/>
</radialGradient>
<clipPath id="clip0_750_320">
<rect width="145" height="160" fill="white"/>
</clipPath>
</defs>
</svg>
