<svg width="143" height="142" viewBox="0 0 143 142" fill="none" xmlns="http://www.w3.org/2000/svg">
<g opacity="0.65" filter="url(#filter0_d_123_1166)">
<path d="M109.906 79.8182C114.827 58.2804 101.356 36.8312 79.8182 31.9103C58.2803 26.9893 36.8312 40.46 31.9102 61.9978C26.9892 83.5357 40.4599 104.985 61.9978 109.906C83.5357 114.827 104.985 101.356 109.906 79.8182Z" fill="url(#paint0_radial_123_1166)" fill-opacity="0.9" shape-rendering="crispEdges"/>
</g>
<path d="M103.086 78.2993C107.169 60.5284 96.0729 42.8122 78.302 38.7291C60.5311 34.6459 42.8149 45.742 38.7318 63.5129C34.6487 81.2838 45.7448 99 63.5156 103.083C81.2865 107.166 99.0027 96.0701 103.086 78.2993Z" fill="url(#paint1_radial_123_1166)" fill-opacity="0.7"/>
<path d="M71.9742 96.9894C86.3792 96.9894 98.0568 85.3118 98.0568 70.9068C98.0568 56.5018 86.3792 44.8242 71.9742 44.8242C57.5692 44.8242 45.8916 56.5018 45.8916 70.9068C45.8916 85.3118 57.5692 96.9894 71.9742 96.9894Z" fill="url(#paint2_radial_123_1166)"/>
<path d="M69.8409 92.8591C81.9648 92.8591 91.7932 83.0307 91.7932 70.9068C91.7932 58.7829 81.9648 48.9546 69.8409 48.9546C57.717 48.9546 47.8887 58.7829 47.8887 70.9068C47.8887 83.0307 57.717 92.8591 69.8409 92.8591Z" stroke="#13FFE2" stroke-opacity="0.28" stroke-width="4" stroke-miterlimit="10"/>
<path d="M78 60C78.5304 60 79.0391 60.2107 79.4142 60.5858C79.7893 60.9609 80 61.4696 80 62V74C80 74.5304 79.7893 75.0391 79.4142 75.4142C79.0391 75.7893 78.5304 76 78 76H68C67.4696 76 66.9609 75.7893 66.5858 75.4142C66.2107 75.0391 66 74.5304 66 74V62C66 61.4696 66.2107 60.9609 66.5858 60.5858C66.9609 60.2107 67.4696 60 68 60H78ZM78 62H75V68L72.5 65.75L70 68V62H68V74H78V62ZM62 78C62 78.5304 62.2107 79.0391 62.5858 79.4142C62.9609 79.7893 63.4696 80 64 80H76V78H64V64H62V78Z" fill="white"/>
<defs>
<filter id="filter0_d_123_1166" x="0.896484" y="0.896484" width="148.023" height="148.023" filterUnits="userSpaceOnUse" color-interpolation-filters="sRGB">
<feFlood flood-opacity="0" result="BackgroundImageFix"/>
<feColorMatrix in="SourceAlpha" type="matrix" values="0 0 0 0 0 0 0 0 0 0 0 0 0 0 0 0 0 0 127 0" result="hardAlpha"/>
<feOffset dx="4" dy="4"/>
<feGaussianBlur stdDeviation="17"/>
<feComposite in2="hardAlpha" operator="out"/>
<feColorMatrix type="matrix" values="0 0 0 0 0 0 0 0 0 0.420833 0 0 0 0 0.369121 0 0 0 1 0"/>
<feBlend mode="normal" in2="BackgroundImageFix" result="effect1_dropShadow_123_1166"/>
<feBlend mode="normal" in="SourceGraphic" in2="effect1_dropShadow_123_1166" result="shape"/>
</filter>
<radialGradient id="paint0_radial_123_1166" cx="0" cy="0" r="1" gradientUnits="userSpaceOnUse" gradientTransform="translate(70.9088 70.9076) scale(49.7)">
<stop stop-color="#42E8E0"/>
<stop offset="0.99" stop-color="#42E8E0" stop-opacity="0"/>
</radialGradient>
<radialGradient id="paint1_radial_123_1166" cx="0" cy="0" r="1" gradientUnits="userSpaceOnUse" gradientTransform="translate(70.9063 70.9065) scale(47.1532)">
<stop stop-color="#13FFE2"/>
<stop offset="0.99" stop-color="#13FFE2" stop-opacity="0"/>
</radialGradient>
<radialGradient id="paint2_radial_123_1166" cx="0" cy="0" r="1" gradientUnits="userSpaceOnUse" gradientTransform="translate(71.9742 70.9068) rotate(90) scale(26.0826)">
<stop stop-color="#42E8E0" stop-opacity="0"/>
<stop offset="0.755208" stop-color="#42E8E0"/>
<stop offset="1" stop-color="#3CCACE" stop-opacity="0.28"/>
</radialGradient>
</defs>
</svg>
