<svg width="145" height="160" viewBox="0 0 145 160" fill="none" xmlns="http://www.w3.org/2000/svg">
<g clip-path="url(#clip0_750_298)">
<g opacity="0.65" filter="url(#filter0_d_750_298)">
<path d="M111.906 80.1818C116.827 101.72 103.356 123.169 81.8182 128.09C60.2803 133.011 38.8312 119.54 33.9102 98.0022C28.9892 76.4643 42.4599 55.0152 63.9978 50.0942C85.5357 45.1732 106.985 58.6439 111.906 80.1818Z" fill="url(#paint0_radial_750_298)" fill-opacity="0.9" shape-rendering="crispEdges"/>
</g>
<path d="M73.9742 63.0106C88.3792 63.0106 100.057 74.6882 100.057 89.0932C100.057 103.498 88.3792 115.176 73.9742 115.176C59.5692 115.176 47.8916 103.498 47.8916 89.0932C47.8916 74.6882 59.5692 63.0106 73.9742 63.0106Z" fill="url(#paint1_radial_750_298)"/>
<path d="M71.8409 67.141C83.9648 67.141 93.7932 76.9694 93.7932 89.0933C93.7932 101.217 83.9648 111.046 71.8409 111.046C59.717 111.046 49.8887 101.217 49.8887 89.0933C49.8887 76.9694 59.717 67.141 71.8409 67.141Z" stroke="#13FFE2" stroke-opacity="0.7" stroke-width="4" stroke-miterlimit="10"/>
<line y1="-0.4" x2="50" y2="-0.4" transform="matrix(-4.37114e-08 -1 -1 4.37114e-08 72 50)" stroke="white" stroke-width="0.8" stroke-dasharray="2 5"/>
<path d="M79 79C79.5304 79 80.0391 79.2107 80.4142 79.5858C80.7893 79.9609 81 80.4696 81 81V93C81 93.5304 80.7893 94.0391 80.4142 94.4142C80.0391 94.7893 79.5304 95 79 95H69C68.4696 95 67.9609 94.7893 67.5858 94.4142C67.2107 94.0391 67 93.5304 67 93V81C67 80.4696 67.2107 79.9609 67.5858 79.5858C67.9609 79.2107 68.4696 79 69 79H79ZM79 81H76V87L73.5 84.75L71 87V81H69V93H79V81ZM63 97C63 97.5304 63.2107 98.0391 63.5858 98.4142C63.9609 98.7893 64.4696 99 65 99H77V97H65V83H63V97Z" fill="white"/>
</g>
<defs>
<filter id="filter0_d_750_298" x="2.89648" y="19.0804" width="148.023" height="148.023" filterUnits="userSpaceOnUse" color-interpolation-filters="sRGB">
<feFlood flood-opacity="0" result="BackgroundImageFix"/>
<feColorMatrix in="SourceAlpha" type="matrix" values="0 0 0 0 0 0 0 0 0 0 0 0 0 0 0 0 0 0 127 0" result="hardAlpha"/>
<feOffset dx="4" dy="4"/>
<feGaussianBlur stdDeviation="17"/>
<feComposite in2="hardAlpha" operator="out"/>
<feColorMatrix type="matrix" values="0 0 0 0 0 0 0 0 0 0.420833 0 0 0 0 0.369121 0 0 0 1 0"/>
<feBlend mode="normal" in2="BackgroundImageFix" result="effect1_dropShadow_750_298"/>
<feBlend mode="normal" in="SourceGraphic" in2="effect1_dropShadow_750_298" result="shape"/>
</filter>
<radialGradient id="paint0_radial_750_298" cx="0" cy="0" r="1" gradientUnits="userSpaceOnUse" gradientTransform="translate(72.9088 89.0924) scale(49.7)">
<stop stop-color="#42E8E0"/>
<stop offset="0.99" stop-color="#42E8E0" stop-opacity="0"/>
</radialGradient>
<radialGradient id="paint1_radial_750_298" cx="0" cy="0" r="1" gradientUnits="userSpaceOnUse" gradientTransform="translate(73.9742 89.0932) rotate(-90) scale(26.0826)">
<stop stop-color="#42E8E0" stop-opacity="0"/>
<stop offset="0.755208" stop-color="#42E8E0"/>
<stop offset="1" stop-color="#3CCACE" stop-opacity="0.28"/>
</radialGradient>
<clipPath id="clip0_750_298">
<rect width="145" height="160" fill="white" transform="matrix(1 0 0 -1 0 160)"/>
</clipPath>
</defs>
</svg>
