<svg width="80" height="80" viewBox="0 0 80 80" fill="none" xmlns="http://www.w3.org/2000/svg">
<g clip-path="url(#clip0_2_3042)">
<path opacity="0.65" d="M79.0011 48.9144C83.922 27.3765 70.4514 5.92742 48.9135 1.00645C27.3756 -3.91451 5.9265 9.55616 1.00553 31.094C-3.91543 52.6319 9.55524 74.081 31.0931 79.002C52.631 83.923 74.0801 70.4523 79.0011 48.9144Z" fill="url(#paint0_radial_2_3042)" fill-opacity="0.28"/>
<path d="M72.1809 47.3957C76.2641 29.6248 65.168 11.9086 47.3971 7.8255C29.6262 3.74237 11.91 14.8385 7.82691 32.6094C3.74378 50.3802 14.8399 68.0964 32.6108 72.1795C50.3816 76.2627 68.0978 65.1666 72.1809 47.3957Z" fill="url(#paint1_radial_2_3042)" fill-opacity="0.7"/>
<path d="M41.0693 66.0856C55.4743 66.0856 67.1519 54.408 67.1519 40.003C67.1519 25.598 55.4743 13.9204 41.0693 13.9204C26.6643 13.9204 14.9867 25.598 14.9867 40.003C14.9867 54.408 26.6643 66.0856 41.0693 66.0856Z" fill="url(#paint2_linear_2_3042)" fill-opacity="0.3"/>
<path d="M38.9361 61.9553C51.06 61.9553 60.8884 52.1269 60.8884 40.003C60.8884 27.8791 51.06 18.0508 38.9361 18.0508C26.8122 18.0508 16.9839 27.8791 16.9839 40.003C16.9839 52.1269 26.8122 61.9553 38.9361 61.9553Z" stroke="#C3CBE2" stroke-opacity="0.2" stroke-width="4" stroke-miterlimit="10"/>
<path d="M32 35.0002V47.0002H28V35.0002H32ZM36 47.0002C35.4696 47.0002 34.9609 46.7895 34.5858 46.4145C34.2107 46.0394 34 45.5307 34 45.0002V35.0002C34 34.4502 34.22 33.9502 34.59 33.5902L41.17 27.0002L42.23 28.0602C42.5 28.3302 42.67 28.7002 42.67 29.1102L42.64 29.4302L41.69 34.0002H48C49.11 34.0002 50 34.9002 50 36.0002V38.0002C50 38.2602 49.95 38.5002 49.86 38.7302L46.84 45.7802C46.54 46.5002 45.83 47.0002 45 47.0002H36ZM36 45.0002H45.03L48 38.0002V36.0002H39.21L40.34 30.6802L36 35.0302V45.0002Z" fill="white"/>
</g>
<defs>
<radialGradient id="paint0_radial_2_3042" cx="0" cy="0" r="1" gradientUnits="userSpaceOnUse" gradientTransform="translate(40.0041 40.0038) scale(49.7)">
<stop stop-color="#2A0D68"/>
<stop offset="0.99" stop-color="#8A95BD" stop-opacity="0"/>
</radialGradient>
<radialGradient id="paint1_radial_2_3042" cx="0" cy="0" r="1" gradientUnits="userSpaceOnUse" gradientTransform="translate(40.0014 40.0029) scale(47.1532)">
<stop stop-color="#B9BBC6"/>
<stop offset="0.99" stop-color="#9DA5C1" stop-opacity="0"/>
</radialGradient>
<linearGradient id="paint2_linear_2_3042" x1="49.2919" y1="40.003" x2="95.7704" y2="40.003" gradientUnits="userSpaceOnUse">
<stop offset="0.01" stop-color="#6D7BB0"/>
<stop offset="1" stop-color="#8C97BE"/>
</linearGradient>
<clipPath id="clip0_2_3042">
<rect width="80" height="80" fill="white" transform="translate(0 0.000244141)"/>
</clipPath>
</defs>
</svg>
