<svg width="80" height="80" viewBox="0 0 80 80" fill="none" xmlns="http://www.w3.org/2000/svg">
<g clip-path="url(#clip0_2_3057)">
<path opacity="0.65" d="M79.0011 48.9144C83.922 27.3765 70.4514 5.92742 48.9135 1.00645C27.3756 -3.91451 5.9265 9.55616 1.00553 31.094C-3.91543 52.6319 9.55524 74.081 31.0931 79.002C52.631 83.923 74.0801 70.4523 79.0011 48.9144Z" fill="url(#paint0_radial_2_3057)" fill-opacity="0.28"/>
<path d="M72.181 47.3957C76.2641 29.6248 65.168 11.9086 47.3971 7.8255C29.6263 3.74237 11.9101 14.8385 7.82694 32.6094C3.74381 50.3802 14.8399 68.0964 32.6108 72.1795C50.3817 76.2627 68.0978 65.1666 72.181 47.3957Z" fill="url(#paint1_radial_2_3057)" fill-opacity="0.7"/>
<path d="M41.0693 66.0856C55.4744 66.0856 67.1519 54.408 67.1519 40.003C67.1519 25.598 55.4744 13.9204 41.0693 13.9204C26.6643 13.9204 14.9868 25.598 14.9868 40.003C14.9868 54.408 26.6643 66.0856 41.0693 66.0856Z" fill="url(#paint2_linear_2_3057)" fill-opacity="0.3"/>
<path d="M38.9361 61.9553C51.06 61.9553 60.8884 52.1269 60.8884 40.003C60.8884 27.8791 51.06 18.0508 38.9361 18.0508C26.8122 18.0508 16.9839 27.8791 16.9839 40.003C16.9839 52.1269 26.8122 61.9553 38.9361 61.9553Z" stroke="#C3CBE2" stroke-opacity="0.2" stroke-width="4" stroke-miterlimit="10"/>
<path d="M44.9 44.3902C44.64 43.5902 43.89 43.0002 43 43.0002H42V40.0002C42 39.735 41.8946 39.4807 41.7071 39.2931C41.5196 39.1056 41.2652 39.0002 41 39.0002H35V37.0002H37C37.2652 37.0002 37.5196 36.8949 37.7071 36.7074C37.8946 36.5198 38 36.2655 38 36.0002V34.0002H40C40.5304 34.0002 41.0391 33.7895 41.4142 33.4145C41.7893 33.0394 42 32.5307 42 32.0002V31.5902C44.93 32.7702 47 35.6402 47 39.0002C47 41.0802 46.2 42.9702 44.9 44.3902ZM38 46.9302C34.05 46.4402 31 43.0802 31 39.0002C31 38.3802 31.08 37.7802 31.21 37.2102L36 42.0002V43.0002C36 43.5307 36.2107 44.0394 36.5858 44.4145C36.9609 44.7895 37.4696 45.0002 38 45.0002V46.9302ZM39 29.0002C37.6868 29.0002 36.3864 29.2589 35.1732 29.7614C33.9599 30.264 32.8575 31.0006 31.9289 31.9292C30.0536 33.8045 29 36.3481 29 39.0002C29 41.6524 30.0536 44.1959 31.9289 46.0713C32.8575 46.9999 33.9599 47.7365 35.1732 48.239C36.3864 48.7416 37.6868 49.0002 39 49.0002C41.6522 49.0002 44.1957 47.9467 46.0711 46.0713C47.9464 44.1959 49 41.6524 49 39.0002C49 37.687 48.7413 36.3867 48.2388 35.1734C47.7362 33.9602 46.9997 32.8578 46.0711 31.9292C45.1425 31.0006 44.0401 30.264 42.8268 29.7614C41.6136 29.2589 40.3132 29.0002 39 29.0002V29.0002Z" fill="white"/>
</g>
<defs>
<radialGradient id="paint0_radial_2_3057" cx="0" cy="0" r="1" gradientUnits="userSpaceOnUse" gradientTransform="translate(40.0041 40.0038) scale(49.7)">
<stop stop-color="#B3B6C4"/>
<stop offset="0.99" stop-color="#8A95BD" stop-opacity="0"/>
</radialGradient>
<radialGradient id="paint1_radial_2_3057" cx="0" cy="0" r="1" gradientUnits="userSpaceOnUse" gradientTransform="translate(40.0014 40.0029) scale(47.1532)">
<stop stop-color="#B9BBC6"/>
<stop offset="0.99" stop-color="#9DA5C1" stop-opacity="0"/>
</radialGradient>
<linearGradient id="paint2_linear_2_3057" x1="49.2919" y1="40.003" x2="95.7704" y2="40.003" gradientUnits="userSpaceOnUse">
<stop offset="0.01" stop-color="#6D7BB0"/>
<stop offset="1" stop-color="#8C97BE"/>
</linearGradient>
<clipPath id="clip0_2_3057">
<rect width="80" height="80" fill="white" transform="translate(0 0.000244141)"/>
</clipPath>
</defs>
</svg>
