<svg width="145" height="160" viewBox="0 0 145 160" fill="none" xmlns="http://www.w3.org/2000/svg">
<path opacity="0.65" d="M111.906 80.1818C116.827 101.72 103.356 123.169 81.8182 128.09C60.2803 133.011 38.8312 119.54 33.9102 98.0022C28.9892 76.4643 42.4599 55.0152 63.9978 50.0942C85.5357 45.1732 106.985 58.6439 111.906 80.1818Z" fill="url(#paint0_radial_750_245)" fill-opacity="0.28"/>
<path d="M105.086 81.7007C109.169 99.4716 98.0729 117.188 80.302 121.271C62.5311 125.354 44.8149 114.258 40.7318 96.4871C36.6487 78.7162 47.7448 61 65.5156 56.9169C83.2865 52.8338 101.003 63.9299 105.086 81.7007Z" fill="url(#paint1_radial_750_245)" fill-opacity="0.7"/>
<path d="M73.9742 63.0106C88.3792 63.0106 100.057 74.6882 100.057 89.0932C100.057 103.498 88.3792 115.176 73.9742 115.176C59.5692 115.176 47.8916 103.498 47.8916 89.0932C47.8916 74.6882 59.5692 63.0106 73.9742 63.0106Z" fill="url(#paint2_linear_750_245)" fill-opacity="0.3"/>
<path d="M71.8409 67.141C83.9648 67.141 93.7932 76.9694 93.7932 89.0933C93.7932 101.217 83.9648 111.046 71.8409 111.046C59.717 111.046 49.8887 101.217 49.8887 89.0933C49.8887 76.9694 59.717 67.141 71.8409 67.141Z" stroke="#C3CBE2" stroke-opacity="0.2" stroke-width="4" stroke-miterlimit="10"/>
<path d="M75.5917 94.6667C76.9417 94.6667 78.0417 93.619 78.0417 92.3333C78.0417 91.0476 76.9417 90 75.5917 90C74.2317 90 73.1417 91.0476 73.1417 92.3333C73.1417 93.619 74.2317 94.6667 75.5917 94.6667ZM80.7917 92.981L82.2717 94.0857C82.4017 94.1905 82.4417 94.3619 82.3517 94.5143L80.9517 96.819C80.8617 96.9619 80.6917 97.019 80.5217 96.9619L78.7817 96.2952C78.4217 96.5619 78.0217 96.781 77.6017 96.9524L77.3317 98.7143C77.3117 98.8762 77.1617 99 76.9917 99H74.1917C74.0117 99 73.8717 98.8762 73.8417 98.7143L73.5817 96.9524C73.1517 96.781 72.7617 96.5619 72.4017 96.2952L70.6517 96.9619C70.5017 97.019 70.3117 96.9619 70.2317 96.819L68.8317 94.5143C68.7417 94.3619 68.7817 94.1905 68.9117 94.0857L70.3917 92.981L70.3417 92.3333L70.3917 91.6762L68.9117 90.581C68.7817 90.4762 68.7417 90.2952 68.8317 90.1524L70.2317 87.8476C70.3117 87.6952 70.5017 87.6381 70.6517 87.6952L72.4017 88.3714C72.7617 88.1048 73.1517 87.8762 73.5817 87.7143L73.8417 85.9429C73.8717 85.7905 74.0117 85.6667 74.1917 85.6667H76.9917C77.1617 85.6667 77.3117 85.7905 77.3317 85.9429L77.6017 87.7143C78.0217 87.8762 78.4217 88.1048 78.7817 88.3714L80.5217 87.6952C80.6917 87.6381 80.8617 87.6952 80.9517 87.8476L82.3517 90.1524C82.4417 90.2952 82.4017 90.4762 82.2717 90.581L80.7917 91.6762L80.8417 92.3333L80.7917 92.981ZM66.3817 84.781C67.2517 84.781 67.9517 84.1143 67.9517 83.2857C67.9517 82.4571 67.2517 81.781 66.3817 81.781C65.9626 81.781 65.5608 81.9395 65.2644 82.2217C64.9681 82.5039 64.8017 82.8866 64.8017 83.2857C64.8017 84.1143 65.5117 84.781 66.3817 84.781ZM69.7217 83.7048L70.6917 84.4095C70.7617 84.4762 70.7817 84.5905 70.7217 84.6857L69.8217 86.1714C69.7717 86.2667 69.6517 86.3048 69.5517 86.2667L68.4317 85.8381L67.6917 86.2571L67.5017 87.3905C67.4817 87.4952 67.3917 87.5714 67.2817 87.5714H65.4817C65.3617 87.5714 65.2717 87.4952 65.2517 87.3905L65.0917 86.2571L64.3317 85.8381L63.1917 86.2667C63.1017 86.3048 62.9917 86.2667 62.9317 86.1714L62.0317 84.6857C61.9717 84.5905 62.0017 84.4762 62.0817 84.4095L63.0317 83.7048L63.0017 83.2857L63.0317 82.8667L62.0817 82.1619C62.0017 82.0952 61.9717 81.981 62.0317 81.8857L62.9317 80.4C62.9917 80.3048 63.1017 80.2667 63.1917 80.3048L64.3217 80.7333L65.0917 80.3143L65.2517 79.181C65.2717 79.0762 65.3617 79 65.4817 79H67.2817C67.3917 79 67.4817 79.0762 67.5017 79.181L67.6917 80.3143L68.4317 80.7333L69.5517 80.3048C69.6517 80.2667 69.7717 80.3048 69.8217 80.4L70.7217 81.8857C70.7817 81.981 70.7617 82.0952 70.6917 82.1619L69.7217 82.8667L69.7517 83.2857L69.7217 83.7048Z" fill="white"/>
<line y1="-0.4" x2="50" y2="-0.4" transform="matrix(-4.37114e-08 -1 -1 4.37114e-08 72 50)" stroke="white" stroke-width="0.8" stroke-dasharray="2 5"/>
<defs>
<radialGradient id="paint0_radial_750_245" cx="0" cy="0" r="1" gradientUnits="userSpaceOnUse" gradientTransform="translate(72.9088 89.0924) scale(49.7)">
<stop stop-color="#B3B6C4"/>
<stop offset="0.99" stop-color="#8A95BD" stop-opacity="0"/>
</radialGradient>
<radialGradient id="paint1_radial_750_245" cx="0" cy="0" r="1" gradientUnits="userSpaceOnUse" gradientTransform="translate(72.9063 89.0935) scale(47.1532)">
<stop stop-color="#B9BBC6"/>
<stop offset="0.99" stop-color="#9DA5C1" stop-opacity="0"/>
</radialGradient>
<linearGradient id="paint2_linear_750_245" x1="82.1968" y1="89.0932" x2="128.675" y2="89.0932" gradientUnits="userSpaceOnUse">
<stop offset="0.01" stop-color="#6D7BB0"/>
<stop offset="1" stop-color="#8C97BE"/>
</linearGradient>
</defs>
</svg>
