<svg width="143" height="142" viewBox="0 0 143 142" fill="none" xmlns="http://www.w3.org/2000/svg">
<g opacity="0.65" filter="url(#filter0_d_123_1174)">
<path d="M109.906 79.8182C114.827 58.2804 101.356 36.8312 79.8182 31.9103C58.2803 26.9893 36.8312 40.46 31.9102 61.9978C26.9892 83.5357 40.4599 104.985 61.9978 109.906C83.5357 114.827 104.985 101.356 109.906 79.8182Z" fill="url(#paint0_radial_123_1174)" fill-opacity="0.9" shape-rendering="crispEdges"/>
</g>
<path d="M103.086 78.2993C107.169 60.5284 96.0729 42.8122 78.302 38.7291C60.5311 34.6459 42.8149 45.742 38.7318 63.5129C34.6487 81.2838 45.7448 99 63.5156 103.083C81.2865 107.166 99.0027 96.0701 103.086 78.2993Z" fill="url(#paint1_radial_123_1174)" fill-opacity="0.7"/>
<path d="M71.9742 96.9894C86.3792 96.9894 98.0568 85.3118 98.0568 70.9068C98.0568 56.5018 86.3792 44.8242 71.9742 44.8242C57.5692 44.8242 45.8916 56.5018 45.8916 70.9068C45.8916 85.3118 57.5692 96.9894 71.9742 96.9894Z" fill="url(#paint2_radial_123_1174)"/>
<path d="M69.8409 92.8591C81.9648 92.8591 91.7932 83.0307 91.7932 70.9068C91.7932 58.7829 81.9648 48.9546 69.8409 48.9546C57.717 48.9546 47.8887 58.7829 47.8887 70.9068C47.8887 83.0307 57.717 92.8591 69.8409 92.8591Z" stroke="#13FFE2" stroke-opacity="0.28" stroke-width="4" stroke-miterlimit="10"/>
<path d="M75.9 75.39C75.64 74.59 74.89 74 74 74H73V71C73 70.7348 72.8946 70.4804 72.7071 70.2929C72.5196 70.1054 72.2652 70 72 70H66V68H68C68.2652 68 68.5196 67.8946 68.7071 67.7071C68.8946 67.5196 69 67.2652 69 67V65H71C71.5304 65 72.0391 64.7893 72.4142 64.4142C72.7893 64.0391 73 63.5304 73 63V62.59C75.93 63.77 78 66.64 78 70C78 72.08 77.2 73.97 75.9 75.39ZM69 77.93C65.05 77.44 62 74.08 62 70C62 69.38 62.08 68.78 62.21 68.21L67 73V74C67 74.5304 67.2107 75.0391 67.5858 75.4142C67.9609 75.7893 68.4696 76 69 76V77.93ZM70 60C68.6868 60 67.3864 60.2587 66.1732 60.7612C64.9599 61.2638 63.8575 62.0003 62.9289 62.9289C61.0536 64.8043 60 67.3478 60 70C60 72.6522 61.0536 75.1957 62.9289 77.0711C63.8575 77.9997 64.9599 78.7362 66.1732 79.2388C67.3864 79.7413 68.6868 80 70 80C72.6522 80 75.1957 78.9464 77.0711 77.0711C78.9464 75.1957 80 72.6522 80 70C80 68.6868 79.7413 67.3864 79.2388 66.1732C78.7362 64.9599 77.9997 63.8575 77.0711 62.9289C76.1425 62.0003 75.0401 61.2638 73.8268 60.7612C72.6136 60.2587 71.3132 60 70 60V60Z" fill="white"/>
<defs>
<filter id="filter0_d_123_1174" x="0.896484" y="0.896484" width="148.023" height="148.023" filterUnits="userSpaceOnUse" color-interpolation-filters="sRGB">
<feFlood flood-opacity="0" result="BackgroundImageFix"/>
<feColorMatrix in="SourceAlpha" type="matrix" values="0 0 0 0 0 0 0 0 0 0 0 0 0 0 0 0 0 0 127 0" result="hardAlpha"/>
<feOffset dx="4" dy="4"/>
<feGaussianBlur stdDeviation="17"/>
<feComposite in2="hardAlpha" operator="out"/>
<feColorMatrix type="matrix" values="0 0 0 0 0 0 0 0 0 0.420833 0 0 0 0 0.369121 0 0 0 1 0"/>
<feBlend mode="normal" in2="BackgroundImageFix" result="effect1_dropShadow_123_1174"/>
<feBlend mode="normal" in="SourceGraphic" in2="effect1_dropShadow_123_1174" result="shape"/>
</filter>
<radialGradient id="paint0_radial_123_1174" cx="0" cy="0" r="1" gradientUnits="userSpaceOnUse" gradientTransform="translate(70.9088 70.9076) scale(49.7)">
<stop stop-color="#42E8E0"/>
<stop offset="0.99" stop-color="#42E8E0" stop-opacity="0"/>
</radialGradient>
<radialGradient id="paint1_radial_123_1174" cx="0" cy="0" r="1" gradientUnits="userSpaceOnUse" gradientTransform="translate(70.9063 70.9065) scale(47.1532)">
<stop stop-color="#13FFE2"/>
<stop offset="0.99" stop-color="#13FFE2" stop-opacity="0"/>
</radialGradient>
<radialGradient id="paint2_radial_123_1174" cx="0" cy="0" r="1" gradientUnits="userSpaceOnUse" gradientTransform="translate(71.9742 70.9068) rotate(90) scale(26.0826)">
<stop stop-color="#42E8E0" stop-opacity="0"/>
<stop offset="0.755208" stop-color="#42E8E0"/>
<stop offset="1" stop-color="#3CCACE" stop-opacity="0.28"/>
</radialGradient>
</defs>
</svg>
