<svg width="143" height="142" viewBox="0 0 143 142" fill="none" xmlns="http://www.w3.org/2000/svg">
<g opacity="0.65" filter="url(#filter0_d_123_1159)">
<path d="M109.906 79.8182C114.827 58.2804 101.356 36.8312 79.8182 31.9103C58.2803 26.9893 36.8312 40.46 31.9102 61.9978C26.9892 83.5357 40.4599 104.985 61.9978 109.906C83.5357 114.827 104.985 101.356 109.906 79.8182Z" fill="url(#paint0_radial_123_1159)" fill-opacity="0.9" shape-rendering="crispEdges"/>
</g>
<path d="M103.086 78.2993C107.169 60.5284 96.0729 42.8122 78.302 38.7291C60.5311 34.6459 42.8149 45.742 38.7318 63.5129C34.6487 81.2838 45.7448 99 63.5156 103.083C81.2865 107.166 99.0027 96.0701 103.086 78.2993Z" fill="url(#paint1_radial_123_1159)" fill-opacity="0.7"/>
<path d="M71.9742 96.9894C86.3792 96.9894 98.0568 85.3118 98.0568 70.9068C98.0568 56.5018 86.3792 44.8242 71.9742 44.8242C57.5692 44.8242 45.8916 56.5018 45.8916 70.9068C45.8916 85.3118 57.5692 96.9894 71.9742 96.9894Z" fill="url(#paint2_radial_123_1159)"/>
<path d="M69.8409 92.8591C81.9648 92.8591 91.7932 83.0307 91.7932 70.9068C91.7932 58.7829 81.9648 48.9546 69.8409 48.9546C57.717 48.9546 47.8887 58.7829 47.8887 70.9068C47.8887 83.0307 57.717 92.8591 69.8409 92.8591Z" stroke="#13FFE2" stroke-opacity="0.28" stroke-width="4" stroke-miterlimit="10"/>
<path d="M72.5917 76.6667C73.9417 76.6667 75.0417 75.619 75.0417 74.3333C75.0417 73.0476 73.9417 72 72.5917 72C71.2317 72 70.1417 73.0476 70.1417 74.3333C70.1417 75.619 71.2317 76.6667 72.5917 76.6667ZM77.7917 74.981L79.2717 76.0857C79.4017 76.1905 79.4417 76.3619 79.3517 76.5143L77.9517 78.819C77.8617 78.9619 77.6917 79.019 77.5217 78.9619L75.7817 78.2952C75.4217 78.5619 75.0217 78.781 74.6017 78.9524L74.3317 80.7143C74.3117 80.8762 74.1617 81 73.9917 81H71.1917C71.0117 81 70.8717 80.8762 70.8417 80.7143L70.5817 78.9524C70.1517 78.781 69.7617 78.5619 69.4017 78.2952L67.6517 78.9619C67.5017 79.019 67.3117 78.9619 67.2317 78.819L65.8317 76.5143C65.7417 76.3619 65.7817 76.1905 65.9117 76.0857L67.3917 74.981L67.3417 74.3333L67.3917 73.6762L65.9117 72.581C65.7817 72.4762 65.7417 72.2952 65.8317 72.1524L67.2317 69.8476C67.3117 69.6952 67.5017 69.6381 67.6517 69.6952L69.4017 70.3714C69.7617 70.1048 70.1517 69.8762 70.5817 69.7143L70.8417 67.9429C70.8717 67.7905 71.0117 67.6667 71.1917 67.6667H73.9917C74.1617 67.6667 74.3117 67.7905 74.3317 67.9429L74.6017 69.7143C75.0217 69.8762 75.4217 70.1048 75.7817 70.3714L77.5217 69.6952C77.6917 69.6381 77.8617 69.6952 77.9517 69.8476L79.3517 72.1524C79.4417 72.2952 79.4017 72.4762 79.2717 72.581L77.7917 73.6762L77.8417 74.3333L77.7917 74.981ZM63.3817 66.781C64.2517 66.781 64.9517 66.1143 64.9517 65.2857C64.9517 64.4571 64.2517 63.781 63.3817 63.781C62.9626 63.781 62.5608 63.9395 62.2644 64.2217C61.9681 64.5039 61.8017 64.8866 61.8017 65.2857C61.8017 66.1143 62.5117 66.781 63.3817 66.781ZM66.7217 65.7048L67.6917 66.4095C67.7617 66.4762 67.7817 66.5905 67.7217 66.6857L66.8217 68.1714C66.7717 68.2667 66.6517 68.3048 66.5517 68.2667L65.4317 67.8381L64.6917 68.2571L64.5017 69.3905C64.4817 69.4952 64.3917 69.5714 64.2817 69.5714H62.4817C62.3617 69.5714 62.2717 69.4952 62.2517 69.3905L62.0917 68.2571L61.3317 67.8381L60.1917 68.2667C60.1017 68.3048 59.9917 68.2667 59.9317 68.1714L59.0317 66.6857C58.9717 66.5905 59.0017 66.4762 59.0817 66.4095L60.0317 65.7048L60.0017 65.2857L60.0317 64.8667L59.0817 64.1619C59.0017 64.0952 58.9717 63.981 59.0317 63.8857L59.9317 62.4C59.9917 62.3048 60.1017 62.2667 60.1917 62.3048L61.3217 62.7333L62.0917 62.3143L62.2517 61.181C62.2717 61.0762 62.3617 61 62.4817 61H64.2817C64.3917 61 64.4817 61.0762 64.5017 61.181L64.6917 62.3143L65.4317 62.7333L66.5517 62.3048C66.6517 62.2667 66.7717 62.3048 66.8217 62.4L67.7217 63.8857C67.7817 63.981 67.7617 64.0952 67.6917 64.1619L66.7217 64.8667L66.7517 65.2857L66.7217 65.7048Z" fill="white"/>
<defs>
<filter id="filter0_d_123_1159" x="0.896484" y="0.896484" width="148.023" height="148.023" filterUnits="userSpaceOnUse" color-interpolation-filters="sRGB">
<feFlood flood-opacity="0" result="BackgroundImageFix"/>
<feColorMatrix in="SourceAlpha" type="matrix" values="0 0 0 0 0 0 0 0 0 0 0 0 0 0 0 0 0 0 127 0" result="hardAlpha"/>
<feOffset dx="4" dy="4"/>
<feGaussianBlur stdDeviation="17"/>
<feComposite in2="hardAlpha" operator="out"/>
<feColorMatrix type="matrix" values="0 0 0 0 0 0 0 0 0 0.420833 0 0 0 0 0.369121 0 0 0 1 0"/>
<feBlend mode="normal" in2="BackgroundImageFix" result="effect1_dropShadow_123_1159"/>
<feBlend mode="normal" in="SourceGraphic" in2="effect1_dropShadow_123_1159" result="shape"/>
</filter>
<radialGradient id="paint0_radial_123_1159" cx="0" cy="0" r="1" gradientUnits="userSpaceOnUse" gradientTransform="translate(70.9088 70.9076) scale(49.7)">
<stop stop-color="#42E8E0"/>
<stop offset="0.99" stop-color="#42E8E0" stop-opacity="0"/>
</radialGradient>
<radialGradient id="paint1_radial_123_1159" cx="0" cy="0" r="1" gradientUnits="userSpaceOnUse" gradientTransform="translate(70.9063 70.9065) scale(47.1532)">
<stop stop-color="#13FFE2"/>
<stop offset="0.99" stop-color="#13FFE2" stop-opacity="0"/>
</radialGradient>
<radialGradient id="paint2_radial_123_1159" cx="0" cy="0" r="1" gradientUnits="userSpaceOnUse" gradientTransform="translate(71.9742 70.9068) rotate(90) scale(26.0826)">
<stop stop-color="#42E8E0" stop-opacity="0"/>
<stop offset="0.755208" stop-color="#42E8E0"/>
<stop offset="1" stop-color="#3CCACE" stop-opacity="0.28"/>
</radialGradient>
</defs>
</svg>
