<svg width="143" height="142" viewBox="0 0 143 142" fill="none" xmlns="http://www.w3.org/2000/svg">
<g opacity="0.65" filter="url(#filter0_d_123_1143)">
<path d="M109.906 79.8182C114.827 58.2804 101.356 36.8312 79.8182 31.9103C58.2803 26.9893 36.8312 40.46 31.9102 61.9978C26.9892 83.5357 40.4599 104.985 61.9978 109.906C83.5357 114.827 104.985 101.356 109.906 79.8182Z" fill="url(#paint0_radial_123_1143)" fill-opacity="0.9" shape-rendering="crispEdges"/>
</g>
<path d="M103.086 78.2993C107.169 60.5284 96.0729 42.8122 78.302 38.7291C60.5311 34.6459 42.8149 45.742 38.7318 63.5129C34.6487 81.2838 45.7448 99 63.5156 103.083C81.2865 107.166 99.0027 96.0701 103.086 78.2993Z" fill="url(#paint1_radial_123_1143)" fill-opacity="0.7"/>
<path d="M71.9742 96.9894C86.3792 96.9894 98.0568 85.3118 98.0568 70.9068C98.0568 56.5018 86.3792 44.8242 71.9742 44.8242C57.5692 44.8242 45.8916 56.5018 45.8916 70.9068C45.8916 85.3118 57.5692 96.9894 71.9742 96.9894Z" fill="url(#paint2_radial_123_1143)"/>
<path d="M69.8409 92.8591C81.9648 92.8591 91.7932 83.0307 91.7932 70.9068C91.7932 58.7829 81.9648 48.9546 69.8409 48.9546C57.717 48.9546 47.8887 58.7829 47.8887 70.9068C47.8887 83.0307 57.717 92.8591 69.8409 92.8591Z" stroke="#13FFE2" stroke-opacity="0.28" stroke-width="4" stroke-miterlimit="10"/>
<path d="M72.1183 81.9041L70.5036 78.1101C72.0588 77.5356 73.515 76.7629 74.8622 75.8615L72.1183 81.9041ZM64.6987 72.3052L60.9048 70.6906L66.9474 67.9466C66.0459 69.2938 65.2733 70.75 64.6987 72.3052ZM78.1509 63.8852C78.4283 63.8852 78.676 63.8852 78.884 63.9348C79.0524 65.3117 78.8642 68.1448 75.615 71.3939C73.931 73.0878 71.9201 74.3855 69.6616 75.2473L67.5318 73.1671C68.4432 70.8788 69.7408 68.8679 71.4149 67.1938C74.149 64.4598 76.5858 63.8852 78.1509 63.8852ZM78.1509 61.9041C76.1896 61.9041 73.2178 62.5876 70.0083 65.7971C67.8389 67.9665 66.5412 70.3538 65.6992 72.4439C65.4219 73.1869 65.6101 73.9991 66.1549 74.5539L68.2649 76.6539C68.6413 77.0304 69.1465 77.2582 69.6715 77.2582C69.8993 77.2582 70.1371 77.1988 70.3649 77.1096C72.4848 76.2973 74.8424 74.9699 77.0118 72.8005C82.6185 67.1938 80.5185 62.2904 80.5185 62.2904C80.5185 62.2904 79.617 61.9041 78.1509 61.9041ZM73.515 69.2938C72.7423 68.5212 72.7423 67.2631 73.515 66.4905C74.2876 65.7178 75.5457 65.7178 76.3184 66.4905C77.0811 67.2631 77.091 68.5212 76.3184 69.2938C75.5457 70.0665 74.2876 70.0665 73.515 69.2938ZM67.9083 76.2973L66.5115 74.9006L67.9083 76.2973ZM65.2931 81.7158L68.8988 78.1101C68.562 78.0209 68.2351 77.8724 67.938 77.6643L63.8964 81.7158H65.2931ZM61.093 81.7158H62.4897L67.2148 77.0006L65.8082 75.6039L61.093 80.3191V81.7158ZM61.093 78.9125L65.1445 74.8709C64.9365 74.5737 64.7879 74.2567 64.6987 73.91L61.093 77.5157V78.9125Z" fill="white"/>
<defs>
<filter id="filter0_d_123_1143" x="0.896484" y="0.896484" width="148.023" height="148.023" filterUnits="userSpaceOnUse" color-interpolation-filters="sRGB">
<feFlood flood-opacity="0" result="BackgroundImageFix"/>
<feColorMatrix in="SourceAlpha" type="matrix" values="0 0 0 0 0 0 0 0 0 0 0 0 0 0 0 0 0 0 127 0" result="hardAlpha"/>
<feOffset dx="4" dy="4"/>
<feGaussianBlur stdDeviation="17"/>
<feComposite in2="hardAlpha" operator="out"/>
<feColorMatrix type="matrix" values="0 0 0 0 0 0 0 0 0 0.420833 0 0 0 0 0.369121 0 0 0 1 0"/>
<feBlend mode="normal" in2="BackgroundImageFix" result="effect1_dropShadow_123_1143"/>
<feBlend mode="normal" in="SourceGraphic" in2="effect1_dropShadow_123_1143" result="shape"/>
</filter>
<radialGradient id="paint0_radial_123_1143" cx="0" cy="0" r="1" gradientUnits="userSpaceOnUse" gradientTransform="translate(70.9088 70.9076) scale(49.7)">
<stop stop-color="#42E8E0"/>
<stop offset="0.99" stop-color="#42E8E0" stop-opacity="0"/>
</radialGradient>
<radialGradient id="paint1_radial_123_1143" cx="0" cy="0" r="1" gradientUnits="userSpaceOnUse" gradientTransform="translate(70.9063 70.9065) scale(47.1532)">
<stop stop-color="#13FFE2"/>
<stop offset="0.99" stop-color="#13FFE2" stop-opacity="0"/>
</radialGradient>
<radialGradient id="paint2_radial_123_1143" cx="0" cy="0" r="1" gradientUnits="userSpaceOnUse" gradientTransform="translate(71.9742 70.9068) rotate(90) scale(26.0826)">
<stop stop-color="#42E8E0" stop-opacity="0"/>
<stop offset="0.755208" stop-color="#42E8E0"/>
<stop offset="1" stop-color="#3CCACE" stop-opacity="0.28"/>
</radialGradient>
</defs>
</svg>
