<svg width="80" height="80" viewBox="0 0 80 80" fill="none" xmlns="http://www.w3.org/2000/svg">
<g clip-path="url(#clip0_2_3037)">
<path opacity="0.65" d="M79.0011 48.9144C83.922 27.3765 70.4514 5.92742 48.9135 1.00645C27.3756 -3.91451 5.9265 9.55616 1.00553 31.094C-3.91543 52.6319 9.55524 74.081 31.0931 79.002C52.631 83.923 74.0801 70.4523 79.0011 48.9144Z" fill="url(#paint0_radial_2_3037)" fill-opacity="0.28"/>
<path d="M72.1809 47.3957C76.2641 29.6248 65.168 11.9086 47.3971 7.8255C29.6262 3.74237 11.91 14.8385 7.82691 32.6094C3.74378 50.3802 14.8399 68.0964 32.6108 72.1795C50.3816 76.2627 68.0978 65.1666 72.1809 47.3957Z" fill="url(#paint1_radial_2_3037)" fill-opacity="0.7"/>
<path d="M41.0693 66.0856C55.4743 66.0856 67.1519 54.408 67.1519 40.003C67.1519 25.598 55.4743 13.9204 41.0693 13.9204C26.6643 13.9204 14.9867 25.598 14.9867 40.003C14.9867 54.408 26.6643 66.0856 41.0693 66.0856Z" fill="url(#paint2_linear_2_3037)" fill-opacity="0.3"/>
<path d="M38.9361 61.9553C51.06 61.9553 60.8884 52.1269 60.8884 40.003C60.8884 27.8791 51.06 18.0508 38.9361 18.0508C26.8122 18.0508 16.9839 27.8791 16.9839 40.003C16.9839 52.1269 26.8122 61.9553 38.9361 61.9553Z" stroke="#C3CBE2" stroke-opacity="0.2" stroke-width="4" stroke-miterlimit="10"/>
<path d="M46.7778 30.0002H31.2222C29.9889 30.0002 29 30.9891 29 32.2225V47.778C29 49.0114 30 50.0002 31.2222 50.0002H46.7778C48.0111 50.0002 49 49.0114 49 47.778V32.2225C49 30.9891 48 30.0002 46.7778 30.0002ZM43.5556 44.3336C42.4111 44.3336 41.3222 43.8891 40.5 43.0669L39.7889 42.3558L41.3667 40.7891L42.0667 41.4891C42.4667 41.8891 43 42.1114 43.5667 42.1114C44.7222 42.1114 45.6667 41.1669 45.6667 40.0002C45.6667 38.8336 44.7222 37.8891 43.5556 37.8891C43 37.8891 42.4667 38.1114 42.0667 38.5114L37.5 43.0669C36.6778 43.8891 35.6 44.3336 34.4444 44.3336C32.0556 44.3336 30.1111 42.3891 30.1111 40.0002C30.1111 37.6114 32.0556 35.6669 34.4444 35.6669C35.6 35.6669 36.6778 36.1114 37.5 36.9336L38.2111 37.6447L36.6333 39.2225L35.9333 38.5114C35.5333 38.1114 35 37.8891 34.4444 37.8891C33.2778 37.8891 32.3333 38.8336 32.3333 40.0002C32.3333 41.1669 33.2778 42.1114 34.4444 42.1114C35 42.1114 35.5333 41.8891 35.9333 41.4891L40.5 36.9336C41.3222 36.1114 42.4 35.6669 43.5556 35.6669C45.9444 35.6669 47.8889 37.6114 47.8889 40.0002C47.8889 42.3891 45.9444 44.3336 43.5556 44.3336Z" fill="white"/>
</g>
<defs>
<radialGradient id="paint0_radial_2_3037" cx="0" cy="0" r="1" gradientUnits="userSpaceOnUse" gradientTransform="translate(40.0041 40.0038) scale(49.7)">
<stop stop-color="#B3B6C4"/>
<stop offset="0.99" stop-color="#8A95BD" stop-opacity="0"/>
</radialGradient>
<radialGradient id="paint1_radial_2_3037" cx="0" cy="0" r="1" gradientUnits="userSpaceOnUse" gradientTransform="translate(40.0014 40.0029) scale(47.1532)">
<stop stop-color="#B9BBC6"/>
<stop offset="0.99" stop-color="#9DA5C1" stop-opacity="0"/>
</radialGradient>
<linearGradient id="paint2_linear_2_3037" x1="49.2919" y1="40.003" x2="95.7704" y2="40.003" gradientUnits="userSpaceOnUse">
<stop offset="0.01" stop-color="#6D7BB0"/>
<stop offset="1" stop-color="#8C97BE"/>
</linearGradient>
<clipPath id="clip0_2_3037">
<rect width="80" height="80" fill="white" transform="translate(0 0.000244141)"/>
</clipPath>
</defs>
</svg>
