<svg width="80" height="80" viewBox="0 0 80 80" fill="none" xmlns="http://www.w3.org/2000/svg">
<g clip-path="url(#clip0_2_3047)">
<path opacity="0.65" d="M79.0011 48.9142C83.922 27.3763 70.4514 5.92717 48.9135 1.00621C27.3756 -3.91476 5.92648 9.55591 1.00552 31.0938C-3.91545 52.6317 9.55523 74.0808 31.0931 79.0017C52.631 83.9227 74.0801 70.452 79.0011 48.9142Z" fill="url(#paint0_radial_2_3047)" fill-opacity="0.28"/>
<path d="M72.181 47.3954C76.2641 29.6246 65.168 11.9084 47.3971 7.82526C29.6262 3.74213 11.9101 14.8382 7.82693 32.6091C3.7438 50.38 14.8399 68.0962 32.6108 72.1793C50.3817 76.2624 68.0978 65.1663 72.181 47.3954Z" fill="url(#paint1_radial_2_3047)" fill-opacity="0.7"/>
<path d="M41.0693 66.0853C55.4743 66.0853 67.1519 54.4077 67.1519 40.0027C67.1519 25.5977 55.4743 13.9202 41.0693 13.9202C26.6643 13.9202 14.9867 25.5977 14.9867 40.0027C14.9867 54.4077 26.6643 66.0853 41.0693 66.0853Z" fill="url(#paint2_linear_2_3047)" fill-opacity="0.3"/>
<path d="M38.9361 61.955C51.06 61.955 60.8884 52.1267 60.8884 40.0028C60.8884 27.8789 51.06 18.0505 38.9361 18.0505C26.8122 18.0505 16.9839 27.8789 16.9839 40.0028C16.9839 52.1267 26.8122 61.955 38.9361 61.955Z" stroke="#C3CBE2" stroke-opacity="0.2" stroke-width="4" stroke-miterlimit="10"/>
<path d="M41.5917 45.6669C42.9417 45.6669 44.0417 44.6193 44.0417 43.3336C44.0417 42.0479 42.9417 41.0002 41.5917 41.0002C40.2317 41.0002 39.1417 42.0479 39.1417 43.3336C39.1417 44.6193 40.2317 45.6669 41.5917 45.6669ZM46.7917 43.9812L48.2717 45.086C48.4017 45.1907 48.4417 45.3622 48.3517 45.5145L46.9517 47.8193C46.8617 47.9621 46.6917 48.0193 46.5217 47.9621L44.7817 47.2955C44.4217 47.5621 44.0217 47.7812 43.6017 47.9526L43.3317 49.7145C43.3117 49.8764 43.1617 50.0002 42.9917 50.0002H40.1917C40.0117 50.0002 39.8717 49.8764 39.8417 49.7145L39.5817 47.9526C39.1517 47.7812 38.7617 47.5621 38.4017 47.2955L36.6517 47.9621C36.5017 48.0193 36.3117 47.9621 36.2317 47.8193L34.8317 45.5145C34.7417 45.3622 34.7817 45.1907 34.9117 45.086L36.3917 43.9812L36.3417 43.3336L36.3917 42.6764L34.9117 41.5812C34.7817 41.4764 34.7417 41.2955 34.8317 41.1526L36.2317 38.8479C36.3117 38.6955 36.5017 38.6383 36.6517 38.6955L38.4017 39.3717C38.7617 39.105 39.1517 38.8764 39.5817 38.7145L39.8417 36.9431C39.8717 36.7907 40.0117 36.6669 40.1917 36.6669H42.9917C43.1617 36.6669 43.3117 36.7907 43.3317 36.9431L43.6017 38.7145C44.0217 38.8764 44.4217 39.105 44.7817 39.3717L46.5217 38.6955C46.6917 38.6383 46.8617 38.6955 46.9517 38.8479L48.3517 41.1526C48.4417 41.2955 48.4017 41.4764 48.2717 41.5812L46.7917 42.6764L46.8417 43.3336L46.7917 43.9812ZM32.3817 35.7812C33.2517 35.7812 33.9517 35.1145 33.9517 34.286C33.9517 33.4574 33.2517 32.7812 32.3817 32.7812C31.9626 32.7812 31.5608 32.9397 31.2644 33.2219C30.9681 33.5041 30.8017 33.8869 30.8017 34.286C30.8017 35.1145 31.5117 35.7812 32.3817 35.7812ZM35.7217 34.705L36.6917 35.4098C36.7617 35.4764 36.7817 35.5907 36.7217 35.686L35.8217 37.1717C35.7717 37.2669 35.6517 37.305 35.5517 37.2669L34.4317 36.8383L33.6917 37.2574L33.5017 38.3907C33.4817 38.4955 33.3917 38.5717 33.2817 38.5717H31.4817C31.3617 38.5717 31.2717 38.4955 31.2517 38.3907L31.0917 37.2574L30.3317 36.8383L29.1917 37.2669C29.1017 37.305 28.9917 37.2669 28.9317 37.1717L28.0317 35.686C27.9717 35.5907 28.0017 35.4764 28.0817 35.4098L29.0317 34.705L29.0017 34.286L29.0317 33.8669L28.0817 33.1621C28.0017 33.0955 27.9717 32.9812 28.0317 32.886L28.9317 31.4002C28.9917 31.305 29.1017 31.2669 29.1917 31.305L30.3217 31.7336L31.0917 31.3145L31.2517 30.1812C31.2717 30.0764 31.3617 30.0002 31.4817 30.0002H33.2817C33.3917 30.0002 33.4817 30.0764 33.5017 30.1812L33.6917 31.3145L34.4317 31.7336L35.5517 31.305C35.6517 31.2669 35.7717 31.305 35.8217 31.4002L36.7217 32.886C36.7817 32.9812 36.7617 33.0955 36.6917 33.1621L35.7217 33.8669L35.7517 34.286L35.7217 34.705Z" fill="white"/>
</g>
<defs>
<radialGradient id="paint0_radial_2_3047" cx="0" cy="0" r="1" gradientUnits="userSpaceOnUse" gradientTransform="translate(40.0041 40.0035) scale(49.7)">
<stop stop-color="#B3B6C4"/>
<stop offset="0.99" stop-color="#8A95BD" stop-opacity="0"/>
</radialGradient>
<radialGradient id="paint1_radial_2_3047" cx="0" cy="0" r="1" gradientUnits="userSpaceOnUse" gradientTransform="translate(40.0014 40.0027) scale(47.1532)">
<stop stop-color="#B9BBC6"/>
<stop offset="0.99" stop-color="#9DA5C1" stop-opacity="0"/>
</radialGradient>
<linearGradient id="paint2_linear_2_3047" x1="49.2919" y1="40.0027" x2="95.7704" y2="40.0027" gradientUnits="userSpaceOnUse">
<stop offset="0.01" stop-color="#6D7BB0"/>
<stop offset="1" stop-color="#8C97BE"/>
</linearGradient>
<clipPath id="clip0_2_3047">
<rect width="80" height="80" fill="white"/>
</clipPath>
</defs>
</svg>
