<svg width="80" height="80" viewBox="0 0 80 80" fill="none" xmlns="http://www.w3.org/2000/svg">
<g clip-path="url(#clip0_2_3022)">
<path opacity="0.65" d="M79.0011 48.9142C83.922 27.3763 70.4514 5.92717 48.9135 1.00621C27.3756 -3.91476 5.9265 9.55591 1.00553 31.0938C-3.91543 52.6317 9.55524 74.0808 31.0931 79.0017C52.631 83.9227 74.0801 70.452 79.0011 48.9142Z" fill="url(#paint0_radial_2_3022)" fill-opacity="0.28"/>
<path d="M72.181 47.3954C76.2641 29.6246 65.168 11.9084 47.3971 7.82526C29.6263 3.74213 11.9101 14.8382 7.82694 32.6091C3.74381 50.38 14.8399 68.0962 32.6108 72.1793C50.3817 76.2624 68.0978 65.1663 72.181 47.3954Z" fill="url(#paint1_radial_2_3022)" fill-opacity="0.7"/>
<path d="M41.0693 66.0853C55.4744 66.0853 67.1519 54.4077 67.1519 40.0027C67.1519 25.5977 55.4744 13.9202 41.0693 13.9202C26.6643 13.9202 14.9868 25.5977 14.9868 40.0027C14.9868 54.4077 26.6643 66.0853 41.0693 66.0853Z" fill="url(#paint2_linear_2_3022)" fill-opacity="0.3"/>
<path d="M38.9361 61.955C51.06 61.955 60.8884 52.1267 60.8884 40.0028C60.8884 27.8789 51.06 18.0505 38.9361 18.0505C26.8122 18.0505 16.9839 27.8789 16.9839 40.0028C16.9839 52.1267 26.8122 61.955 38.9361 61.955Z" stroke="#C3CBE2" stroke-opacity="0.2" stroke-width="4" stroke-miterlimit="10"/>
<path d="M41.2135 51L39.5988 47.206C41.154 46.6315 42.6102 45.8588 43.9574 44.9574L41.2135 51ZM33.794 41.4012L30 39.7865L36.0426 37.0426C35.1412 38.3898 34.3685 39.846 33.794 41.4012ZM47.2462 32.9812C47.5235 32.9812 47.7712 32.9812 47.9792 33.0307C48.1476 34.4076 47.9594 37.2407 44.7103 40.4898C43.0263 42.1838 41.0154 43.4814 38.7568 44.3432L36.627 42.263C37.5384 39.9747 38.8361 37.9638 40.5102 36.2897C43.2442 33.5557 45.681 32.9812 47.2462 32.9812ZM47.2462 31C45.2848 31 42.313 31.6835 39.1035 34.893C36.9341 37.0624 35.6365 39.4497 34.7945 41.5399C34.5171 42.2828 34.7053 43.0951 35.2501 43.6498L37.3601 45.7499C37.7365 46.1263 38.2417 46.3541 38.7667 46.3541C38.9946 46.3541 39.2323 46.2947 39.4601 46.2055C41.58 45.3933 43.9376 44.0659 46.107 41.8965C51.7137 36.2897 49.6137 31.3863 49.6137 31.3863C49.6137 31.3863 48.7122 31 47.2462 31ZM42.6102 38.3898C41.8375 37.6171 41.8375 36.3591 42.6102 35.5864C43.3829 34.8138 44.6409 34.8138 45.4136 35.5864C46.1763 36.3591 46.1862 37.6171 45.4136 38.3898C44.6409 39.1625 43.3829 39.1625 42.6102 38.3898ZM37.0035 45.3933L35.6067 43.9965L37.0035 45.3933ZM34.3883 50.8118L37.9941 47.206C37.6573 47.1169 37.3304 46.9683 37.0332 46.7603L32.9916 50.8118H34.3883ZM30.1882 50.8118H31.5849L36.3101 46.0966L34.9034 44.6999L30.1882 49.4151V50.8118ZM30.1882 48.0084L34.2397 43.9668C34.0317 43.6696 33.8831 43.3526 33.794 43.0059L30.1882 46.6117V48.0084Z" fill="white"/>
</g>
<defs>
<radialGradient id="paint0_radial_2_3022" cx="0" cy="0" r="1" gradientUnits="userSpaceOnUse" gradientTransform="translate(40.0041 40.0035) scale(49.7)">
<stop stop-color="#B3B6C4"/>
<stop offset="0.99" stop-color="#8A95BD" stop-opacity="0"/>
</radialGradient>
<radialGradient id="paint1_radial_2_3022" cx="0" cy="0" r="1" gradientUnits="userSpaceOnUse" gradientTransform="translate(40.0014 40.0027) scale(47.1532)">
<stop stop-color="#B9BBC6"/>
<stop offset="0.99" stop-color="#9DA5C1" stop-opacity="0"/>
</radialGradient>
<linearGradient id="paint2_linear_2_3022" x1="49.2919" y1="40.0027" x2="95.7704" y2="40.0027" gradientUnits="userSpaceOnUse">
<stop offset="0.01" stop-color="#6D7BB0"/>
<stop offset="1" stop-color="#8C97BE"/>
</linearGradient>
<clipPath id="clip0_2_3022">
<rect width="80" height="80" fill="white"/>
</clipPath>
</defs>
</svg>
