<svg width="145" height="160" viewBox="0 0 145 160" fill="none" xmlns="http://www.w3.org/2000/svg">
<g clip-path="url(#clip0_748_166)">
<g opacity="0.65" filter="url(#filter0_d_748_166)">
<path d="M111.906 79.8182C116.827 58.2804 103.356 36.8312 81.8182 31.9103C60.2803 26.9893 38.8312 40.46 33.9102 61.9978C28.9892 83.5357 42.4599 104.985 63.9978 109.906C85.5357 114.827 106.985 101.356 111.906 79.8182Z" fill="url(#paint0_radial_748_166)" fill-opacity="0.9" shape-rendering="crispEdges"/>
</g>
<path d="M73.9742 96.9894C88.3792 96.9894 100.057 85.3118 100.057 70.9068C100.057 56.5018 88.3792 44.8242 73.9742 44.8242C59.5692 44.8242 47.8916 56.5018 47.8916 70.9068C47.8916 85.3118 59.5692 96.9894 73.9742 96.9894Z" fill="url(#paint1_radial_748_166)"/>
<path d="M71.8409 92.8591C83.9648 92.8591 93.7932 83.0307 93.7932 70.9068C93.7932 58.7829 83.9648 48.9546 71.8409 48.9546C59.717 48.9546 49.8887 58.7829 49.8887 70.9068C49.8887 83.0307 59.717 92.8591 71.8409 92.8591Z" stroke="#13FFE2" stroke-opacity="0.7" stroke-width="4" stroke-miterlimit="10"/>
<path d="M74.1183 81.9041L72.5036 78.1101C74.0588 77.5356 75.515 76.7629 76.8622 75.8615L74.1183 81.9041ZM66.6987 72.3052L62.9048 70.6906L68.9474 67.9466C68.0459 69.2938 67.2733 70.75 66.6987 72.3052ZM80.1509 63.8852C80.4283 63.8852 80.676 63.8852 80.884 63.9348C81.0524 65.3117 80.8642 68.1448 77.615 71.3939C75.931 73.0878 73.9201 74.3855 71.6616 75.2473L69.5318 73.1671C70.4432 70.8788 71.7408 68.8679 73.4149 67.1938C76.149 64.4598 78.5858 63.8852 80.1509 63.8852ZM80.1509 61.9041C78.1896 61.9041 75.2178 62.5876 72.0083 65.7971C69.8389 67.9665 68.5412 70.3538 67.6992 72.4439C67.4219 73.1869 67.6101 73.9991 68.1549 74.5539L70.2649 76.6539C70.6413 77.0304 71.1465 77.2582 71.6715 77.2582C71.8993 77.2582 72.1371 77.1988 72.3649 77.1096C74.4848 76.2973 76.8424 74.9699 79.0118 72.8005C84.6185 67.1938 82.5185 62.2904 82.5185 62.2904C82.5185 62.2904 81.617 61.9041 80.1509 61.9041ZM75.515 69.2938C74.7423 68.5212 74.7423 67.2631 75.515 66.4905C76.2876 65.7178 77.5457 65.7178 78.3184 66.4905C79.0811 67.2631 79.091 68.5212 78.3184 69.2938C77.5457 70.0665 76.2876 70.0665 75.515 69.2938ZM69.9083 76.2973L68.5115 74.9006L69.9083 76.2973ZM67.2931 81.7158L70.8988 78.1101C70.562 78.0209 70.2351 77.8724 69.938 77.6643L65.8964 81.7158H67.2931ZM63.093 81.7158H64.4897L69.2148 77.0006L67.8082 75.6039L63.093 80.3191V81.7158ZM63.093 78.9125L67.1445 74.8709C66.9365 74.5737 66.7879 74.2567 66.6987 73.91L63.093 77.5157V78.9125Z" fill="white"/>
<line x1="72.4" y1="110" x2="72.4" y2="160" stroke="white" stroke-width="0.8" stroke-dasharray="2 5"/>
</g>
<defs>
<filter id="filter0_d_748_166" x="2.89648" y="0.896484" width="148.023" height="148.023" filterUnits="userSpaceOnUse" color-interpolation-filters="sRGB">
<feFlood flood-opacity="0" result="BackgroundImageFix"/>
<feColorMatrix in="SourceAlpha" type="matrix" values="0 0 0 0 0 0 0 0 0 0 0 0 0 0 0 0 0 0 127 0" result="hardAlpha"/>
<feOffset dx="4" dy="4"/>
<feGaussianBlur stdDeviation="17"/>
<feComposite in2="hardAlpha" operator="out"/>
<feColorMatrix type="matrix" values="0 0 0 0 0 0 0 0 0 0.420833 0 0 0 0 0.369121 0 0 0 1 0"/>
<feBlend mode="normal" in2="BackgroundImageFix" result="effect1_dropShadow_748_166"/>
<feBlend mode="normal" in="SourceGraphic" in2="effect1_dropShadow_748_166" result="shape"/>
</filter>
<radialGradient id="paint0_radial_748_166" cx="0" cy="0" r="1" gradientUnits="userSpaceOnUse" gradientTransform="translate(72.9088 70.9076) scale(49.7)">
<stop stop-color="#42E8E0"/>
<stop offset="0.99" stop-color="#42E8E0" stop-opacity="0"/>
</radialGradient>
<radialGradient id="paint1_radial_748_166" cx="0" cy="0" r="1" gradientUnits="userSpaceOnUse" gradientTransform="translate(73.9742 70.9068) rotate(90) scale(26.0826)">
<stop stop-color="#42E8E0" stop-opacity="0"/>
<stop offset="0.755208" stop-color="#42E8E0"/>
<stop offset="1" stop-color="#3CCACE" stop-opacity="0.28"/>
</radialGradient>
<clipPath id="clip0_748_166">
<rect width="145" height="160" fill="white"/>
</clipPath>
</defs>
</svg>
