<?xml version="1.0" encoding="UTF-8"?>
<svg width="16px" height="10px" viewBox="0 0 16 10" version="1.1" xmlns="http://www.w3.org/2000/svg" xmlns:xlink="http://www.w3.org/1999/xlink">
    <!-- Generator: Sketch 59.1 (86144) - https://sketch.com -->
    <title>home_announcement_icon_radio备份</title>
    <desc>Created with Sketch.</desc>
    <g id="首页" stroke="none" stroke-width="1" fill="none" fill-rule="evenodd">
        <g id="home_announcement_icon_radio备份" transform="translate(0.000000, -1.000000)">
            <path d="M14.3133,9.1867 C14.6622,8.0916 14.8505,6.92479 14.8505,5.71402 C14.8505,4.5316 14.6709,3.39112 14.3376,2.31836" id="路径" stroke="#00C0AB" stroke-width="1.14286" stroke-linecap="round"></path>
            <path d="M11.9519,6.8762 C11.9905,6.49421 12.0103,6.10666 12.0103,5.71449 C12.0103,5.33634 11.9919,4.96248 11.956,4.59375" id="路径" stroke="#00C0AB" stroke-width="1.14286" stroke-linecap="round"></path>
            <path d="M4.14282,2.1352 L8.53355,0.9994 C8.84202,0.91961 9.1428,1.1525 9.1428,1.47113 L9.1428,9.9575 C9.1428,10.2761 8.84202,10.509 8.53355,10.4292 L4.14282,9.2934 L4.14282,2.1352 Z" id="路径" fill="#00C0AB" fill-rule="nonzero"></path>
            <path d="M0.625,2.6225 C0.625,2.3534 0.84315,2.13525 1.11225,2.13525 L3.625,2.13525 L3.625,9.2935 L1.11225,9.2935 C0.84315,9.2935 0.625,9.0753 0.625,8.8062 L0.625,2.6225 Z" id="路径" fill="#00C0AB" fill-rule="nonzero"></path>
        </g>
    </g>
</svg>