<svg width="60" height="60" viewBox="0 0 60 60" fill="none" xmlns="http://www.w3.org/2000/svg">
<path fill-rule="evenodd" clip-rule="evenodd" d="M30 60C46.5685 60 60 46.5685 60 30C60 13.4315 46.5685 0 30 0C13.4315 0 0 13.4315 0 30C0 46.5685 13.4315 60 30 60Z" fill="#02EAD0"/>
<path d="M41.7342 19.092C41.7247 19.0734 41.7088 19.0589 41.6895 19.051C39.4557 18.0261 37.0984 17.2953 34.6766 16.8768C34.6546 16.8727 34.6319 16.8757 34.6116 16.8852C34.5914 16.8948 34.5747 16.9105 34.5639 16.9301C34.2429 17.5127 33.9516 18.1111 33.6909 18.7231C31.0803 18.3268 28.4249 18.3268 25.8144 18.7231C25.552 18.1096 25.2559 17.511 24.9275 16.9301C24.9163 16.9109 24.8995 16.8956 24.8794 16.8861C24.8593 16.8766 24.8368 16.8733 24.8148 16.8768C22.3928 17.2944 20.0353 18.0253 17.8018 19.051C17.7827 19.0591 17.7666 19.073 17.7557 19.0906C13.2891 25.7608 12.0656 32.267 12.6658 38.6927C12.6675 38.7084 12.6723 38.7236 12.68 38.7375C12.6877 38.7513 12.6981 38.7635 12.7106 38.7732C15.3115 40.6989 18.2205 42.1688 21.3137 43.1202C21.3354 43.1268 21.3587 43.1265 21.3803 43.1194C21.4019 43.1123 21.4209 43.0988 21.4345 43.0806C22.0989 42.1767 22.6875 41.2195 23.1945 40.2188C23.2015 40.2051 23.2055 40.19 23.2062 40.1746C23.2069 40.1592 23.2044 40.1439 23.1987 40.1295C23.1931 40.1152 23.1845 40.1023 23.1735 40.0915C23.1624 40.0807 23.1493 40.0724 23.1348 40.0671C22.2065 39.712 21.3079 39.2838 20.4472 38.7867C20.4316 38.7775 20.4185 38.7646 20.409 38.7491C20.3995 38.7337 20.394 38.7161 20.393 38.698C20.3919 38.6799 20.3953 38.6618 20.4029 38.6453C20.4104 38.6289 20.422 38.6145 20.4364 38.6035C20.617 38.4682 20.7977 38.3275 20.9701 38.1853C20.9854 38.1727 21.004 38.1646 21.0237 38.162C21.0433 38.1593 21.0633 38.1622 21.0815 38.1703C26.7199 40.7436 32.8242 40.7436 38.3959 38.1703C38.4141 38.1617 38.4343 38.1584 38.4543 38.1608C38.4742 38.1632 38.4931 38.1713 38.5086 38.184C38.6811 38.3261 38.8618 38.4682 39.0437 38.6035C39.0582 38.6144 39.0699 38.6287 39.0776 38.6451C39.0852 38.6615 39.0888 38.6795 39.0878 38.6976C39.0869 38.7157 39.0815 38.7333 39.0722 38.7489C39.0628 38.7644 39.0498 38.7774 39.0342 38.7867C38.1755 39.288 37.2761 39.7159 36.3454 40.0658C36.3309 40.0713 36.3178 40.0798 36.3068 40.0907C36.2959 40.1016 36.2874 40.1147 36.2818 40.1292C36.2763 40.1436 36.2739 40.1591 36.2747 40.1745C36.2756 40.1899 36.2797 40.205 36.2868 40.2188C36.8022 41.2139 37.39 42.1699 38.0454 43.079C38.0587 43.0977 38.0775 43.1117 38.0992 43.119C38.1209 43.1264 38.1444 43.1268 38.1663 43.1201C41.265 42.1719 44.1791 40.7018 46.7832 38.7732C46.7959 38.764 46.8064 38.7521 46.8142 38.7384C46.8219 38.7248 46.8266 38.7096 46.828 38.694C47.5466 31.2653 45.625 24.8124 41.7342 19.092ZM24.0366 34.7801C22.339 34.7801 20.9402 33.2223 20.9402 31.3091C20.9402 29.3959 22.3119 27.8379 24.0366 27.8379C25.7748 27.8379 27.16 29.4094 27.1328 31.309C27.1328 33.2223 25.7612 34.7801 24.0366 34.7801ZM35.4846 34.7801C33.7871 34.7801 32.3883 33.2223 32.3883 31.3091C32.3883 29.3959 33.76 27.8379 35.4846 27.8379C37.2229 27.8379 38.6081 29.4094 38.5809 31.309C38.5809 33.2223 37.2229 34.7801 35.4846 34.7801Z" fill="#12171B"/>
</svg>
