<svg width="60" height="60" viewBox="0 0 60 60" fill="none" xmlns="http://www.w3.org/2000/svg">
<path fill-rule="evenodd" clip-rule="evenodd" d="M30 60C46.5685 60 60 46.5685 60 30C60 13.4315 46.5685 0 30 0C13.4315 0 0 13.4315 0 30C0 46.5685 13.4315 60 30 60Z" fill="#02EAD0"/>
<path d="M42.3697 22.1721L38.0763 42.4197C37.7524 43.8487 36.9077 44.2044 35.7073 43.5312L29.1656 38.7106L26.009 41.7465C25.6597 42.0958 25.3676 42.3879 24.6943 42.3879L25.1643 35.7256L37.2887 24.7698C37.8159 24.2998 37.1744 24.0394 36.4694 24.5094L21.4807 33.9472L15.0279 31.9276C13.6242 31.4893 13.5988 30.5239 15.32 29.8507L40.5596 20.1271C41.7282 19.6888 42.7508 20.3875 42.3697 22.1721V22.1721Z" fill="#12171B"/>
</svg>
