<svg width="60" height="60" viewBox="0 0 60 60" fill="none" xmlns="http://www.w3.org/2000/svg">
<path fill-rule="evenodd" clip-rule="evenodd" d="M30 60C46.5685 60 60 46.5685 60 30C60 13.4315 46.5685 0 30 0C13.4315 0 0 13.4315 0 30C0 46.5685 13.4315 60 30 60Z" fill="#02EAD0"/>
<path d="M45.3264 21.7522C44.2115 22.2197 43.0117 22.5351 41.7528 22.6762C43.0382 21.9502 44.0238 20.8003 44.4886 19.4286C43.2863 20.1017 41.9554 20.5901 40.5376 20.8538C39.4031 19.7132 37.7859 19 35.9963 19C32.5607 19 29.7751 21.6279 29.7751 24.8697C29.7751 25.3291 29.8298 25.7768 29.9363 26.2072C24.7653 25.9621 20.1803 23.6257 17.1115 20.0744C16.5759 20.9409 16.2694 21.9491 16.2694 23.0258C16.2694 25.0619 17.3676 26.8588 19.0371 27.9111C18.0177 27.8803 17.058 27.6161 16.2189 27.1765C16.2183 27.2009 16.2183 27.2258 16.2183 27.2508C16.2183 30.0942 18.363 32.466 21.2096 33.0061C20.6875 33.1397 20.1378 33.2117 19.5702 33.2117C19.1689 33.2117 18.7792 33.1751 18.3994 33.106C19.1916 35.4377 21.4891 37.1353 24.2113 37.1823C22.0819 38.7568 19.3997 39.6953 16.4842 39.6953C15.9825 39.6953 15.4869 39.6674 15 39.6128C17.7542 41.279 21.0243 42.25 24.5375 42.25C35.9822 42.25 42.2398 33.3064 42.2398 25.5498C42.2398 25.2954 42.2342 25.0416 42.2225 24.7896C43.4377 23.9637 44.4929 22.9294 45.3264 21.7522Z" fill="#12171B"/>
</svg>
