<?xml version="1.0" encoding="UTF-8"?>
<svg width="19px" height="15px" viewBox="0 0 19 15" version="1.1" xmlns="http://www.w3.org/2000/svg" xmlns:xlink="http://www.w3.org/1999/xlink">
    <!-- Generator: Sketch 59.1 (86144) - https://sketch.com -->
    <title>twitter (1)</title>
    <desc>Created with Sketch.</desc>
    <g id="组件" stroke="none" stroke-width="1" fill="none" fill-rule="evenodd">
        <g id="twitter-(1)" fill="#5EA4FF" fill-rule="nonzero">
            <path d="M17.06675,4.23104838 C17.06675,9.23272826 13.145625,15 5.9755,15 C3.85679569,15.0020007 1.78231138,14.41159 0,13.2993315 C2.06187659,13.5414085 4.13824957,12.9772505 5.77125,11.7312622 C4.10435701,11.7008366 2.64150014,10.6455362 2.130375,9.10474613 C2.71440923,9.21363529 3.31634455,9.19155106 3.89025,9.04017857 C2.07079505,8.68289168 0.762900161,7.12989481 0.7635625,5.3275439 L0.7635625,5.28142421 C1.30474445,5.57388192 1.91029818,5.73599509 2.529375,5.75415099 C1.44469724,5.05172208 0.793930776,3.86894019 0.795625,2.60302349 C0.795625,1.91007522 0.988,1.25978765 1.322875,0.700586469 C3.30259925,3.06510189 6.22299064,4.50256237 9.3575,4.65534949 C8.95055069,2.98499258 9.75248644,1.25789733 11.3111125,0.447936547 C12.8697386,-0.362024239 14.7946276,-0.0519597948 16.000375,1.20329104 C16.8730737,1.03633558 17.7100125,0.72594982 18.475125,0.285509301 C18.1842289,1.16176129 17.5752367,1.90549032 16.7615625,2.37819002 C17.5340637,2.28923648 18.2885396,2.08870782 19,1.78324608 C18.4767418,2.54332181 17.8180522,3.20668755 17.054875,3.74217972 C17.0631875,3.90359862 17.06675,4.0673235 17.06675,4.23104838 Z" id="路径"></path>
        </g>
    </g>
</svg>