<svg width="25" height="20" viewBox="0 0 25 20" fill="none" xmlns="http://www.w3.org/2000/svg">
<path d="M24.6855 2.90871C23.8051 3.27789 22.8577 3.52691 21.8635 3.63836C22.8786 3.06509 23.6569 2.15704 24.0239 1.07381C23.0745 1.60534 22.0235 1.99103 20.9039 2.19924C20.008 1.29852 18.7309 0.735352 17.3178 0.735352C14.6047 0.735352 12.405 2.81056 12.405 5.37053C12.405 5.73329 12.4482 6.08688 12.5323 6.42671C8.44886 6.23317 4.82819 4.38818 2.40484 1.58378C1.98191 2.26803 1.73982 3.06417 1.73982 3.91444C1.73982 5.52233 2.60707 6.94127 3.92545 7.77227C3.12042 7.74796 2.36255 7.5393 1.69996 7.19213C1.69947 7.21139 1.69947 7.23111 1.69947 7.25083C1.69947 9.49619 3.39314 11.3692 5.64099 11.7957C5.22876 11.9011 4.79464 11.958 4.34644 11.958C4.02948 11.958 3.72176 11.9291 3.42182 11.8745C4.04747 13.7159 5.86169 15.0564 8.01135 15.0935C6.32983 16.3368 4.21178 17.0779 1.90948 17.0779C1.51329 17.0779 1.12195 17.0559 0.737427 17.0128C2.91236 18.3286 5.49467 19.0954 8.269 19.0954C17.3066 19.0954 22.2481 12.0328 22.2481 5.90756C22.2481 5.70669 22.2437 5.50628 22.2345 5.30724C23.1941 4.65509 24.0273 3.83831 24.6855 2.90871Z" fill="#C2C4C6"/>
</svg>
