<svg width="200" height="22" viewBox="0 0 200 22" fill="none" xmlns="http://www.w3.org/2000/svg">
<path d="M188.468 9.14355H185.188V19.0123H188.468V9.14355Z" fill="#303C3F"/>
<path d="M177.673 8.8374C174.864 8.8374 172.586 11.1152 172.586 13.924C172.586 16.7327 174.864 19.0105 177.673 19.0105C178.31 19.0105 178.917 18.8888 179.479 18.6737V19.0105H182.759V13.9506H182.757C182.757 13.9411 182.759 13.9316 182.759 13.9221C182.759 11.1152 180.481 8.8374 177.673 8.8374ZM177.673 15.7299C176.675 15.7299 175.867 14.9211 175.867 13.924C175.867 12.9268 176.675 12.1181 177.673 12.1181C178.67 12.1181 179.479 12.9268 179.479 13.924C179.479 14.9211 178.67 15.7299 177.673 15.7299Z" fill="#303C3F"/>
<path d="M153.305 16.0475C150.822 16.0475 148.809 14.0342 148.809 11.5508C148.809 9.06748 150.822 7.05417 153.305 7.05417C154.889 7.05417 156.278 7.87434 157.079 9.11126L159.901 7.44998C158.529 5.24637 156.091 3.77539 153.304 3.77539C149.009 3.77539 145.528 7.25588 145.528 11.5508C145.528 15.8458 149.009 19.3263 153.304 19.3263C156.105 19.3263 158.554 17.8401 159.922 15.6155L157.1 13.9543C156.303 15.2121 154.904 16.0475 153.305 16.0475Z" fill="#303C3F"/>
<path d="M166.496 8.39212C165.95 8.39212 165.429 8.48727 164.94 8.65473V5.18945H161.659V19.0087H164.94V17.7737V13.2218H164.947C164.947 12.5615 165.366 11.9487 166.028 11.7432C166.845 11.4901 167.712 11.9449 167.967 12.7613C168.015 12.9154 168.03 13.0696 168.03 13.2218H168.038V17.7794V19.0087H171.319V13.2142V13.0867H171.313C171.242 10.4816 169.115 8.39212 166.496 8.39212Z" fill="#303C3F"/>
<path d="M195.17 8.83887C192.502 8.83887 190.341 11.0006 190.341 13.6685V19.0063H193.621V18.2394V13.6685C193.621 12.8141 194.314 12.1195 195.17 12.1195C196.027 12.1195 196.719 12.8122 196.719 13.6685V18.2394V19.0063H200V13.6685C200 11.0025 197.838 8.83887 195.17 8.83887Z" fill="#303C3F"/>
<path d="M51.2427 9.67072H46.1276V3.81152H42.5024V19.1569H46.1276V13.2978H51.2427V19.1569H54.8678V3.81152H51.2427V9.67072Z" fill="#303C3F"/>
<path d="M61.9373 7.21387C58.6395 7.21387 55.9658 9.88752 55.9658 13.1854C55.9658 16.4832 58.6395 19.1568 61.9373 19.1568C65.2351 19.1568 67.9088 16.4832 67.9088 13.1854C67.9088 9.88752 65.2351 7.21387 61.9373 7.21387ZM61.9373 15.819C60.4815 15.819 59.3017 14.6392 59.3017 13.1834C59.3017 11.7277 60.4815 10.5478 61.9373 10.5478C63.3931 10.5478 64.5729 11.7277 64.5729 13.1834C64.571 14.6411 63.3912 15.819 61.9373 15.819Z" fill="#303C3F"/>
<path d="M74.8772 7.21387C71.5794 7.21387 68.9058 9.88752 68.9058 13.1854C68.9058 16.4832 71.5794 19.1568 74.8772 19.1568C78.175 19.1568 80.8487 16.4832 80.8487 13.1854C80.8506 9.88752 78.1769 7.21387 74.8772 7.21387ZM74.8772 15.819C73.4215 15.819 72.2416 14.6392 72.2416 13.1834C72.2416 11.7277 73.4215 10.5478 74.8772 10.5478C76.333 10.5478 77.5128 11.7277 77.5128 13.1834C77.5128 14.6411 76.333 15.819 74.8772 15.819Z" fill="#303C3F"/>
<path d="M107.416 14.4565C107.416 15.8037 107.402 17.1529 107.425 18.5002C107.431 18.8523 107.324 18.9246 106.991 18.9189C105.867 18.8979 104.74 18.8998 103.615 18.917C103.315 18.9208 103.239 18.837 103.241 18.5402C103.252 15.9655 103.248 13.3908 103.246 10.818C103.246 9.46313 102.247 8.39557 100.957 8.36893C99.6688 8.34229 98.6088 9.37559 98.5974 10.7381C98.5765 13.3128 98.5822 15.8875 98.5993 18.4603C98.6012 18.8389 98.5023 18.9417 98.1236 18.9341C97.0141 18.9093 95.9028 18.9112 94.7934 18.9341C94.4661 18.9398 94.3957 18.8427 94.3976 18.5307C94.4109 15.9408 94.4052 13.3527 94.4052 10.7628C94.4052 9.46122 93.3567 8.38606 92.0931 8.38606C90.8258 8.38606 89.7696 9.45551 89.7677 10.7609C89.762 13.3356 89.7582 15.9103 89.7734 18.4831C89.7753 18.8313 89.6973 18.9436 89.33 18.9341C88.2054 18.9074 87.0789 18.9246 85.9542 18.9246C85.7734 18.9246 85.5907 18.9664 85.5926 18.6696C85.6079 15.9141 85.4842 13.151 85.6573 10.4051C85.8762 6.91698 88.841 4.42413 92.3557 4.5383C93.7829 4.58397 95.0579 5.06541 96.1654 5.9617C96.4033 6.1539 96.5346 6.18815 96.7991 5.97312C100.729 2.79901 106.576 5.03116 107.341 10.0074C107.551 11.3699 107.393 12.759 107.421 14.1368C107.418 14.2452 107.416 14.3499 107.416 14.4565Z" fill="#303C3F"/>
<path d="M122.232 10.9343C122.232 9.67839 122.242 8.42055 122.224 7.16461C122.221 6.87916 122.304 6.81066 122.582 6.81637C123.433 6.8354 124.285 6.84111 125.138 6.81447C125.48 6.80495 125.539 6.93054 125.526 7.2293C125.503 7.75832 125.558 8.29305 125.509 8.81826C125.461 9.31683 125.654 9.41388 126.108 9.39295C126.898 9.35679 127.69 9.39485 128.481 9.37582C128.757 9.37011 128.849 9.44433 128.843 9.72786C128.826 10.6051 128.828 11.4843 128.843 12.3615C128.847 12.626 128.755 12.6945 128.504 12.6907C127.623 12.6774 126.74 12.6945 125.857 12.6812C125.608 12.6774 125.501 12.7345 125.517 13.0047C125.538 13.4424 125.509 13.8839 125.53 14.3216C125.572 15.2255 126.225 15.9257 127.128 16.0114C127.581 16.0551 128.04 16.0456 128.495 16.0399C128.733 16.0361 128.851 16.0799 128.845 16.3596C128.828 17.2521 128.839 18.1465 128.839 19.0389C128.839 19.176 128.856 19.3225 128.645 19.3187C127.6 19.3073 126.55 19.391 125.536 19.0123C123.577 18.2835 122.242 16.4129 122.238 14.3387C122.23 13.2064 122.232 12.0704 122.232 10.9343Z" fill="#303C3F"/>
<path fill-rule="evenodd" clip-rule="evenodd" d="M116.626 15.707C115.21 16.8145 113.222 16.3578 112.384 14.6851H112.929C113.548 14.6851 114.167 14.6842 114.786 14.6833C116.555 14.6808 118.324 14.6782 120.093 14.6966C120.514 14.7004 120.645 14.5557 120.672 14.1809C120.719 13.5129 120.708 12.8526 120.546 12.198C119.758 9.02772 116.649 7.14191 113.486 7.92021C110.403 8.67758 108.5 11.8174 109.305 14.9382C109.853 17.0676 111.254 18.4853 113.382 19.0657C115.509 19.6461 117.402 19.0999 119.014 17.5966C119.195 17.4292 119.265 17.3112 119.003 17.1209C118.39 16.6737 117.796 16.1999 117.216 15.7127C116.991 15.5243 116.868 15.5186 116.626 15.707ZM116.2 12.6382C116.648 12.6387 117.097 12.6392 117.549 12.6392C117.176 11.5298 116.194 10.7858 115.087 10.7287C113.928 10.6678 112.847 11.2939 112.386 12.291C112.378 12.3095 112.369 12.3278 112.361 12.3458C112.283 12.5081 112.217 12.6467 112.556 12.645C113.765 12.6352 114.976 12.6367 116.2 12.6382Z" fill="#303C3F"/>
<path d="M135.532 9.15332C132.723 9.15332 130.445 11.4312 130.445 14.2399C130.445 17.0487 132.723 19.3265 135.532 19.3265C136.169 19.3265 136.776 19.2047 137.338 18.9897V19.3265H140.618V14.2666H140.617C140.617 14.257 140.618 14.2475 140.618 14.238C140.618 11.4293 138.341 9.15332 135.532 9.15332ZM135.532 16.0439C134.535 16.0439 133.726 15.2352 133.726 14.238C133.726 13.2409 134.535 12.4321 135.532 12.4321C136.529 12.4321 137.338 13.2409 137.338 14.238C137.338 15.2352 136.529 16.0439 135.532 16.0439Z" fill="#303C3F"/>
<circle cx="187" cy="5" r="2" fill="#303C3F"/>
<path d="M26.4072 0C22.352 0 18.8202 2.23406 16.9705 5.53568C16.9381 5.60799 16.8925 5.68982 16.8335 5.78687C16.6984 6.04377 16.5709 6.30637 16.4567 6.57659C16.2207 7.20837 16.0361 7.99619 15.8953 8.75547C15.7526 9.52426 15.6556 10.2645 15.5947 10.7897C15.5947 10.7973 15.5947 10.803 15.5947 10.8107H15.5928C15.5928 10.8107 15.5928 10.8107 15.5928 10.8126C15.5909 10.8354 15.587 10.8563 15.5851 10.8792C15.549 13.4843 13.4291 15.5851 10.8164 15.5851C8.18077 15.5851 6.04567 13.45 6.04567 10.8145C6.04567 8.17887 8.18268 6.04377 10.8164 6.04377C12.1751 6.04377 13.4006 6.61275 14.2683 7.52426C14.7612 5.69743 15.6746 3.95242 17.02 2.44339C17.1075 2.34443 17.2008 2.25119 17.2902 2.15414C15.4843 0.803046 13.2445 0.00190481 10.8145 0.00190481C4.843 0.00190481 0 4.843 0 10.8164C0 16.7897 4.8411 21.6251 10.8145 21.6308C16.0571 21.6346 20.4129 17.9372 21.4158 12.942C21.4862 12.5918 21.5414 12.236 21.5756 11.8725C21.5756 11.8725 21.5756 11.8611 21.5775 11.8401C21.5928 11.6708 21.6061 11.4995 21.6137 11.3263C21.627 11.176 21.6441 11.0028 21.667 10.8164C21.7374 10.2379 21.8592 9.53377 22.0647 9.00285C22.1427 8.83349 22.2264 8.66793 22.3216 8.50808C22.3425 8.47954 22.3577 8.4529 22.3711 8.42626C23.2274 7.0333 24.7193 6.04567 26.4053 6.04567C29.0409 6.04567 31.176 8.18268 31.176 10.8164C31.176 13.45 29.039 15.5871 26.4053 15.5871C25.0466 15.5871 23.823 15.0181 22.9534 14.1085C22.3996 16.1522 21.3454 17.9867 19.9296 19.4786C21.7355 20.8297 23.9753 21.6308 26.4053 21.6308C32.3768 21.6308 37.2198 16.7897 37.2198 10.8164C37.2198 4.843 32.3787 0 26.4072 0Z" fill="url(#paint0_linear_385_693)"/>
<defs>
<linearGradient id="paint0_linear_385_693" x1="0" y1="10.8142" x2="37.2207" y2="10.8142" gradientUnits="userSpaceOnUse">
<stop stop-color="#00C19C"/>
<stop offset="1" stop-color="#00DCB1"/>
</linearGradient>
</defs>
</svg>
