<?xml version="1.0" encoding="UTF-8"?>
<svg width="167px" height="18px" viewBox="0 0 167 18" version="1.1" xmlns="http://www.w3.org/2000/svg" xmlns:xlink="http://www.w3.org/1999/xlink">
    <!-- Generator: Sketch 59.1 (86144) - https://sketch.com -->
    <title>编组备份</title>
    <desc>Created with Sketch.</desc>
    <defs>
        <polygon id="path-1" points="0 18 166.355532 18 166.355532 0.22575 0 0.22575"></polygon>
        <path d="M21.1726829,0.22575 C17.9217073,0.22575 15.0892683,2.06175 13.6053659,4.77525 L13.6053659,4.77525 C13.5797561,4.8345 13.5431707,4.90275 13.4963415,4.98225 L13.4963415,4.98225 C13.3873171,5.19375 13.2856098,5.40975 13.1934146,5.631 L13.1934146,5.631 C13.0046341,6.15 12.857561,6.79725 12.7441463,7.422 L12.7441463,7.422 C12.63,8.0535 12.5509756,8.66175 12.5026829,9.09375 L12.5026829,9.09375 C12.5026829,9.09975 12.5026829,9.10575 12.5026829,9.11175 L12.5026829,9.11175 C12.5019512,9.11175 12.5012195,9.11175 12.5004878,9.11175 L12.5004878,9.11175 L12.5004878,9.11325 C12.4982927,9.13125 12.4960976,9.14925 12.4946341,9.16725 L12.4946341,9.16725 C12.4660976,11.307 10.764878,13.03425 8.67,13.03425 L8.67,13.03425 C6.55756098,13.03425 4.84463415,11.27925 4.84463415,9.11325 L4.84463415,9.11325 C4.84463415,6.94725 6.55756098,5.19225 8.67,5.19225 L8.67,5.19225 C9.7595122,5.19225 10.7414634,5.65875 11.4380488,6.40725 L11.4380488,6.40725 C11.8331707,4.90575 12.5656098,3.4725 13.6441463,2.232 L13.6441463,2.232 C13.715122,2.15025 13.7890244,2.073 13.8614634,1.995 L13.8614634,1.995 C12.4141463,0.88425 10.6178049,0.22575 8.67,0.22575 L8.67,0.22575 C3.88170732,0.22575 0,4.20525 0,9.11325 L0,9.11325 C0,14.02125 3.88170732,17.99625 8.67,18 L8.67,18 L8.67804878,18 C12.8780488,18 16.3668293,14.96175 17.1702439,10.85925 L17.1702439,10.85925 C17.2258537,10.57125 17.2704878,10.27875 17.2982927,9.981 L17.2982927,9.981 L17.2997561,9.981 C17.2997561,9.981 17.2997561,9.97125 17.3004878,9.954 L17.3004878,9.954 C17.3136585,9.81525 17.3231707,9.6735 17.3297561,9.5325 L17.3297561,9.5325 C17.3407317,9.4095 17.3553659,9.26625 17.3736585,9.11325 L17.3736585,9.11325 C17.43,8.637 17.5273171,8.0595 17.6912195,7.62225 L17.6912195,7.62225 C17.7534146,7.4835 17.8221951,7.347 17.897561,7.21575 L17.897561,7.21575 C17.9136585,7.19325 17.9268293,7.17 17.9378049,7.149 L17.9378049,7.149 C18.624878,6.00375 19.8212195,5.19225 21.1726829,5.19225 L21.1726829,5.19225 C23.285122,5.19225 24.9980488,6.94725 24.9980488,9.11325 L24.9980488,9.11325 C24.9980488,11.27925 23.285122,13.03425 21.1726829,13.03425 L21.1726829,13.03425 C20.0831707,13.03425 19.1012195,12.567 18.4046341,11.81925 L18.4046341,11.81925 C17.9619512,13.49775 17.1160976,15.006 15.9804878,16.2315 L15.9804878,16.2315 C17.4278049,17.3415 19.2256098,18 21.1726829,18 L21.1726829,18 C25.9609756,18 29.8419512,14.02125 29.8419512,9.11325 L29.8419512,9.11325 C29.8419512,4.20525 25.9609756,0.22575 21.1726829,0.22575 Z" id="path-3"></path>
        <linearGradient x1="0%" y1="50.0006895%" x2="100.001937%" y2="50.0006895%" id="linearGradient-5">
            <stop stop-color="#00BFAA" offset="0%"></stop>
            <stop stop-color="#00DBB1" offset="100%"></stop>
        </linearGradient>
    </defs>
    <g id="组件" stroke="none" stroke-width="1" fill="none" fill-rule="evenodd">
        <g id="编组备份">
            <g id="编组">
                <path d="M76.7282259,8.44065 C75.0453214,7.95015 74.6020123,7.65315 74.6020123,7.11015 C74.6020123,6.67215 74.9739668,6.30465 75.7535532,6.30465 C76.6576305,6.30465 77.2952668,6.7599 77.6846805,7.6704 L80.3430168,6.12915 C79.4746168,4.29165 77.7909532,3.32865 75.735335,3.32865 C73.3259805,3.32865 71.4305305,4.8339 71.4305305,7.1274 C71.4305305,9.4209 73.1665714,10.4019 75.1159168,10.9614 C76.6925486,11.3994 77.5078123,11.6094 77.5078123,12.3099 C77.5078123,12.7299 77.1707759,13.13265 76.0549123,13.13265 C74.8145577,13.13265 74.0524305,12.5544 73.6098805,11.5044 L70.8984077,13.0629 C71.5542623,14.8659 73.2728441,16.10865 75.9660986,16.10865 C78.766385,16.10865 80.6800532,14.7084 80.6800532,12.27465 C80.6800532,9.7014 78.6418941,9.0009 76.7282259,8.44065" id="Fill-1" fill="#FFFFFF"></path>
                <path d="M90.4327014,7.49505 C89.4975014,7.49505 88.6420059,7.82955 87.9785605,8.3823 C87.3173923,7.8378 86.4672105,7.5093 85.5396014,7.5093 C83.4346423,7.5093 81.7282059,9.1953 81.7282059,11.27505 L81.7282059,15.8463 L84.4578968,15.8463 L84.4578968,14.88405 L84.4578968,11.11305 L84.4624514,11.11305 C84.4624514,10.6488 84.7660877,10.2198 85.2405195,10.08555 C85.8151514,9.92205 86.4148332,10.2498 86.5795559,10.81755 C86.6084014,10.91655 86.6175105,11.0148 86.6175105,11.11305 L86.6213059,11.11305 L86.6213059,11.2473 C86.6213059,11.2518 86.6213059,11.2563 86.6213059,11.2608 L86.6213059,15.83205 L86.6213059,15.83205 L86.6213059,15.8463 L89.3509968,15.8463 L89.3509968,11.27505 C89.3509968,11.2698 89.3502377,11.2653 89.3502377,11.2608 L89.3502377,11.0988 L89.3547923,11.0988 C89.3547923,10.63455 89.6584286,10.2063 90.1336195,10.0713 C90.7074923,9.90855 91.3071741,10.2363 91.4726559,10.80405 C91.5007423,10.9023 91.5098514,11.0013 91.5098514,11.0988 L91.5144059,11.0988 L91.5144059,14.8698 L91.5144059,15.83205 L94.2440968,15.83205 L94.2440968,11.2608 C94.2440968,9.18105 92.5369014,7.49505 90.4327014,7.49505" id="Fill-3" fill="#FFFFFF"></path>
                <mask id="mask-2" fill="white">
                    <use xlink:href="#path-1"></use>
                </mask>
                <g id="Clip-6"></g>
                <polygon id="Fill-5" fill="#FFFFFF" mask="url(#mask-2)" points="154.035486 15.8505 156.763659 15.8505 156.763659 7.74075 154.035486 7.74075"></polygon>
                <path d="M99.5424755,13.153725 C98.7127891,13.153725 98.0402345,12.489225 98.0402345,11.669475 C98.0402345,10.850475 98.7127891,10.185225 99.5424755,10.185225 C100.372921,10.185225 101.044716,10.850475 101.044716,11.669475 C101.044716,12.489225 100.372921,13.153725 99.5424755,13.153725 M99.5424755,7.490475 C97.2067527,7.490475 95.3120618,9.361725 95.3120618,11.670225 C95.3120618,13.978725 97.2067527,15.849975 99.5424755,15.849975 C100.072321,15.849975 100.577116,15.749475 101.044716,15.573975 L101.044716,15.851475 L103.773648,15.851475 L103.773648,11.693475 L103.77213,11.693475 C103.77213,11.685225 103.773648,11.677725 103.773648,11.670225 C103.773648,9.361725 101.878957,7.490475 99.5424755,7.490475" id="Fill-7" fill="#FFFFFF" mask="url(#mask-2)"></path>
                <path d="M147.784069,13.152675 C146.954383,13.152675 146.281828,12.488175 146.281828,11.668425 C146.281828,10.849425 146.954383,10.184175 147.784069,10.184175 C148.613755,10.184175 149.28631,10.849425 149.28631,11.668425 C149.28631,12.488175 148.613755,13.152675 147.784069,13.152675 M147.784069,7.488675 C145.447587,7.488675 143.553655,9.360675 143.553655,11.668425 C143.553655,13.977675 145.447587,15.848925 147.784069,15.848925 C148.313155,15.848925 148.817951,15.748425 149.28631,15.572925 L149.28631,15.850425 L152.014483,15.850425 L152.014483,11.692425 L152.012965,11.692425 C152.012965,11.684175 152.014483,11.676675 152.014483,11.668425 C152.014483,9.360675 150.120551,7.488675 147.784069,7.488675" id="Fill-8" fill="#FFFFFF" mask="url(#mask-2)"></path>
                <path d="M105.102209,11.670225 C105.102209,11.677725 105.103727,11.685975 105.103727,11.693475 L105.102209,11.693475 L105.102209,15.851475 L107.831141,15.851475 L107.831141,11.693475 L107.834177,11.693475 C107.833418,11.685225 107.831141,11.677725 107.831141,11.670225 C107.831141,10.850475 108.502936,10.185975 109.333382,10.185975 L110.601064,10.185975 L110.601064,7.489725 L109.333382,7.489725 C106.9969,7.489725 105.102209,9.361725 105.102209,11.670225" id="Fill-9" fill="#FFFFFF" mask="url(#mask-2)"></path>
                <path d="M114.628648,5.544975 L111.899716,5.544975 L111.899716,11.647725 L111.901235,11.647725 C111.900475,11.655225 111.899716,11.663475 111.899716,11.670975 C111.899716,13.979475 113.793648,15.851475 116.130889,15.851475 L117.398571,15.851475 L117.398571,13.155225 L116.130889,13.155225 C115.301203,13.155225 114.628648,12.491475 114.628648,11.671725 C114.628648,11.663475 114.630925,11.655975 114.630925,11.647725 L114.628648,11.647725 L114.628648,10.368225 L117.398571,10.368225 L117.398571,7.671975 L114.628648,7.671975 L114.628648,5.544975 Z" id="Fill-10" fill="#FFFFFF" mask="url(#mask-2)"></path>
                <path d="M127.515431,13.414125 C125.449185,13.414125 123.774631,11.759625 123.774631,9.718875 C123.774631,7.678125 125.449185,6.023625 127.515431,6.023625 C128.832454,6.023625 129.988549,6.697125 130.655031,7.714125 L133.002899,6.348375 C131.861226,4.537875 129.833695,3.328875 127.515431,3.328875 C123.943908,3.328875 121.047976,6.189375 121.047976,9.718875 C121.047976,13.247625 123.943908,16.108875 127.515431,16.108875 C129.84584,16.108875 131.882481,14.886375 133.020358,13.059375 L130.67249,11.694375 C130.009045,12.726375 128.844599,13.414125 127.515431,13.414125" id="Fill-11" fill="#FFFFFF" mask="url(#mask-2)"></path>
                <path d="M138.488166,7.121925 C138.03347,7.121925 137.59927,7.199925 137.192398,7.337175 L137.192398,4.489425 L134.464225,4.489425 L134.464225,15.845925 L137.192398,15.845925 L137.192398,14.831175 L137.192398,11.090175 L137.19847,11.090175 C137.19847,10.547925 137.546134,10.044675 138.097993,9.875175 C138.77738,9.666675 139.499275,10.040925 139.710302,10.712175 C139.750534,10.838175 139.763439,10.964925 139.763439,11.090175 L139.769511,11.090175 L139.769511,14.835675 L139.769511,15.845925 L142.497684,15.845925 L142.497684,11.084925 L142.497684,11.084175 L142.497684,11.083425 L142.497684,10.979175 L142.49237,10.979175 C142.435439,8.840175 140.666757,7.121925 138.488166,7.121925" id="Fill-12" fill="#FFFFFF" mask="url(#mask-2)"></path>
                <path d="M155.399421,3.965925 C154.529503,3.965925 153.825066,4.662675 153.825066,5.521425 C153.825066,6.380925 154.529503,7.076925 155.399421,7.076925 C156.269339,7.076925 156.973775,6.380925 156.973775,5.521425 C156.973775,4.662675 156.269339,3.965925 155.399421,3.965925" id="Fill-13" fill="#FFFFFF" mask="url(#mask-2)"></path>
                <path d="M162.337967,7.490325 C160.119904,7.490325 158.320858,9.267825 158.320858,11.459325 L158.320858,15.846075 L161.050549,15.846075 L161.050549,15.216075 L161.050549,11.459325 C161.050549,10.756575 161.626699,10.187325 162.337967,10.187325 C163.049235,10.187325 163.626145,10.756575 163.626145,11.459325 L163.626145,15.216075 L163.626145,15.846075 L166.355076,15.846075 L166.355076,11.459325 C166.355076,9.267825 164.55679,7.490325 162.337967,7.490325" id="Fill-14" fill="#FFFFFF" mask="url(#mask-2)"></path>
                <polygon id="Fill-15" fill="#FFFFFF" mask="url(#mask-2)" points="42.6228786 8.174025 38.3681741 8.174025 38.3681741 3.358275 35.3523059 3.358275 35.3523059 15.969525 38.3681741 15.969525 38.3681741 11.153025 42.6228786 11.153025 42.6228786 15.969525 45.6379877 15.969525 45.6379877 3.358275 42.6228786 3.358275"></polygon>
                <path d="M51.5173745,13.227 C50.3066245,13.227 49.3258791,12.25725 49.3258791,11.06175 C49.3258791,9.8655 50.3066245,8.8965 51.5173745,8.8965 C52.7281245,8.8965 53.70887,9.8655 53.70887,11.06175 C53.70887,12.25725 52.7281245,13.227 51.5173745,13.227 M51.5173745,6.15375 C48.77402,6.15375 46.5498836,8.35125 46.5498836,11.06175 C46.5498836,13.77225 48.77402,15.969 51.5173745,15.969 C54.2607291,15.969 56.4841064,13.77225 56.4841064,11.06175 C56.4841064,8.35125 54.2607291,6.15375 51.5173745,6.15375" id="Fill-16" fill="#FFFFFF" mask="url(#mask-2)"></path>
                <path d="M62.281815,13.227 C61.071065,13.227 60.0903195,12.25725 60.0903195,11.06175 C60.0903195,9.8655 61.071065,8.8965 62.281815,8.8965 C63.4918059,8.8965 64.4733105,9.8655 64.4733105,11.06175 C64.4733105,12.25725 63.4918059,13.227 62.281815,13.227 M62.281815,6.15375 C59.5384605,6.15375 57.3143241,8.35125 57.3143241,11.06175 C57.3143241,13.77225 59.5384605,15.969 62.281815,15.969 C65.0251695,15.969 67.2485468,13.77225 67.2485468,11.06175 C67.2485468,8.35125 65.0251695,6.15375 62.281815,6.15375" id="Fill-17" fill="#FFFFFF" mask="url(#mask-2)"></path>
            </g>
            <g id="编组">
                <mask id="mask-4" fill="white">
                    <use xlink:href="#path-3"></use>
                </mask>
                <g id="Clip-19"></g>
                <path d="M21.1726829,0.22575 C17.9217073,0.22575 15.0892683,2.06175 13.6053659,4.77525 L13.6053659,4.77525 C13.5797561,4.8345 13.5431707,4.90275 13.4963415,4.98225 L13.4963415,4.98225 C13.3873171,5.19375 13.2856098,5.40975 13.1934146,5.631 L13.1934146,5.631 C13.0046341,6.15 12.857561,6.79725 12.7441463,7.422 L12.7441463,7.422 C12.63,8.0535 12.5509756,8.66175 12.5026829,9.09375 L12.5026829,9.09375 C12.5026829,9.09975 12.5026829,9.10575 12.5026829,9.11175 L12.5026829,9.11175 C12.5019512,9.11175 12.5012195,9.11175 12.5004878,9.11175 L12.5004878,9.11175 L12.5004878,9.11325 C12.4982927,9.13125 12.4960976,9.14925 12.4946341,9.16725 L12.4946341,9.16725 C12.4660976,11.307 10.764878,13.03425 8.67,13.03425 L8.67,13.03425 C6.55756098,13.03425 4.84463415,11.27925 4.84463415,9.11325 L4.84463415,9.11325 C4.84463415,6.94725 6.55756098,5.19225 8.67,5.19225 L8.67,5.19225 C9.7595122,5.19225 10.7414634,5.65875 11.4380488,6.40725 L11.4380488,6.40725 C11.8331707,4.90575 12.5656098,3.4725 13.6441463,2.232 L13.6441463,2.232 C13.715122,2.15025 13.7890244,2.073 13.8614634,1.995 L13.8614634,1.995 C12.4141463,0.88425 10.6178049,0.22575 8.67,0.22575 L8.67,0.22575 C3.88170732,0.22575 0,4.20525 0,9.11325 L0,9.11325 C0,14.02125 3.88170732,17.99625 8.67,18 L8.67,18 L8.67804878,18 C12.8780488,18 16.3668293,14.96175 17.1702439,10.85925 L17.1702439,10.85925 C17.2258537,10.57125 17.2704878,10.27875 17.2982927,9.981 L17.2982927,9.981 L17.2997561,9.981 C17.2997561,9.981 17.2997561,9.97125 17.3004878,9.954 L17.3004878,9.954 C17.3136585,9.81525 17.3231707,9.6735 17.3297561,9.5325 L17.3297561,9.5325 C17.3407317,9.4095 17.3553659,9.26625 17.3736585,9.11325 L17.3736585,9.11325 C17.43,8.637 17.5273171,8.0595 17.6912195,7.62225 L17.6912195,7.62225 C17.7534146,7.4835 17.8221951,7.347 17.897561,7.21575 L17.897561,7.21575 C17.9136585,7.19325 17.9268293,7.17 17.9378049,7.149 L17.9378049,7.149 C18.624878,6.00375 19.8212195,5.19225 21.1726829,5.19225 L21.1726829,5.19225 C23.285122,5.19225 24.9980488,6.94725 24.9980488,9.11325 L24.9980488,9.11325 C24.9980488,11.27925 23.285122,13.03425 21.1726829,13.03425 L21.1726829,13.03425 C20.0831707,13.03425 19.1012195,12.567 18.4046341,11.81925 L18.4046341,11.81925 C17.9619512,13.49775 17.1160976,15.006 15.9804878,16.2315 L15.9804878,16.2315 C17.4278049,17.3415 19.2256098,18 21.1726829,18 L21.1726829,18 C25.9609756,18 29.8419512,14.02125 29.8419512,9.11325 L29.8419512,9.11325 C29.8419512,4.20525 25.9609756,0.22575 21.1726829,0.22575 Z" id="Fill-18" fill="url(#linearGradient-5)" mask="url(#mask-4)"></path>
            </g>
        </g>
    </g>
</svg>