<?xml version="1.0" encoding="UTF-8"?>
<svg width="26px" height="21px" viewBox="0 0 26 21" version="1.1" xmlns="http://www.w3.org/2000/svg" xmlns:xlink="http://www.w3.org/1999/xlink">
    <!-- Generator: Sketch 59.1 (86144) - https://sketch.com -->
    <title>路径备份 2@2x</title>
    <desc>Created with Sketch.</desc>
    <g id="首页" stroke="none" stroke-width="1" fill="none" fill-rule="evenodd">
        <g id="下一步备份" transform="translate(-212.000000, 0.000000)" fill="#14C390" fill-rule="nonzero">
            <path d="M233.179656,11.5554878 L225.171726,18.8302204 C224.934079,19.0404394 224.799282,19.3372696 224.800348,19.6480168 C224.801413,19.958764 224.938243,20.2547305 225.177326,20.4634337 C225.678922,20.9141081 226.489315,20.9117969 226.98771,20.4588114 L236.909224,11.4460933 C237.340662,11.2513889 237.611609,10.8293223 237.599618,10.3706378 C237.606704,10.0513614 237.471257,9.74449017 237.227621,9.52783812 L227.113309,0.341013401 C226.602503,-0.111594277 225.81743,-0.113933855 225.303725,0.335620699 C225.064377,0.544338755 224.927374,0.840475714 224.926308,1.15142194 C224.925243,1.46236816 225.060213,1.7593695 225.298125,1.96960437 L233.306055,9.24433695 L213.19983,9.24433695 C212.537157,9.24442156 212,9.76176552 212,10.3999124 C212,11.0380592 212.537157,11.5554032 213.19983,11.5554878 L233.179656,11.5554878 Z" id="路径备份-2"></path>
        </g>
    </g>
</svg>