<svg width="17" height="17" viewBox="0 0 17 17" fill="none" xmlns="http://www.w3.org/2000/svg">
<path d="M12.2065 10.2C12.2745 9.639 12.3255 9.078 12.3255 8.5C12.3255 7.922 12.2745 7.361 12.2065 6.8H15.0795C15.2155 7.344 15.3005 7.9135 15.3005 8.5C15.3005 9.0865 15.2155 9.656 15.0795 10.2H12.2065ZM10.702 14.926C11.212 13.9825 11.603 12.9625 11.875 11.9H14.3825C13.5665 13.3025 12.266 14.3905 10.702 14.926ZM10.4895 10.2H6.51149C6.42649 9.639 6.37549 9.078 6.37549 8.5C6.37549 7.922 6.42649 7.3525 6.51149 6.8H10.4895C10.566 7.3525 10.6255 7.922 10.6255 8.5C10.6255 9.078 10.566 9.639 10.4895 10.2ZM8.50049 15.266C7.79499 14.246 7.22549 13.1155 6.87699 11.9H10.124C9.77549 13.1155 9.20599 14.246 8.50049 15.266ZM5.10049 5.1H2.61849C3.42599 3.689 4.73499 2.601 6.29049 2.074C5.78049 3.0175 5.39799 4.0375 5.10049 5.1ZM2.61849 11.9H5.10049C5.39799 12.9625 5.78049 13.9825 6.29049 14.926C4.73499 14.3905 3.42599 13.3025 2.61849 11.9ZM1.92149 10.2C1.78549 9.656 1.70049 9.0865 1.70049 8.5C1.70049 7.9135 1.78549 7.344 1.92149 6.8H4.79449C4.72649 7.361 4.67549 7.922 4.67549 8.5C4.67549 9.078 4.72649 9.639 4.79449 10.2H1.92149ZM8.50049 1.7255C9.20599 2.7455 9.77549 3.8845 10.124 5.1H6.87699C7.22549 3.8845 7.79499 2.7455 8.50049 1.7255ZM14.3825 5.1H11.875C11.603 4.0375 11.212 3.0175 10.702 2.074C12.266 2.6095 13.5665 3.689 14.3825 5.1ZM8.50049 0C3.79999 0 0.000488281 3.825 0.000488281 8.5C0.000488281 10.7543 0.896021 12.9163 2.49008 14.5104C3.27938 15.2997 4.21641 15.9258 5.24768 16.353C6.27895 16.7801 7.38425 17 8.50049 17C10.7548 17 12.9168 16.1045 14.5109 14.5104C16.105 12.9163 17.0005 10.7543 17.0005 8.5C17.0005 7.38376 16.7806 6.27846 16.3535 5.24719C15.9263 4.21592 15.3002 3.27889 14.5109 2.48959C13.7216 1.70029 12.7846 1.07419 11.7533 0.647024C10.722 0.219859 9.61672 0 8.50049 0Z" fill="white"/>
</svg>
