<svg width="145" height="160" viewBox="0 0 145 160" fill="none" xmlns="http://www.w3.org/2000/svg">
<path opacity="0.65" d="M111.906 80.1818C116.827 101.72 103.356 123.169 81.8182 128.09C60.2803 133.011 38.8312 119.54 33.9102 98.0022C28.9892 76.4643 42.4599 55.0152 63.9978 50.0942C85.5357 45.1732 106.985 58.6439 111.906 80.1818Z" fill="url(#paint0_radial_750_345)" fill-opacity="0.28"/>
<path d="M105.086 81.7007C109.169 99.4716 98.0729 117.188 80.302 121.271C62.5311 125.354 44.8149 114.258 40.7318 96.4871C36.6487 78.7162 47.7448 61 65.5156 56.9169C83.2865 52.8338 101.003 63.9299 105.086 81.7007Z" fill="url(#paint1_radial_750_345)" fill-opacity="0.7"/>
<path d="M73.9742 63.0106C88.3792 63.0106 100.057 74.6882 100.057 89.0932C100.057 103.498 88.3792 115.176 73.9742 115.176C59.5692 115.176 47.8916 103.498 47.8916 89.0932C47.8916 74.6882 59.5692 63.0106 73.9742 63.0106Z" fill="url(#paint2_linear_750_345)" fill-opacity="0.3"/>
<path d="M71.8409 67.141C83.9648 67.141 93.7932 76.9694 93.7932 89.0933C93.7932 101.217 83.9648 111.046 71.8409 111.046C59.717 111.046 49.8887 101.217 49.8887 89.0933C49.8887 76.9694 59.717 67.141 71.8409 67.141Z" stroke="#C3CBE2" stroke-opacity="0.2" stroke-width="4" stroke-miterlimit="10"/>
<line y1="-0.4" x2="50" y2="-0.4" transform="matrix(-4.37114e-08 -1 -1 4.37114e-08 72 50)" stroke="white" stroke-width="0.8" stroke-dasharray="2 5"/>
<path d="M78.9 94.39C78.64 93.59 77.89 93 77 93H76V90C76 89.7348 75.8946 89.4804 75.7071 89.2929C75.5196 89.1054 75.2652 89 75 89H69V87H71C71.2652 87 71.5196 86.8946 71.7071 86.7071C71.8946 86.5196 72 86.2652 72 86V84H74C74.5304 84 75.0391 83.7893 75.4142 83.4142C75.7893 83.0391 76 82.5304 76 82V81.59C78.93 82.77 81 85.64 81 89C81 91.08 80.2 92.97 78.9 94.39ZM72 96.93C68.05 96.44 65 93.08 65 89C65 88.38 65.08 87.78 65.21 87.21L70 92V93C70 93.5304 70.2107 94.0391 70.5858 94.4142C70.9609 94.7893 71.4696 95 72 95V96.93ZM73 79C71.6868 79 70.3864 79.2587 69.1732 79.7612C67.9599 80.2638 66.8575 81.0003 65.9289 81.9289C64.0536 83.8043 63 86.3478 63 89C63 91.6522 64.0536 94.1957 65.9289 96.0711C66.8575 96.9997 67.9599 97.7362 69.1732 98.2388C70.3864 98.7413 71.6868 99 73 99C75.6522 99 78.1957 97.9464 80.0711 96.0711C81.9464 94.1957 83 91.6522 83 89C83 87.6868 82.7413 86.3864 82.2388 85.1732C81.7362 83.9599 80.9997 82.8575 80.0711 81.9289C79.1425 81.0003 78.0401 80.2638 76.8268 79.7612C75.6136 79.2587 74.3132 79 73 79Z" fill="white"/>
<defs>
<radialGradient id="paint0_radial_750_345" cx="0" cy="0" r="1" gradientUnits="userSpaceOnUse" gradientTransform="translate(72.9088 89.0924) scale(49.7)">
<stop stop-color="#B3B6C4"/>
<stop offset="0.99" stop-color="#8A95BD" stop-opacity="0"/>
</radialGradient>
<radialGradient id="paint1_radial_750_345" cx="0" cy="0" r="1" gradientUnits="userSpaceOnUse" gradientTransform="translate(72.9063 89.0935) scale(47.1532)">
<stop stop-color="#B9BBC6"/>
<stop offset="0.99" stop-color="#9DA5C1" stop-opacity="0"/>
</radialGradient>
<linearGradient id="paint2_linear_750_345" x1="82.1968" y1="89.0932" x2="128.675" y2="89.0932" gradientUnits="userSpaceOnUse">
<stop offset="0.01" stop-color="#6D7BB0"/>
<stop offset="1" stop-color="#8C97BE"/>
</linearGradient>
</defs>
</svg>
