<svg width="60" height="60" viewBox="0 0 60 60" fill="none" xmlns="http://www.w3.org/2000/svg">
<path fill-rule="evenodd" clip-rule="evenodd" d="M60 30C60 46.5685 46.5685 60 30 60C13.4315 60 0 46.5685 0 30C0 13.4315 13.4315 0 30 0C46.5685 0 60 13.4315 60 30ZM38.0763 42.4197L42.3697 22.1721C42.7508 20.3875 41.7282 19.6888 40.5596 20.1271L15.32 29.8507C13.5988 30.5239 13.6242 31.4893 15.0279 31.9276L21.4807 33.9472L36.4694 24.5094C37.1744 24.0394 37.8159 24.2998 37.2887 24.7698L25.1643 35.7256L24.6943 42.3879C25.3676 42.3879 25.6597 42.0958 26.009 41.7465L29.1656 38.7106L35.7073 43.5312C36.9077 44.2044 37.7524 43.8487 38.0763 42.4197Z" fill="white"/>
</svg>
