<svg width="60" height="60" viewBox="0 0 60 60" fill="none" xmlns="http://www.w3.org/2000/svg">
<path fill-rule="evenodd" clip-rule="evenodd" d="M60 30C60 46.5685 46.5685 60 30 60C13.4315 60 0 46.5685 0 30C0 13.4315 13.4315 0 30 0C46.5685 0 60 13.4315 60 30ZM17.1132 17.6113C19.1679 15.3075 22.0943 14 30.1887 14C38.283 14 41.2094 15.3075 43.2642 17.6113C45.2566 19.9151 46.3774 21.7208 46.3774 30.1887C46.3774 38.6566 45.3189 40.4623 43.2642 42.7661C41.2094 45.0698 38.283 46.3774 30.1887 46.3774C22.0943 46.3774 19.1679 45.0698 17.1132 42.7661C15.1208 40.4623 14 38.6566 14 30.1887C14.0623 21.7208 15.1208 19.9151 17.1132 17.6113ZM23.4019 21.7832H28.0095V28.1964H32.4302V21.7832H37.0378V38.5945H32.4302V32.0568H28.0095V38.5945H23.4019V21.7832Z" fill="white"/>
</svg>
