<?xml version="1.0" encoding="UTF-8"?>
<svg width="15px" height="15px" viewBox="0 0 15 15" version="1.1" xmlns="http://www.w3.org/2000/svg" xmlns:xlink="http://www.w3.org/1999/xlink">
    <!-- Generator: Sketch 59.1 (86144) - https://sketch.com -->
    <title>邮件 (2)备份</title>
    <desc>Created with Sketch.</desc>
    <g id="组件" stroke="none" stroke-width="1" fill="none" fill-rule="evenodd" opacity="0.601702009">
        <g id="邮件-(2)备份" fill="#989CA8" fill-rule="nonzero">
            <path d="M9.3070006,8.97241936 L7.51850077,7.24209678 L5.57600098,9.12241935 L1.50000141,5.17790323 L1.50000141,0.967741944 C1.50000141,0.433272826 1.94771662,0 2.50000141,0 L9.50000141,0 L9.50000141,2.90322581 C9.50000141,3.43769493 9.94771577,3.87096775 10.5000014,3.87096775 L13.5000014,3.87096775 L13.5000014,4.91467743 L9.3070006,8.97241936 L9.3070006,8.97241936 Z M10.5000005,0 L13.5000005,2.90322581 L11.0000005,2.90322581 C10.7238581,2.90322581 10.5000005,2.6865894 10.5000005,2.41935485 L10.5000005,0 Z M13.8700001,15 L1.12550144,15 L7.49800079,8.83306452 L13.8700001,15 Z M14.907,14.4401613 L10.1100005,9.7983871 L14.972,5.09322582 C14.99,5.16677421 15,5.24322581 15,5.32258066 L15,14.0322581 C15,14.1779032 14.9665,14.3162903 14.907,14.4401613 L14.907,14.4401613 Z M0.0930015574,14.4401613 C0.0315639064,14.3124069 -0.000181460572,14.1731699 7.80216236e-07,14.0322581 L7.80216236e-07,5.32258066 C7.80216236e-07,5.30080646 0.00100157487,5.27903227 0.00200155914,5.25725807 L4.79200107,9.89274194 L0.0930015574,14.4401613 L0.0930015574,14.4401613 Z" id="形状"></path>
        </g>
    </g>
</svg>