<?xml version="1.0" encoding="UTF-8"?>
<svg width="220px" height="24px" viewBox="0 0 220 24" version="1.1" xmlns="http://www.w3.org/2000/svg" xmlns:xlink="http://www.w3.org/1999/xlink">
    <!-- Generator: Sketch 59.1 (86144) - https://sketch.com -->
    <title>编组备份</title>
    <desc>Created with Sketch.</desc>
    <defs>
        <polygon id="path-1" points="0 24 219.151 24 219.151 0.301 0 0.301"></polygon>
        <path d="M28.935,0.301 C24.492,0.301 20.623,2.749 18.594,6.367 L18.594,6.367 C18.559,6.446 18.509,6.537 18.445,6.643 L18.445,6.643 C18.296,6.925 18.157,7.213 18.031,7.508 L18.031,7.508 C17.774,8.2 17.572,9.063 17.417,9.896 L17.417,9.896 C17.26,10.738 17.153,11.549 17.087,12.125 L17.087,12.125 C17.087,12.133 17.087,12.141 17.087,12.149 L17.087,12.149 C17.086,12.149 17.086,12.149 17.084,12.149 L17.084,12.149 L17.084,12.151 C17.081,12.175 17.078,12.199 17.076,12.223 L17.076,12.223 C17.037,15.076 14.712,17.379 11.849,17.379 L11.849,17.379 C8.962,17.379 6.62,15.039 6.62,12.151 L6.62,12.151 C6.62,9.263 8.962,6.923 11.849,6.923 L11.849,6.923 C13.338,6.923 14.68,7.545 15.632,8.543 L15.632,8.543 C16.173,6.541 17.173,4.63 18.648,2.976 L18.648,2.976 C18.744,2.867 18.845,2.764 18.944,2.66 L18.944,2.66 C16.967,1.179 14.511,0.301 11.849,0.301 L11.849,0.301 C5.305,0.301 0,5.607 0,12.151 L0,12.151 C0,18.695 5.305,23.995 11.849,24 L11.849,24 L11.86,24 C17.6,24 22.368,19.949 23.466,14.479 L23.466,14.479 C23.542,14.095 23.603,13.705 23.641,13.308 L23.641,13.308 L23.642,13.308 C23.642,13.308 23.643,13.295 23.644,13.272 L23.644,13.272 C23.662,13.087 23.675,12.898 23.684,12.71 L23.684,12.71 C23.699,12.546 23.719,12.355 23.744,12.151 L23.744,12.151 C23.821,11.516 23.954,10.746 24.178,10.163 L24.178,10.163 C24.263,9.978 24.356,9.796 24.459,9.621 L24.459,9.621 C24.482,9.591 24.5,9.56 24.515,9.532 L24.515,9.532 C25.454,8.005 27.089,6.923 28.935,6.923 L28.935,6.923 C31.823,6.923 34.164,9.263 34.164,12.151 L34.164,12.151 C34.164,15.039 31.823,17.379 28.935,17.379 L28.935,17.379 C27.447,17.379 26.105,16.756 25.153,15.759 L25.153,15.759 C24.548,17.997 23.392,20.008 21.84,21.642 L21.84,21.642 C23.818,23.122 26.275,24 28.935,24 L28.935,24 C35.48,24 40.785,18.695 40.785,12.151 L40.785,12.151 C40.785,5.607 35.48,0.301 28.935,0.301 Z" id="path-3"></path>
        <linearGradient x1="0%" y1="50.0006895%" x2="99.9994851%" y2="50.0006895%" id="linearGradient-5">
            <stop stop-color="#00C19C" offset="0%"></stop>
            <stop stop-color="#00DBB1" offset="100%"></stop>
        </linearGradient>
    </defs>
    <g id="首页" stroke="none" stroke-width="1" fill="none" fill-rule="evenodd">
        <g id="编组备份" transform="translate(0.000000, -1.000000)">
            <g id="编组" transform="translate(0.000000, 0.698700)">
                <path d="M101.0793,11.2542 C98.8613,10.6002 98.2773,10.2042 98.2773,9.4802 C98.2773,8.8962 98.7683,8.4062 99.7953,8.4062 C100.9863,8.4062 101.8263,9.0132 102.3393,10.2272 L105.8413,8.1722 C104.6973,5.7222 102.4793,4.4382 99.7713,4.4382 C96.5973,4.4382 94.0993,6.4452 94.0993,9.5032 C94.0993,12.5612 96.3873,13.8692 98.9543,14.6152 C101.0323,15.1992 102.1063,15.4792 102.1063,16.4132 C102.1063,16.9732 101.6623,17.5102 100.1923,17.5102 C98.5583,17.5102 97.5543,16.7392 96.9713,15.3392 L93.3993,17.4172 C94.2633,19.8212 96.5273,21.4782 100.0753,21.4782 C103.7633,21.4782 106.2843,19.6112 106.2843,16.3662 C106.2843,12.9352 103.6003,12.0012 101.0793,11.2542" id="Fill-1" fill="#303C3F"></path>
                <path d="M119.1325,9.9934 C117.9005,9.9934 116.7735,10.4394 115.8995,11.1764 C115.0285,10.4504 113.9095,10.0124 112.6865,10.0124 C109.9145,10.0124 107.6665,12.2604 107.6665,15.0334 L107.6665,21.1284 L111.2615,21.1284 L111.2615,19.8454 L111.2615,14.8174 L111.2675,14.8174 C111.2675,14.1984 111.6685,13.6264 112.2935,13.4474 C113.0495,13.2294 113.8395,13.6664 114.0575,14.4234 C114.0945,14.5554 114.1065,14.6864 114.1065,14.8174 L114.1125,14.8174 L114.1125,14.9964 C114.1125,15.0024 114.1115,15.0084 114.1115,15.0144 L114.1115,21.1094 L114.1125,21.1094 L114.1125,21.1284 L117.7075,21.1284 L117.7075,15.0334 C117.7075,15.0264 117.7065,15.0204 117.7065,15.0144 L117.7065,14.7984 L117.7135,14.7984 C117.7135,14.1794 118.1135,13.6084 118.7385,13.4284 C119.4955,13.2114 120.2855,13.6484 120.5025,14.4054 C120.5405,14.5364 120.5515,14.6684 120.5515,14.7984 L120.5575,14.7984 L120.5575,19.8264 L120.5575,21.1094 L124.1535,21.1094 L124.1535,15.0144 C124.1535,12.2414 121.9055,9.9934 119.1325,9.9934" id="Fill-3" fill="#303C3F"></path>
                <mask id="mask-2" fill="white">
                    <use xlink:href="#path-1"></use>
                </mask>
                <g id="Clip-6"></g>
                <polygon id="Fill-5" fill="#303C3F" mask="url(#mask-2)" points="202.921 21.134 206.515 21.134 206.515 10.321 202.921 10.321"></polygon>
                <path d="M131.1345,17.5383 C130.0415,17.5383 129.1555,16.6523 129.1555,15.5593 C129.1555,14.4673 130.0415,13.5803 131.1345,13.5803 C132.2275,13.5803 133.1135,14.4673 133.1135,15.5593 C133.1135,16.6523 132.2275,17.5383 131.1345,17.5383 M131.1345,9.9873 C128.0565,9.9873 125.5605,12.4823 125.5605,15.5603 C125.5605,18.6383 128.0565,21.1333 131.1345,21.1333 C131.8325,21.1333 132.4975,20.9993 133.1135,20.7653 L133.1135,21.1353 L136.7075,21.1353 L136.7075,15.5913 L136.7055,15.5913 C136.7065,15.5803 136.7075,15.5703 136.7075,15.5603 C136.7075,12.4823 134.2125,9.9873 131.1345,9.9873" id="Fill-7" fill="#303C3F" mask="url(#mask-2)"></path>
                <path d="M194.6853,17.5369 C193.5923,17.5369 192.7063,16.6509 192.7063,15.5579 C192.7063,14.4659 193.5923,13.5789 194.6853,13.5789 C195.7783,13.5789 196.6643,14.4659 196.6643,15.5579 C196.6643,16.6509 195.7783,17.5369 194.6853,17.5369 M194.6853,9.9849 C191.6073,9.9849 189.1123,12.4809 189.1123,15.5579 C189.1123,18.6369 191.6073,21.1319 194.6853,21.1319 C195.3833,21.1319 196.0483,20.9979 196.6643,20.7639 L196.6643,21.1339 L200.2583,21.1339 L200.2583,15.5899 L200.2573,15.5899 C200.2573,15.5789 200.2583,15.5689 200.2583,15.5579 C200.2583,12.4809 197.7633,9.9849 194.6853,9.9849" id="Fill-8" fill="#303C3F" mask="url(#mask-2)"></path>
                <path d="M138.4587,15.5603 C138.4587,15.5703 138.4597,15.5813 138.4597,15.5913 L138.4587,15.5913 L138.4587,21.1353 L142.0537,21.1353 L142.0537,15.5913 L142.0567,15.5913 C142.0557,15.5803 142.0527,15.5703 142.0527,15.5603 C142.0527,14.4673 142.9387,13.5813 144.0317,13.5813 L145.7027,13.5813 L145.7027,9.9863 L144.0317,9.9863 C140.9537,9.9863 138.4587,12.4823 138.4587,15.5603" id="Fill-9" fill="#303C3F" mask="url(#mask-2)"></path>
                <path d="M151.008,7.3933 L147.413,7.3933 L147.413,15.5303 L147.415,15.5303 C147.414,15.5403 147.413,15.5513 147.413,15.5613 C147.413,18.6393 149.908,21.1353 152.987,21.1353 L154.657,21.1353 L154.657,17.5403 L152.987,17.5403 C151.894,17.5403 151.008,16.6553 151.008,15.5623 C151.008,15.5513 151.011,15.5413 151.011,15.5303 L151.008,15.5303 L151.008,13.8243 L154.657,13.8243 L154.657,10.2293 L151.008,10.2293 L151.008,7.3933 Z" id="Fill-10" fill="#303C3F" mask="url(#mask-2)"></path>
                <path d="M167.9841,17.8855 C165.2631,17.8855 163.0571,15.6795 163.0571,12.9585 C163.0571,10.2375 165.2631,8.0315 167.9841,8.0315 C169.7191,8.0315 171.2421,8.9295 172.1201,10.2855 L175.2131,8.4645 C173.7091,6.0505 171.0381,4.4385 167.9841,4.4385 C163.2791,4.4385 159.4641,8.2525 159.4641,12.9585 C159.4641,17.6635 163.2791,21.4785 167.9841,21.4785 C171.0541,21.4785 173.7371,19.8485 175.2361,17.4125 L172.1441,15.5925 C171.2701,16.9685 169.7351,17.8855 167.9841,17.8855" id="Fill-11" fill="#303C3F" mask="url(#mask-2)"></path>
                <path d="M182.4392,9.4959 C181.8412,9.4959 181.2692,9.5999 180.7322,9.7829 L180.7322,5.9859 L177.1382,5.9859 L177.1382,21.1279 L180.7322,21.1279 L180.7322,19.7749 L180.7322,14.7869 L180.7402,14.7869 C180.7402,14.0639 181.1982,13.3929 181.9252,13.1669 C182.8202,12.8889 183.7722,13.3879 184.0502,14.2829 C184.1022,14.4509 184.1192,14.6199 184.1192,14.7869 L184.1272,14.7869 L184.1272,19.7809 L184.1272,21.1279 L187.7222,21.1279 L187.7222,14.7799 L187.7222,14.7789 L187.7222,14.7779 L187.7222,14.6389 L187.7152,14.6389 C187.6402,11.7869 185.3092,9.4959 182.4392,9.4959" id="Fill-12" fill="#303C3F" mask="url(#mask-2)"></path>
                <path d="M204.7175,5.2879 C203.5715,5.2879 202.6435,6.2169 202.6435,7.3619 C202.6435,8.5079 203.5715,9.4359 204.7175,9.4359 C205.8635,9.4359 206.7925,8.5079 206.7925,7.3619 C206.7925,6.2169 205.8635,5.2879 204.7175,5.2879" id="Fill-13" fill="#303C3F" mask="url(#mask-2)"></path>
                <path d="M213.8586,9.9871 C210.9366,9.9871 208.5666,12.3571 208.5666,15.2791 L208.5666,21.1281 L212.1626,21.1281 L212.1626,20.2881 L212.1626,15.2791 C212.1626,14.3421 212.9216,13.5831 213.8586,13.5831 C214.7956,13.5831 215.5556,14.3421 215.5556,15.2791 L215.5556,20.2881 L215.5556,21.1281 L219.1506,21.1281 L219.1506,15.2791 C219.1506,12.3571 216.7816,9.9871 213.8586,9.9871" id="Fill-14" fill="#303C3F" mask="url(#mask-2)"></path>
                <polygon id="Fill-15" fill="#303C3F" mask="url(#mask-2)" points="56.1496 10.8987 50.5446 10.8987 50.5446 4.4777 46.5726 4.4777 46.5726 21.2927 50.5446 21.2927 50.5446 14.8707 56.1496 14.8707 56.1496 21.2927 60.1226 21.2927 60.1226 4.4777 56.1496 4.4777"></polygon>
                <path d="M67.8669,17.636 C66.2729,17.636 64.9799,16.343 64.9799,14.749 C64.9799,13.154 66.2729,11.862 67.8669,11.862 C69.4619,11.862 70.7549,13.154 70.7549,14.749 C70.7549,16.343 69.4619,17.636 67.8669,17.636 M67.8669,8.205 C64.2529,8.205 61.3239,11.135 61.3239,14.749 C61.3239,18.363 64.2529,21.292 67.8669,21.292 C71.4809,21.292 74.4109,18.363 74.4109,14.749 C74.4109,11.135 71.4809,8.205 67.8669,8.205" id="Fill-16" fill="#303C3F" mask="url(#mask-2)"></path>
                <path d="M82.0481,17.636 C80.4531,17.636 79.1601,16.343 79.1601,14.749 C79.1601,13.154 80.4531,11.862 82.0481,11.862 C83.6421,11.862 84.9351,13.154 84.9351,14.749 C84.9351,16.343 83.6421,17.636 82.0481,17.636 M82.0481,8.205 C78.4341,8.205 75.5041,11.135 75.5041,14.749 C75.5041,18.363 78.4341,21.292 82.0481,21.292 C85.6621,21.292 88.5911,18.363 88.5911,14.749 C88.5911,11.135 85.6621,8.205 82.0481,8.205" id="Fill-17" fill="#303C3F" mask="url(#mask-2)"></path>
            </g>
            <g id="编组" transform="translate(0.000000, 0.698700)">
                <mask id="mask-4" fill="white">
                    <use xlink:href="#path-3"></use>
                </mask>
                <g id="Clip-19"></g>
                <path d="M28.935,0.301 C24.492,0.301 20.623,2.749 18.594,6.367 L18.594,6.367 C18.559,6.446 18.509,6.537 18.445,6.643 L18.445,6.643 C18.296,6.925 18.157,7.213 18.031,7.508 L18.031,7.508 C17.774,8.2 17.572,9.063 17.417,9.896 L17.417,9.896 C17.26,10.738 17.153,11.549 17.087,12.125 L17.087,12.125 C17.087,12.133 17.087,12.141 17.087,12.149 L17.087,12.149 C17.086,12.149 17.086,12.149 17.084,12.149 L17.084,12.149 L17.084,12.151 C17.081,12.175 17.078,12.199 17.076,12.223 L17.076,12.223 C17.037,15.076 14.712,17.379 11.849,17.379 L11.849,17.379 C8.962,17.379 6.62,15.039 6.62,12.151 L6.62,12.151 C6.62,9.263 8.962,6.923 11.849,6.923 L11.849,6.923 C13.338,6.923 14.68,7.545 15.632,8.543 L15.632,8.543 C16.173,6.541 17.173,4.63 18.648,2.976 L18.648,2.976 C18.744,2.867 18.845,2.764 18.944,2.66 L18.944,2.66 C16.967,1.179 14.511,0.301 11.849,0.301 L11.849,0.301 C5.305,0.301 0,5.607 0,12.151 L0,12.151 C0,18.695 5.305,23.995 11.849,24 L11.849,24 L11.86,24 C17.6,24 22.368,19.949 23.466,14.479 L23.466,14.479 C23.542,14.095 23.603,13.705 23.641,13.308 L23.641,13.308 L23.642,13.308 C23.642,13.308 23.643,13.295 23.644,13.272 L23.644,13.272 C23.662,13.087 23.675,12.898 23.684,12.71 L23.684,12.71 C23.699,12.546 23.719,12.355 23.744,12.151 L23.744,12.151 C23.821,11.516 23.954,10.746 24.178,10.163 L24.178,10.163 C24.263,9.978 24.356,9.796 24.459,9.621 L24.459,9.621 C24.482,9.591 24.5,9.56 24.515,9.532 L24.515,9.532 C25.454,8.005 27.089,6.923 28.935,6.923 L28.935,6.923 C31.823,6.923 34.164,9.263 34.164,12.151 L34.164,12.151 C34.164,15.039 31.823,17.379 28.935,17.379 L28.935,17.379 C27.447,17.379 26.105,16.756 25.153,15.759 L25.153,15.759 C24.548,17.997 23.392,20.008 21.84,21.642 L21.84,21.642 C23.818,23.122 26.275,24 28.935,24 L28.935,24 C35.48,24 40.785,18.695 40.785,12.151 L40.785,12.151 C40.785,5.607 35.48,0.301 28.935,0.301 Z" id="Fill-18" fill="url(#linearGradient-5)" mask="url(#mask-4)"></path>
            </g>
        </g>
    </g>
</svg>