<svg width="60" height="60" viewBox="0 0 60 60" fill="none" xmlns="http://www.w3.org/2000/svg">
<path fill-rule="evenodd" clip-rule="evenodd" d="M60 30C60 46.5685 46.5685 60 30 60C13.4315 60 0 46.5685 0 30C0 13.4315 13.4315 0 30 0C46.5685 0 60 13.4315 60 30ZM21.3523 41.86C27.6216 41.86 32.7042 36.7427 32.7042 30.4302C32.7042 24.1177 27.622 19 21.3523 19C15.0826 19 10 24.1177 10 30.4302C10 36.7427 15.083 41.86 21.3523 41.86ZM39.4814 41.1912C42.6163 41.1912 45.1576 36.3724 45.1576 30.4306H45.1572C45.1572 24.4871 42.6159 19.6699 39.4811 19.6699C36.3462 19.6699 33.8053 24.4887 33.8053 30.4306C33.8053 36.3724 36.3466 41.1912 39.4814 41.1912ZM50.2514 30.4295C50.2514 35.7519 49.3578 40.0693 48.2551 40.0693C47.1524 40.0693 46.2592 35.7531 46.2592 30.4295C46.2592 25.1058 47.1528 20.7896 48.2551 20.7896C49.3574 20.7896 50.2514 25.1055 50.2514 30.4295Z" fill="white"/>
</svg>
