<svg width="145" height="160" viewBox="0 0 145 160" fill="none" xmlns="http://www.w3.org/2000/svg">
<path opacity="0.65" d="M111.906 79.8182C116.827 58.2804 103.356 36.8312 81.8182 31.9103C60.2803 26.9893 38.8312 40.46 33.9102 61.9978C28.9892 83.5357 42.4599 104.985 63.9978 109.906C85.5357 114.827 106.985 101.356 111.906 79.8182Z" fill="url(#paint0_radial_750_325)" fill-opacity="0.28"/>
<path d="M105.086 78.2993C109.169 60.5284 98.0729 42.8122 80.302 38.7291C62.5311 34.6459 44.8149 45.742 40.7318 63.5129C36.6487 81.2838 47.7448 99 65.5156 103.083C83.2865 107.166 101.003 96.0701 105.086 78.2993Z" fill="url(#paint1_radial_750_325)" fill-opacity="0.7"/>
<path d="M73.9742 96.9894C88.3792 96.9894 100.057 85.3118 100.057 70.9068C100.057 56.5018 88.3792 44.8242 73.9742 44.8242C59.5692 44.8242 47.8916 56.5018 47.8916 70.9068C47.8916 85.3118 59.5692 96.9894 73.9742 96.9894Z" fill="url(#paint2_linear_750_325)" fill-opacity="0.3"/>
<path d="M71.8409 92.8591C83.9648 92.8591 93.7932 83.0307 93.7932 70.9068C93.7932 58.7829 83.9648 48.9546 71.8409 48.9546C59.717 48.9546 49.8887 58.7829 49.8887 70.9068C49.8887 83.0307 59.717 92.8591 71.8409 92.8591Z" stroke="#C3CBE2" stroke-opacity="0.2" stroke-width="4" stroke-miterlimit="10"/>
<line x1="72.4" y1="110" x2="72.4" y2="160" stroke="white" stroke-width="0.8" stroke-dasharray="2 5"/>
<path d="M79.7778 61H64.2222C62.9889 61 62 61.9889 62 63.2222V78.7778C62 80.0111 63 81 64.2222 81H79.7778C81.0111 81 82 80.0111 82 78.7778V63.2222C82 61.9889 81 61 79.7778 61ZM76.5556 75.3333C75.4111 75.3333 74.3222 74.8889 73.5 74.0667L72.7889 73.3556L74.3667 71.7889L75.0667 72.4889C75.4667 72.8889 76 73.1111 76.5667 73.1111C77.7222 73.1111 78.6667 72.1667 78.6667 71C78.6667 69.8333 77.7222 68.8889 76.5556 68.8889C76 68.8889 75.4667 69.1111 75.0667 69.5111L70.5 74.0667C69.6778 74.8889 68.6 75.3333 67.4444 75.3333C65.0556 75.3333 63.1111 73.3889 63.1111 71C63.1111 68.6111 65.0556 66.6667 67.4444 66.6667C68.6 66.6667 69.6778 67.1111 70.5 67.9333L71.2111 68.6444L69.6333 70.2222L68.9333 69.5111C68.5333 69.1111 68 68.8889 67.4444 68.8889C66.2778 68.8889 65.3333 69.8333 65.3333 71C65.3333 72.1667 66.2778 73.1111 67.4444 73.1111C68 73.1111 68.5333 72.8889 68.9333 72.4889L73.5 67.9333C74.3222 67.1111 75.4 66.6667 76.5556 66.6667C78.9444 66.6667 80.8889 68.6111 80.8889 71C80.8889 73.3889 78.9444 75.3333 76.5556 75.3333Z" fill="white"/>
<defs>
<radialGradient id="paint0_radial_750_325" cx="0" cy="0" r="1" gradientUnits="userSpaceOnUse" gradientTransform="translate(72.9088 70.9076) scale(49.7)">
<stop stop-color="#B3B6C4"/>
<stop offset="0.99" stop-color="#8A95BD" stop-opacity="0"/>
</radialGradient>
<radialGradient id="paint1_radial_750_325" cx="0" cy="0" r="1" gradientUnits="userSpaceOnUse" gradientTransform="translate(72.9063 70.9065) scale(47.1532)">
<stop stop-color="#B9BBC6"/>
<stop offset="0.99" stop-color="#9DA5C1" stop-opacity="0"/>
</radialGradient>
<linearGradient id="paint2_linear_750_325" x1="82.1968" y1="70.9068" x2="128.675" y2="70.9068" gradientUnits="userSpaceOnUse">
<stop offset="0.01" stop-color="#6D7BB0"/>
<stop offset="1" stop-color="#8C97BE"/>
</linearGradient>
</defs>
</svg>
