<svg width="60" height="60" viewBox="0 0 60 60" fill="none" xmlns="http://www.w3.org/2000/svg">
<path fill-rule="evenodd" clip-rule="evenodd" d="M60 30C60 46.5685 46.5685 60 30 60C13.4315 60 0 46.5685 0 30C0 13.4315 13.4315 0 30 0C46.5685 0 60 13.4315 60 30ZM41.7528 22.6762C43.0117 22.5351 44.2115 22.2197 45.3264 21.7522C44.4929 22.9294 43.4377 23.9637 42.2225 24.7896C42.2342 25.0416 42.2398 25.2954 42.2398 25.5498C42.2398 33.3064 35.9822 42.25 24.5375 42.25C21.0243 42.25 17.7542 41.279 15 39.6128C15.4869 39.6674 15.9825 39.6953 16.4842 39.6953C19.3997 39.6953 22.0819 38.7567 24.2113 37.1823C21.4891 37.1353 19.1916 35.4377 18.3994 33.106C18.7792 33.1751 19.1689 33.2117 19.5702 33.2117C20.1378 33.2117 20.6875 33.1397 21.2096 33.0061C18.363 32.466 16.2183 30.0942 16.2183 27.2508C16.2183 27.2258 16.2183 27.2009 16.2189 27.1765C17.058 27.6161 18.0177 27.8803 19.0371 27.9111C17.3676 26.8588 16.2694 25.0619 16.2694 23.0258C16.2694 21.9491 16.5759 20.9409 17.1115 20.0744C20.1803 23.6257 24.7653 25.9621 29.9363 26.2072C29.8298 25.7768 29.7751 25.3291 29.7751 24.8697C29.7751 21.6279 32.5607 19 35.9963 19C37.7859 19 39.4031 19.7132 40.5376 20.8538C41.9554 20.5901 43.2863 20.1017 44.4886 19.4286C44.0238 20.8003 43.0382 21.9502 41.7528 22.6762Z" fill="#02EAD0"/>
</svg>
