<?xml version="1.0" encoding="UTF-8"?>
<svg width="19px" height="16px" viewBox="0 0 19 16" version="1.1" xmlns="http://www.w3.org/2000/svg" xmlns:xlink="http://www.w3.org/1999/xlink">
    <!-- Generator: Sketch 59.1 (86144) - https://sketch.com -->
    <title>微信 (2)备份</title>
    <desc>Created with Sketch.</desc>
    <g id="组件" stroke="none" stroke-width="1" fill="none" fill-rule="evenodd" opacity="0.601702009">
        <g id="微信-(2)备份" fill="#989CA8" fill-rule="nonzero">
            <path d="M19,10.6755008 C19,8.09849277 16.4134578,6 13.5036951,6 C10.4208479,6 8,8.09849277 8,10.6755008 C8,13.2590957 10.4208479,15.3502267 13.5036951,15.3502267 C14.1485803,15.3502267 14.8008557,15.1863303 15.445352,15.0297958 L17.2220926,16 L16.7359004,14.3873843 C18.0322832,13.4167926 19,12.1249952 19,10.6755008 Z M11.6637771,9.52941176 C11.2797214,9.52941176 10.8947368,9.23556029 10.8947368,8.94064413 C10.8947368,8.64750245 11.2797214,8.35294118 11.6637771,8.35294118 C12.24613,8.35294118 12.6315789,8.64750245 12.6315789,8.94064413 C12.6315789,9.23556029 12.24613,9.52941176 11.6637771,9.52941176 Z M15.1376139,9.52941176 C14.7527851,9.52941176 14.3684211,9.23556029 14.3684211,8.94064413 C14.3684211,8.64750245 14.7527851,8.35294118 15.1376139,8.35294118 C15.7195048,8.35294118 16.1052632,8.64750245 16.1052632,8.94064413 C16.1052632,9.23556029 15.7102094,9.52941176 15.1376139,9.52941176 Z" id="形状"></path>
            <path d="M12.3768897,4.57455788 C12.5844662,4.57455788 12.7928044,4.58924718 13,4.61089456 C12.4416383,1.96295462 9.65440056,0 6.47143442,0 C2.91673504,0 0,2.45813872 0,5.58541377 C0,7.38949199 0.967801477,8.87272493 2.5872788,10.0223561 L1.94245869,12 L4.20675613,10.8441839 C5.0164948,11.0038334 5.66855151,11.1716007 6.47143444,11.1716007 C6.67177429,11.1716007 6.87325678,11.164256 7.0739775,11.1433818 C6.94486113,10.7061817 6.87325677,10.2419225 6.87325677,9.76838578 C6.8728759,6.90203911 9.30285364,4.57455788 12.3768897,4.57455788 Z M8.65013686,3 C9.1342962,3 9.45454545,3.35856067 9.45454545,3.90042333 C9.45454545,4.44143933 9.13391766,4.8 8.65013686,4.8 C8.16559898,4.8 7.68181818,4.44143933 7.68181818,3.90042333 C7.68901055,3.35813735 8.17241281,3 8.65013686,3 Z M4.51315331,4.8 C4.02892562,4.8 3.54545455,4.44177841 3.54545455,3.90021172 C3.54545455,3.35822159 4.02930392,3 4.51315331,3 C4.99775929,3 5.31818182,3.35864502 5.31818182,3.90021172 C5.31780352,4.43415667 4.99775929,4.8 4.51315331,4.8 Z" id="形状"></path>
        </g>
    </g>
</svg>