<?xml version="1.0" encoding="UTF-8"?>
<svg width="86px" height="86px" viewBox="0 0 86 86" version="1.1" xmlns="http://www.w3.org/2000/svg" xmlns:xlink="http://www.w3.org/1999/xlink">
    <!-- Generator: Sketch 59.1 (86144) - https://sketch.com -->
    <title>编组 43</title>
    <desc>Created with Sketch.</desc>
    <defs>
        <polygon id="path-1" points="0 0.0133316547 6.99598318 0.0133316547 6.99598318 8.96710144 0 8.96710144"></polygon>
        <polygon id="path-3" points="0.00260224719 0.0540903226 5.98015281 0.0540903226 5.98015281 6 0.00260224719 6"></polygon>
        <polygon id="path-5" points="0.0493978723 0.0540903226 5.98933404 0.0540903226 5.98933404 6 0.0493978723 6"></polygon>
        <polygon id="path-7" points="0.00612134831 0.0540903226 5.98367191 0.0540903226 5.98367191 6 0.00612134831 6"></polygon>
        <polygon id="path-9" points="0.5 44 50.5 44 50.5 0 0.5 0"></polygon>
    </defs>
    <g id="首页" stroke="none" stroke-width="1" fill="none" fill-rule="evenodd">
        <g id="编组-43">
            <g id="编组-12备份-10" fill="#FFFFFF" stroke="#E7E7E7">
                <rect id="矩形备份-10" x="0.5" y="0.5" width="85" height="85" rx="42.5"></rect>
            </g>
            <g id="编组备份" transform="translate(17.000000, 22.000000)">
                <g id="编组" transform="translate(0.500000, 35.000000)">
                    <mask id="mask-2" fill="white">
                        <use xlink:href="#path-1"></use>
                    </mask>
                    <g id="Clip-2"></g>
                    <path d="M1.36523551,7.69713022 L1.98038505,7.69713022 C2.59376822,7.69713022 3.10339439,7.63328849 3.50965607,7.50573453 C3.91598318,7.37041079 4.28325421,7.15596475 4.61133832,6.86207266 C5.28301121,6.25518777 5.61907664,5.46454748 5.61907664,4.4901518 C5.61907664,3.50824532 5.28700187,2.71197194 4.62298318,2.10094317 C4.02530093,1.55595755 3.14441308,1.28336763 1.98038505,1.28336763 L1.36523551,1.28336763 L1.36523551,7.69713022 Z M-2.61682243e-05,8.96710144 L-2.61682243e-05,0.0133316547 L1.89834766,0.0133316547 C2.8084785,0.0133316547 3.52731963,0.102295683 4.05467477,0.280158993 C4.62102056,0.454072662 5.13463738,0.74971295 5.59559065,1.16733885 C6.52920748,2.01023094 6.99598318,3.11781367 6.99598318,4.4901518 C6.99598318,5.86663381 6.50971215,6.98004388 5.53710467,7.83044676 C5.04880561,8.25584245 4.53695514,8.55167698 4.00201121,8.71782086 C3.50180561,8.88396475 2.79277757,8.96710144 1.87505794,8.96710144 L-2.61682243e-05,8.96710144 Z" id="Fill-1" fill="#021625" mask="url(#mask-2)"></path>
                </g>
                <g id="编组" transform="translate(7.500000, 38.000000)">
                    <mask id="mask-4" fill="white">
                        <use xlink:href="#path-3"></use>
                    </mask>
                    <g id="Clip-4"></g>
                    <path d="M1.39143371,3.00692903 C1.39143371,3.54615484 1.5422427,3.98531613 1.84406292,4.32434839 C2.15404045,4.66712258 2.54451236,4.83867097 3.01561348,4.83867097 C3.51860225,4.83867097 3.92525393,4.67305806 4.23523146,4.34157419 C4.54514157,3.9988 4.70006292,3.56363871 4.70006292,3.03570323 C4.70006292,2.50796129 4.54514157,2.0728 4.23523146,1.72976774 C3.92525393,1.39473548 3.52278202,1.2271871 3.02761348,1.2271871 C2.56069213,1.2271871 2.17015281,1.39667097 1.85633258,1.73550968 C1.54622022,2.07847742 1.39143371,2.50221935 1.39143371,3.00692903 L1.39143371,3.00692903 Z M4.61559101,0.210154839 L5.98015281,0.210154839 L5.98015281,5.83821935 L4.61559101,5.83821935 L4.61559101,5.2488 C4.05597303,5.74963871 3.45422022,6.00002581 2.81026517,6.00002581 C1.99716404,6.00002581 1.3249618,5.71886452 0.793523596,5.1564129 C0.266130337,4.58247742 0.00260224719,3.86596129 0.00260224719,3.00692903 C0.00260224719,2.1631871 0.266130337,1.46028387 0.793523596,0.897703226 C1.32078202,0.335445161 1.98105169,0.0540903226 2.77406292,0.0540903226 C3.45833258,0.0540903226 4.07215281,0.323767742 4.61559101,0.863058065 L4.61559101,0.210154839 Z" id="Fill-3" fill="#021625" mask="url(#mask-4)"></path>
                </g>
                <path d="M14.5,38.1618908 L15.6788932,38.1618908 L15.6788932,38.7013039 C15.9058149,38.4296566 16.0998011,38.2457475 16.2605008,38.1499113 C16.4314379,38.0499927 16.6462501,38 16.9049374,38 C17.48128,38 17.9369954,38.2877093 18.2724348,38.8631948 C18.6425646,38.2877093 19.1437931,38 19.7761788,38 C20.9252954,38 21.5,38.7971401 21.5,40.3915541 L21.5,44 L20.3159003,44 L20.3159003,40.7572307 C20.3159003,40.197874 20.2563473,39.8022152 20.1377091,39.5703881 C20.015327,39.3346793 19.8144963,39.2168918 19.5351585,39.2168918 C19.2103077,39.2168918 18.9736165,39.3567644 18.8251433,39.6363758 C18.6766702,39.916121 18.6024921,40.3657212 18.6024921,40.9851093 L18.6024921,44 L17.4183924,44 L17.4183924,40.7753672 C17.4183924,39.7363613 17.1564292,39.2168918 16.6324441,39.2168918 C16.3005733,39.2168918 16.0587341,39.3587722 15.9068094,39.642399 C15.7548848,39.9261597 15.6788932,40.3736852 15.6788932,40.9851093 L15.6788932,44 L14.5,44 L14.5,38.1618908 Z" id="Fill-5" fill="#021625"></path>
                <g id="编组" transform="translate(22.500000, 38.000000)">
                    <mask id="mask-6" fill="white">
                        <use xlink:href="#path-5"></use>
                    </mask>
                    <g id="Clip-8"></g>
                    <path d="M1.36435532,3.00692903 C1.36435532,3.56938065 1.51288723,4.01421935 1.81020638,4.34157419 C2.11499362,4.67305806 2.51712128,4.83867097 3.01652553,4.83867097 C3.51963191,4.83867097 3.92150426,4.67486452 4.22265319,4.34731613 C4.5237383,4.02002581 4.67431277,3.58286452 4.67431277,3.03570323 C4.67431277,2.48873548 4.5237383,2.05150968 4.22265319,1.72402581 C3.9177383,1.39273548 3.5157383,1.2271871 3.01652553,1.2271871 C2.52478085,1.2271871 2.12641915,1.39273548 1.82156809,1.72402581 C1.51658936,2.05550968 1.36435532,2.48292903 1.36435532,3.00692903 M0.0493978723,2.98376774 C0.0493978723,2.17092903 0.337142553,1.47938065 0.912631915,0.909380645 C1.48812128,0.339187097 2.18935532,0.0540903226 3.01652553,0.0540903226 C3.84720638,0.0540903226 4.55233404,0.341187097 5.13171702,0.915122581 C5.70331277,1.48912258 5.98933404,2.19409032 5.98933404,3.02989677 C5.98933404,3.87357419 5.70139787,4.58054194 5.12584468,5.15067097 C4.54665319,5.71686452 3.83578085,6.00002581 2.99354681,6.00002581 C2.15897234,6.00002581 1.45952553,5.71112258 0.895589362,5.13325161 C0.331461702,4.56325161 0.0493978723,3.84673548 0.0493978723,2.98376774" id="Fill-7" fill="#021625" mask="url(#mask-6)"></path>
                </g>
                <polygon id="Fill-9" fill="#021625" points="30.8880353 35 30.8880353 42.7234716 34.5 42.7234716 34.5 44 29.5 44 29.5 35"></polygon>
                <g id="编组" transform="translate(34.500000, 38.000000)">
                    <mask id="mask-8" fill="white">
                        <use xlink:href="#path-7"></use>
                    </mask>
                    <g id="Clip-12"></g>
                    <path d="M1.39502022,3.00692903 C1.39502022,3.54615484 1.54582921,3.98531613 1.84764944,4.32434839 C2.15762697,4.66712258 2.54809888,4.83867097 3.0192,4.83867097 C3.52218876,4.83867097 3.92884045,4.67305806 4.23881798,4.34157419 C4.54866067,3.9988 4.70364944,3.56363871 4.70364944,3.03570323 C4.70364944,2.50796129 4.54866067,2.0728 4.23881798,1.72976774 C3.92884045,1.39473548 3.52630112,1.2271871 3.0312,1.2271871 C2.56427865,1.2271871 2.17373933,1.39667097 1.8599191,1.73550968 C1.54973933,2.07847742 1.39502022,2.50221935 1.39502022,3.00692903 L1.39502022,3.00692903 Z M4.61911011,0.210154839 L5.98367191,0.210154839 L5.98367191,5.83821935 L4.61911011,5.83821935 L4.61911011,5.2488 C4.05955955,5.74963871 3.45780674,6.00002581 2.81385169,6.00002581 C2.00075056,6.00002581 1.32854831,5.71886452 0.797110112,5.1564129 C0.269716854,4.58247742 0.00612134831,3.86596129 0.00612134831,3.00692903 C0.00612134831,2.1631871 0.269716854,1.46028387 0.797110112,0.897703226 C1.32436854,0.335445161 1.98457079,0.0540903226 2.77764944,0.0540903226 C3.46185169,0.0540903226 4.07573933,0.323767742 4.61911011,0.863058065 L4.61911011,0.210154839 Z" id="Fill-11" fill="#021625" mask="url(#mask-8)"></path>
                </g>
                <path d="M45.338463,41.0916232 C45.338463,40.5573533 45.2103996,40.1222282 44.9544419,39.7863119 C44.6952699,39.4427248 44.37029,39.2710911 43.9797275,39.2710911 C43.5622667,39.2710911 43.2221176,39.4370357 42.9595622,39.7690527 C42.7002211,40.097426 42.5707479,40.5248803 42.5707479,41.0515434 C42.5707479,41.593548 42.6986421,42.0268193 42.9545998,42.3511655 C43.2103319,42.6832464 43.5470412,42.8493189 43.9646712,42.8493189 C44.3585043,42.8493189 44.685176,42.6832464 44.9444043,42.3511655 C45.2071289,42.015441 45.338463,41.5954657 45.338463,41.0916232 L45.338463,41.0916232 Z M42.6363867,35 L42.6363867,38.9102448 C43.0909527,38.3759748 43.6060823,38.1087759 44.1817756,38.1087759 C44.8451002,38.1087759 45.3972222,38.3893348 45.8383671,38.9503246 C46.2794557,39.5077986 46.5,40.2023879 46.5,41.034412 C46.5,41.893092 46.2778204,42.6031507 45.8333484,43.1642044 C45.3922034,43.7214867 44.8350627,44 44.1617005,44 C43.5926049,44 43.0840166,43.7519141 42.6363867,43.2556785 L42.6363867,43.8396807 L41.5,43.8396807 L41.5,35 L42.6363867,35 Z" id="Fill-13" fill="#021625"></path>
                <path d="M51.1374386,39.1253133 L50.0669762,39.7027159 C49.8980979,39.3527848 49.6889921,39.1777867 49.4395945,39.1777867 C49.3207114,39.1777867 49.218986,39.2176951 49.1344825,39.2973167 C49.0501719,39.3770684 49.0078881,39.4792808 49.0078881,39.6034982 C49.0078881,39.8213344 49.2572856,40.0370222 49.756145,40.2506917 C50.442904,40.5501676 50.905263,40.826011 51.1431578,41.0787426 C51.3811169,41.3314092 51.5,41.6715096 51.5,42.0992394 C51.5,42.6472152 51.3005334,43.1059342 50.9014716,43.475201 C50.5138483,43.8251321 50.0458343,44 49.4972368,44 C48.557096,44 47.8913504,43.5354217 47.5,42.6063953 L48.6050991,42.0874556 C48.7584905,42.3597183 48.8756386,42.532568 48.9561578,42.6063953 C49.1133406,42.7541802 49.3015615,42.8280726 49.520178,42.8280726 C49.9575394,42.8280726 50.1763487,42.6259915 50.1763487,42.221699 C50.1763487,41.9884333 50.0074704,41.7707273 49.6698422,41.5684509 C49.5393278,41.502436 49.4088134,41.4383741 49.2784275,41.376005 C49.1479131,41.3139614 49.0155994,41.2497694 48.8813578,41.1837545 C48.5053015,40.9971029 48.2405456,40.8104513 48.0870899,40.623995 C47.8913504,40.3868882 47.7936735,40.081618 47.7936735,39.7085101 C47.7936735,39.2147655 47.9604955,38.8066319 48.2942679,38.483914 C48.6356232,38.1613915 49.0501719,38 49.5375285,38 C50.2549401,38 50.7883077,38.3751261 51.1374386,39.1253133" id="Fill-15" fill="#021625"></path>
                <mask id="mask-10" fill="white">
                    <use xlink:href="#path-9"></use>
                </mask>
                <g id="Clip-18"></g>
                <polygon id="Fill-17" fill="#114BBF" mask="url(#mask-10)" points="36.5 37 39.5 37 39.5 36 36.5 36"></polygon>
                <path d="M36.4994273,12.5196919 L41.5,12.5196919 C40.3370989,5.42530989 34.2785048,0 26.9975758,0 L14.3996633,0 L12.3065878,0 L9.5,0 L9.5,30 L14.3996633,30 L14.3996633,5.00827548 L26.9975758,4.99724843 C31.5661683,4.99724843 35.4148959,8.20007767 36.4994273,12.5196919" id="Fill-19" fill="#0E171C" mask="url(#mask-10)"></path>
                <path d="M36.5390862,17.4744686 C35.463156,21.7960976 31.6449521,25.0004207 27.1125924,25.0004207 L24.3608653,24.9995481 L24.3608653,10 L19.5,10 L19.5,30 L20.7825718,30 L24.3608653,30 L27.1125924,30 C34.3357775,30 40.3463217,24.5721596 41.5,17.4744686 L36.5390862,17.4744686 Z" id="Fill-20" fill="#114BBF" mask="url(#mask-10)"></path>
            </g>
        </g>
    </g>
</svg>