<?xml version="1.0" encoding="UTF-8"?>
<svg width="86px" height="86px" viewBox="0 0 86 86" version="1.1" xmlns="http://www.w3.org/2000/svg" xmlns:xlink="http://www.w3.org/1999/xlink">
    <!-- Generator: Sketch 59.1 (86144) - https://sketch.com -->
    <title>编组 12备份</title>
    <desc>Created with Sketch.</desc>
    <defs>
        <polygon id="path-1" points="0 0 36.4702176 0 36.4702176 67.7519591 0 67.7519591"></polygon>
    </defs>
    <g id="首页" stroke="none" stroke-width="1" fill="none" fill-rule="evenodd">
        <g id="编组-12备份">
            <g id="编组-20备份" fill="#FFFFFF" stroke="#E7E7E7">
                <rect id="矩形备份-10" x="0.5" y="0.5" width="85" height="85" rx="42.5"></rect>
            </g>
            <g id="编组" transform="translate(25.000000, 9.000000)">
                <mask id="mask-2" fill="white">
                    <use xlink:href="#path-1"></use>
                </mask>
                <g id="Clip-1"></g>
                <text id="WATERDRIP-CAPITAL" mask="url(#mask-2)" font-family="CenturyGothic, Century Gothic" font-size="2.5555968" font-weight="normal" letter-spacing="-0.187113918" fill="#808080">
                    <tspan x="0.8527176" y="67.5839591">W</tspan>
                    <tspan x="2.93169928" y="67.5839591" letter-spacing="-0.209500158">A</tspan>
                    <tspan x="4.40554877" y="67.5839591" letter-spacing="0.0179999996">TERDRIP CAPI</tspan>
                    <tspan x="20.9396832" y="67.5839591" letter-spacing="-0.209500158">T</tspan>
                    <tspan x="21.6111652" y="67.5839591" letter-spacing="0.0179999996">AL</tspan>
                </text>
                <path d="M13.1012568,23.9934096 C13.1012568,25.3596096 11.9937528,26.4671136 10.6275528,26.4671136 C9.2613528,26.4671136 8.1538488,25.3596096 8.1538488,23.9934096 C8.1538488,22.6272096 9.2613528,21.5197776 10.6275528,21.5197776 C11.9937528,21.5197776 13.1012568,22.6272096 13.1012568,23.9934096" id="Fill-2" fill="#F8B918" mask="url(#mask-2)"></path>
                <path d="M15.7397688,51.4012968 C15.7397688,51.9225048 15.3172728,52.3449288 14.7961368,52.3449288 C14.2749288,52.3449288 13.8524328,51.9225048 13.8524328,51.4012968 C13.8524328,50.8801608 14.2749288,50.4576648 14.7961368,50.4576648 C15.3172728,50.4576648 15.7397688,50.8801608 15.7397688,51.4012968" id="Fill-3" fill="#047B83" mask="url(#mask-2)"></path>
                <path d="M25.396632,27.92142 C25.396632,28.442556 24.974136,28.865052 24.453,28.865052 C23.931864,28.865052 23.509296,28.442556 23.509296,27.92142 C23.509296,27.400284 23.931864,26.977788 24.453,26.977788 C24.974136,26.977788 25.396632,27.400284 25.396632,27.92142" id="Fill-4" fill="#E82545" mask="url(#mask-2)"></path>
                <path d="M13.6705752,27.03492 C13.6705752,27.414576 13.3627752,27.722448 12.9831192,27.722448 C12.6033912,27.722448 12.2955192,27.414576 12.2955192,27.03492 C12.2955192,26.655264 12.6033912,26.347464 12.9831192,26.347464 C13.3627752,26.347464 13.6705752,26.655264 13.6705752,27.03492" id="Fill-5" fill="#EC7D23" mask="url(#mask-2)"></path>
                <path d="M15.491988,14.2917984 C15.491988,14.6715264 15.184188,14.9793264 14.80446,14.9793264 C14.424732,14.9793264 14.117004,14.6715264 14.117004,14.2917984 C14.117004,13.9121424 14.424732,13.6043424 14.80446,13.6043424 C15.184188,13.6043424 15.491988,13.9121424 15.491988,14.2917984" id="Fill-6" fill="#ED4823" mask="url(#mask-2)"></path>
                <path d="M19.9767312,1.798812 C19.9767312,2.149596 19.6923312,2.433996 19.3415472,2.433996 C18.9906912,2.433996 18.7062912,2.149596 18.7062912,1.798812 C18.7062912,1.447956 18.9906912,1.163628 19.3415472,1.163628 C19.6923312,1.163628 19.9767312,1.447956 19.9767312,1.798812" id="Fill-7" fill="#A8364C" mask="url(#mask-2)"></path>
                <path d="M19.2774384,3.1402728 C19.2774384,3.3866568 19.0777104,3.5864568 18.8312544,3.5864568 C18.5847984,3.5864568 18.3850704,3.3866568 18.3850704,3.1402728 C18.3850704,2.8938888 18.5847984,2.6940888 18.8312544,2.6940888 C19.0777104,2.6940888 19.2774384,2.8938888 19.2774384,3.1402728" id="Fill-8" fill="#DA2B5D" mask="url(#mask-2)"></path>
                <path d="M19.681416,3.5363808 C19.681416,3.3355728 19.844136,3.1728528 20.044944,3.1728528 C20.24568,3.1728528 20.408472,3.3355728 20.408472,3.5363808 C20.408472,3.7371888 20.24568,3.8999088 20.044944,3.8999088 C19.844136,3.8999088 19.681416,3.7371888 19.681416,3.5363808" id="Fill-9" fill="#AF2D54" mask="url(#mask-2)"></path>
                <path d="M7.6719384,23.4973584 C7.6719384,23.8214304 7.4092104,24.0841584 7.0850664,24.0841584 C6.7609944,24.0841584 6.4982664,23.8214304 6.4982664,23.4973584 C6.4982664,23.1732864 6.7609944,22.9104864 7.0850664,22.9104864 C7.4092104,22.9104864 7.6719384,23.1732864 7.6719384,23.4973584" id="Fill-10" fill="#FFCA05" mask="url(#mask-2)"></path>
                <path d="M10.6706232,35.5289544 C10.6706232,37.7260344 8.8895592,39.5070984 6.6924792,39.5070984 C4.4953992,39.5070984 2.7143352,37.7260344 2.7143352,35.5289544 C2.7143352,33.3318744 4.4953992,31.5508104 6.6924792,31.5508104 C8.8895592,31.5508104 10.6706232,33.3318744 10.6706232,35.5289544" id="Fill-11" fill="#B7B733" mask="url(#mask-2)"></path>
                <path d="M12.3145632,19.7887608 C12.3145632,20.3979528 11.8207152,20.8918728 11.2113792,20.8918728 C10.6021872,20.8918728 10.1082672,20.3979528 10.1082672,19.7887608 C10.1082672,19.1794968 10.6021872,18.6855768 11.2113792,18.6855768 C11.8207152,18.6855768 12.3145632,19.1794968 12.3145632,19.7887608" id="Fill-12" fill="#EC7D23" mask="url(#mask-2)"></path>
                <path d="M9.0229536,27.8604576 C9.0229536,29.3111136 7.8469776,30.4870896 6.3962496,30.4870896 C4.9455936,30.4870896 3.7696176,29.3111136 3.7696176,27.8604576 C3.7696176,26.4098016 4.9455936,25.2338256 6.3962496,25.2338256 C7.8469776,25.2338256 9.0229536,26.4098016 9.0229536,27.8604576" id="Fill-13" fill="#DDD720" mask="url(#mask-2)"></path>
                <path d="M25.9373304,17.6991048 C25.9373304,19.2201768 24.7042584,20.4533208 23.1830424,20.4533208 C21.6619704,20.4533208 20.4288264,19.2201768 20.4288264,17.6991048 C20.4288264,16.1779608 21.6619704,14.9448888 23.1830424,14.9448888 C24.7042584,14.9448888 25.9373304,16.1779608 25.9373304,17.6991048" id="Fill-14" fill="#E8284A" mask="url(#mask-2)"></path>
                <path d="M16.5602448,17.6039064 C16.5602448,18.8227224 15.5721168,19.8107784 14.3533728,19.8107784 C13.1344848,19.8107784 12.1465008,18.8227224 12.1465008,17.6039064 C12.1465008,16.3850904 13.1344848,15.3970344 14.3533728,15.3970344 C15.5721168,15.3970344 16.5602448,16.3850904 16.5602448,17.6039064" id="Fill-15" fill="#ED6623" mask="url(#mask-2)"></path>
                <path d="M33.5156112,31.1709816 C33.5156112,33.0589656 31.9851072,34.5893976 30.0971952,34.5893976 C28.2092832,34.5893976 26.6787792,33.0589656 26.6787792,31.1709816 C26.6787792,29.2830696 28.2092832,27.7525656 30.0971952,27.7525656 C31.9851072,27.7525656 33.5156112,29.2830696 33.5156112,31.1709816" id="Fill-16" fill="#92286B" mask="url(#mask-2)"></path>
                <path d="M24.5906712,22.7198448 C24.5906712,23.6718288 23.8189752,24.4435248 22.8669912,24.4435248 C21.9149352,24.4435248 21.1432392,23.6718288 21.1432392,22.7198448 C21.1432392,21.7678608 21.9149352,20.9960928 22.8669912,20.9960928 C23.8189752,20.9960928 24.5906712,21.7678608 24.5906712,22.7198448" id="Fill-17" fill="#B3394B" mask="url(#mask-2)"></path>
                <path d="M19.4469264,11.6100072 C19.4469264,12.6475992 18.6057504,13.4887752 17.5681584,13.4887752 C16.5305664,13.4887752 15.6894624,12.6475992 15.6894624,11.6100072 C15.6894624,10.5724152 16.5305664,9.7312392 17.5681584,9.7312392 C18.6057504,9.7312392 19.4469264,10.5724152 19.4469264,11.6100072" id="Fill-18" fill="#EC7D23" mask="url(#mask-2)"></path>
                <path d="M18.8296848,8.0093808 C18.8296848,8.5640688 18.3800448,9.0137088 17.8253568,9.0137088 C17.2706688,9.0137088 16.8211008,8.5640688 16.8211008,8.0093808 C16.8211008,7.4547648 17.2706688,7.0050528 17.8253568,7.0050528 C18.3800448,7.0050528 18.8296848,7.4547648 18.8296848,8.0093808" id="Fill-19" fill="#ED4823" mask="url(#mask-2)"></path>
                <path d="M12.7502208,29.476944 C12.7502208,30.488616 11.9301408,31.308624 10.9185408,31.308624 C9.9069408,31.308624 9.0869328,30.488616 9.0869328,29.476944 C9.0869328,28.465344 9.9069408,27.645336 10.9185408,27.645336 C11.9301408,27.645336 12.7502208,28.465344 12.7502208,29.476944" id="Fill-20" fill="#CDAF2B" mask="url(#mask-2)"></path>
                <path d="M4.3887672,30.7453104 C4.3887672,31.3425504 3.9046392,31.8266784 3.3074712,31.8266784 C2.7103032,31.8266784 2.2261032,31.3425504 2.2261032,30.7453104 C2.2261032,30.1481424 2.7103032,29.6639424 3.3074712,29.6639424 C3.9046392,29.6639424 4.3887672,30.1481424 4.3887672,30.7453104" id="Fill-21" fill="#FED15A" mask="url(#mask-2)"></path>
                <path d="M16.4612808,21.5212608 C16.4612808,22.2409728 15.8777928,22.8243888 15.1581528,22.8243888 C14.4385128,22.8243888 13.8550248,22.2409728 13.8550248,21.5212608 C13.8550248,20.8015488 14.4385128,20.2181328 15.1581528,20.2181328 C15.8777928,20.2181328 16.4612808,20.8015488 16.4612808,21.5212608" id="Fill-22" fill="#F9AB5C" mask="url(#mask-2)"></path>
                <path d="M12.5207928,41.0757624 C12.5207928,42.1932744 11.6148168,43.0992504 10.4973048,43.0992504 C9.3797208,43.0992504 8.4737448,42.1932744 8.4737448,41.0757624 C8.4737448,39.9582504 9.3797208,39.0522744 10.4973048,39.0522744 C11.6148168,39.0522744 12.5207928,39.9582504 12.5207928,41.0757624" id="Fill-23" fill="#4E6444" mask="url(#mask-2)"></path>
                <path d="M26.676036,41.5150056 C26.676036,42.0362136 26.25354,42.4586376 25.732404,42.4586376 C25.211196,42.4586376 24.7887,42.0362136 24.7887,41.5150056 C24.7887,40.9938696 25.211196,40.5713736 25.732404,40.5713736 C26.25354,40.5713736 26.676036,40.9938696 26.676036,41.5150056" id="Fill-24" fill="#41778E" mask="url(#mask-2)"></path>
                <path d="M14.908608,47.0277864 C14.908608,48.9069864 13.385232,50.4304344 11.50596,50.4304344 C9.626832,50.4304344 8.103384,48.9069864 8.103384,47.0277864 C8.103384,45.1485144 9.626832,43.6251384 11.50596,43.6251384 C13.385232,43.6251384 14.908608,45.1485144 14.908608,47.0277864" id="Fill-25" fill="#3A524F" mask="url(#mask-2)"></path>
                <path d="M16.7229864,43.7051016 C16.7229864,44.3143656 16.2290664,44.8082136 15.6198744,44.8082136 C15.0105384,44.8082136 14.5166904,44.3143656 14.5166904,43.7051016 C14.5166904,43.0958376 15.0105384,42.6019896 15.6198744,42.6019896 C16.2290664,42.6019896 16.7229864,43.0958376 16.7229864,43.7051016" id="Fill-26" fill="#49706F" mask="url(#mask-2)"></path>
                <path d="M21.0572928,50.5679544 C21.0572928,51.9005304 19.9770048,52.9807464 18.6444288,52.9807464 C17.3118528,52.9807464 16.2316368,51.9005304 16.2316368,50.5679544 C16.2316368,49.2353784 17.3118528,48.1550904 18.6444288,48.1550904 C19.9770048,48.1550904 21.0572928,49.2353784 21.0572928,50.5679544" id="Fill-27" fill="#16565C" mask="url(#mask-2)"></path>
                <path d="M36.3942432,37.1802384 C36.3942432,38.6774064 35.1806112,39.8910384 33.6834432,39.8910384 C32.1862752,39.8910384 30.9726432,38.6774064 30.9726432,37.1802384 C30.9726432,35.6831424 32.1862752,34.4694384 33.6834432,34.4694384 C35.1806112,34.4694384 36.3942432,35.6831424 36.3942432,37.1802384" id="Fill-28" fill="#775596" mask="url(#mask-2)"></path>
                <path d="M30.332916,36.909396 C30.332916,37.8153 29.598516,38.5497 28.692612,38.5497 C27.786708,38.5497 27.052308,37.8153 27.052308,36.909396 C27.052308,36.003492 27.786708,35.269092 28.692612,35.269092 C29.598516,35.269092 30.332916,36.003492 30.332916,36.909396" id="Fill-29" fill="#66276F" mask="url(#mask-2)"></path>
                <path d="M20.5775136,45.5792832 C20.5775136,46.5756912 19.7697456,47.3833872 18.7734096,47.3833872 C17.7770016,47.3833872 16.9693056,46.5756912 16.9693056,45.5792832 C16.9693056,44.5829472 17.7770016,43.7751792 18.7734096,43.7751792 C19.7697456,43.7751792 20.5775136,44.5829472 20.5775136,45.5792832" id="Fill-30" fill="#259082" mask="url(#mask-2)"></path>
                <path d="M28.813644,26.1880056 C28.813644,26.9935416 28.160748,27.6464376 27.355284,27.6464376 C26.54982,27.6464376 25.896852,26.9935416 25.896852,26.1880056 C25.896852,25.3825416 26.54982,24.7296456 27.355284,24.7296456 C28.160748,24.7296456 28.813644,25.3825416 28.813644,26.1880056" id="Fill-31" fill="#702C52" mask="url(#mask-2)"></path>
                <path d="M7.6835736,46.0240056 C7.6835736,46.6753896 7.1555256,47.2034376 6.5041416,47.2034376 C5.8527576,47.2034376 5.3247096,46.6753896 5.3247096,46.0240056 C5.3247096,45.3726216 5.8527576,44.8445736 6.5041416,44.8445736 C7.1555256,44.8445736 7.6835736,45.3726216 7.6835736,46.0240056" id="Fill-32" fill="#736B3E" mask="url(#mask-2)"></path>
                <path d="M32.4163512,46.186992 C32.4163512,45.371664 31.7553912,44.710704 30.9401352,44.710704 C30.1247352,44.710704 29.4638472,45.371664 29.4638472,46.186992 C29.4638472,47.00232 30.1247352,47.66328 30.9401352,47.66328 C31.7553912,47.66328 32.4163512,47.00232 32.4163512,46.186992" id="Fill-33" fill="#488186" mask="url(#mask-2)"></path>
                <path d="M33.897096,44.1868824 C33.897096,43.8072264 33.589296,43.4993544 33.209568,43.4993544 C32.82984,43.4993544 32.52204,43.8072264 32.52204,44.1868824 C32.52204,44.5665384 32.82984,44.8744104 33.209568,44.8744104 C33.589296,44.8744104 33.897096,44.5665384 33.897096,44.1868824" id="Fill-34" fill="#25758E" mask="url(#mask-2)"></path>
                <path d="M35.6728392,29.6911872 C35.6728392,29.1166992 35.2072152,28.6511472 34.6327992,28.6511472 C34.0583832,28.6511472 33.5926872,29.1166992 33.5926872,29.6911872 C33.5926872,30.2656752 34.0583832,30.7312272 34.6327992,30.7312272 C35.2072152,30.7312272 35.6728392,30.2656752 35.6728392,29.6911872" id="Fill-35" fill="#E82545" mask="url(#mask-2)"></path>
                <path d="M33.9366456,28.0858104 C34.2310536,27.9503064 34.3599336,27.6018264 34.2244296,27.3074184 C34.0889256,27.0130104 33.7404456,26.8842024 33.4460376,27.0195624 C33.1516296,27.1550664 33.0227496,27.5035464 33.1582536,27.7980264 C33.2936856,28.0924344 33.6422376,28.2213144 33.9366456,28.0858104" id="Fill-36" fill="#CB206E" mask="url(#mask-2)"></path>
                <path d="M7.9518888,42.145848 C7.9518888,40.931424 6.9674328,39.946896 5.7529368,39.946896 C4.5384408,39.946896 3.5539848,40.931424 3.5539848,42.145848 C3.5539848,43.360272 4.5384408,44.3448 5.7529368,44.3448 C6.9674328,44.3448 7.9518888,43.360272 7.9518888,42.145848" id="Fill-37" fill="#6D863E" mask="url(#mask-2)"></path>
                <path d="M36.4702176,32.7861288 C36.4702176,32.1769368 35.9763696,31.6830168 35.3670336,31.6830168 C34.7578416,31.6830168 34.2639216,32.1769368 34.2639216,32.7861288 C34.2639216,33.3953928 34.7578416,33.8893128 35.3670336,33.8893128 C35.9763696,33.8893128 36.4702176,33.3953928 36.4702176,32.7861288" id="Fill-38" fill="#725477" mask="url(#mask-2)"></path>
                <path d="M29.2134384,21.9474216 C29.2134384,20.7286056 28.2253824,19.7405496 27.0065664,19.7405496 C25.7877504,19.7405496 24.7996944,20.7286056 24.7996944,21.9474216 C24.7996944,23.1662376 25.7877504,24.1543656 27.0065664,24.1543656 C28.2253824,24.1543656 29.2134384,23.1662376 29.2134384,21.9474216" id="Fill-39" fill="#E72E8E" mask="url(#mask-2)"></path>
                <path d="M4.0227192,39.4381872 C4.0227192,38.8497312 3.5457192,38.3728032 2.9574072,38.3728032 C2.3690232,38.3728032 1.8920232,38.8497312 1.8920232,39.4381872 C1.8920232,40.0265712 2.3690232,40.5034992 2.9574072,40.5034992 C3.5457192,40.5034992 4.0227192,40.0265712 4.0227192,39.4381872" id="Fill-40" fill="#6E7040" mask="url(#mask-2)"></path>
                <path d="M31.9660632,41.921064 C31.9660632,40.648752 30.9345912,39.617352 29.6622792,39.617352 C28.3899672,39.617352 27.3584952,40.648752 27.3584952,41.921064 C27.3584952,43.193448 28.3899672,44.224848 29.6622792,44.224848 C30.9345912,44.224848 31.9660632,43.193448 31.9660632,41.921064" id="Fill-41" fill="#597F99" mask="url(#mask-2)"></path>
                <path d="M32.9059656,25.215588 C32.9059656,24.144948 32.0380776,23.276988 30.9674376,23.276988 C29.8967976,23.276988 29.0288376,24.144948 29.0288376,25.215588 C29.0288376,26.286228 29.8967976,27.154188 30.9674376,27.154188 C32.0380776,27.154188 32.9059656,26.286228 32.9059656,25.215588" id="Fill-42" fill="#9E215D" mask="url(#mask-2)"></path>
                <path d="M23.8733424,13.1347008 C23.8733424,12.3591168 23.2446384,11.7303408 22.4689824,11.7303408 C21.6933984,11.7303408 21.0646224,12.3591168 21.0646224,13.1347008 C21.0646224,13.9102848 21.6933984,14.5390608 22.4689824,14.5390608 C23.2446384,14.5390608 23.8733424,13.9102848 23.8733424,13.1347008" id="Fill-43" fill="#B63157" mask="url(#mask-2)"></path>
                <path d="M20.2684896,5.2077384 C20.2684896,4.5124344 19.7048016,3.9488184 19.0094976,3.9488184 C18.3141936,3.9488184 17.7505056,4.5124344 17.7505056,5.2077384 C17.7505056,5.9030424 18.3141936,6.4667304 19.0094976,6.4667304 C19.7048016,6.4667304 20.2684896,5.9030424 20.2684896,5.2077384" id="Fill-44" fill="#B3394B" mask="url(#mask-2)"></path>
                <path d="M21.652596,8.9691408 C21.652596,8.3593728 21.158244,7.8650928 20.548476,7.8650928 C19.938708,7.8650928 19.444428,8.3593728 19.444428,8.9691408 C19.444428,9.5789088 19.938708,10.0732608 20.548476,10.0732608 C21.158244,10.0732608 21.652596,9.5789088 21.652596,8.9691408" id="Fill-45" fill="#B3394B" mask="url(#mask-2)"></path>
                <path d="M21.1896216,6.9025176 C21.1896216,6.5940696 20.9395656,6.3440136 20.6311176,6.3440136 C20.3226696,6.3440136 20.0726136,6.5940696 20.0726136,6.9025176 C20.0726136,7.2109656 20.3226696,7.4610216 20.6311176,7.4610216 C20.9395656,7.4610216 21.1896216,7.2109656 21.1896216,6.9025176" id="Fill-46" fill="#DD306B" mask="url(#mask-2)"></path>
                <path d="M21.5957448,11.0330928 C21.5957448,10.6902288 21.3178248,10.4122368 20.9749608,10.4122368 C20.6320968,10.4122368 20.3541048,10.6902288 20.3541048,11.0330928 C20.3541048,11.3759568 20.6320968,11.6539488 20.9749608,11.6539488 C21.3178248,11.6539488 21.5957448,11.3759568 21.5957448,11.0330928" id="Fill-47" fill="#E82545" mask="url(#mask-2)"></path>
                <path d="M20.6932464,14.067468 C20.6932464,13.58478 20.3019264,13.19346 19.8192384,13.19346 C19.3365504,13.19346 18.9452304,13.58478 18.9452304,14.067468 C18.9452304,14.550156 19.3365504,14.941476 19.8192384,14.941476 C20.3019264,14.941476 20.6932464,14.550156 20.6932464,14.067468" id="Fill-48" fill="#DD306B" mask="url(#mask-2)"></path>
                <path d="M19.7576712,0.4231872 C19.7576712,0.1894032 19.5681672,-2.88e-05 19.3344552,-2.88e-05 C19.1006712,-2.88e-05 18.9112392,0.1894032 18.9112392,0.4231872 C18.9112392,0.6569712 19.1006712,0.8464032 19.3344552,0.8464032 C19.5681672,0.8464032 19.7576712,0.6569712 19.7576712,0.4231872" id="Fill-49" fill="#E8284A" mask="url(#mask-2)"></path>
                <path d="M35.2809504,41.7223584 C35.2809504,41.0026464 34.6975344,40.4192304 33.9778224,40.4192304 C33.2581824,40.4192304 32.6746944,41.0026464 32.6746944,41.7223584 C32.6746944,42.4419984 33.2581824,43.0254864 33.9778224,43.0254864 C34.6975344,43.0254864 35.2809504,42.4419984 35.2809504,41.7223584" id="Fill-50" fill="#72809E" mask="url(#mask-2)"></path>
                <path d="M28.9577448,47.2434336 C28.9577448,49.3963056 27.2124648,51.1416576 25.0595208,51.1416576 C22.9066488,51.1416576 21.1613688,49.3963056 21.1613688,47.2434336 C21.1613688,45.0905616 22.9066488,43.3452816 25.0595208,43.3452816 C27.2124648,43.3452816 28.9577448,45.0905616 28.9577448,47.2434336" id="Fill-51" fill="#009290" mask="url(#mask-2)"></path>
                <text id="WATERDRIP" mask="url(#mask-2)" font-family="CenturyGothic-Bold, Century Gothic" font-size="6.5715408" font-weight="bold" letter-spacing="0.00215999989" fill="#333333">
                    <tspan x="0" y="63.0757232">WATERDRIP</tspan>
                </text>
            </g>
        </g>
    </g>
</svg>