<?xml version="1.0" encoding="UTF-8"?>
<svg width="86px" height="86px" viewBox="0 0 86 86" version="1.1" xmlns="http://www.w3.org/2000/svg" xmlns:xlink="http://www.w3.org/1999/xlink">
    <!-- Generator: Sketch 59.1 (86144) - https://sketch.com -->
    <title>编组 25备份</title>
    <desc>Created with Sketch.</desc>
    <defs>
        <polygon id="path-1" points="0 0.00729384615 55.6947569 0.00729384615 55.6947569 10.5769231 0 10.5769231"></polygon>
    </defs>
    <g id="首页" stroke="none" stroke-width="1" fill="none" fill-rule="evenodd">
        <g id="首页-绿色定稿备份" transform="translate(-1018.000000, -1942.000000)">
            <rect id="矩形" fill="#FFFFFF" x="0" y="77" width="1440" height="2594"></rect>
            <g id="编组-11" opacity="0.56468564" transform="translate(478.000000, 1636.000000)" fill="#FFFFFF">
                <g id="编组-2" opacity="0.982445126">
                    <path d="M453.088474,266.814185 C452.461479,266.780047 451.834484,266.72884 451.224435,266.677633 C450.512711,266.626427 449.800987,266.558151 449.106209,266.472806 C448.445323,266.421599 447.784436,266.336254 447.106604,266.250909 C446.208476,266.114357 445.293403,265.960737 444.378329,265.790047 C443.531039,265.636426 442.666802,265.448668 441.802566,265.260909 C441.175571,265.107288 440.531631,264.970736 439.88769,264.800047 C439.209858,264.629357 438.532025,264.441598 437.854193,264.25384 C437.125523,264.031943 436.396854,263.792978 435.668184,263.554012 C434.668381,263.229702 433.668579,262.871253 432.702668,262.495736 C432.092619,262.25677 431.499515,262.017805 430.889466,261.778839 C430.211634,261.488667 429.550748,261.198494 428.889861,260.891253 C428.24592,260.60108 427.60198,260.27677 426.958039,259.952459 C425.975182,259.457459 425.009271,258.94539 424.04336,258.399183 C423.467203,258.074873 422.8741,257.733493 422.297942,257.375045 C421.670947,256.999528 421.060898,256.606941 420.450849,256.214355 C419.823854,255.8047 419.196859,255.377975 418.569864,254.934182 C417.722574,254.336768 416.875284,253.688147 416.027993,253.056596 C415.43489,252.578664 414.824841,252.100733 414.231738,251.605733 C413.706418,251.16194 413.181098,250.701078 412.638832,250.223147 C412.011837,249.659871 411.384842,249.062457 410.774793,248.465043 C410.418931,248.140732 410.063069,247.816422 409.707207,247.475042 C396.879231,234.519694 390.439824,217.553139 390.439824,200.586583 C390.439824,183.602958 396.862285,166.636402 409.707207,153.698123 C410.063069,153.356743 410.401985,153.032433 410.757847,152.691053 C411.384842,152.09364 411.994891,151.513295 412.638832,150.93295 C413.181098,150.472087 413.706418,150.011225 414.231738,149.567432 C414.824841,149.072432 415.417944,148.594501 416.027993,148.11657 C416.858338,147.467949 417.705628,146.836397 418.569864,146.238983 C419.179914,145.79519 419.806908,145.368465 420.433903,144.941741 C421.043952,144.549155 421.670947,144.156569 422.280996,143.781051 C422.8741,143.422603 423.450257,143.098292 424.04336,142.756913 C425.009271,142.227775 425.975182,141.698637 426.958039,141.220706 C427.60198,140.896395 428.24592,140.572085 428.889861,140.264843 C429.550748,139.957602 430.211634,139.66743 430.872521,139.394326 C431.499515,139.138291 432.092619,138.899326 432.685722,138.677429 C433.668579,138.301912 434.668381,137.943464 435.668184,137.602084 C436.396854,137.380188 437.108578,137.124153 437.837247,136.919325 C438.51508,136.714498 439.192912,136.543808 439.88769,136.356049 C440.514685,136.202429 441.158626,136.048808 441.802566,135.912256 C442.649857,135.707429 443.514093,135.536739 444.344437,135.366049 C445.276457,135.212428 446.19153,135.041739 447.106604,134.922256 C447.76749,134.819842 448.428377,134.751566 449.089263,134.68329 C449.800987,134.597946 450.512711,134.52967 451.207489,134.478463 C451.834484,134.444325 452.461479,134.376049 453.071528,134.341911 C454.223843,134.290704 455.393104,134.273635 456.545419,134.273635 C457.155468,134.273635 457.765517,134.290704 458.375566,134.324842 C459.155073,134.341911 459.93458,134.393118 460.714087,134.444325 C461.273299,134.478463 461.866402,134.512601 462.44256,134.563808 C463.61182,134.666221 464.798027,134.819842 466.001179,134.990532 C466.543445,135.075877 467.085711,135.17829 467.627977,135.263635 C468.458321,135.417256 469.288666,135.587946 470.11901,135.758635 C470.64433,135.878118 471.16965,135.980532 471.69497,136.100015 C472.881177,136.390187 474.067383,136.714498 475.270536,137.072946 C475.745018,137.226567 476.219501,137.380188 476.710929,137.550877 C477.55822,137.823981 478.40551,138.114153 479.269746,138.438464 C487.861271,141.664499 495.927475,146.733983 502.841364,153.698123 L549.391497,200.569514 L502.85831,247.457974 C495.927475,254.422113 487.878216,259.491597 479.269746,262.717632 C478.422456,263.024874 477.55822,263.332115 476.710929,263.622288 C476.219501,263.775909 475.745018,263.946598 475.270536,264.08315 C474.084329,264.441598 472.898123,264.765909 471.69497,265.039012 C471.16965,265.175564 470.64433,265.277978 470.135956,265.397461 C469.305612,265.56815 468.458321,265.73884 467.627977,265.892461 C467.085711,265.977806 466.543445,266.08022 466.001179,266.165564 C464.814973,266.336254 463.628766,266.489875 462.44256,266.592289 C461.866402,266.660564 461.290245,266.694702 460.714087,266.72884 C459.93458,266.780047 459.172019,266.814185 458.392512,266.831254 C457.782463,266.865392 457.172414,266.882461 456.562364,266.882461 C455.41005,266.882461 454.240789,266.865392 453.088474,266.814185 M763.914826,134.341911 C764.524875,134.376049 765.15187,134.427256 765.795811,134.478463 C766.490589,134.546739 767.202313,134.597946 767.914037,134.68329 C768.574923,134.751566 769.23581,134.819842 769.879751,134.905187 C770.794824,135.041739 771.709898,135.212428 772.641917,135.366049 C773.489207,135.536739 774.336498,135.707429 775.183788,135.895187 C775.827729,136.048808 776.47167,136.202429 777.11561,136.356049 C777.810388,136.543808 778.488221,136.714498 779.166053,136.919325 C779.894723,137.124153 780.623392,137.363119 781.335116,137.602084 C782.317973,137.943464 783.317776,138.284843 784.300633,138.677429 C784.893736,138.899326 785.520731,139.138291 786.113834,139.394326 C786.77472,139.66743 787.435607,139.957602 788.096493,140.264843 C788.75738,140.572085 789.384375,140.879326 790.028315,141.203637 C791.028118,141.698637 791.977083,142.210706 792.942994,142.756913 C793.536098,143.081223 794.129201,143.439672 794.722304,143.79812 C795.332353,144.156569 795.942402,144.549155 796.552451,144.941741 C797.179446,145.351396 797.806441,145.79519 798.41649,146.238983 C799.280726,146.836397 800.128017,147.467949 800.958361,148.099501 C801.56841,148.577432 802.161513,149.055363 802.754617,149.550363 C803.296883,150.011225 803.839148,150.472087 804.347523,150.93295 C804.991463,151.496226 805.601512,152.09364 806.228507,152.691053 C806.584369,153.032433 806.923285,153.356743 807.279147,153.698123 C820.141015,166.636402 826.54653,183.602958 826.563476,200.586583 C826.54653,217.553139 820.141015,234.519694 807.279147,247.457974 C806.940231,247.816422 806.584369,248.123663 806.228507,248.465043 C805.618458,249.062457 804.991463,249.659871 804.364468,250.223147 C803.839148,250.684009 803.296883,251.144871 802.771563,251.588664 C802.178459,252.100733 801.56841,252.578664 800.975307,253.039527 C800.128017,253.688147 799.280726,254.319699 798.433436,254.917113 C797.806441,255.360907 797.179446,255.8047 796.552451,256.214355 C795.942402,256.606941 795.332353,256.999528 794.722304,257.375045 C794.129201,257.733493 793.536098,258.057804 792.95994,258.399183 C791.994029,258.94539 791.028118,259.457459 790.045261,259.952459 C789.401321,260.27677 788.75738,260.60108 788.113439,260.891253 C787.452553,261.198494 786.77472,261.488667 786.113834,261.778839 C785.520731,262.017805 784.910682,262.25677 784.300633,262.495736 C783.334722,262.871253 782.334919,263.229702 781.352062,263.554012 C780.623392,263.792978 779.894723,264.031943 779.166053,264.236771 C778.488221,264.441598 777.810388,264.629357 777.11561,264.800047 C776.47167,264.970736 775.844675,265.107288 775.200734,265.260909 C774.336498,265.448668 773.489207,265.636426 772.624971,265.790047 C771.709898,265.960737 770.794824,266.114357 769.896696,266.250909 C769.23581,266.336254 768.574923,266.421599 767.914037,266.472806 C767.219259,266.558151 766.507535,266.626427 765.795811,266.677633 C765.168816,266.72884 764.541821,266.780047 763.914826,266.814185 C762.762511,266.865392 761.593251,266.882461 760.440936,266.882461 C759.830887,266.882461 759.220838,266.865392 758.610789,266.831254 C757.831282,266.814185 757.06872,266.780047 756.289213,266.72884 C755.713056,266.694702 755.153844,266.660564 754.560741,266.592289 C753.374534,266.489875 752.188328,266.336254 751.002121,266.165564 C750.459855,266.08022 749.91759,265.977806 749.375324,265.892461 C748.544979,265.73884 747.697689,265.585219 746.867344,265.397461 C746.35897,265.295047 745.83365,265.175564 745.325276,265.056081 C744.105178,264.765909 742.918971,264.441598 741.74971,264.08315 C741.258282,263.946598 740.783799,263.775909 740.309317,263.622288 C739.445081,263.332115 738.580844,263.041943 737.733554,262.717632 C729.125084,259.491597 721.075825,254.422113 714.161936,247.475042 L667.611803,200.586583 L714.161936,153.698123 C721.05888,146.733983 729.125084,141.664499 737.716608,138.455533 C738.580844,138.131222 739.428135,137.823981 740.292371,137.550877 C740.766854,137.397257 741.241336,137.226567 741.732765,137.072946 C742.918971,136.714498 744.105178,136.390187 745.30833,136.117084 C745.83365,135.980532 746.342024,135.878118 746.867344,135.758635 C747.697689,135.587946 748.528033,135.417256 749.358378,135.263635 C749.900644,135.17829 750.44291,135.075877 750.985175,134.990532 C752.188328,134.819842 753.374534,134.666221 754.560741,134.563808 C755.136898,134.512601 755.713056,134.478463 756.272267,134.444325 C757.051774,134.393118 757.831282,134.341911 758.610789,134.324842 C759.220838,134.290704 759.830887,134.273635 760.440936,134.273635 C761.593251,134.273635 762.762511,134.290704 763.914826,134.341911 M464.90727,350.659489 C466.238666,350.574361 467.58713,350.506259 468.918525,350.38708 C470.04509,350.284926 471.154586,350.148722 472.281151,350.012517 C473.390647,349.893338 474.500143,349.774159 475.643777,349.620929 C476.838619,349.450673 478.05053,349.263392 479.245372,349.076111 C480.252453,348.905855 481.276603,348.7356 482.300753,348.565344 C483.546802,348.326986 484.809921,348.071602 486.05597,347.816219 C486.994774,347.628938 487.933579,347.424631 488.838245,347.220324 C490.152571,346.913864 491.483966,346.607404 492.798292,346.266892 C493.634681,346.04556 494.436932,345.824228 495.273321,345.602895 C496.655924,345.211307 498.055596,344.819719 499.438198,344.411106 C500.120965,344.206799 500.769593,343.985466 501.418222,343.764134 C502.954447,343.287418 504.473603,342.776651 505.992759,342.248859 C506.197589,342.180756 506.402419,342.095628 506.607249,342.010501 C512.393697,339.916356 518.094799,337.464674 523.642279,334.63843 C523.795902,334.553302 523.949524,334.4852 524.103147,334.417098 C525.707649,333.582845 527.278012,332.714541 528.865445,331.829212 C529.292174,331.590854 529.735972,331.352496 530.162702,331.114138 C531.647719,330.262859 533.115668,329.360504 534.583616,328.458149 C535.078622,328.151689 535.590697,327.828203 536.085703,327.521743 C537.502444,326.619388 538.919185,325.682982 540.318857,324.712525 C540.574894,324.542269 540.813863,324.389039 541.0699,324.218783 L541.052831,324.201758 C548.290158,319.196241 555.186102,313.509702 561.621179,307.091063 L568.670746,300.059504 L608.493116,260.32183 L654.528663,306.222759 L655.382121,307.074037 C661.834267,313.509702 668.730211,319.179215 675.950469,324.201758 L675.9334,324.218783 C676.189438,324.389039 676.445475,324.542269 676.684444,324.712525 C678.084115,325.665956 679.500856,326.602363 680.934667,327.504718 C681.429672,327.828203 681.941747,328.134664 682.436753,328.458149 C683.887633,329.360504 685.37265,330.245834 686.857668,331.097112 C687.267328,331.352496 687.711126,331.573828 688.137856,331.812186 C689.725288,332.697515 691.312721,333.565819 692.917223,334.400072 C693.053776,334.4852 693.224468,334.536277 693.37809,334.621405 C698.92557,337.447649 704.609603,339.916356 710.41312,341.993475 C710.61795,342.078603 710.805711,342.163731 711.010541,342.231833 C712.529697,342.776651 714.065923,343.270393 715.602148,343.764134 C716.267845,343.968441 716.916474,344.189773 717.582171,344.39408 C718.964774,344.819719 720.347377,345.194282 721.747048,345.58587 C722.566368,345.807202 723.402758,346.04556 724.205009,346.249867 C725.536404,346.590378 726.85073,346.896838 728.165056,347.203299 C729.10386,347.407605 730.008526,347.611912 730.94733,347.799193 C732.210449,348.071602 733.456498,348.30996 734.736686,348.548318 C735.743766,348.7356 736.767917,348.88883 737.774998,349.059085 C738.986908,349.246367 740.18175,349.433648 741.376592,349.603904 C742.503157,349.757134 743.629722,349.876313 744.756287,350.012517 C745.865783,350.131696 746.95821,350.267901 748.084775,350.370054 C749.43324,350.489233 750.764635,350.557335 752.113099,350.642463 C753.017765,350.710565 753.9395,350.795693 754.827097,350.829744 C757.080227,350.931898 759.350426,350.982974 761.603557,350.982974 C761.927871,350.982974 762.269254,350.965949 762.593568,350.965949 C764.573592,350.948923 766.536546,350.914872 768.51657,350.829744 C769.165198,350.795693 769.796758,350.744616 770.445386,350.710565 C772.118164,350.608412 773.790943,350.506259 775.429583,350.353028 C776.146488,350.284926 776.846324,350.199798 777.563229,350.131696 C779.167731,349.96144 780.789302,349.774159 782.393804,349.552827 C783.09364,349.450673 783.793476,349.34852 784.493312,349.246367 C786.114883,348.990983 787.736454,348.718574 789.375094,348.412114 C790.023722,348.292935 790.672351,348.173756 791.30391,348.037551 C793.027896,347.69704 794.717743,347.322478 796.44173,346.930889 C796.970874,346.794685 797.517087,346.675506 798.08037,346.539301 C799.957978,346.079611 801.835587,345.551819 803.713195,345.024026 C804.054579,344.921873 804.413031,344.819719 804.737345,344.734591 C813.869351,342.010501 822.813595,338.418106 831.399387,333.923356 C831.604217,333.821203 831.826116,333.684998 832.065084,333.565819 C833.942693,332.578337 835.803232,331.539777 837.663771,330.450141 C837.988086,330.262859 838.329469,330.058553 838.653783,329.871271 C840.394838,328.832712 842.135893,327.743076 843.84281,326.619388 C844.201263,326.398056 844.559715,326.159698 844.918168,325.938365 C846.608016,324.797652 848.314932,323.605863 849.987711,322.397047 C850.294956,322.175715 850.602201,321.954383 850.909446,321.73305 C852.68464,320.422082 854.425695,319.077062 856.149681,317.680965 C856.337442,317.527735 856.525202,317.391531 856.712963,317.238301 C860.587665,314.071545 864.359951,310.700483 867.978615,307.091063 C897.337584,277.807088 912,239.43146 912,201.055832 C912,162.680204 897.320515,124.304576 867.961545,95.0206004 C864.342882,91.4111802 860.587665,88.0401179 856.695894,84.890388 C856.508133,84.7371579 856.320372,84.5839278 856.132612,84.4477233 C854.408626,83.0516268 852.66757,81.706607 850.892377,80.3956384 C850.602201,80.174306 850.277887,79.9529736 849.970642,79.7316413 C848.297863,78.5058004 846.590946,77.3310363 844.901099,76.1903233 C844.542646,75.9689909 844.201263,75.730633 843.825741,75.5093006 C842.118824,74.3856132 840.377769,73.2959769 838.653783,72.2574173 C838.3124,72.0701361 837.971016,71.8658293 837.646702,71.6785481 C835.803232,70.5889118 833.925623,69.5503522 832.048015,68.5458437 C831.826116,68.4436903 831.587147,68.3074858 831.382317,68.1883068 C822.796526,63.7105827 813.869351,60.1181881 804.720276,57.3940974 C804.395962,57.291944 804.037509,57.2068161 803.696126,57.1046627 C801.818518,56.5598446 799.940909,56.0661031 798.063301,55.5893873 C797.500018,55.4531827 796.953805,55.3340038 796.42466,55.1977992 C794.700674,54.8062112 793.010827,54.4316487 791.286841,54.0911374 C790.655281,53.9549328 790.006653,53.8357539 789.358025,53.7165749 C787.719384,53.4101147 786.097813,53.1377056 784.476242,52.8993477 C783.776407,52.7801687 783.076571,52.6780153 782.376735,52.5758619 C780.772233,52.3545295 779.150662,52.1842739 777.54616,51.9969926 C776.829255,51.9288904 776.129419,51.8437625 775.412514,51.7926858 C773.773874,51.6224302 772.101095,51.5202768 770.428317,51.4351489 C769.779688,51.3840722 769.148129,51.3329955 768.499501,51.2989444 C766.519477,51.2138166 764.556523,51.1627399 762.576499,51.1627399 C762.252185,51.1627399 761.910802,51.1457143 761.586488,51.1457143 C759.333357,51.1457143 757.063158,51.196791 754.810028,51.2989444 C753.922431,51.3500211 753.000696,51.4351489 752.09603,51.4862256 C750.747566,51.5713535 749.41617,51.6564813 748.067706,51.7756603 C746.941141,51.8607881 745.848714,52.0140182 744.739218,52.1331972 C743.612653,52.2523761 742.486088,52.3885807 741.359523,52.5418108 C740.164681,52.6950409 738.969839,52.8993477 737.757928,53.0866289 C736.750847,53.239859 735.726697,53.4101147 734.719616,53.5973959 C733.439429,53.8187283 732.193379,54.0741118 730.930261,54.3294953 C729.991457,54.5167765 729.086791,54.7210834 728.147986,54.9424157 C726.833661,55.2318504 725.519335,55.5553361 724.187939,55.8788219 C723.385688,56.1001543 722.549299,56.3214866 721.729979,56.542819 C720.330307,56.9344071 718.947705,57.3259951 717.565102,57.7516343 C716.899404,57.9389155 716.250776,58.1772734 715.585079,58.3815803 C714.048853,58.8753217 712.529697,59.3690631 711.010541,59.9138813 C710.788642,59.9819836 710.600881,60.0500858 710.396051,60.1352137 C704.592534,62.2293584 698.908501,64.68104 693.361021,67.5072842 C693.207399,67.592412 693.053776,67.6605143 692.900154,67.7456421 C691.295652,68.5628693 689.708219,69.4311732 688.120786,70.3165027 C687.694057,70.5718862 687.250259,70.7932186 686.840599,71.0315765 C685.355581,71.8998804 683.870564,72.7852099 682.419684,73.687565 C681.924678,74.0110507 681.429672,74.317511 680.917597,74.6239712 C679.483787,75.5433518 678.084115,76.479758 676.684444,77.4331897 C676.445475,77.6034454 676.172369,77.7566755 675.916331,77.9269312 L675.9334,77.9439567 C668.713142,82.966499 661.817198,88.6360128 655.382121,95.0716771 L654.511594,95.9059299 L608.493116,141.84091 L568.653676,102.103236 L561.60411,95.0716771 C555.169033,88.6530384 548.273089,82.966499 541.035762,77.9609823 L541.052831,77.9439567 C540.796793,77.7566755 540.557825,77.6204709 540.301788,77.4331897 C538.902116,76.479758 537.485375,75.5433518 536.068634,74.6409967 C535.573628,74.317511 535.061553,74.0110507 534.566547,73.7045905 C533.098598,72.7852099 531.63065,71.8998804 530.145632,71.0486021 C529.718903,70.8102442 529.275105,70.5718862 528.865445,70.3335283 C527.278012,69.4481988 525.690579,68.5798949 524.086078,67.7456421 C523.932455,67.6775398 523.778833,67.6094376 523.62521,67.5243097 C518.07773,64.6980656 512.393697,62.2293584 506.59018,60.1522392 C506.402419,60.0671114 506.18052,59.9990091 505.97569,59.9138813 C504.456534,59.3690631 502.937378,58.8923473 501.418222,58.3986058 C500.752524,58.1772734 500.103896,57.9559411 499.421129,57.7516343 C498.038526,57.3259951 496.638855,56.9514326 495.256252,56.5598446 C494.419863,56.3385122 493.617612,56.1001543 492.781223,55.8958475 C491.466897,55.5553361 490.152571,55.2488759 488.821175,54.9594413 C487.91651,54.7381089 486.977705,54.5338021 486.038901,54.3465209 C484.792852,54.0741118 483.529733,53.8357539 482.283684,53.6144215 C481.259534,53.4271403 480.235384,53.2568846 479.228303,53.0866289 C478.033461,52.8993477 476.82155,52.7120664 475.626708,52.5588363 C474.500143,52.4056062 473.373578,52.2694017 472.264082,52.1502227 C471.137517,52.0140182 470.028021,51.8778137 468.901456,51.7926858 C467.570061,51.6735069 466.221596,51.588379 464.890201,51.5032512 C463.968466,51.4521745 463.080869,51.3670467 462.159134,51.31597 C459.906004,51.2138166 457.652874,51.1627399 455.399744,51.1627399 C455.075429,51.1627399 454.734046,51.1797654 454.409732,51.1797654 C452.446778,51.196791 450.449685,51.2308421 448.48673,51.31597 C447.838102,51.3500211 447.189474,51.4010978 446.540845,51.4521745 C444.868067,51.5373023 443.212357,51.6564813 441.556648,51.8097114 C440.856812,51.8607881 440.139907,51.9459159 439.440071,52.0310438 C437.8185,52.2012994 436.213998,52.3715551 434.626566,52.5928875 C433.92673,52.6950409 433.226894,52.7971943 432.527058,52.9163733 C430.888418,53.1547312 429.249778,53.4271403 427.628207,53.7336005 L425.682321,54.1081629 C423.975405,54.4486743 422.268488,54.8232368 420.561571,55.2148248 C420.015357,55.3510293 419.486213,55.4702083 418.94,55.6064128 C417.045322,56.0831287 415.167714,56.5938957 413.290105,57.1387139 C412.948722,57.2238417 412.607338,57.3259951 412.248886,57.4281485 C403.116881,60.1352137 394.189706,63.7446339 385.603914,68.222358 C385.382015,68.3415369 385.160115,68.4607159 384.938216,68.5798949 C383.060608,69.5844033 381.182999,70.6229629 379.32246,71.6955736 C378.998146,71.8828549 378.673831,72.0871617 378.349517,72.2914685 C376.591393,73.3300281 374.867407,74.4026388 373.143421,75.5263262 C372.802037,75.7476586 372.443585,75.9860165 372.102202,76.2243745 C370.378216,77.3650874 368.688368,78.5398516 367.032659,79.7486668 C366.708344,79.9699992 366.401099,80.1913316 366.093854,80.4296895 C364.318661,81.7236326 362.577606,83.0686524 360.85362,84.4647489 C360.665859,84.617979 360.478098,84.7712091 360.290337,84.9074136 C356.415636,88.0741691 352.64335,91.4452313 349.024686,95.0546515 C319.665716,124.338627 305.0033,162.714255 305.0033,201.089883 C305.0033,239.465511 319.665716,277.841139 349.041755,307.125114 C352.660419,310.734534 356.432705,314.105596 360.307406,317.255326 L360.85362,317.715017 C362.594675,319.094087 364.318661,320.439107 366.093854,321.750076 C366.401099,321.988434 366.725413,322.192741 367.032659,322.431099 C368.705437,323.639914 370.395285,324.814678 372.102202,325.955391 C372.460654,326.193749 372.802037,326.415081 373.16049,326.653439 C374.884476,327.777127 376.608462,328.849737 378.366586,329.888297 C378.690901,330.092604 379.015215,330.279885 379.339529,330.484192 C381.200068,331.556803 383.060608,332.595362 384.955285,333.599871 C385.177185,333.71905 385.399084,333.838228 385.603914,333.957407 C394.206775,338.435132 403.13395,342.027526 412.265955,344.751617 C412.624407,344.85377 412.948722,344.938898 413.307174,345.041052 C415.184783,345.58587 417.062391,346.096637 418.957069,346.573353 C419.503282,346.692532 420.032427,346.828736 420.57864,346.947915 C422.285557,347.339503 423.992474,347.714066 425.699391,348.054577 C426.348019,348.190781 426.996647,348.326986 427.645276,348.429139 C429.266847,348.7356 430.905487,349.008009 432.544127,349.263392 C433.243963,349.365546 433.943799,349.467699 434.643635,349.569852 C436.231067,349.791185 437.835569,349.978466 439.45714,350.148722 C440.156976,350.216824 440.873881,350.301952 441.573717,350.370054 C443.229427,350.523284 444.885136,350.625438 446.557914,350.727591 C447.206543,350.761642 447.855171,350.812719 448.5038,350.84677 C450.466754,350.931898 452.463847,350.982974 454.426801,350.982974 C454.751115,350.982974 455.092499,351 455.416813,351 C457.669943,351 459.923073,350.948923 462.176204,350.84677 C463.097939,350.812719 463.985535,350.727591 464.90727,350.659489" id="Fill-2"></path>
                </g>
            </g>
            <g id="编组-25备份" transform="translate(1018.000000, 1942.000000)">
                <rect id="矩形备份-15" stroke="#E7E7E7" x="0.5" y="0.5" width="85" height="85" rx="42.5"></rect>
                <g id="编组" transform="translate(15.500000, 18.000000)">
                    <g transform="translate(0.500000, 31.000000)">
                        <mask id="mask-2" fill="white">
                            <use xlink:href="#path-1"></use>
                        </mask>
                        <g id="Clip-2"></g>
                        <path d="M28.1021354,7.65847077 C28.1021354,9.26777077 26.7691631,10.57694 25.1306031,10.57694 L22.5437477,10.57694 C21.0030585,10.57694 19.73272,9.41923231 19.5866031,7.94303231 L21.2470462,7.66126308 C21.2485108,8.36230154 21.8296185,8.93227077 22.5437477,8.93227077 L25.1306031,8.93227077 C25.8457662,8.93227077 26.4275631,8.36086308 26.4275631,7.65847077 C26.4275631,6.95607846 25.8457662,6.38467077 25.1306031,6.38467077 L22.5437477,6.38467077 C20.9052738,6.38467077 19.5723015,5.07550154 19.5723015,3.46628615 C19.5723015,1.85707077 20.9052738,0.547901538 22.5437477,0.547901538 L25.1306892,0.547901538 C26.6785292,0.547901538 27.9530031,1.71635538 28.0893846,3.20228615 L26.4274769,3.46535538 C26.4270462,2.76347077 25.8455077,2.19248615 25.1306892,2.19248615 L22.5437477,2.19248615 C21.8286708,2.19248615 21.2468738,2.76389385 21.2468738,3.46628615 C21.2468738,4.16867846 21.8286708,4.74008615 22.5437477,4.74008615 L25.1306031,4.74008615 C26.7691631,4.74008615 28.1021354,6.04925538 28.1021354,7.65847077 L28.1021354,7.65847077 Z M16.6414338,6.73937846 C16.6414338,7.94853231 15.6397231,8.93227077 14.4085846,8.93227077 L13.6935077,8.93227077 C12.4623692,8.93227077 11.4607446,7.94853231 11.4607446,6.73937846 L11.4607446,4.38537846 C11.4607446,3.17630923 12.4623692,2.19248615 13.6935077,2.19248615 L14.4085846,2.19248615 C15.6397231,2.19248615 16.6414338,3.17630923 16.6414338,4.38537846 L16.6414338,6.73937846 Z M14.4085846,0.547901538 L13.6935077,0.547901538 C11.5389723,0.547901538 9.78617231,2.26948615 9.78617231,4.38537846 L9.78617231,6.73937846 C9.78617231,8.85544 11.5389723,10.57694 13.6935077,10.57694 L14.4085846,10.57694 C16.56312,10.57694 18.3160062,8.85544 18.3160062,6.73937846 L18.3160062,4.38537846 C18.3160062,2.26948615 16.56312,0.547901538 14.4085846,0.547901538 L14.4085846,0.547901538 Z M8.52979077,7.65847077 C8.52979077,9.26777077 7.19690462,10.57694 5.55834462,10.57694 L2.97148923,10.57694 C1.43071385,10.57694 0.160461538,9.41923231 0.0143446154,7.94303231 L1.67470154,7.66126308 C1.67625231,8.36230154 2.25736,8.93227077 2.97148923,8.93227077 L5.55834462,8.93227077 C6.27342154,8.93227077 6.85521846,8.36086308 6.85521846,7.65847077 C6.85521846,6.95607846 6.27342154,6.38467077 5.55834462,6.38467077 L2.97148923,6.38467077 C1.33301538,6.38467077 -4.30769231e-05,5.07550154 -4.30769231e-05,3.46628615 C-4.30769231e-05,1.85707077 1.33301538,0.547901538 2.97148923,0.547901538 L5.55843077,0.547901538 C7.10618462,0.547901538 8.38074462,1.71635538 8.51712615,3.20228615 L6.85521846,3.46535538 C6.85470154,2.76347077 6.27324923,2.19248615 5.55843077,2.19248615 L2.97148923,2.19248615 C2.25641231,2.19248615 1.67452923,2.76389385 1.67452923,3.46628615 C1.67452923,4.16867846 2.25641231,4.74008615 2.97148923,4.74008615 L5.55834462,4.74008615 C7.19690462,4.74008615 8.52979077,6.04925538 8.52979077,7.65847077 L8.52979077,7.65847077 Z M55.6948,10.57694 L53.5471569,10.57694 L50.5210031,6.87577846 L48.0796615,9.86160154 C47.7079077,10.3161554 47.1543692,10.57694 46.5606831,10.57694 L42.9752185,10.57694 C41.3367446,10.57694 40.0037723,9.26777077 40.0037723,7.65855538 L40.0037723,0.385947692 L41.6783446,0.00729384615 L41.6783446,7.65855538 C41.6783446,8.36086308 42.2601415,8.93227077 42.9752185,8.93227077 L46.5606831,8.93227077 C46.64408,8.93227077 46.7217908,8.89563231 46.774,8.83174769 L49.4470954,5.56237846 L45.4709231,0.699193846 L47.6185662,0.699193846 L50.5209169,4.24897846 L53.4233538,0.699193846 L55.5710831,0.699193846 L51.5948246,5.56246308 L55.6948,10.57694 Z M36.2136923,6.73937846 C36.2136923,7.94853231 35.2119815,8.93227077 33.9808431,8.93227077 L33.2657662,8.93227077 C32.0347138,8.93227077 31.0330031,7.94853231 31.0330031,6.73937846 L31.0330031,4.38537846 C31.0330031,3.17630923 32.0347138,2.19248615 33.2657662,2.19248615 L33.9808431,2.19248615 C35.2119815,2.19248615 36.2136923,3.17630923 36.2136923,4.38537846 L36.2136923,6.73937846 Z M33.9808431,0.547901538 L33.2657662,0.547901538 C31.1112308,0.547901538 29.3584308,2.26948615 29.3584308,4.38537846 L29.3584308,6.73937846 C29.3584308,8.85544 31.1112308,10.57694 33.2657662,10.57694 L33.9808431,10.57694 C36.1354646,10.57694 37.8882646,8.85544 37.8882646,6.73937846 L37.8882646,4.38537846 C37.8882646,2.26948615 36.1354646,0.547901538 33.9808431,0.547901538 L33.9808431,0.547901538 Z" id="Fill-1" fill="#F8CB00" mask="url(#mask-2)"></path>
                    </g>
                    <path d="M40.1762218,9.83574875 C39.5856319,10.4308923 38.7954456,10.8171554 37.9175463,10.885648 C38.0189245,11.452522 38.0784532,12.0339671 38.0784532,12.6304194 C38.0784532,18.0868765 33.7330267,22.5261537 28.391839,22.5261537 C24.6761188,22.5261537 21.4440589,20.377058 19.8206412,17.2321592 L24.6837201,12.4977096 C24.9563394,12.6244863 25.2589367,12.6956837 25.5781029,12.6956837 C25.8003322,12.6956837 26.0147039,12.6613065 26.2164354,12.5977 L27.7912565,14.4421129 C27.7672571,14.5736884 27.7541898,14.709103 27.7541898,14.8477459 C27.7541898,16.0676986 28.7221936,17.0566089 29.9162699,17.0566089 C31.1103462,17.0566089 32.07835,16.0676986 32.07835,14.8477459 C32.07835,14.7827434 32.0750191,14.7185261 32.0696385,14.6548324 L37.3646209,9.39914144 C37.4547253,9.41074591 37.5462817,9.41755154 37.6394608,9.41755154 C38.8335372,9.41755154 39.8015409,8.42864123 39.8015409,7.20877577 C39.8015409,5.98891031 38.8335372,5 37.6394608,5 C36.4453845,5 35.4773808,5.98891031 35.4773808,7.20877577 C35.4773808,7.46747694 35.5213654,7.71570792 35.6013918,7.94648856 L30.7159363,12.7957613 C30.468512,12.6949856 30.1988819,12.6389701 29.9162699,12.6389701 C29.7060831,12.6389701 29.5030705,12.6702934 29.3109046,12.7274433 L27.7101198,10.8526668 C27.7295926,10.7336556 27.740183,10.6115905 27.740183,10.4869079 C27.740183,9.26704243 26.7721793,8.27813212 25.5781029,8.27813212 C24.3840266,8.27813212 23.4160229,9.26704243 23.4160229,10.4869079 C23.4160229,10.5103786 23.4170477,10.5336748 23.417731,10.5570582 L17.6091958,16.2120128 C17.5627344,16.2572964 17.5220806,16.3063319 17.4848431,16.3571123 L17.0022078,16.8270498 C17.7047664,18.8107162 18.8906436,20.5598503 20.4133663,21.9259495 C19.2508906,22.8288297 17.4312075,24.0907505 16.5767097,24.6770816 C16.4348486,24.7743672 16.5028326,25 16.6736468,25 L28.391839,25 C35.0682809,25 40.5,19.4509689 40.5,12.6304194 C40.5,11.6680336 40.3823945,10.7347899 40.1762218,9.83574875" id="Fill-3" fill="#F8CB00"></path>
                    <path d="M19.0095589,12.9091489 C18.9987486,12.7210342 18.9918934,12.5319618 18.9918934,12.3411485 C18.9918934,6.89704901 23.4635557,2.46803819 28.9599941,2.46803819 C31.4248179,2.46803819 33.6773039,3.36534834 35.4183686,4.83953806 C35.9102787,4.13556568 36.6438813,3.61248295 37.5,3.38188782 C35.267992,1.29164611 32.2669624,0 28.9599941,0 C22.089512,0 16.5,5.53611119 16.5,12.3411485 C16.5,13.2540406 16.6036202,14.143081 16.7944254,15 L19.0095589,12.9091489 Z" id="Fill-5" fill="#F8CB00"></path>
                </g>
            </g>
        </g>
    </g>
</svg>