<?xml version="1.0" encoding="UTF-8"?>
<svg width="86px" height="86px" viewBox="0 0 86 86" version="1.1" xmlns="http://www.w3.org/2000/svg" xmlns:xlink="http://www.w3.org/1999/xlink">
    <!-- Generator: Sketch 59.1 (86144) - https://sketch.com -->
    <title>编组 48</title>
    <desc>Created with Sketch.</desc>
    <defs>
        <polygon id="path-1" points="0 0.0252336 4.8383832 0.0252336 4.8383832 6.6024336 0 6.6024336"></polygon>
    </defs>
    <g id="首页" stroke="none" stroke-width="1" fill="none" fill-rule="evenodd">
        <g id="编组-48">
            <rect id="矩形备份-4" stroke="#E7E7E7" fill="#FFFFFF" x="0.5" y="0.5" width="85" height="85" rx="42.5"></rect>
            <g id="编组备份" transform="translate(11.000000, 20.000000)">
                <path d="M50.1900168,34.4147832 C50.1815328,34.4063832 50.1732168,34.3979832 50.1648168,34.3895832 C49.5768168,33.7763832 48.7535328,33.3899832 47.8380168,33.3899832 C46.0488168,33.3899832 44.5872168,34.8599832 44.5872168,36.6827832 C44.5872168,38.4972672 46.0404168,39.9755832 47.8380168,39.9755832 C48.7788168,39.9755832 49.6188168,39.5723832 50.2152168,38.9255832 C50.2152168,38.9255832 50.2235328,38.9255832 50.2235328,38.9172672 C50.0640168,38.7155832 49.2744168,37.9763832 49.2744168,37.9763832 L49.2492168,37.9763832 C48.9048168,38.3627832 48.4008168,38.6147832 47.8464168,38.6147832 C46.7964168,38.6147832 45.9395328,37.7495832 45.9395328,36.6827832 C45.9395328,35.6159832 46.7964168,34.7507832 47.8464168,34.7507832 C48.4092168,34.7507832 48.9048168,35.0027832 49.2492168,35.3892672" id="Fill-1" fill="#222222"></path>
                <path d="M40.9835664,38.6567832 C39.9083664,38.6567832 39.0348504,37.7832672 39.0348504,36.7079832 C39.0348504,35.6327832 39.9083664,34.7592672 40.9835664,34.7592672 C42.0588504,34.7592672 42.9323664,35.6327832 42.9323664,36.7079832 C42.9240504,37.7832672 42.0588504,38.6567832 40.9835664,38.6567832 M40.9835664,33.3899832 C39.1523664,33.3899832 37.6655664,34.8767832 37.6655664,36.7079832 C37.6655664,38.5392672 39.1523664,40.0259832 40.9835664,40.0259832 C42.8148504,40.0259832 44.3015664,38.5392672 44.3015664,36.7079832 C44.3015664,34.8767832 42.8148504,33.3899832 40.9835664,33.3899832" id="Fill-3" fill="#222222"></path>
                <polygon id="Fill-5" fill="#222222" points="66.7043832 33.3899664 66.7043832 34.8684504 65.0748672 34.8684504 65.0748672 39.9672504 63.5123832 39.9672504 63.5123832 34.8684504 61.8743832 34.8684504 61.8743832 33.3899664"></polygon>
                <polygon id="Fill-7" fill="#222222" points="52.3320168 33.3899664 52.3320168 36.4812504 54.3984168 33.3899664 55.8684168 33.3899664 53.9280168 36.2795664 56.2632168 39.9755664 54.5664168 39.9755664 52.8948168 37.6572504 52.3320168 38.4719664 52.3320168 39.9839664 50.8200168 39.9839664 50.8200168 33.3984504 52.3320168 33.3984504"></polygon>
                <polygon id="Fill-9" fill="#222222" points="61.2612 34.6416 58.128 34.6416 58.128 35.994 60.5892 35.994 60.5892 37.2372 58.128 37.2372 58.128 38.6736 61.2612 38.6736 61.2612 39.9756 56.5572 39.9756 56.5572 33.39 61.2612 33.39"></polygon>
                <path d="M34.4148336,37.0524168 L33.5243496,37.0524168 L33.5243496,34.6836168 L34.4148336,34.6836168 C35.1120336,34.6836168 35.8595496,34.9524168 35.8595496,35.8679328 C35.8595496,36.7416168 35.1120336,37.0524168 34.4148336,37.0524168 M35.0363496,33.3899328 L33.5243496,33.3899328 L31.9788336,33.3899328 L31.9788336,39.7908168 L31.9788336,39.9672168 L33.5243496,39.9672168 L33.5243496,39.7908168 L33.5243496,38.4132168 L35.0363496,38.4132168 C36.2292336,38.4132168 37.1868336,37.2876168 37.1868336,35.9016168 C37.1868336,34.5156168 36.2208336,33.3899328 35.0363496,33.3899328" id="Fill-11" fill="#222222"></path>
                <path d="M8.2992,38.6567832 C7.224,38.6567832 6.3504,37.7832672 6.3504,36.7079832 C6.3504,35.6327832 7.224,34.7592672 8.2992,34.7592672 C9.3744,34.7592672 10.248,35.6327832 10.248,36.7079832 C10.248,37.7832672 9.3744,38.6567832 8.2992,38.6567832 M8.2992,33.3899832 C6.468,33.3899832 4.9812,34.8767832 4.9812,36.7079832 C4.9812,38.5392672 6.468,40.0259832 8.2992,40.0259832 C10.1304,40.0259832 11.6172,38.5392672 11.6172,36.7079832 C11.6172,34.8767832 10.1304,33.3899832 8.2992,33.3899832" id="Fill-13" fill="#222222"></path>
                <g id="编组" transform="translate(0.000000, 33.390000)">
                    <mask id="mask-2" fill="white">
                        <use xlink:href="#path-1"></use>
                    </mask>
                    <g id="Clip-16"></g>
                    <polygon id="Fill-15" fill="#222222" mask="url(#mask-2)" points="4.8383832 0.0252336 4.8383832 1.5036336 3.2003832 1.5036336 3.2003832 6.6024336 1.6379832 6.6024336 1.6379832 1.5036336 -1.68e-05 1.5036336 -1.68e-05 0.0252336"></polygon>
                </g>
                <polygon id="Fill-17" fill="#222222" points="23.1000168 34.6752336 19.9668168 34.6752336 19.9668168 36.0276336 22.4280168 36.0276336 22.4280168 37.2707496 19.9668168 37.2707496 19.9668168 38.7072336 23.1000168 38.7072336 23.1000168 40.0092336 18.3960168 40.0092336 18.3960168 33.4236336 23.1000168 33.4236336"></polygon>
                <path d="M28.9632,33.4152336 L28.9632,40.0007496 L27.6444,40.0007496 L25.0656,35.5572336 C25.0656,35.6664336 25.074,35.7419496 25.074,35.7756336 C25.0908,35.8847496 25.0908,35.9856336 25.0908,36.0612336 L25.0908,40.0007496 L23.8896,40.0007496 L23.8896,33.4152336 L25.5528,33.4152336 L27.7956,37.2959496 C27.7788,37.1027496 27.7704,36.9599496 27.7704,36.8592336 L27.7704,33.4152336 L28.9632,33.4152336 Z" id="Fill-19" fill="#222222"></path>
                <polygon id="Fill-21" fill="#222222" points="13.6332 33.4152336 13.6416 36.0947496 16.1616 33.4067496 17.5812 33.4067496 15.2292 36.2964336 17.8332 39.9924336 16.2036 39.9924336 14.2464 37.3212336 13.6584 37.8756336 13.6584 40.0007496 12.2052 40.0007496 12.1884 33.4152336"></polygon>
                <path d="M31.6343832,7.9547832 L30.8279832,7.9547832 L30.8279832,2.1839832 L20.1767832,2.1839832 C19.9751832,2.1839832 19.8071832,2.3519832 19.8071832,2.5535832 L19.8071832,10.6847832 C19.8071832,10.8863832 19.9751832,11.0543832 20.1767832,11.0543832 L24.2423832,11.0543832 L24.2423832,25.8383832 C24.2423832,26.0399832 24.4103832,26.2079832 24.6119832,26.2079832 L31.2647832,26.2079832 C31.4663832,26.2079832 31.6343832,26.0399832 31.6343832,25.8383832 L31.6343832,7.9547832 Z" id="Fill-23" fill="#29AEFF"></path>
                <path d="M38.6820168,8.4e-06 L36.1284168,8.4e-06 L29.1060168,8.4e-06 C28.9044168,8.4e-06 28.7364168,0.1680084 28.7364168,0.3696084 L28.7364168,23.6544084 C28.7364168,23.8560084 28.9044168,24.0240084 29.1060168,24.0240084 L35.7588168,24.0240084 C35.9604168,24.0240084 36.1284168,23.8560084 36.1284168,23.6544084 L36.1284168,17.7408084 L38.6820168,17.7408084 C43.5792168,17.7408084 47.5524168,13.7676084 47.5524168,8.8704084 C47.5524168,3.9732084 43.5792168,8.4e-06 38.6820168,8.4e-06" id="Fill-25" fill="#2761E7"></path>
            </g>
        </g>
    </g>
</svg>